<?xml version="1.0" encoding="utf-8"?>
<!-- Generator: Adobe Illustrator 16.0.0, SVG Export Plug-In . SVG Version: 6.00 Build 0)  -->
<!DOCTYPE svg PUBLIC "-//W3C//DTD SVG 1.1//EN" "http://www.w3.org/Graphics/SVG/1.1/DTD/svg11.dtd">
<svg version="1.1" id="Layer_1" xmlns="http://www.w3.org/2000/svg" xmlns:xlink="http://www.w3.org/1999/xlink" x="0px" y="0px"
	 width="110px" height="70px" viewBox="0 0 110 70" enable-background="new 0 0 110 70" xml:space="preserve">
<g id="Background">
</g>
<g>
	<g>
		<path fill="#FFFFFF" d="M33.981,49.449h-1.624c-0.271,0-0.406-0.136-0.406-0.406v-2.641h0.609v2.438h1.42V49.449z"/>
		<path fill="#FFFFFF" d="M36.825,47.622v0.608c0,0.271-0.136,0.406-0.406,0.406H35.2v-0.609h1.015v-0.203h-1.218v1.016h1.419
			l-0.199,0.609h-1.423c-0.271,0-0.406-0.136-0.406-0.406v-1.421c0-0.271,0.135-0.406,0.406-0.406h1.625
			C36.689,47.216,36.825,47.351,36.825,47.622z"/>
		<path fill="#FFFFFF" d="M37.23,49.043v-1.421c0-0.271,0.135-0.406,0.406-0.406h1.625c0.27,0,0.406,0.135,0.406,0.406v1.827h-0.609
			l-0.002-1.625h-1.217v1.016h1.016l-0.203,0.609h-1.013C37.366,49.449,37.23,49.313,37.23,49.043z"/>
		<path fill="#FFFFFF" d="M40.073,49.449v-1.827c0-0.271,0.135-0.406,0.406-0.406h1.216l-0.203,0.608h-0.81v1.625H40.073z"/>
		<path fill="#FFFFFF" d="M41.9,49.449v-1.827c0-0.271,0.135-0.406,0.407-0.406h1.626c0.271,0,0.406,0.135,0.406,0.406v1.827h-0.609
			l-0.001-1.625h-1.218v1.625H41.9z"/>
		<path fill="#FFFFFF" d="M45.352,46.402l-0.203,0.61h-0.406v-0.61H45.352z M45.352,49.449v-2.233h-0.609v2.233H45.352z"/>
		<path fill="#FFFFFF" d="M45.758,49.449v-1.827c0-0.271,0.135-0.406,0.406-0.406h1.626c0.271,0,0.406,0.135,0.406,0.406v1.827
			h-0.609l-0.002-1.625h-1.218v1.625H45.758z"/>
		<path fill="#FFFFFF" d="M51.037,47.622v2.233c0,0.271-0.136,0.405-0.407,0.405h-1.218l0.203-0.608h0.813v-1.828h-1.218v1.016
			h1.015l-0.203,0.609h-1.015c-0.271,0-0.406-0.136-0.406-0.406v-1.421c0-0.271,0.136-0.406,0.406-0.406h1.624
			C50.901,47.216,51.037,47.351,51.037,47.622z"/>
	</g>
	<rect x="25.5" y="44.5" fill="#FFFFFF" width="26" height="1"/>
	<g>
		<path fill-rule="evenodd" clip-rule="evenodd" fill="#FFFFFF" d="M28.608,48.269c0,0-0.001-0.001-0.001-0.002
			s-0.001-0.001-0.001-0.002c0-0.001,0-0.003-0.001-0.004c0.001,0.002,0.001,0.004,0.001,0.005
			C28.607,48.267,28.607,48.268,28.608,48.269c0,0,0,0.002,0.001,0.003c0,0,0,0.001,0.001,0.002s0.001,0.003,0.002,0.004
			C28.611,48.274,28.609,48.271,28.608,48.269z M29.305,48.588L29.305,48.588c0-0.002-0.001-0.003-0.002-0.005
			c0,0.001,0,0.001,0,0.003c-0.001,0-0.001,0-0.001,0s0,0,0,0.001l0,0v0.004c0,0,0,0,0.001,0l0,0c0,0,0,0.001,0.001,0.001
			c0,0,0.001,0.001,0.001,0.001l0,0.001l0,0C29.305,48.592,29.305,48.591,29.305,48.588z M29.303,48.576L29.303,48.576
			L29.303,48.576L29.303,48.576L29.303,48.576L29.303,48.576C29.303,48.575,29.303,48.575,29.303,48.576L29.303,48.576
			L29.303,48.576C29.302,48.576,29.302,48.576,29.303,48.576l-0.001,0.002l0,0c0.001,0.001,0.001,0.003,0.001,0.004c0,0,0,0,0,0.001
			c0-0.001,0-0.001,0-0.001l0,0l0,0l0,0c0-0.001,0-0.001,0-0.003l0,0l0,0c0.001,0,0.001,0,0.001-0.001
			C29.303,48.578,29.303,48.576,29.303,48.576z M30.127,47.73c-0.083-0.025-0.165-0.052-0.248-0.08l0,0
			c-0.001,0-0.001,0-0.001-0.001c-0.001,0-0.001,0-0.001,0c0.001,0.003,0.001,0.005,0.002,0.007
			c-0.122-0.031-0.245-0.069-0.379-0.098c0.052,0.121,0.107,0.233,0.161,0.343c0.017,0.034,0.022,0.064,0.017,0.096
			c-0.001,0.003-0.001,0.005-0.002,0.008c0,0.003-0.001,0.005-0.002,0.008c-0.001,0.002-0.001,0.006-0.002,0.007
			c0,0.003-0.001,0.004-0.002,0.006c0,0.003-0.002,0.005-0.003,0.008c-0.001,0.001-0.001,0.002-0.002,0.004
			c-0.001,0.002-0.002,0.005-0.003,0.007c-0.002,0.002-0.003,0.005-0.005,0.008c0,0.001,0,0.001,0,0.001
			c-0.002,0.003-0.004,0.006-0.006,0.009c-0.012,0.018-0.023,0.035-0.035,0.052c-0.008,0.013-0.017,0.025-0.025,0.038
			s-0.017,0.025-0.024,0.038c-0.014,0.022-0.028,0.044-0.042,0.066c-0.009,0.013-0.018,0.027-0.025,0.041
			c-0.06,0.097-0.121,0.196-0.187,0.303h-0.001c0-0.001,0-0.001,0-0.001v-0.001c0.001,0,0.001,0,0.001,0
			c-0.001-0.001,0-0.001,0-0.001s0.001,0,0.001-0.001v-0.003h-0.005h0c0,0-0.005,0-0.005,0.001l0,0h0.002l0-0.001h0.001l0,0
			c0,0.001-0.001,0.001-0.001,0.001c0,0.001-0.002,0.002-0.002,0.003l0,0c0,0.001,0.005,0.006,0.005,0.006h0L29.303,48.6
			l-0.591-0.204c-0.006-0.01-0.014-0.021-0.022-0.029c-0.001-0.002-0.004-0.006-0.006-0.007c0-0.001-0.001-0.002-0.001-0.003
			c-0.002-0.001-0.003-0.003-0.005-0.005c-0.011-0.012-0.023-0.023-0.035-0.037c-0.004-0.004-0.008-0.009-0.013-0.014
			c-0.002-0.004-0.005-0.008-0.008-0.011c-0.003-0.005-0.005-0.009-0.008-0.013c0,0.003,0.002,0.004,0.003,0.007
			c0.001,0.002,0.002,0.004,0.004,0.006c0,0.002,0.002,0.004,0.004,0.006c0,0,0.001,0,0.001,0.001
			c0.001,0.003,0.004,0.006,0.007,0.009c0.014,0.018,0.032,0.034,0.047,0.051c0.002,0.003,0.004,0.005,0.007,0.008
			c0,0,0,0.001,0.001,0.001c0,0.001,0,0.001,0,0.002c0.001,0.001,0.003,0.002,0.004,0.004c0.001,0.001,0.003,0.004,0.005,0.006
			c0,0.001,0,0.001,0.001,0.001c0.001,0.002,0.003,0.004,0.005,0.008c0.002,0.003,0.005,0.007,0.007,0.01l0,0.001
			c0,0.001,0,0.001,0,0.002l0,0c0,0,0.003,0.002,0.004,0.004c0,0.002,0.002,0.002,0.003,0.005c0.004,0.009,0.008,0.017,0.01,0.027
			c0,0.002,0.001,0.004,0.001,0.006c-0.171-0.011-0.323-0.085-0.483-0.128c-0.299-0.081-0.223-0.112-0.457,0.08
			c-0.142,0.117-0.269,0.249-0.43,0.346c-0.02,0.021-0.039,0.042-0.058,0.063c-0.11,0.058-0.19,0.149-0.289,0.221
			c-0.047,0.033-0.037,0.06,0.022,0.078c0.103,0.033,0.206,0.069,0.309,0.105c0.035,0.012,0.068,0.023,0.103,0.035
			c0.015,0,0.03,0.002,0.045,0.004c0.007,0,0.014,0.002,0.021,0.003c0.007,0,0.015,0.001,0.022,0.003
			c0.003,0.001,0.007,0.001,0.011,0.002c0.005,0.002,0.01,0.003,0.016,0.004c0.003,0.001,0.006,0.002,0.009,0.003
			c0.018,0.004,0.034,0.009,0.051,0.014c0.006,0.002,0.013,0.004,0.019,0.006c0.014,0.005,0.028,0.009,0.042,0.014
			s0.027,0.009,0.042,0.014c0.014,0.005,0.027,0.01,0.041,0.014c0.007,0.003,0.014,0.004,0.021,0.006
			c0.149,0.044,0.302,0.074,0.446,0.131c0.196,0.059,0.394,0.115,0.591,0.175c0.146,0.046,0.293,0.06,0.44,0.007l0.351-0.331
			l0.001-0.001c0.252-0.278,0.502-0.56,0.752-0.839C30.61,48.195,30.495,47.843,30.127,47.73z M28.745,48.457
			c-0.004-0.006-0.01-0.011-0.015-0.017c0.008-0.002,0.018-0.004,0.026-0.006C28.753,48.441,28.749,48.449,28.745,48.457z
			 M29.309,48.603L29.309,48.603C29.309,48.603,29.309,48.603,29.309,48.603S29.309,48.603,29.309,48.603z M29.302,48.588
			c0.001,0.002,0.001,0.003,0.001,0.003l0,0c0,0,0,0.001,0.001,0.001c0,0,0.001,0.001,0.001,0.001l0,0.001l0,0
			c0-0.002-0.001-0.003-0.001-0.006l0,0c0-0.002-0.001-0.003-0.002-0.005c0,0.001,0,0.001,0,0.003c-0.001,0-0.001,0-0.001,0
			S29.302,48.586,29.302,48.588L29.302,48.588L29.302,48.588z M28.597,48.232L28.597,48.232c0.001,0.003,0.001,0.005,0.001,0.008
			C28.598,48.237,28.598,48.235,28.597,48.232z M29.301,48.575L29.301,48.575L29.301,48.575L29.301,48.575L29.301,48.575
			L29.301,48.575L29.301,48.575L29.301,48.575z"/>
		<path fill-rule="evenodd" clip-rule="evenodd" fill="#FFFFFF" d="M29.506,49.539c0.067,0.191,0.087,0.382-0.091,0.542
			c-0.132,0.121-0.29,0.163-0.474,0.124c-0.052,0.006-0.1-0.003-0.148-0.02c-0.012-0.004-0.024-0.008-0.037-0.012
			c-0.166,0.008-0.325-0.037-0.487-0.057c-0.195-0.025-0.389-0.058-0.583-0.088c-0.027-0.005-0.054-0.016-0.08-0.023
			c0.023-0.02,0.046-0.04,0.069-0.062c0.058-0.05,0.114-0.101,0.172-0.153c0.012-0.01,0.023-0.021,0.035-0.031
			c0.122-0.095,0.259-0.177,0.35-0.303c0.196,0.059,0.394,0.115,0.591,0.175c0.146,0.046,0.293,0.06,0.44,0.007l0.351-0.331
			c-0.024,0.027-0.047,0.054-0.071,0.079C29.499,49.435,29.483,49.474,29.506,49.539z"/>
		<path fill-rule="evenodd" clip-rule="evenodd" fill="#FFFFFF" d="M28.728,48.436c0-0.001,0-0.004-0.001-0.006
			c0-0.003-0.001-0.006-0.003-0.009c0-0.001,0-0.001,0-0.001c-0.002-0.006-0.005-0.012-0.008-0.016c0-0.002-0.002-0.004-0.003-0.006
			c0,0-0.001,0-0.001-0.001h0l0,0c0,0,0,0,0,0c0-0.001,0-0.001,0-0.002l-0.616-0.214l-0.303-0.739l-0.159-0.385
			c-0.13,0.107-0.26,0.214-0.391,0.319c-0.194,0.157-0.377,0.325-0.583,0.469c-0.151,0.12-0.301,0.24-0.452,0.36
			c-0.076,0.061-0.135,0.132-0.184,0.21c-0.003,0.004-0.009,0.01-0.009,0.015l0,0v0.001l0,0c-0.007,0.021-0.012,0.043-0.015,0.064
			c0,0.001,0,0.002,0,0.003c-0.007,0.048-0.005,0.093,0.001,0.139c0.001,0.009,0.002,0.017,0.004,0.026
			c0.001,0.006,0.003,0.014,0.003,0.02c0.002,0.009,0.004,0.017,0.006,0.024c0.007,0.029,0.014,0.06,0.022,0.089l0,0l0,0
			c0.041,0.023,0.048,0.062,0.063,0.097c0.156,0.365,0.31,0.729,0.469,1.093c0.142,0.323,0.525,0.408,0.822,0.186
			c0.073-0.055,0.133-0.124,0.218-0.166c0.023-0.02,0.046-0.041,0.069-0.062c0.058-0.05,0.114-0.102,0.172-0.153
			c0.011-0.01,0.022-0.021,0.034-0.03c0,0,0-0.001,0-0.001l0,0h0c0,0,0,0-0.001,0.001c0,0,0.001,0,0.001-0.001
			c0.122-0.095,0.259-0.177,0.35-0.303c-0.145-0.057-0.297-0.087-0.446-0.131c-0.006-0.002-0.014-0.003-0.021-0.006
			c-0.014-0.004-0.027-0.009-0.041-0.014c-0.015-0.005-0.028-0.009-0.042-0.014s-0.027-0.009-0.042-0.014
			c-0.006-0.002-0.012-0.004-0.019-0.006c-0.017-0.005-0.033-0.01-0.051-0.014c-0.003-0.001-0.006-0.002-0.009-0.003
			c-0.005-0.001-0.011-0.002-0.016-0.004c-0.004-0.001-0.008-0.001-0.011-0.002c-0.008-0.002-0.015-0.003-0.022-0.003
			c-0.007-0.001-0.015-0.003-0.021-0.003c-0.015-0.002-0.03-0.004-0.045-0.004c-0.035-0.012-0.068-0.023-0.103-0.035
			c-0.103-0.036-0.206-0.072-0.309-0.105c-0.06-0.019-0.069-0.045-0.022-0.078c0.098-0.071,0.178-0.163,0.289-0.221
			c0.019-0.021,0.039-0.042,0.058-0.063c0.161-0.097,0.288-0.229,0.43-0.346c0.234-0.192,0.158-0.159,0.457-0.079
			c0.16,0.044,0.312,0.111,0.483,0.131l0,0C28.729,48.435,28.728,48.438,28.728,48.436z M27.775,49.767c0.001,0,0.004,0,0.007,0
			c0,0,0,0,0,0l0,0c0.001,0,0.002,0,0.004,0c0.009,0.002,0.018,0.003,0.028,0.002c0.001,0,0.002,0.001,0.003,0.001l0,0
			c0.002,0,0.005-0.001,0.007-0.001c0.004-0.001,0.008-0.001,0.012-0.002c0.001,0,0.002,0,0.003,0c0.001,0,0.001,0,0.001,0
			c0.002,0,0.003,0,0.004-0.001c0,0.001,0,0.001,0,0c0.002,0,0.004,0,0.006,0c0.005-0.001,0.011-0.002,0.016-0.003
			c0.001,0,0.002,0,0.002,0c0.001,0,0.001,0,0.003-0.001c-0.002,0.001-0.003,0.001-0.005,0.001
			c-0.005,0.001-0.011,0.004-0.016,0.004c-0.002,0-0.004,0.003-0.006,0.003l0,0c-0.001,0-0.002-0.002-0.004-0.002
			c-0.02,0.003-0.039,0.003-0.056,0.001c-0.002-0.001-0.003-0.001-0.004-0.002c0,0.001,0,0,0,0c0,0,0,0,0,0
			C27.78,49.767,27.777,49.767,27.775,49.767c0,0-0.002-0.001-0.003-0.001C27.773,49.766,27.775,49.766,27.775,49.767z"/>
		<path fill-rule="evenodd" clip-rule="evenodd" fill="#FFFFFF" d="M29.493,47.568L29.493,47.568c0.002,0,0.012-0.005,0.013-0.004
			l0.008-0.006l0,0c0-0.003-0.011-0.006-0.013-0.008c0.137,0.036,0.256,0.071,0.379,0.099c-0.069-0.218-0.179-0.423-0.268-0.635
			c-0.012-0.021-0.03-0.042-0.039-0.065c-0.079-0.223-0.151-0.446-0.318-0.635c-0.104-0.116-0.372-0.17-0.519-0.102
			c-0.13,0.059-0.223,0.154-0.333,0.233c0.017,0.02,0.041,0.024,0.065,0.027c0.214,0.021,0.306,0.157,0.359,0.318
			c0.044,0.132,0.061,0.27,0.103,0.4c0.003,0.01,0.006,0.021,0.009,0.032c0.001,0.006,0.002,0.01,0.003,0.016l0.066,0.228
			c0.001,0.002,0.016,0.032,0.016,0.032l0,0l0,0l0,0h-0.305H28.5v-0.089l0.496,0.089h0.003l-0.249-0.025l-0.25-0.057v0.017v0.007
			v0.007v-0.062V47.5h0.516c0,0-0.006,0-0.005,0l-0.004-0.024c0.001,0.002,0-0.009,0.002-0.007c0.004,0.008,0.009,0.009,0.015,0.016
			c-0.004-0.027-0.009-0.057-0.013-0.083c-0.005-0.031-0.01-0.063-0.016-0.093c-0.003-0.016-0.006-0.031-0.008-0.047
			c-0.003-0.013-0.005-0.026-0.008-0.039c-0.001-0.006-0.002-0.014-0.003-0.021c0.001,0.007,0.002,0.014,0.004,0.021
			c0.002,0.014,0.004,0.025,0.007,0.038c0.002,0.017,0.005,0.03,0.008,0.046c0.006,0.03,0.011,0.571,0.016,0.602
			c0.004,0.027,0.009,0.592,0.014,0.592h0.001L28.5,47.478c0,0.001,0-0.003,0-0.003l0.53,1.025H28.5v-1.021
			c0,0.001,0.223,0.021,0.223,0.021c0.001,0-0.154,0-0.154,0c0.001,0-0.069-0.015-0.069-0.015v0.067v0.321l0,0v-0.39
			c0,0.313,0.421,0.625,0.501,0.951l-0.266,0.002L28.5,48.561v-0.027l0.636,0.967h0.083c0.001,0,0.044-0.459,0.044-0.459
			l0.008,0.218c0,0.003-0.003,0.241-0.003,0.241l0,0c0,0,0.02,0,0.021,0c0,0,0.01-0.45,0.01-0.45c0,0.001,0.006-0.226,0.006-0.225
			c0.066-0.105,0.129-0.319,0.189-0.415c0.009-0.014,0.018-0.084,0.027-0.098c0.014-0.021,0.029-0.072,0.043-0.095
			c0.016-0.025,0.032-0.064,0.049-0.091c0.012-0.017-0.054-0.042-0.043-0.06c0.002-0.003-0.071-0.01-0.071-0.013
			c0,0,0-0.001,0-0.002c0-0.003,0.081-0.006,0.083-0.008c0.001-0.002,0.041-0.006,0.042-0.008c0-0.002,0.02-0.003,0.021-0.004
			c0.001-0.003,0.012-0.005,0.013-0.008c0-0.002,0.006-0.003,0.007-0.006c0.001-0.001,0.004-0.005,0.004-0.007
			c0.001-0.003,0.003-0.005,0.004-0.008c0-0.003,0.001-0.005,0.002-0.008c0.005-0.03-0.001-0.055-0.018-0.088
			C29.604,47.798,29.552,47.663,29.493,47.568z M28.928,46.992c-0.012-0.05-0.027-0.1-0.043-0.148
			c0.002,0.006,0.008,0.013,0.01,0.02c0.001,0.004,0.007,0.007,0.007,0.011l0,0c0,0.005,0,0.012,0.002,0.018
			c0,0.005,0,0.011,0.002,0.017c0.003,0.009,0.005,0.019,0.008,0.029c0.002,0.01,0.004,0.02,0.008,0.03
			C28.924,46.976,28.926,46.984,28.928,46.992c0.002,0.004,0.002,0.009,0.003,0.012c0.001,0.008,0.003,0.014,0.005,0.021
			C28.934,47.014,28.931,47.003,28.928,46.992z"/>
		<path fill-rule="evenodd" clip-rule="evenodd" fill="#FFFFFF" d="M26.659,47.846c-0.151,0.12-0.301,0.24-0.452,0.36
			c-0.076,0.061-0.135,0.419-0.184,0.497c-0.003,0.005-0.004,0.301-0.007,0.301h-0.017l0,0h0.058c-0.007,0-0.034-0.243-0.037-0.222
			c0,0.001-0.011-0.141-0.011-0.14c-0.007,0.047-0.01,0.021-0.003,0.067c0.001,0.008,0-0.02,0.001-0.011
			c0,0.008,0-0.004,0.002,0.003c0.001,0.007,0.003,0.007,0.004,0.015c0.006,0.029,0.014,0.055,0.022,0.084
			c-0.183-0.037-0.365-0.076-0.482-0.229c-0.125-0.164-0.121-0.377,0.016-0.533c0.14-0.159,0.284-0.314,0.426-0.473
			c0.001,0.015,0.001,0.029,0,0.044c0.002-0.015,0.002-0.029,0-0.044c0.146-0.174,0.294-0.348,0.464-0.504
			c0.072,0.226,0.129,0.454,0.179,0.684C26.646,47.78,26.652,47.813,26.659,47.846z"/>
		<path fill-rule="evenodd" clip-rule="evenodd" fill="#FFFFFF" d="M27.234,45.825c-0.049-0.175,0.007-0.318,0.169-0.426
			c0.146-0.098,0.324-0.098,0.493-0.005c0.059,0.142,0.049,0.273-0.062,0.394C27.662,45.975,27.335,45.998,27.234,45.825z"/>
		<path fill-rule="evenodd" clip-rule="evenodd" fill="#FFFFFF" d="M27.915,50.933c-0.078-0.175-0.05-0.337,0.078-0.448
			c0.146-0.126,0.323-0.151,0.505-0.074c0.023,0.059,0.049,0.117,0.056,0.182c0.017,0.147-0.082,0.299-0.262,0.375
			C28.163,51.022,28.029,51.04,27.915,50.933z"/>
		<path fill-rule="evenodd" clip-rule="evenodd" fill="#FFFFFF" d="M27.234,45.825c0.101,0.173,0.428,0.149,0.6-0.037
			c0.111-0.12,0.121-0.252,0.062-0.394c0.157,0.084,0.233,0.265,0.184,0.428c-0.054,0.176-0.243,0.299-0.442,0.293
			C27.46,46.111,27.255,45.983,27.234,45.825z"/>
		<path fill-rule="evenodd" clip-rule="evenodd" fill="#FFFFFF" d="M27.915,50.933c0.114,0.107,0.248,0.09,0.377,0.034
			c0.18-0.076,0.278-0.228,0.262-0.375c-0.007-0.064-0.032-0.123-0.056-0.182c0.15,0.058,0.252,0.206,0.249,0.356
			c-0.005,0.163-0.122,0.309-0.292,0.365c-0.163,0.054-0.355,0.015-0.467-0.097C27.958,51.006,27.922,50.977,27.915,50.933z"/>
		<path fill-rule="evenodd" clip-rule="evenodd" fill="#FFFFFF" d="M28.75,48.501H28.71l-0.615-0.213l0.616,0.213H28.75
			L28.75,48.501z M28.931,47.192l0.009,0.032C28.938,47.213,28.934,47.202,28.931,47.192z M28.998,47.441
			c-0.036-0.062-0.04-0.133-0.054-0.201l-0.004-0.016c0.017,0.075,0.018,0.154,0.059,0.223L28.998,47.441z M29.001,47.447
			C29.001,47.448,29.001,47.448,29.001,47.447L29.001,47.447L29.001,47.447C29.001,47.448,29.001,47.448,29.001,47.447z
			 M29.006,47.465L29.006,47.465L29.006,47.465l0.001,0.003l0,0L29.006,47.465z M29.006,47.463v-0.002l-0.001-0.003l-0.001-0.005
			L29.006,47.463L29.006,47.463L29.006,47.463z M29.022,47.519l-0.001-0.004l-0.001-0.002l0-0.002V47.51l-0.004-0.014l-0.001-0.001
			l-0.001-0.005l-0.001-0.003l0,0v-0.001l0,0l0.008,0.032H29.022L29.022,47.519L29.022,47.519L29.022,47.519L29.022,47.519
			L29.022,47.519L29.022,47.519L29.022,47.519L29.022,47.519L29.022,47.519z M29.021,47.523
			C29.021,47.524,29.021,47.524,29.021,47.523L29.021,47.523L29.021,47.523L29.021,47.523L29.021,47.523L29.021,47.523z
			 M29.003,47.452L29.003,47.452L29.003,47.452L29.003,47.452z M29.021,47.521L29.021,47.521L29.021,47.521L29.021,47.521
			C29.021,47.521,29.021,47.521,29.021,47.521L29.021,47.521L29.021,47.521L29.021,47.521L29.021,47.521L29.021,47.521
			L29.021,47.521L29.021,47.521L29.021,47.521L29.021,47.521z M29.021,47.536C29.021,47.536,29.021,47.536,29.021,47.536
			l-0.001,0.001l0,0h0l0,0l0,0l0,0v0.001l0,0l0,0l0,0l0,0l0,0l0,0c0,0,0,0,0,0s0,0,0,0h0l0,0l0,0
			C29.021,47.538,29.021,47.537,29.021,47.536C29.021,47.537,29.021,47.537,29.021,47.536
			C29.021,47.536,29.021,47.536,29.021,47.536L29.021,47.536z M29.021,47.535L29.021,47.535L29.021,47.535L29.021,47.535
			L29.021,47.535z M29.021,47.523L29.021,47.523L29.021,47.523L29.021,47.523L29.021,47.523z M29.021,47.522L29.021,47.522
			C29.021,47.522,29.021,47.522,29.021,47.522L29.021,47.522L29.021,47.522L29.021,47.522L29.021,47.522L29.021,47.522
			L29.021,47.522z M29.021,47.523L29.021,47.523L29.021,47.523L29.021,47.523L29.021,47.523L29.021,47.523L29.021,47.523
			L29.021,47.523z M29.027,47.521L29.027,47.521l0.077,0.289L29.027,47.521z M29.122,47.895l0.081,0.308l0.057,0.214L29.122,47.895z
			 M29.021,47.531L29.021,47.531C29.021,47.53,29.021,47.53,29.021,47.531c0-0.002,0-0.002,0-0.002V47.531v-0.002
			C29.021,47.53,29.021,47.531,29.021,47.531C29.021,47.532,29.021,47.532,29.021,47.531l-0.001,0.001l0,0c0,0,0,0,0,0.001l0,0
			c0,0,0,0.001,0,0.001s0,0,0,0s0,0,0,0.001l0,0v-0.001v-0.001V47.531L29.021,47.531L29.021,47.531L29.021,47.531L29.021,47.531
			L29.021,47.531L29.021,47.531z M29.021,47.521V47.52l0,0V47.521L29.021,47.521L29.021,47.521z M29.203,48.203l-0.136-0.508
			l-0.045-0.167l0.042,0.155l0.196,0.735L29.203,48.203z M29.279,48.562L29.279,48.562l0.009-0.001l0.005-0.001l0.004-0.002l0,0
			v0.002h0h0l-0.001-0.002l-0.002-0.009l0,0l-0.042-0.13l0.027,0.136l0,0l0.014,0.01l0.008-0.007h0.002L29.279,48.562z
			 M29.301,48.575L29.301,48.575L29.301,48.575L29.301,48.575L29.301,48.575L29.301,48.575L29.301,48.575L29.301,48.575
			L29.301,48.575L29.301,48.575C29.302,48.575,29.302,48.575,29.301,48.575L29.301,48.575L29.301,48.575z M29.021,47.533
			L29.021,47.533L29.021,47.533L29.021,47.533c0,0.002,0,0.002,0,0.002V47.533L29.021,47.533
			C29.021,47.534,29.021,47.534,29.021,47.533z M29.021,47.535C29.021,47.536,29.021,47.536,29.021,47.535c0,0.002,0,0.002,0,0.003
			l0,0l0,0l0,0l0,0c0,0.002,0,0.003,0,0.004c0,0.001,0,0.002,0,0.004l0,0l0,0v-0.001c0-0.001,0-0.002,0-0.002v-0.001
			c0-0.001,0-0.001,0-0.001V47.54c0,0,0-0.001,0-0.002l0,0l0,0l0,0C29.021,47.537,29.021,47.536,29.021,47.535L29.021,47.535z"/>
		<path fill-rule="evenodd" clip-rule="evenodd" fill="#FFFFFF" d="M29.02,47.52L29.02,47.52L29.02,47.52L29.02,47.52z
			 M29.02,47.521c0,0,0,0.001,0,0.002v0.001l0.001-0.001l0,0l0,0L29.02,47.521z M29.021,47.529L29.021,47.529L29.021,47.529
			L29.021,47.529L29.021,47.529L29.021,47.529L29.021,47.529L29.021,47.529L29.021,47.529L29.021,47.529L29.021,47.529z
			 M29.021,47.528L29.021,47.528L29.021,47.528L29.021,47.528L29.021,47.528z M29.021,47.524c0,0.002-0.001,0.005-0.001,0.008
			c0,0.001,0,0.002,0,0.003s0,0.001,0,0.002l0,0v-0.001v-0.001l0,0l0,0c0-0.001,0-0.001,0-0.002c0-0.001,0-0.004,0-0.006l0,0
			C29.021,47.526,29.021,47.525,29.021,47.524L29.021,47.524L29.021,47.524L29.021,47.524z M29.021,47.519L29.021,47.519
			L29.021,47.519L29.021,47.519z M29.02,47.513l0.001,0.006l0-0.004L29.02,47.513z M29.018,47.507l0.002,0.006l0-0.003
			L29.018,47.507z M29.021,47.52L29.021,47.52L29.021,47.52L29.021,47.52L29.021,47.52z M29.021,47.521L29.021,47.521L29.021,47.521
			L29.021,47.521L29.021,47.521z M29.021,47.521L29.021,47.521L29.021,47.521L29.021,47.521L29.021,47.521L29.021,47.521
			L29.021,47.521L29.021,47.521L29.021,47.521C29.021,47.521,29.021,47.521,29.021,47.521L29.021,47.521L29.021,47.521
			L29.021,47.521L29.021,47.521L29.021,47.521L29.021,47.521L29.021,47.521L29.021,47.521L29.021,47.521L29.021,47.521
			L29.021,47.521L29.021,47.521L29.021,47.521L29.021,47.521v0.002l0,0V47.521L29.021,47.521v0.002v0.001l0,0l0,0l0,0l0,0l0,0l0,0
			V47.521L29.021,47.521L29.021,47.521z M29.021,47.52L29.021,47.52L29.021,47.52L29.021,47.52
			C29.021,47.52,29.021,47.52,29.021,47.52L29.021,47.52L29.021,47.52L29.021,47.52L29.021,47.52L29.021,47.52L29.021,47.52
			C29.021,47.521,29.021,47.521,29.021,47.52z M29.021,47.521L29.021,47.521L29.021,47.521L29.021,47.521L29.021,47.521z
			 M29.021,47.521L29.021,47.521L29.021,47.521L29.021,47.521z M29.006,47.463l-0.001-0.005l-0.001-0.006l0,0l-0.001-0.002v-0.001h0
			l-0.001-0.001l0,0l0,0c0,0,0,0,0-0.001v0.001l0,0v0.001l0,0v0.001c0,0,0.001,0,0.001,0l0,0v0.001l0,0.001l0.003,0.009V47.463
			l0.001,0.003L29.006,47.463z M29.021,47.545L29.021,47.545C29.021,47.546,29.021,47.546,29.021,47.545L29.021,47.545
			L29.021,47.545z M29.021,47.528L29.021,47.528L29.021,47.528L29.021,47.528L29.021,47.528z M29.021,47.533L29.021,47.533
			L29.021,47.533c0,0.002,0,0.002,0,0.002l0,0l0,0v0.001v0.001c0,0.001,0,0.001,0,0.001l0,0c0,0.002,0,0.003,0,0.004
			c0-0.001,0-0.002,0-0.004l0,0l0,0c0-0.001,0-0.002,0-0.003l0,0l0,0V47.533L29.021,47.533L29.021,47.533L29.021,47.533z
			 M29.021,47.529L29.021,47.529L29.021,47.529L29.021,47.529L29.021,47.529L29.021,47.529L29.021,47.529c0,0.002,0,0.002,0,0.002
			v0.001c0-0.001,0-0.001,0-0.001C29.021,47.53,29.021,47.53,29.021,47.529L29.021,47.529L29.021,47.529L29.021,47.529z"/>
		<path fill-rule="evenodd" clip-rule="evenodd" fill="#FFFFFF" d="M29.002,47.451L29.002,47.451L29.002,47.451
			c0-0.001-0.001-0.001-0.001-0.001l0,0C29.001,47.45,29.002,47.45,29.002,47.451L29.002,47.451
			C29.002,47.451,29.002,47.451,29.002,47.451L29.002,47.451z M29.02,47.535L29.02,47.535L29.02,47.535v0.002l0,0
			c0,0.001,0,0.001,0,0.001s0,0,0-0.001C29.02,47.537,29.02,47.536,29.02,47.535L29.02,47.535L29.02,47.535L29.02,47.535z
			 M29.021,47.521L29.021,47.521L29.021,47.521L29.021,47.521z M29.021,47.521L29.021,47.521L29.021,47.521L29.021,47.521z
			 M29.021,47.521L29.021,47.521C29.021,47.522,29.021,47.521,29.021,47.521L29.021,47.521z M29.021,47.521L29.021,47.521
			L29.021,47.521L29.021,47.521z M29.021,47.521L29.021,47.521L29.021,47.521L29.021,47.521z M29.021,47.524L29.021,47.524
			L29.021,47.524L29.021,47.524L29.021,47.524L29.021,47.524L29.021,47.524C29.021,47.523,29.021,47.524,29.021,47.524
			L29.021,47.524L29.021,47.524L29.021,47.524L29.021,47.524c-0.001,0.002-0.002,0.005-0.002,0.008c0,0.001,0,0.002,0,0.003
			c0,0,0,0,0-0.001v-0.001c0-0.001,0-0.001,0-0.002l0,0c0-0.001,0-0.002,0-0.002s0-0.001,0-0.003c0,0,0,0,0,0.001l0,0
			c0,0.001,0,0.001,0,0.001v0.001l0,0l0,0l0,0v-0.001C29.021,47.527,29.021,47.525,29.021,47.524L29.021,47.524L29.021,47.524
			L29.021,47.524L29.021,47.524L29.021,47.524z M29.021,47.522L29.021,47.522L29.021,47.522L29.021,47.522L29.021,47.522
			L29.021,47.522L29.021,47.522L29.021,47.522L29.021,47.522L29.021,47.522L29.021,47.522L29.021,47.522L29.021,47.522
			L29.021,47.522L29.021,47.522z M29.021,47.52L29.021,47.52L29.021,47.52L29.021,47.52z M29.018,47.507l-0.002-0.011l-0.003-0.006
			l-0.001-0.005l0,0l-0.005-0.02v-0.003l0.014,0.057l0.001,0.001h0.002l0,0l0,0v-0.002l0,0l0,0h-0.002l0-0.004L29.018,47.507z"/>
		<path fill-rule="evenodd" clip-rule="evenodd" fill="#FFFFFF" d="M29.027,47.529L29.027,47.529l0.279,1.046L29.027,47.529z
			 M29.021,47.532C29.021,47.531,29.021,47.531,29.021,47.532V47.53c0-0.001,0-0.001,0-0.001v0.001
			C29.021,47.531,29.021,47.531,29.021,47.532c-0.001,0.002-0.001,0.004-0.002,0.006c0,0,0,0,0,0s0.001,0,0.001-0.001
			c0,0.001,0,0.004,0,0.005s0,0.002,0,0.004c0-0.001,0-0.001,0-0.001v0.001c0,0.001,0,0.001,0,0.003c0-0.002,0-0.003,0-0.004
			c0-0.001,0-0.002,0-0.002v-0.001c0-0.002,0-0.004,0-0.006c0-0.001,0-0.001,0-0.002l0,0V47.532L29.021,47.532L29.021,47.532
			L29.021,47.532c0,0,0-0.001,0-0.003C29.021,47.53,29.021,47.531,29.021,47.532L29.021,47.532z M29.021,47.535L29.021,47.535
			L29.021,47.535L29.021,47.535L29.021,47.535z M29.021,47.521L29.021,47.521L29.021,47.521L29.021,47.521z M29.021,47.521
			L29.021,47.521L29.021,47.521L29.021,47.521z M29.021,47.521L29.021,47.521L29.021,47.521L29.021,47.521l0,0.002l0,0l0,0l0,0
			c0,0,0,0.001,0,0.001l0,0l0,0l0,0h0c0,0.002-0.001,0.005-0.001,0.008c0,0,0,0,0-0.001l0,0c0-0.001,0-0.002,0-0.002
			s0-0.001,0-0.003c0,0,0,0,0,0.001l0,0c0,0.001,0,0.001,0,0.001v0.001l0,0l0,0l0,0v-0.001c0-0.001,0-0.003,0-0.004l0,0l0,0l0,0l0,0
			l0,0l0,0l0,0l0,0v-0.001l0,0l0,0l0,0l0,0L29.021,47.521L29.021,47.521L29.021,47.521L29.021,47.521L29.021,47.521
			C29.021,47.521,29.021,47.521,29.021,47.521z M29.021,47.521L29.021,47.521L29.021,47.521L29.021,47.521L29.021,47.521z
			 M29.021,47.521L29.021,47.521L29.021,47.521L29.021,47.521z M29.021,47.521L29.021,47.521l0.002,0.001v-0.001V47.52l0,0v0.001
			H29.021L29.021,47.521L29.021,47.521L29.021,47.521l-0.014-0.055l-0.001-0.003v-0.002v0.002L29.021,47.521L29.021,47.521z
			 M29.02,47.537C29.02,47.538,29.02,47.538,29.02,47.537c0,0,0-0.001,0-0.002C29.02,47.536,29.02,47.537,29.02,47.537z"/>
		<path fill-rule="evenodd" clip-rule="evenodd" fill="#FFFFFF" d="M29.021,47.538L29.021,47.538L29.021,47.538L29.021,47.538
			L29.021,47.538L29.021,47.538z M28.5,48.594l0.396,0.454l0.389,0.452H29.5v-0.912l0,0l-0.082,0.247l0,0L29.262,49.5h0.009
			c0,0,0.015,0.004,0.015,0.002C29.285,49.5,29.293,49.5,29.292,49.5h0.004h0.004h0.002l-0.024-0.468l0.134-0.235l0.087-0.359
			v-0.002v0.568l0,0v-0.608l-0.432-0.002L28.5,47.895v-0.002l0.289-0.081l0.124-0.116l0.074-0.012l0.005-0.122l0.025-0.035
			l0.025-0.026h0.002l-0.27,0.023L28.5,47.702V48.5l0,0h0.536l0,0h-0.004l0,0h-0.003l-0.189-0.207l0,0L28.5,47.701v-0.088
			l0.233-0.055c0,0,0.131,0.465,0.13,0.465c0.001,0,0.172,0.477,0.172,0.477l0,0l0,0H28.5v-0.977l0,0V48.5h0.509h0.006h0.006h-0.078
			l0,0h0.09l-0.007-0.494l0.236-0.19l0.237-0.127v-0.036L29,47.573l-0.5-0.091v0.002l0.462,0.016h0.025l-0.244-0.013L28.5,47.481
			v-0.003v0.002l0.251-0.019l-0.124-0.002L28.5,47.453v-0.028l0.502,0.075H29l-0.5-0.076v0.014c0,0,0,0.007,0,0.006v0.004
			c0-0.001,0,0.033,0,0.033l0.491,1.02H28.5v-1h0.536h-0.004c0,0-0.018-0.03-0.018-0.032l-0.007,0.163
			c-0.041-0.07-0.046-0.131-0.063-0.131h-0.01c0.003,0,0.005-0.133,0.007-0.121l0.003-0.061c-0.001-0.006-0.002-0.05-0.003-0.056
			l-0.009-0.052c-0.042-0.132-0.059-0.277-0.103-0.408c-0.054-0.162-0.145-0.304-0.359-0.324c-0.025-0.003-0.049-0.01-0.065-0.029
			c-0.042,0.016-0.084,0-0.125-0.006c-0.425-0.06-0.85-0.121-1.276-0.179c-0.384-0.052-0.717,0.213-0.643,0.555
			c0.017,0.081-0.012,0.159-0.012,0.243l0,0c0.46,0.226,0.185,0.454,0.234,0.684c0.007,0.034,0.042,0.066,0.048,0.1
			c0.208-0.144,0.403-0.312,0.597-0.469c0.13-0.105,0.268-0.212,0.398-0.319c0.038-0.03,0.061-0.023,0.073,0.008
			c0.002,0.006,0.005,0.013,0.007,0.02c0.026,0.119,0.057,0.239,0.084,0.357l0.304,1.292L28.71,49.5h0.021
			c0,0-0.23-1.133-0.23-1.132V48.5h0.212H28.5v-0.102l0.103,0.451l0.739,0.65h-0.025c0,0-0.007-0.45-0.007-0.45l-0.004-0.227
			l-0.403-0.112c0-0.002-0.403-0.121-0.403-0.122v0.002V48.594z M29.021,47.543C29.021,47.543,29.021,47.543,29.021,47.543
			c0-0.002,0-0.002,0-0.002V47.54l0,0v-0.002l0,0l0,0l0,0l0,0l0,0l0,0l0,0l0,0l0,0c0-0.001,0-0.002,0-0.003l0,0l0,0l0,0
			C29.021,47.538,29.021,47.54,29.021,47.543L29.021,47.543L29.021,47.543z M29.02,47.521l0.001,0.002l0,0l0,0l-0.001,0.001v-0.001
			C29.02,47.522,29.02,47.521,29.02,47.521z M29.02,47.52L29.02,47.52L29.02,47.52L29.02,47.52z M29.021,47.534L29.021,47.534
			L29.021,47.534L29.021,47.534L29.021,47.534L29.021,47.534C29.021,47.533,29.021,47.533,29.021,47.534v-0.002l0,0l0,0l0,0l0,0
			V47.534L29.021,47.534L29.021,47.534L29.021,47.534z M29.044,47.688c-0.011-0.046-0.024-0.09-0.025-0.134
			C29.02,47.598,29.034,47.642,29.044,47.688z M29.021,47.529v0.002l0,0l0,0C29.021,47.531,29.021,47.531,29.021,47.529
			L29.021,47.529L29.021,47.529L29.021,47.529L29.021,47.529L29.021,47.529L29.021,47.529L29.021,47.529L29.021,47.529z
			 M29.021,47.52L29.021,47.52L29.021,47.52L29.021,47.52L29.021,47.52L29.021,47.52L29.021,47.52z M28.685,48.085
			c-0.003,0.003-0.006,0.006-0.01,0.009C28.678,48.091,28.682,48.088,28.685,48.085z M28.653,47.983
			c0.004,0.002,0.008,0.005,0.012,0.008C28.661,47.988,28.658,47.985,28.653,47.983c-0.005-0.003-0.01-0.005-0.013-0.009
			C28.644,47.979,28.648,47.98,28.653,47.983z M28.597,48.233L28.597,48.233c0.001,0.002,0.001,0.004,0.001,0.007
			C28.598,48.237,28.598,48.235,28.597,48.233z M28.61,48.273c-0.001-0.002-0.002-0.004-0.002-0.005
			c-0.001-0.001-0.001-0.002-0.002-0.003c0-0.001,0-0.003-0.001-0.005c0.001,0.001,0.001,0.003,0.001,0.004v0.001
			c0.001,0,0.001,0.001,0.001,0.001c0,0.001,0.001,0.002,0.001,0.002c0,0.002,0,0.002,0.001,0.003
			c0.001,0.002,0.002,0.004,0.003,0.006C28.612,48.276,28.611,48.274,28.61,48.273z M28.688,48.364
			c-0.003-0.003-0.005-0.005-0.007-0.008c-0.016-0.017-0.033-0.033-0.047-0.051c-0.003-0.003-0.006-0.006-0.007-0.009
			c0-0.001-0.001-0.001-0.001-0.001c-0.001-0.002-0.003-0.004-0.004-0.006c-0.002-0.002-0.003-0.004-0.004-0.006c0,0,0,0,0-0.001
			c0.001,0.002,0.002,0.005,0.004,0.007c0.002,0.003,0.005,0.007,0.008,0.011c0.004,0.005,0.008,0.01,0.013,0.014
			c0.012,0.014,0.024,0.025,0.035,0.037c0.001,0.002,0.003,0.004,0.005,0.005c0,0,0.001,0.002,0.001,0.003c0,0,0,0,0,0
			C28.685,48.361,28.688,48.364,28.688,48.364C28.688,48.365,28.688,48.364,28.688,48.364z"/>
		<path fill-rule="evenodd" clip-rule="evenodd" fill="#FFFFFF" d="M28.685,48.085c-0.003,0.003-0.006,0.006-0.01,0.009
			C28.678,48.091,28.682,48.088,28.685,48.085z"/>
		<rect x="29.021" y="47.524" fill-rule="evenodd" clip-rule="evenodd" fill="#FFFFFF" width="0" height="0"/>
		<polygon fill-rule="evenodd" clip-rule="evenodd" fill="#FFFFFF" points="29.021,47.524 29.021,47.524 29.021,47.524 
			29.021,47.524 29.021,47.524 29.021,47.524 29.021,47.524 29.021,47.524 29.021,47.524 29.021,47.523 29.021,47.523 
			29.021,47.523 29.021,47.523 29.021,47.524 		"/>
		<path fill-rule="evenodd" clip-rule="evenodd" fill="#FFFFFF" d="M27.792,47.442l-0.159-0.385l0.069,0.008
			c0.002,0.006,0.004,0.013,0.006,0.02C27.735,47.204,27.764,47.324,27.792,47.442z"/>
		<path fill-rule="evenodd" clip-rule="evenodd" fill="#FFFFFF" d="M28.685,48.085c-0.003,0.003-0.006,0.006-0.01,0.009
			C28.678,48.091,28.682,48.088,28.685,48.085z"/>
		<polygon fill-rule="evenodd" clip-rule="evenodd" fill="#FFFFFF" points="29.02,47.52 29.02,47.52 29.02,47.52 		"/>
		<polygon fill-rule="evenodd" clip-rule="evenodd" fill="#FFFFFF" points="29.021,47.521 29.021,47.521 29.021,47.521 		"/>
		<polygon fill-rule="evenodd" clip-rule="evenodd" fill="#FFFFFF" points="29.021,47.524 29.021,47.524 29.021,47.524 
			29.021,47.524 29.021,47.524 29.021,47.525 29.021,47.527 29.021,47.528 29.021,47.528 29.021,47.53 29.021,47.532 29.021,47.53 
			29.021,47.529 29.021,47.529 29.021,47.529 29.021,47.529 29.021,47.529 29.021,47.529 29.021,47.527 29.021,47.524 
			29.021,47.524 29.021,47.524 29.021,47.524 29.021,47.524 29.021,47.524 29.021,47.524 29.021,47.524 29.021,47.524 
			29.021,47.524 		"/>
		<polygon fill-rule="evenodd" clip-rule="evenodd" fill="#FFFFFF" points="29.021,47.534 29.021,47.534 29.021,47.535 
			29.021,47.535 29.021,47.542 29.021,47.543 29.021,47.545 29.021,47.546 29.021,47.549 29.021,47.546 29.021,47.542 
			29.021,47.537 29.021,47.532 29.021,47.532 29.021,47.532 29.021,47.532 29.021,47.533 		"/>
		<rect x="29.021" y="47.521" fill-rule="evenodd" clip-rule="evenodd" fill="#FFFFFF" width="0" height="0"/>
		<polygon fill-rule="evenodd" clip-rule="evenodd" fill="#FFFFFF" points="29.021,47.521 29.021,47.521 29.021,47.521 		"/>
		<rect x="29.021" y="47.522" fill-rule="evenodd" clip-rule="evenodd" fill="#FFFFFF" width="0.001" height="0"/>
		<polygon fill-rule="evenodd" clip-rule="evenodd" fill="#FFFFFF" points="29.021,47.522 29.021,47.522 29.021,47.522 		"/>
		<rect x="29.302" y="48.575" fill-rule="evenodd" clip-rule="evenodd" fill="#FFFFFF" width="0" height="0.004"/>
		<path fill-rule="evenodd" clip-rule="evenodd" fill="#FFFFFF" d="M29.309,48.601L29.309,48.601
			c-0.003-0.007-0.004-0.014-0.006-0.021l0,0.003L29.309,48.601z"/>
		<line fill="#FFFFFF" x1="29.615" y1="49.307" x2="29.614" y2="49.308"/>
	</g>
	<g>
		<path fill="#FFFFFF" d="M66.615,47.31v-9.401h-0.845v-0.827h0.795c-0.022-0.177-0.042-0.348-0.06-0.514
			c-0.016-0.165-0.023-0.33-0.023-0.495c0-0.475,0.055-0.983,0.164-1.523c0.111-0.541,0.307-1.078,0.588-1.614
			c0.281-0.535,0.658-1.05,1.133-1.547c0.473-0.497,1.068-0.943,1.784-1.342c1.047-0.584,2.331-0.877,3.852-0.877
			c0.958,0,1.774,0.111,2.447,0.332c0.671,0.221,1.218,0.499,1.636,0.835c0.418,0.338,0.723,0.709,0.909,1.117
			c0.187,0.409,0.281,0.795,0.281,1.158c0,0.066-0.005,0.187-0.017,0.356c-0.011,0.172-0.055,0.354-0.131,0.546
			c-0.076,0.194-0.204,0.373-0.384,0.538c-0.18,0.166-0.433,0.276-0.76,0.332v-0.051c0-0.363-0.124-0.73-0.372-1.1
			c-0.249-0.37-0.592-0.701-1.026-0.994c-0.437-0.292-0.95-0.529-1.54-0.712c-0.59-0.181-1.222-0.272-1.895-0.272
			c-0.651,0-1.288,0.11-1.912,0.331c-0.623,0.221-1.178,0.563-1.663,1.025c-0.485,0.464-0.874,1.061-1.167,1.789
			c-0.292,0.728-0.439,1.594-0.439,2.599v0.082h1.293v0.827h-0.845v7.564c0,0.254-0.048,0.491-0.142,0.712
			c-0.093,0.221-0.221,0.413-0.38,0.579c-0.161,0.166-0.352,0.298-0.571,0.397C67.105,47.26,66.869,47.31,66.615,47.31z"/>
		<path fill="#FFFFFF" d="M74.113,47.393c-0.388,0-0.788-0.044-1.201-0.133c-0.414-0.088-0.811-0.239-1.191-0.455
			c-0.381-0.215-0.734-0.504-1.06-0.868s-0.599-0.816-0.819-1.357c-0.166-0.397-0.248-0.827-0.248-1.292
			c0-0.595,0.157-1.155,0.471-1.68c0.315-0.523,0.754-0.987,1.316-1.39c0.563-0.403,1.23-0.739,2.004-1.01
			c0.771-0.271,1.615-0.455,2.532-0.555v-0.745h-6.985v-0.827h9.666v0.827h-0.844v7.912c-0.078,0.243-0.227,0.461-0.447,0.654
			c-0.221,0.192-0.492,0.357-0.811,0.495c-0.32,0.139-0.686,0.243-1.094,0.315S74.564,47.393,74.113,47.393z M73.848,45.225h0.266
			c0.176,0,0.415-0.02,0.719-0.059c0.304-0.038,0.664-0.141,1.085-0.306v-4.817c-0.729,0.1-1.396,0.249-2.004,0.448
			c-0.606,0.198-1.125,0.43-1.556,0.694c-0.43,0.266-0.764,0.566-1.001,0.901C71.119,42.425,71,42.785,71,43.172
			c0,0.287,0.071,0.558,0.215,0.812c0.145,0.253,0.343,0.472,0.597,0.653c0.254,0.183,0.554,0.325,0.902,0.431
			C73.062,45.172,73.439,45.225,73.848,45.225z"/>
		<path fill="#FFFFFF" d="M84.738,47.74c-0.133,0-0.436-0.049-0.911-0.148c-0.099-0.012-0.22-0.084-0.363-0.216
			s-0.281-0.312-0.414-0.538c-0.132-0.225-0.242-0.502-0.331-0.827c-0.088-0.325-0.133-0.697-0.133-1.117
			c0-0.44,0.08-0.966,0.24-1.573c0.16-0.606,0.41-1.191,0.754-1.754l-4.471,1.688v-5.347h-0.844v-0.827h8.84v0.827h-6.704v3.063
			l5.362-2.087l0.695,1.92c-1.279,0.784-1.92,1.815-1.92,3.096c0,0.221,0.027,0.466,0.082,0.736c0.057,0.271,0.16,0.532,0.316,0.786
			c0.153,0.254,0.369,0.489,0.645,0.703c0.275,0.216,0.635,0.373,1.076,0.472C86.04,47.359,85.4,47.74,84.738,47.74z"/>
		<path fill="#FFFFFF" d="M89.688,37.908c-0.166,0.122-0.301,0.246-0.406,0.373S89.082,38.57,89,38.77
			c-0.082,0.198-0.124,0.436-0.124,0.712c0,0.265,0.052,0.57,0.157,0.918c0.104,0.348,0.295,0.742,0.57,1.184
			c0.21,0.331,0.403,0.701,0.58,1.109c0.176,0.408,0.331,0.839,0.463,1.291c0.133,0.452,0.234,0.912,0.307,1.382
			c0.072,0.469,0.107,0.93,0.107,1.382c0,0.674-0.08,1.305-0.24,1.896c-0.16,0.59-0.413,1.106-0.762,1.548
			c-0.347,0.44-0.802,0.788-1.365,1.042c-0.563,0.254-1.246,0.381-2.053,0.381c-0.066,0-0.173,0-0.322,0s-0.303-0.006-0.463-0.017
			s-0.301-0.03-0.422-0.058c-0.122-0.028-0.183-0.075-0.183-0.142c0-0.099,0.011-0.246,0.033-0.438s0.071-0.386,0.149-0.579
			c0.077-0.192,0.195-0.358,0.355-0.496s0.383-0.207,0.67-0.207h0.232c0.451,0,0.839-0.08,1.158-0.24
			c0.32-0.159,0.582-0.386,0.786-0.679c0.204-0.292,0.353-0.643,0.446-1.05c0.094-0.409,0.142-0.861,0.142-1.358
			c0-0.838-0.119-1.683-0.356-2.532s-0.549-1.665-0.936-2.449c-0.375-0.751-0.562-1.402-0.562-1.953c0-0.32,0.049-0.612,0.148-0.877
			c0.1-0.266,0.22-0.475,0.364-0.63h-1.109v-0.827h4.602v0.827H89.688z"/>
		<path fill="#FFFFFF" d="M93.759,37.081h0.844v0.827h-0.844v7.944c0,0.432-0.152,0.795-0.456,1.093
			c-0.303,0.299-0.67,0.447-1.101,0.447h-0.313v-9.484h-0.844v-0.827h0.91c0.087-0.286,0.258-0.504,0.512-0.654
			c0.254-0.149,0.553-0.223,0.895-0.223c0.066,0,0.132,0.003,0.198,0.008c0.066,0.006,0.133,0.015,0.199,0.025V37.081z"/>
		<path fill="#FFFFFF" d="M99.898,47.393c-0.275,0-0.54-0.014-0.794-0.041s-0.513-0.086-0.778-0.174
			c-0.264-0.088-0.535-0.224-0.811-0.406c-0.275-0.182-0.58-0.422-0.91-0.719c-0.751-0.707-1.274-1.589-1.572-2.648
			c1.269-0.255,2.231-0.668,2.888-1.242c0.656-0.573,0.985-1.224,0.985-1.952c0-0.177-0.048-0.368-0.141-0.572
			c-0.095-0.204-0.223-0.394-0.389-0.57c-0.166-0.176-0.357-0.323-0.572-0.438c-0.215-0.116-0.443-0.175-0.686-0.175
			c-0.232,0-0.426,0.069-0.58,0.207c-0.154,0.139-0.231,0.335-0.231,0.588c0,0.056,0.002,0.116,0.007,0.183
			c0.007,0.066,0.031,0.132,0.076,0.198c0.043,0.066,0.115,0.13,0.215,0.19c0.099,0.061,0.236,0.124,0.414,0.19
			c0.221,0.088,0.405,0.222,0.555,0.397c0.148,0.176,0.223,0.392,0.223,0.645c0,0.222-0.055,0.426-0.166,0.613h-0.231
			c-0.198,0-0.402-0.009-0.612-0.025c-0.209-0.017-0.416-0.071-0.62-0.165c-0.205-0.094-0.403-0.24-0.596-0.438
			c-0.193-0.199-0.361-0.48-0.505-0.844c-0.057-0.133-0.095-0.271-0.116-0.414c-0.022-0.144-0.033-0.281-0.033-0.414
			c0-0.144,0.033-0.342,0.099-0.596c0.066-0.254,0.186-0.502,0.356-0.744c0.171-0.243,0.402-0.453,0.695-0.63
			c0.292-0.176,0.67-0.265,1.134-0.265c0.407,0,0.803,0.086,1.184,0.257s0.714,0.408,1.002,0.712
			c0.286,0.303,0.515,0.658,0.687,1.066c0.171,0.409,0.256,0.85,0.256,1.325c0,0.077,0.003,0.192,0.009,0.347
			s-0.022,0.346-0.083,0.571s-0.177,0.486-0.347,0.778c-0.172,0.292-0.429,0.609-0.771,0.951c-0.673,0.673-1.28,1.093-1.821,1.259
			c0.166,0.165,0.329,0.301,0.488,0.405c0.16,0.104,0.34,0.19,0.538,0.257c0.2,0.065,0.425,0.109,0.679,0.132
			s0.551,0.033,0.894,0.033c0.177,0,0.414-0.02,0.712-0.059c0.298-0.038,0.656-0.141,1.076-0.306v-7.779h2.682v0.827h-0.844v7.912
			c-0.078,0.243-0.227,0.461-0.448,0.654c-0.22,0.192-0.491,0.357-0.811,0.495c-0.319,0.139-0.685,0.243-1.093,0.315
			S100.351,47.393,99.898,47.393z"/>
		<path fill="#FFFFFF" d="M104.897,47.31v-9.401h-0.845v-0.827h1.242v-0.082c0-0.376-0.036-0.789-0.107-1.242
			c-0.072-0.452-0.188-0.902-0.349-1.349c-0.159-0.447-0.372-0.869-0.638-1.267c-0.264-0.397-0.59-0.729-0.976-0.992
			c-1.048-0.597-2.085-0.895-3.112-0.895c-0.088,0-0.25,0.003-0.488,0.008c-0.236,0.006-0.521,0.042-0.852,0.108
			s-0.695,0.177-1.093,0.33c-0.397,0.154-0.795,0.382-1.191,0.679c-0.816,0.618-1.22,1.27-1.208,1.953v0.051
			c-0.354-0.066-0.659-0.251-0.919-0.556c-0.259-0.303-0.39-0.709-0.39-1.217c0-0.318,0.078-0.678,0.232-1.075
			c0.154-0.396,0.43-0.772,0.828-1.125c0.396-0.354,0.938-0.648,1.621-0.886c0.686-0.237,1.551-0.356,2.6-0.356
			c0.992,0,1.941,0.157,2.847,0.472c0.904,0.315,1.704,0.771,2.399,1.366s1.249,1.321,1.664,2.177
			c0.414,0.855,0.62,1.817,0.62,2.889c0,0.165-0.009,0.33-0.024,0.495c-0.017,0.166-0.036,0.337-0.059,0.514h0.844v0.827h-0.844
			v7.564c0,0.254-0.047,0.491-0.141,0.712s-0.221,0.413-0.381,0.579s-0.35,0.298-0.57,0.397
			C105.389,47.26,105.151,47.31,104.897,47.31z"/>
		<path fill="#FFFFFF" d="M101.588,36.237c-0.221-0.411-0.332-0.843-0.332-1.293c0-0.111,0.005-0.247,0.014-0.406
			c0.01-0.159,0.051-0.332,0.125-0.521c0.074-0.187,0.186-0.383,0.332-0.589c0.148-0.205,0.36-0.411,0.637-0.617
			c1.477-0.898,2.639-2.817,3.488-5.756c0.645,0.205,1.185,0.594,1.618,1.165c0.435,0.571,0.651,1.277,0.651,2.119
			c0,0.693-0.189,1.357-0.568,1.994s-0.854,1.213-1.426,1.727c-0.571,0.516-1.193,0.945-1.867,1.292s-1.306,0.586-1.896,0.716
			L101.588,36.237z"/>
	</g>
	<g>
		<path fill="#FFFFFF" d="M69.333,36.003V36.6h-0.2v-1.524h0.562c0.167,0,0.298,0.042,0.393,0.128
			c0.095,0.085,0.142,0.197,0.142,0.338c0,0.148-0.047,0.262-0.139,0.342s-0.226,0.12-0.397,0.12H69.333z M69.333,35.839h0.361
			c0.108,0,0.189-0.026,0.247-0.076c0.058-0.052,0.086-0.125,0.086-0.22c0-0.091-0.028-0.164-0.086-0.219
			c-0.058-0.054-0.137-0.082-0.236-0.084h-0.372V35.839z"/>
		<path fill="#FFFFFF" d="M71.574,35.982h-0.357V36.6h-0.202v-1.524h0.504c0.173,0,0.305,0.039,0.396,0.117
			c0.093,0.078,0.14,0.192,0.14,0.342c0,0.095-0.026,0.177-0.076,0.248c-0.053,0.07-0.124,0.122-0.215,0.158l0.357,0.646V36.6
			h-0.215L71.574,35.982z M71.217,35.818h0.309c0.1,0,0.18-0.025,0.238-0.077s0.088-0.121,0.088-0.208
			c0-0.095-0.027-0.167-0.084-0.217c-0.056-0.051-0.137-0.075-0.242-0.076h-0.309V35.818z"/>
		<path fill="#FFFFFF" d="M74.039,35.887c0,0.148-0.025,0.279-0.075,0.391c-0.051,0.111-0.122,0.196-0.214,0.255
			s-0.199,0.088-0.322,0.088c-0.12,0-0.227-0.029-0.32-0.088c-0.092-0.06-0.164-0.144-0.215-0.253
			c-0.052-0.109-0.078-0.235-0.079-0.379v-0.111c0-0.146,0.025-0.275,0.076-0.388s0.123-0.198,0.216-0.258
			c0.094-0.06,0.2-0.089,0.32-0.089c0.122,0,0.229,0.029,0.322,0.088c0.094,0.06,0.165,0.145,0.216,0.257
			c0.05,0.111,0.075,0.242,0.075,0.39V35.887z M73.84,35.789c0-0.182-0.037-0.32-0.109-0.417c-0.073-0.097-0.174-0.146-0.305-0.146
			c-0.127,0-0.228,0.049-0.301,0.146c-0.072,0.097-0.109,0.23-0.112,0.403v0.111c0,0.175,0.037,0.313,0.111,0.413
			c0.073,0.1,0.175,0.15,0.304,0.15s0.23-0.048,0.302-0.143s0.107-0.229,0.11-0.406V35.789z"/>
		<path fill="#FFFFFF" d="M75.51,35.075h0.203v1.079c0,0.146-0.045,0.261-0.133,0.343c-0.087,0.082-0.203,0.123-0.35,0.123
			c-0.152,0-0.27-0.039-0.354-0.115c-0.085-0.078-0.127-0.187-0.127-0.327h0.201c0,0.089,0.023,0.156,0.071,0.204
			c0.048,0.05,0.117,0.073,0.208,0.073c0.084,0,0.15-0.025,0.201-0.078c0.052-0.052,0.078-0.125,0.078-0.219V35.075z"/>
		<path fill="#FFFFFF" d="M77.446,35.895h-0.659v0.54h0.767V36.6h-0.969v-1.524h0.958v0.165h-0.756v0.491h0.659V35.895z"/>
		<path fill="#FFFFFF" d="M79.455,36.115c-0.019,0.162-0.077,0.286-0.178,0.374c-0.1,0.088-0.233,0.131-0.399,0.131
			c-0.181,0-0.324-0.064-0.433-0.193c-0.109-0.129-0.164-0.302-0.164-0.519v-0.146c0-0.142,0.026-0.266,0.077-0.373
			c0.05-0.107,0.122-0.19,0.214-0.248c0.094-0.058,0.201-0.086,0.324-0.086c0.161,0,0.291,0.045,0.389,0.135
			c0.098,0.091,0.154,0.216,0.17,0.376h-0.201c-0.018-0.122-0.056-0.21-0.113-0.266c-0.06-0.054-0.141-0.081-0.244-0.081
			c-0.129,0-0.23,0.047-0.303,0.143c-0.073,0.095-0.109,0.23-0.109,0.405v0.147c0,0.165,0.034,0.297,0.104,0.395
			s0.166,0.146,0.29,0.146c0.111,0,0.197-0.024,0.257-0.075s0.1-0.139,0.119-0.265H79.455z"/>
		<path fill="#FFFFFF" d="M81.272,35.24h-0.49V36.6h-0.2V35.24h-0.489v-0.165h1.18V35.24z"/>
	</g>
	<g>
		<path fill-rule="evenodd" clip-rule="evenodd" fill="#FFFFFF" d="M68.479,39.709c-0.01,2.625-0.018,5.231-0.027,7.854
			c-0.743-0.002-1.475-0.004-2.22-0.007c0.009-2.622,0.018-5.228,0.027-7.853C67,39.704,67.727,39.707,68.479,39.709z
			 M66.584,40.028c-0.008,2.408-0.016,4.798-0.025,7.202c0.537,0.002,1.048,0.003,1.567,0.004c0.009-2.409,0.018-4.796,0.024-7.198
			C67.628,40.034,67.12,40.032,66.584,40.028z"/>
		<path fill-rule="evenodd" clip-rule="evenodd" fill="#FFFFFF" d="M68.479,39.484c-0.744-0.002-1.476-0.005-2.219-0.008
			c0.001-0.462-0.001-0.906,0.007-1.352c0.002-0.071,0.038-0.146,0.074-0.21c0.231-0.396,0.581-0.604,1.037-0.605
			c0.459-0.003,0.805,0.212,1.03,0.611c0.037,0.063,0.07,0.14,0.071,0.211C68.485,38.577,68.48,39.021,68.479,39.484z
			 M68.153,39.157c0.001-0.299,0.015-0.582-0.001-0.863c-0.007-0.116-0.049-0.248-0.118-0.342c-0.256-0.342-0.74-0.434-1.093-0.188
			c-0.145,0.1-0.307,0.265-0.334,0.423c-0.054,0.309-0.019,0.634-0.021,0.965C67.115,39.154,67.629,39.155,68.153,39.157z"/>
		<path fill-rule="evenodd" clip-rule="evenodd" fill="#FFFFFF" d="M67.193,41.051c0.112,0,0.205,0,0.326-0.002
			c0,1.53,0,3.053,0,4.599c-0.104,0.001-0.201,0.002-0.326,0.002C67.193,44.119,67.193,42.597,67.193,41.051z"/>
		<path fill-rule="evenodd" clip-rule="evenodd" fill="#FFFFFF" d="M67.934,38.444c-0.001,0.116-0.002,0.214-0.004,0.327
			c-0.338-0.002-0.668-0.003-1.02-0.004c0-0.107,0.001-0.204,0.001-0.326C67.254,38.442,67.586,38.443,67.934,38.444z"/>
	</g>
	<g>
		<path fill-rule="evenodd" clip-rule="evenodd" fill="#FFFFFF" d="M67.363,49.029h-0.058l0,0
			C67.324,49.029,67.344,49.029,67.363,49.029z"/>
		<path fill-rule="evenodd" clip-rule="evenodd" fill="#FFFFFF" d="M67.363,49.029h-0.058l0,0
			C67.324,49.029,67.344,49.029,67.363,49.029z"/>
		<path fill-rule="evenodd" clip-rule="evenodd" fill="#FFFFFF" d="M67.4,48.5h-0.095c-0.371,0-0.743-0.385-1.121-0.385
			c0.372,0.807,0.833,1.364,1.182,2.122c0.008-0.021,0.134-0.205,0.134-0.205v-0.029c0,0-0.091-0.009-0.084-0.016l-0.05-0.233
			c0.007-0.008-0.037-0.254-0.028-0.254c0.001,0,0.001,0,0.002,0c0.006,0,0.011-0.008,0.018-0.01c0.006,0.002,0.012,0.01,0.018,0.01
			c0,0,0.001,0,0.002,0c0.008,0,0.018,0,0.024,0h-0.196c0.007,1,0.295,0.511,0.295,0.519v0.002c0,0.017-0.016,0.037-0.008,0.058
			c0.349-0.758,0.682-1.156,1.053-1.963C68.166,48.115,67.787,48.5,67.4,48.5z M67.4,49.389c-0.002,0-0.002,0.002-0.002,0.003
			c-0.014-0.015-0.025-0.026-0.043-0.036c-0.018,0.01-0.033,0.021-0.045,0.036c-0.002-0.003-0.004-0.006-0.005-0.01
			c-0.056-0.12-0.108-0.229-0.169-0.356c0.058,0,0.114,0.011,0.169,0.012c0.019,0,0.038,0.01,0.058,0.01H67.4
			c0.057,0,0.112-0.014,0.173-0.013C67.512,49.163,67.456,49.266,67.4,49.389z M67.352,49.004c-0.002,0-0.002,0-0.004,0
			c-0.435,0-0.471-0.235-0.626-0.786c0.194,0.002,0.389,0.153,0.584,0.153c0.019,0,0.037,0.174,0.057,0.174H67.4
			c0.198-0.46,0.388-0.084,0.584-0.086C67.828,49.011,67.779,49.004,67.352,49.004z"/>
		<path fill-rule="evenodd" clip-rule="evenodd" fill="#FFFFFF" d="M67.4,49.336v0.053c-0.002,0-0.002,0.002-0.002,0.003
			c-0.014-0.015-0.025-0.026-0.043-0.036C67.369,49.348,67.383,49.341,67.4,49.336z"/>
		<path fill-rule="evenodd" clip-rule="evenodd" fill="#FFFFFF" d="M67.362,48.087h-0.057v-0.023
			C67.324,48.063,67.343,48.087,67.362,48.087z"/>
		<path fill-rule="evenodd" clip-rule="evenodd" fill="#FFFFFF" d="M67.363,49.029h-0.058l0,0
			C67.324,49.029,67.344,49.029,67.363,49.029z"/>
		<path fill-rule="evenodd" clip-rule="evenodd" fill="#FFFFFF" d="M67.355,49.355c-0.018,0.01-0.033,0.021-0.045,0.036
			c-0.002-0.003-0.004-0.006-0.005-0.01v-0.046C67.326,49.341,67.342,49.348,67.355,49.355z"/>
	</g>
	<path fill-rule="evenodd" clip-rule="evenodd" fill="#FFFFFF" d="M63.387,34.894c0.512,0,1.023-0.004,1.537,0.002
		c0.488,0.006,0.87,0.315,0.969,0.771c0.093,0.433-0.129,0.892-0.541,1.069c-0.139,0.06-0.3,0.093-0.451,0.094
		c-0.92,0.008-1.839,0.004-2.759,0.003c-0.146-0.001-0.295,0.013-0.433-0.018c-0.139-0.031-0.276-0.095-0.396-0.172
		c-0.172-0.11-0.276-0.262-0.258-0.488c0.021-0.234,0.001-0.473,0.01-0.708c0.003-0.064,0.029-0.14,0.069-0.189
		c0.189-0.236,0.436-0.364,0.744-0.362c0.502,0.002,1.005,0,1.508,0C63.387,34.896,63.387,34.895,63.387,34.894z"/>
	<path fill-rule="evenodd" clip-rule="evenodd" fill="#FFFFFF" d="M66.751,31.886c0.001,0.742-0.786,1.22-1.434,0.859
		c-0.872-0.486-1.737-0.984-2.601-1.485c-0.457-0.266-0.607-0.85-0.351-1.299c0.265-0.463,0.85-0.648,1.318-0.388
		c0.877,0.488,1.746,0.991,2.614,1.494C66.588,31.235,66.75,31.551,66.751,31.886z"/>
	<path fill-rule="evenodd" clip-rule="evenodd" fill="#FFFFFF" d="M69.961,28.708c-0.049,0.473-0.335,0.84-0.766,0.95
		c-0.434,0.112-0.866-0.069-1.094-0.467c-0.485-0.845-0.97-1.69-1.449-2.539c-0.221-0.391-0.167-0.823,0.126-1.145
		c0.275-0.301,0.733-0.393,1.123-0.224c0.19,0.082,0.337,0.218,0.439,0.396c0.483,0.841,0.968,1.68,1.44,2.526
		C69.867,28.359,69.902,28.54,69.961,28.708z"/>
	<path fill-rule="evenodd" clip-rule="evenodd" fill="#FFFFFF" d="M74.271,26.074c0,0.472-0.002,0.943,0.001,1.415
		c0.003,0.571-0.392,1.012-0.923,1.026c-0.572,0.017-0.998-0.388-1.012-0.981c-0.012-0.411-0.004-0.823-0.004-1.235
		c0-0.547-0.002-1.094,0-1.643c0.001-0.342,0.128-0.627,0.411-0.828c0.31-0.221,0.657-0.229,0.987-0.085
		c0.357,0.154,0.533,0.464,0.537,0.854C74.275,25.09,74.271,25.582,74.271,26.074L74.271,26.074z"/>
	<path fill-rule="evenodd" clip-rule="evenodd" fill="#FFFFFF" d="M79.07,25.205c0.739-0.032,1.262,0.749,0.908,1.398
		c-0.485,0.891-0.992,1.769-1.508,2.641c-0.267,0.451-0.861,0.578-1.311,0.313c-0.444-0.263-0.619-0.831-0.366-1.285
		c0.487-0.877,0.987-1.747,1.492-2.614C78.457,25.365,78.722,25.208,79.07,25.205z"/>
	<g>
		<path fill="#FFFFFF" d="M27.214,34.109v3.598h-0.828v-3.598H27.214z"/>
		<path fill="#FFFFFF" d="M27.419,35.215c0-0.154,0.029-0.299,0.087-0.433c0.058-0.134,0.137-0.25,0.236-0.35
			c0.099-0.099,0.216-0.178,0.35-0.236c0.134-0.058,0.277-0.087,0.432-0.087h0.555c0.154,0,0.298,0.029,0.431,0.087
			c0.134,0.059,0.25,0.138,0.35,0.236c0.099,0.1,0.178,0.216,0.236,0.35s0.087,0.278,0.087,0.433v2.492h-0.827v-2.492
			c0-0.075-0.027-0.141-0.08-0.195s-0.12-0.082-0.198-0.082h-0.555c-0.079,0-0.145,0.027-0.198,0.082
			c-0.053,0.055-0.079,0.12-0.079,0.195v2.492h-0.828V35.215z"/>
		<path fill="#FFFFFF" d="M31.217,34.109v3.598h-0.827v-3.598H31.217z"/>
		<path fill="#FFFFFF" d="M33.916,34.942h-0.833v2.765h-0.828v-2.765h-0.832v-0.833h2.493V34.942z"/>
		<path fill="#FFFFFF" d="M34.949,34.109v3.598h-0.828v-3.598H34.949z"/>
		<path fill="#FFFFFF" d="M37.092,37.707l-0.555-2.065l-0.555,2.065h-0.828l0.961-3.598h0.01h0.822h0.011l0.961,3.598H37.092z"/>
		<path fill="#FFFFFF" d="M40.104,34.942h-0.833v2.765h-0.827v-2.765h-0.833v-0.833h2.493V34.942z"/>
		<path fill="#FFFFFF" d="M41.137,34.109v3.598h-0.828v-3.598H41.137z"/>
		<path fill="#FFFFFF" d="M44.107,34.109l-0.961,3.598h-0.01h-0.822h-0.01l-0.962-3.598h0.828l0.555,2.066l0.555-2.066H44.107z"/>
		<path fill="#FFFFFF" d="M49.503,35.579c0.134,0.059,0.25,0.139,0.35,0.239s0.178,0.218,0.237,0.352
			c0.058,0.134,0.087,0.277,0.087,0.432s-0.029,0.299-0.087,0.433c-0.059,0.134-0.138,0.25-0.237,0.349
			c-0.099,0.1-0.215,0.179-0.35,0.237c-0.134,0.058-0.277,0.087-0.431,0.087h-1.66V36.88h1.66c0.079-0.004,0.145-0.032,0.198-0.085
			s0.08-0.117,0.08-0.193c0-0.078-0.027-0.145-0.08-0.197c-0.053-0.054-0.119-0.079-0.198-0.079h-0.555
			c-0.155,0-0.299-0.03-0.433-0.088c-0.134-0.059-0.25-0.138-0.35-0.239c-0.099-0.102-0.178-0.219-0.236-0.353
			s-0.087-0.277-0.087-0.431c0-0.154,0.029-0.299,0.087-0.433s0.138-0.25,0.236-0.35c0.1-0.099,0.216-0.178,0.35-0.236
			c0.134-0.058,0.278-0.087,0.433-0.087h1.104v0.833h-1.104c-0.079,0-0.146,0.026-0.199,0.079c-0.053,0.054-0.08,0.118-0.08,0.193
			c0,0.078,0.027,0.145,0.08,0.197c0.053,0.054,0.12,0.08,0.199,0.08h0.555C49.226,35.492,49.37,35.521,49.503,35.579z"/>
	</g>
	<g>
		<path fill="#FFFFFF" d="M26.907,40.388c-0.042,0.041-0.063,0.093-0.063,0.151v0.219h1.524v0.654h-1.524v1.087h-0.651v-1.96
			c0-0.122,0.023-0.234,0.069-0.34c0.045-0.105,0.107-0.196,0.186-0.274c0.078-0.078,0.169-0.141,0.274-0.187
			c0.105-0.045,0.219-0.068,0.339-0.068h1.307v0.655h-1.307C27,40.325,26.948,40.346,26.907,40.388z"/>
		<path fill="#FFFFFF" d="M29.953,39.67c0.122,0,0.234,0.023,0.339,0.068c0.105,0.046,0.197,0.108,0.276,0.187
			c0.078,0.078,0.14,0.169,0.186,0.274c0.045,0.105,0.069,0.218,0.069,0.34v1.092c0,0.121-0.023,0.234-0.069,0.34
			c-0.046,0.104-0.107,0.196-0.186,0.274c-0.079,0.078-0.17,0.14-0.276,0.186c-0.105,0.047-0.218,0.068-0.339,0.068h-0.437
			c-0.122,0-0.234-0.021-0.34-0.068c-0.105-0.046-0.197-0.107-0.275-0.186s-0.14-0.17-0.186-0.274
			c-0.045-0.105-0.069-0.219-0.069-0.34v-1.092c0-0.122,0.023-0.234,0.069-0.34c0.046-0.105,0.108-0.196,0.186-0.274
			s0.169-0.141,0.275-0.187c0.105-0.045,0.218-0.068,0.34-0.068H29.953z M30.171,40.539c0-0.059-0.021-0.11-0.063-0.151
			c-0.042-0.042-0.093-0.063-0.155-0.063h-0.437c-0.062,0-0.114,0.021-0.156,0.063c-0.042,0.041-0.063,0.093-0.063,0.151v1.092
			c0,0.06,0.021,0.11,0.063,0.153c0.042,0.043,0.094,0.065,0.156,0.065h0.437c0.062,0,0.114-0.022,0.155-0.065
			c0.042-0.043,0.063-0.094,0.063-0.153V40.539z"/>
		<path fill="#FFFFFF" d="M33.276,41.631c0,0.121-0.022,0.234-0.068,0.34c-0.046,0.104-0.108,0.196-0.187,0.274
			c-0.078,0.078-0.169,0.14-0.274,0.186c-0.105,0.047-0.218,0.068-0.34,0.068h-0.436c-0.122,0-0.234-0.021-0.34-0.068
			c-0.105-0.046-0.196-0.107-0.275-0.186c-0.078-0.078-0.14-0.17-0.186-0.274c-0.045-0.105-0.068-0.219-0.068-0.34V39.67h0.651
			v1.961c0,0.06,0.021,0.11,0.063,0.153s0.093,0.065,0.156,0.065h0.436c0.063,0,0.114-0.022,0.157-0.065
			c0.042-0.043,0.063-0.094,0.063-0.153V39.67h0.65V41.631z"/>
		<path fill="#FFFFFF" d="M33.556,40.539c0-0.122,0.023-0.234,0.069-0.34s0.107-0.196,0.186-0.274
			c0.079-0.078,0.17-0.141,0.275-0.187c0.105-0.045,0.218-0.068,0.339-0.068h0.437c0.122,0,0.235,0.023,0.34,0.068
			c0.105,0.046,0.196,0.108,0.274,0.187c0.079,0.078,0.141,0.169,0.187,0.274s0.069,0.218,0.069,0.34v1.96H35.08v-1.96
			c0-0.059-0.021-0.11-0.062-0.153c-0.042-0.043-0.094-0.064-0.156-0.064h-0.437c-0.062,0-0.113,0.021-0.155,0.064
			c-0.042,0.043-0.063,0.095-0.063,0.153v1.96h-0.65V40.539z"/>
		<path fill="#FFFFFF" d="M38.185,41.631c0,0.121-0.023,0.234-0.069,0.34c-0.046,0.104-0.108,0.196-0.186,0.274
			s-0.17,0.14-0.275,0.186c-0.104,0.047-0.218,0.068-0.339,0.068h-0.655h-0.651V39.67h0.651h0.655c0.122,0,0.235,0.023,0.339,0.068
			c0.105,0.046,0.197,0.108,0.275,0.187s0.14,0.169,0.186,0.274c0.046,0.105,0.069,0.218,0.069,0.34V41.631z M37.534,40.539
			c0-0.059-0.021-0.11-0.063-0.151c-0.042-0.042-0.094-0.063-0.156-0.063h-0.655v1.524h0.655c0.062,0,0.114-0.022,0.156-0.065
			c0.042-0.043,0.063-0.094,0.063-0.153V40.539z"/>
		<path fill="#FFFFFF" d="M39.988,42.499l-0.438-1.624l-0.436,1.624h-0.651l0.756-2.829h0.008h0.646h0.008l0.756,2.829H39.988z"/>
		<path fill="#FFFFFF" d="M42.475,40.325H41.82v2.174h-0.651v-2.174h-0.655V39.67h1.961V40.325z"/>
		<path fill="#FFFFFF" d="M43.404,39.67v2.829h-0.651V39.67H43.404z"/>
		<path fill="#FFFFFF" d="M44.989,39.67c0.122,0,0.235,0.023,0.34,0.068c0.105,0.046,0.196,0.108,0.274,0.187
			c0.079,0.078,0.141,0.169,0.187,0.274s0.068,0.218,0.068,0.34v1.092c0,0.121-0.022,0.234-0.068,0.34
			c-0.046,0.104-0.108,0.196-0.187,0.274c-0.078,0.078-0.169,0.14-0.274,0.186c-0.105,0.047-0.219,0.068-0.34,0.068h-0.436
			c-0.122,0-0.234-0.021-0.34-0.068c-0.105-0.046-0.196-0.107-0.275-0.186c-0.078-0.078-0.14-0.17-0.186-0.274
			c-0.046-0.105-0.068-0.219-0.068-0.34v-1.092c0-0.122,0.022-0.234,0.068-0.34s0.108-0.196,0.186-0.274
			c0.079-0.078,0.17-0.141,0.275-0.187c0.105-0.045,0.218-0.068,0.34-0.068H44.989z M45.208,40.539c0-0.059-0.021-0.11-0.063-0.151
			c-0.042-0.042-0.093-0.063-0.156-0.063h-0.436c-0.062,0-0.113,0.021-0.155,0.063c-0.042,0.041-0.063,0.093-0.063,0.151v1.092
			c0,0.06,0.021,0.11,0.063,0.153s0.093,0.065,0.155,0.065h0.436c0.063,0,0.114-0.022,0.156-0.065
			c0.042-0.043,0.063-0.094,0.063-0.153V40.539z"/>
		<path fill="#FFFFFF" d="M46.138,40.539c0-0.122,0.022-0.234,0.069-0.34c0.046-0.105,0.108-0.196,0.186-0.274
			c0.079-0.078,0.17-0.141,0.275-0.187c0.104-0.045,0.218-0.068,0.339-0.068h0.438c0.121,0,0.234,0.023,0.339,0.068
			c0.105,0.046,0.197,0.108,0.274,0.187c0.079,0.078,0.14,0.169,0.187,0.274c0.046,0.105,0.069,0.218,0.069,0.34v1.96h-0.651v-1.96
			c0-0.059-0.021-0.11-0.063-0.153c-0.042-0.043-0.094-0.064-0.155-0.064h-0.438c-0.062,0-0.114,0.021-0.155,0.064
			s-0.063,0.095-0.063,0.153v1.96h-0.651V40.539z"/>
	</g>
	<g>
		<path fill="#FFFFFF" d="M28.672,30.063h-0.777v2.581h-0.772v-2.581h-0.777v-0.777h2.326V30.063z"/>
		<path fill="#FFFFFF" d="M31.444,29.286v3.358h-0.772v-1.291h-1.037v1.291h-0.772v-3.358h0.772v1.29h1.037v-1.29H31.444z"/>
		<path fill="#FFFFFF" d="M32.482,30.138c-0.049,0.05-0.074,0.109-0.074,0.18v0.259h1.808v0.777h-1.808v0.259
			c0,0.07,0.024,0.132,0.074,0.183c0.05,0.051,0.111,0.077,0.185,0.077h1.549v0.772h-1.549c-0.144,0-0.278-0.027-0.403-0.081
			c-0.125-0.056-0.233-0.128-0.327-0.222c-0.092-0.093-0.166-0.201-0.22-0.326c-0.055-0.124-0.081-0.259-0.081-0.403v-1.295
			c0-0.144,0.026-0.278,0.081-0.402c0.054-0.126,0.128-0.233,0.22-0.326c0.093-0.093,0.202-0.167,0.327-0.221
			c0.125-0.056,0.259-0.082,0.403-0.082h1.549v0.777h-1.549C32.594,30.063,32.532,30.088,32.482,30.138z"/>
	</g>
	<rect x="45.294" y="34.109" fill="#FFFFFF" width="1.939" height="0.828"/>
	<rect x="44.296" y="34.109" fill="#FFFFFF" width="0.769" height="0.795"/>
	<rect x="44.228" y="35.442" fill="#FFFFFF" width="3.005" height="0.928"/>
	<rect x="45.294" y="36.861" fill="#FFFFFF" width="1.939" height="0.83"/>
	<rect x="44.296" y="36.861" fill="#FFFFFF" width="0.769" height="0.795"/>
	<rect x="57.5" y="30.5" fill="#FFFFFF" width="1" height="20"/>
	<g>
		<path fill="#FFFFFF" d="M16.708,47.481v-0.002c-0.007,0.001-0.014,0.001-0.022,0c-0.054-0.005-0.099-0.025-0.136-0.056
			l-0.003,0.021c-0.003,0-0.006-0.002-0.009-0.002c-0.003-0.001-0.004-0.002-0.008-0.002l-0.935-0.118
			c0-0.005,0.001-0.01,0.002-0.016c-0.01,0.006-0.023,0.01-0.038,0.011c-0.12,0.007-0.237-0.017-0.353-0.044l-0.303-0.04
			c-0.014,0.006-0.028,0.008-0.042,0.007c-0.053-0.008-0.104-0.016-0.155-0.031c-0.006-0.002-0.012-0.005-0.018-0.008
			c0,0.001,0,0.004,0,0.006l-0.934-0.119c-0.006-0.001-0.012,0-0.018-0.001l0.002-0.02c-0.038,0.009-0.076,0.014-0.116,0.021
			c-0.021,0.004-0.04,0-0.054-0.009l0,0.004c-0.298,0.014-0.53,0.154-0.557,0.362c-0.026,0.202,0.164,0.399,0.446,0.488
			l-0.301,2.299l1.361,1.753l1.768-1.356l0.301-2.296c0.301-0.013,0.542-0.156,0.569-0.362
			C17.183,47.764,16.995,47.568,16.708,47.481z M14.546,51.768l-0.253-0.326l0.583,0.073L14.546,51.768z M15.042,51.387l-0.873-0.11
			c-0.001,0-0.002,0.001-0.002,0.001l-0.75-0.966l2.6,0.329L15.042,51.387z M13.333,50.152l0.286-2.182
			c0.006,0.002,0.013,0.003,0.02,0.005l0.559,0.07l-0.286,2.18L13.333,50.152z M14.075,50.246l0.285-2.179l0.579,0.072l-0.285,2.18
			L14.075,50.246z M14.816,50.34l0.285-2.179l0.579,0.074l-0.285,2.179L14.816,50.34z M16.136,50.508l-0.578-0.073l0.285-2.18
			l0.57,0.073c0.004,0,0.005,0,0.008,0L16.136,50.508z M16.616,48.185c-0.004,0.001-0.007,0-0.01,0.001
			c-0.027,0.001-0.055,0.003-0.083,0.002c-0.027,0-0.054-0.002-0.083-0.006c-0.003,0-0.005,0-0.008,0l-2.774-0.353
			c-0.007-0.001-0.014-0.003-0.021-0.004c-0.028-0.004-0.055-0.009-0.081-0.015c-0.027-0.008-0.052-0.016-0.077-0.024
			c-0.001-0.001-0.002-0.001-0.002-0.001c-0.189-0.068-0.319-0.194-0.302-0.319c0.016-0.124,0.174-0.216,0.375-0.234
			c0,0,0.001,0,0.003,0c0.026-0.002,0.053-0.004,0.081-0.004c0,0,0.001,0,0.003,0c0.026,0,0.053,0.003,0.08,0.006h0.002
			c0.006,0,0.012,0,0.018,0.001l2.775,0.353c0.003,0,0.005,0.002,0.008,0.002s0.006,0.001,0.009,0.002
			c0.025,0.003,0.049,0.007,0.072,0.013c0.003,0.001,0.007,0,0.01,0.002c0.024,0.006,0.047,0.014,0.07,0.021
			c0.003,0.001,0.006,0.002,0.01,0.004c0.19,0.067,0.32,0.194,0.304,0.32C16.977,48.076,16.818,48.167,16.616,48.185z"/>
		<g>
			<g>
				<path fill="#FFFFFF" d="M13.012,42.782c-0.337,0.02-0.651-0.069-0.908-0.254c-0.269,0.087-0.946,0.233-1.555-0.248
					c-0.507-0.401-0.738-0.97-0.705-1.738c0.016-0.355,0.188-0.713,0.474-0.979c0.211-0.196,0.462-0.322,0.715-0.362
					c-0.014-0.234,0.006-0.593,0.201-0.861c0.152-0.211,0.377-0.327,0.669-0.349c0.345-0.024,0.933,0.07,1.004,0.974
					c0.009,0.116-0.075,0.218-0.186,0.226c-0.11,0.009-0.209-0.078-0.219-0.193c-0.033-0.437-0.205-0.612-0.569-0.585
					c-0.17,0.012-0.293,0.07-0.373,0.181c-0.164,0.225-0.128,0.628-0.101,0.764c0.014,0.063-0.003,0.131-0.044,0.181
					c-0.042,0.049-0.102,0.076-0.166,0.071c-0.221-0.013-0.46,0.085-0.658,0.27c-0.206,0.191-0.33,0.441-0.34,0.687
					c-0.027,0.638,0.14,1.063,0.544,1.383c0.568,0.45,1.234,0.164,1.263,0.151c0.07-0.03,0.152-0.018,0.211,0.032
					c0.22,0.191,0.52,0.269,0.845,0.219c0.357-0.056,0.69-0.259,0.848-0.516c0.392-0.636,0.292-1.444,0.291-1.452
					c-0.001-0.005-0.002-0.011-0.002-0.016l-0.294-5.064c-0.006-0.116,0.079-0.215,0.191-0.222c0.112-0.006,0.208,0.083,0.214,0.198
					l0.294,5.058c0.012,0.104,0.101,0.992-0.351,1.727c-0.222,0.359-0.654,0.629-1.129,0.702
					C13.121,42.773,13.066,42.779,13.012,42.782z"/>
			</g>
			<g>
				<path fill="#FFFFFF" d="M10.061,40.763c-0.015,0.001-0.029,0-0.044-0.002c-0.33-0.056-0.969-0.411-1.023-1.354
					c-0.036-0.625,0.288-1.072,0.636-1.299c-0.147-0.15-0.309-0.369-0.381-0.653c-0.088-0.347-0.026-0.708,0.186-1.073
					c0.249-0.43,0.88-0.668,1.471-0.556c0.512,0.098,0.857,0.433,0.945,0.919c0.021,0.114-0.052,0.224-0.162,0.244
					c-0.11,0.021-0.216-0.055-0.237-0.168c-0.076-0.418-0.419-0.544-0.617-0.581c-0.419-0.081-0.891,0.081-1.052,0.359
					c-0.153,0.264-0.201,0.516-0.143,0.747c0.099,0.397,0.477,0.63,0.481,0.632c0.072,0.044,0.112,0.13,0.099,0.215
					c-0.013,0.086-0.074,0.154-0.155,0.173c-0.297,0.069-0.7,0.43-0.667,1.019c0.05,0.844,0.675,0.959,0.682,0.961
					c0.11,0.019,0.187,0.127,0.169,0.241C10.233,40.687,10.154,40.758,10.061,40.763z"/>
			</g>
			<g>
				<path fill="#FFFFFF" d="M12.936,37.107c-0.045,0.003-0.092,0.002-0.138-0.001c-0.401-0.03-0.708-0.302-0.802-0.708
					c-0.095-0.415,0.056-0.849,0.359-1.032c0.212-0.128,0.415-0.163,0.603-0.104c0.263,0.082,0.381,0.317,0.394,0.345
					c0.05,0.104,0.008,0.23-0.093,0.281c-0.1,0.051-0.22,0.008-0.27-0.095c-0.003-0.005-0.055-0.103-0.15-0.13
					c-0.075-0.022-0.168,0-0.277,0.066c-0.149,0.09-0.224,0.341-0.171,0.572c0.031,0.133,0.128,0.361,0.434,0.384
					c0.237,0.018,0.482-0.097,0.688-0.321c0.324-0.354,0.485-0.912,0.421-1.457c-0.068-0.577-0.48-0.784-0.654-0.846
					c-0.326-0.116-0.693-0.063-0.873,0.127c-0.256,0.27-0.165,0.593-0.164,0.597c0.026,0.089-0.006,0.185-0.08,0.235
					c-0.074,0.052-0.171,0.047-0.241-0.012c-0.017-0.014-0.436-0.349-0.893-0.058c-0.225,0.142-0.417,0.574-0.338,1.026
					c0.021,0.114-0.053,0.223-0.163,0.244c-0.11,0.02-0.216-0.057-0.236-0.172c-0.102-0.577,0.123-1.205,0.523-1.459
					c0.392-0.249,0.761-0.199,1.016-0.103c0.023-0.183,0.098-0.399,0.285-0.597c0.293-0.309,0.813-0.4,1.293-0.229
					c0.522,0.186,0.86,0.622,0.928,1.195c0.08,0.676-0.118,1.349-0.529,1.797C13.554,36.933,13.249,37.09,12.936,37.107z"/>
			</g>
			<g>
				<path fill="#FFFFFF" d="M14.394,41.553c-0.017,0.002-0.035,0-0.053-0.004c-0.109-0.024-0.18-0.136-0.158-0.249l0,0
					c0.04-0.195,0.102-0.76-0.069-1.026c-0.045-0.07-0.103-0.109-0.181-0.125c-0.201-0.041-0.35-0.006-0.439,0.104
					c-0.114,0.14-0.116,0.365-0.085,0.452c0.039,0.107-0.013,0.226-0.115,0.268c-0.102,0.042-0.218-0.008-0.262-0.112
					c-0.02-0.046-0.21-0.457-0.611-0.367c-0.273,0.062-0.321,0.31-0.33,0.384c-0.017,0.155,0.038,0.298,0.134,0.347
					c0.101,0.051,0.143,0.178,0.094,0.282c-0.049,0.104-0.17,0.146-0.271,0.096c-0.253-0.129-0.398-0.44-0.36-0.775
					c0.042-0.38,0.29-0.665,0.645-0.744c0.292-0.066,0.53,0.018,0.709,0.151c0.032-0.091,0.078-0.177,0.14-0.253
					c0.132-0.162,0.381-0.335,0.825-0.246c0.185,0.037,0.338,0.144,0.443,0.308c0.297,0.461,0.148,1.256,0.13,1.345
					C14.562,41.482,14.483,41.549,14.394,41.553z"/>
			</g>
			<g>
				<path fill="#FFFFFF" d="M14.414,39.605L14.414,39.605c-0.113,0.007-0.209-0.083-0.215-0.199
					c-0.031-0.575-0.061-1.119-0.213-1.26c-0.021-0.021-0.058-0.044-0.143-0.039c-0.259,0.015-0.267,0.228-0.263,0.292
					c0.007,0.116-0.078,0.215-0.19,0.223l0,0c-0.112,0.006-0.208-0.083-0.215-0.199c-0.016-0.28,0.142-0.707,0.644-0.735
					c0.175-0.01,0.322,0.039,0.437,0.146c0.278,0.258,0.307,0.801,0.348,1.552C14.61,39.502,14.525,39.6,14.414,39.605z"/>
			</g>
		</g>
		<g>
			<g>
				<path fill="#FFFFFF" d="M16.701,42.574c-0.054,0.003-0.109,0.003-0.166,0.001c-0.479-0.021-0.94-0.239-1.202-0.572
					c-0.534-0.679-0.549-1.57-0.548-1.675l-0.294-5.057c-0.007-0.117,0.079-0.216,0.191-0.222c0.111-0.007,0.208,0.083,0.214,0.198
					l0.294,5.064c0,0.004,0,0.01,0,0.016c0,0.008-0.003,0.825,0.457,1.41c0.187,0.237,0.542,0.401,0.903,0.416
					c0.328,0.014,0.618-0.096,0.813-0.311c0.053-0.059,0.133-0.08,0.207-0.056c0.029,0.009,0.724,0.218,1.236-0.292
					c0.364-0.363,0.481-0.807,0.38-1.436c-0.039-0.242-0.191-0.478-0.418-0.645c-0.218-0.161-0.468-0.231-0.685-0.193
					c-0.063,0.012-0.126-0.008-0.173-0.053s-0.07-0.109-0.064-0.176c0.011-0.137,0-0.541-0.189-0.746
					c-0.092-0.101-0.22-0.146-0.391-0.138c-0.005,0-0.01,0-0.015,0.001c-0.356,0.02-0.5,0.213-0.484,0.645
					c0.004,0.115-0.082,0.214-0.195,0.217c-0.111,0.004-0.206-0.087-0.21-0.203c-0.035-0.906,0.537-1.066,0.885-1.08
					c0.292-0.012,0.528,0.079,0.705,0.271c0.224,0.245,0.285,0.599,0.299,0.833c0.256,0.012,0.52,0.108,0.751,0.28
					c0.314,0.232,0.527,0.568,0.584,0.921c0.122,0.759-0.041,1.35-0.499,1.806c-0.548,0.546-1.239,0.477-1.515,0.42
					C17.34,42.433,17.038,42.556,16.701,42.574z"/>
			</g>
			<g>
				<path fill="#FFFFFF" d="M19.399,40.237c-0.093,0.005-0.18-0.057-0.207-0.153c-0.031-0.113,0.031-0.228,0.138-0.26
					c0.029-0.008,0.615-0.202,0.567-1.031c-0.034-0.588-0.477-0.901-0.78-0.937c-0.083-0.01-0.152-0.071-0.174-0.155
					c-0.022-0.084,0.008-0.173,0.076-0.224c0.002-0.002,0.351-0.276,0.404-0.683c0.03-0.236-0.046-0.48-0.229-0.726
					c-0.192-0.259-0.68-0.365-1.086-0.239c-0.192,0.06-0.519,0.224-0.546,0.646c-0.007,0.115-0.104,0.202-0.216,0.194
					c-0.112-0.009-0.196-0.109-0.189-0.226c0.032-0.492,0.335-0.863,0.833-1.019c0.573-0.178,1.229-0.012,1.525,0.387
					c0.253,0.34,0.357,0.691,0.31,1.045c-0.039,0.292-0.174,0.527-0.304,0.692c0.373,0.187,0.747,0.595,0.783,1.219
					c0.055,0.943-0.539,1.367-0.86,1.46C19.429,40.233,19.415,40.236,19.399,40.237z"/>
			</g>
			<g>
				<path fill="#FFFFFF" d="M16.121,36.928c-0.314,0.018-0.635-0.104-0.919-0.35c-0.46-0.4-0.735-1.045-0.734-1.726
					c0.001-0.577,0.287-1.049,0.783-1.292c0.458-0.225,0.985-0.191,1.312,0.082c0.209,0.175,0.308,0.382,0.352,0.561
					c0.242-0.125,0.603-0.216,1.021-0.012c0.427,0.207,0.723,0.806,0.689,1.391c-0.006,0.116-0.103,0.204-0.215,0.195
					c-0.112-0.007-0.197-0.107-0.19-0.223c0.027-0.458-0.215-0.866-0.455-0.982c-0.494-0.24-0.876,0.154-0.88,0.158
					c-0.062,0.065-0.159,0.081-0.238,0.038c-0.079-0.042-0.123-0.134-0.107-0.225c0.001-0.012,0.048-0.341-0.232-0.575
					c-0.201-0.168-0.571-0.18-0.882-0.027c-0.166,0.081-0.552,0.333-0.553,0.914c0,0.549,0.225,1.085,0.587,1.4
					c0.23,0.199,0.487,0.285,0.721,0.241c0.302-0.057,0.372-0.294,0.387-0.43c0.026-0.235-0.078-0.478-0.235-0.55
					c-0.117-0.053-0.212-0.064-0.284-0.034c-0.094,0.039-0.133,0.146-0.134,0.146c-0.037,0.11-0.153,0.165-0.258,0.127
					c-0.106-0.04-0.161-0.162-0.124-0.271c0.01-0.028,0.1-0.275,0.351-0.387c0.181-0.08,0.386-0.068,0.612,0.035
					c0.323,0.148,0.523,0.563,0.477,0.984c-0.046,0.415-0.32,0.72-0.715,0.795C16.212,36.92,16.166,36.925,16.121,36.928z"/>
			</g>
			<g>
				<path fill="#FFFFFF" d="M15.186,41.509c-0.089,0.005-0.175-0.052-0.205-0.144c-0.028-0.087-0.268-0.86-0.026-1.352
					c0.085-0.175,0.226-0.298,0.405-0.355c0.431-0.138,0.699,0.007,0.848,0.151c0.07,0.068,0.127,0.15,0.169,0.236
					c0.163-0.153,0.39-0.263,0.687-0.231c0.362,0.04,0.641,0.296,0.727,0.668c0.077,0.328-0.031,0.654-0.267,0.811
					c-0.095,0.063-0.221,0.034-0.281-0.064c-0.061-0.099-0.034-0.229,0.061-0.29c0.09-0.06,0.128-0.208,0.093-0.36
					c-0.017-0.072-0.095-0.313-0.373-0.344c-0.408-0.044-0.55,0.385-0.565,0.435c-0.032,0.107-0.142,0.169-0.247,0.139
					s-0.169-0.142-0.145-0.252c0.021-0.09-0.006-0.313-0.136-0.44c-0.102-0.099-0.252-0.117-0.449-0.055
					c-0.076,0.024-0.128,0.071-0.166,0.146c-0.139,0.284-0.007,0.851,0.05,1.026c0.036,0.11-0.021,0.229-0.127,0.266
					C15.222,41.505,15.204,41.508,15.186,41.509z"/>
			</g>
			<g>
				<path fill="#FFFFFF" d="M14.941,39.576c-0.112,0.007-0.208-0.082-0.215-0.198c-0.047-0.75-0.081-1.292,0.166-1.58
					c0.102-0.119,0.243-0.185,0.417-0.195c0.502-0.027,0.709,0.379,0.726,0.659c0.006,0.116-0.079,0.216-0.19,0.222
					c-0.112,0.007-0.208-0.081-0.215-0.197c-0.007-0.083-0.049-0.276-0.295-0.263c-0.084,0.005-0.118,0.032-0.138,0.056
					c-0.134,0.157-0.101,0.7-0.065,1.274C15.139,39.471,15.054,39.57,14.941,39.576C14.942,39.576,14.942,39.576,14.941,39.576z"/>
			</g>
		</g>
		<g>
			<path fill="#FFFFFF" d="M16.406,44.615c-0.011,0.001-0.022,0-0.034-0.001c-0.111-0.013-0.192-0.116-0.181-0.232
				c0.005-0.044,0.123-1.094,1.25-1.939c0.091-0.067,0.217-0.047,0.284,0.048c0.066,0.094,0.046,0.227-0.045,0.294
				c-0.984,0.737-1.084,1.635-1.085,1.644C16.585,44.531,16.504,44.609,16.406,44.615z"/>
		</g>
		<g>
			<path fill="#FFFFFF" d="M13.351,44.186c-0.08,0.004-0.158-0.041-0.195-0.121c-0.004-0.009-0.33-0.689-1.016-0.952
				c-0.105-0.04-0.16-0.161-0.122-0.271c0.039-0.108,0.155-0.165,0.26-0.124c0.848,0.323,1.227,1.133,1.243,1.168
				c0.049,0.104,0.006,0.23-0.095,0.279C13.402,44.177,13.376,44.183,13.351,44.186z"/>
		</g>
		<g>
			<path fill="#FFFFFF" d="M15.174,44.345L15.174,44.345c-0.07,0.004-0.129-0.052-0.134-0.124c-0.001-0.026-0.034-0.656,0.272-1.166
				c0.037-0.062,0.115-0.08,0.175-0.041s0.078,0.119,0.041,0.182c-0.263,0.437-0.234,1.006-0.234,1.012
				C15.297,44.278,15.244,44.341,15.174,44.345z"/>
		</g>
		<g>
			<path fill="#FFFFFF" d="M15.494,43.252c-0.211,0.012-0.395-0.157-0.408-0.377c-0.013-0.221,0.15-0.41,0.362-0.422
				c0.212-0.012,0.395,0.158,0.408,0.378C15.869,43.052,15.707,43.24,15.494,43.252z M15.463,42.717
				c-0.072,0.004-0.128,0.068-0.124,0.144c0.005,0.075,0.067,0.133,0.14,0.129c0.073-0.004,0.128-0.068,0.124-0.144
				S15.536,42.713,15.463,42.717z"/>
		</g>
		<g>
			<path fill="#FFFFFF" d="M14.734,44.37c-0.07,0.003-0.13-0.052-0.134-0.125l0,0c-0.001-0.005-0.039-0.573-0.35-0.979
				c-0.043-0.058-0.035-0.14,0.02-0.185c0.055-0.046,0.134-0.036,0.179,0.021c0.362,0.472,0.403,1.102,0.405,1.128
				C14.857,44.304,14.804,44.365,14.734,44.37z"/>
		</g>
		<g>
			<path fill="#FFFFFF" d="M14.289,43.32c-0.212,0.012-0.395-0.157-0.407-0.378c-0.013-0.22,0.149-0.409,0.361-0.421
				c0.212-0.012,0.396,0.157,0.407,0.377C14.664,43.119,14.502,43.309,14.289,43.32z M14.258,42.785
				c-0.073,0.003-0.128,0.067-0.124,0.143c0.004,0.075,0.067,0.134,0.14,0.13c0.072-0.005,0.128-0.069,0.124-0.145
				S14.331,42.78,14.258,42.785z"/>
		</g>
		<g>
			<path fill="#FFFFFF" d="M14.258,42.775c-0.077,0.004-0.137,0.072-0.132,0.153c0.004,0.08,0.072,0.143,0.149,0.138
				c0.077-0.004,0.137-0.073,0.132-0.153C14.403,42.832,14.335,42.771,14.258,42.775z"/>
			<path fill="#FFFFFF" d="M15.463,42.707c-0.078,0.004-0.137,0.073-0.132,0.154c0.004,0.08,0.072,0.142,0.149,0.138
				c0.078-0.004,0.137-0.073,0.132-0.154C15.607,42.764,15.54,42.702,15.463,42.707z"/>
		</g>
		<path fill="#FFFFFF" d="M14.67,33.192c0.003,0.096-0.072,0.176-0.168,0.18h-0.003c-0.097,0.004-0.178-0.07-0.183-0.165
			l-0.048-1.225c-0.003-0.096,0.071-0.176,0.168-0.18h0.003c0.097-0.003,0.179,0.071,0.182,0.166L14.67,33.192z"/>
		<path fill="#FFFFFF" d="M19.027,34.996c-0.061,0.076-0.181,0.104-0.256,0.045l-0.002-0.002c-0.075-0.058-0.086-0.167-0.025-0.243
			l0.782-0.982c0.061-0.077,0.174-0.096,0.252-0.041l0.003,0.002c0.078,0.055,0.089,0.163,0.028,0.239L19.027,34.996z"/>
		<path fill="#FFFFFF" d="M10.141,34.942c0.062,0.075,0.051,0.181-0.025,0.237l-0.003,0.002c-0.076,0.057-0.188,0.042-0.251-0.032
			l-0.804-0.971c-0.062-0.075-0.059-0.191,0.02-0.245l0.003-0.002c0.078-0.053,0.193-0.035,0.255,0.039L10.141,34.942z"/>
		<g>
			<path fill="#FFFFFF" d="M12.986,46.542c-0.021,0.183,0.105,0.349,0.281,0.37l3.672,0.46c0.177,0.021,0.335-0.107,0.355-0.29
				l0.014-0.125c0.021-0.184-0.106-0.349-0.282-0.371l-3.672-0.459c-0.176-0.022-0.335,0.107-0.355,0.29L12.986,46.542z"/>
			<path fill="#FFFFFF" d="M12.931,45.61c-0.02,0.182,0.106,0.347,0.283,0.369l3.672,0.46c0.175,0.022,0.334-0.107,0.355-0.29
				l0.014-0.126c0.021-0.183-0.106-0.349-0.282-0.37l-3.672-0.459c-0.176-0.022-0.335,0.107-0.355,0.29L12.931,45.61z"/>
			<path fill="#FFFFFF" d="M12.877,44.678c-0.02,0.182,0.106,0.347,0.282,0.368l3.672,0.461c0.176,0.022,0.335-0.108,0.355-0.291
				l0.014-0.126c0.02-0.182-0.106-0.347-0.282-0.369l-3.672-0.46c-0.176-0.021-0.335,0.107-0.355,0.29L12.877,44.678z"/>
		</g>
		<path fill="#FFFFFF" d="M7.607,39.389c0.211,0.097,0.388,0.251,0.583,0.374c0.008,0.016,0.017,0.03,0.025,0.045
			c0.062,0.064,0.044,0.158,0.078,0.232c0.021,0.117,0.054,0.23,0.113,0.333c0.051,0.043,0.046,0.112,0.072,0.167H8.478
			c0.069,0.032,0.087,0.087,0.069,0.162c0.044,0.158,0.133,0.293,0.207,0.436c0.052,0.026,0.047,0.088,0.075,0.13
			c0.035,0.098,0.092,0.184,0.149,0.268c0.038,0.044,0.081,0.083,0.098,0.144c0.103,0.19,0.229,0.361,0.37,0.522
			c0.042,0.034,0.067,0.084,0.104,0.123c0.08,0.029,0.062,0.15,0.144,0.177c0.086,0.092,0.177,0.182,0.259,0.279
			c0.017,0.018,0.034,0.036,0.051,0.054c0.042,0.03,0.076,0.068,0.106,0.111c0.079,0.066,0.12,0.188,0.243,0.187
			c0.055,0.058,0.11,0.116,0.165,0.175c0.339,0.264,0.678,0.522,1.068,0.709c0.193,0.091,0.379,0.204,0.581,0.281
			c0.063,0.003,0.109,0.058,0.171,0.064c0.041,0.023,0.082,0.047,0.122,0.07c-0.034,0.106-0.118,0.04-0.178,0.06
			c-0.025-0.001-0.051-0.002-0.077-0.011c-0.08-0.045-0.171-0.004-0.252-0.036c-0.059-0.017-0.123,0.02-0.179-0.023l0.002,0.002
			c-0.06-0.04-0.133,0.012-0.191-0.034l0.002,0.001c-0.06-0.039-0.132,0.012-0.19-0.033c-0.114-0.01-0.229-0.022-0.335-0.067
			c-0.229-0.023-0.445-0.104-0.667-0.163c-0.188-0.027-0.36-0.123-0.55-0.137c-0.057-0.058-0.14-0.057-0.203-0.101
			c-0.166-0.057-0.331-0.112-0.498-0.168c-0.013-0.004-0.026-0.008-0.039-0.012c-0.057-0.037-0.127-0.045-0.184-0.084
			c-0.012-0.01-0.023-0.021-0.035-0.031c-0.047-0.032-0.104-0.039-0.153-0.066c-0.096-0.044-0.191-0.089-0.288-0.133
			c-0.113-0.056-0.224-0.114-0.339-0.166c-0.078-0.022-0.133-0.097-0.216-0.105c-0.013-0.004-0.024-0.01-0.035-0.018
			c-0.032-0.022-0.056-0.057-0.093-0.072c-0.114-0.068-0.229-0.136-0.343-0.203c-0.07-0.048-0.143-0.094-0.22-0.129
			c-0.093-0.03-0.137-0.132-0.224-0.171c-0.06-0.046-0.124-0.084-0.183-0.129c-0.104-0.079-0.208-0.158-0.313-0.237
			c-0.045-0.029-0.082-0.069-0.127-0.1c-0.155-0.134-0.312-0.267-0.467-0.399c-0.042-0.046-0.072-0.103-0.128-0.133
			c-0.061-0.056-0.122-0.111-0.182-0.167c-0.039-0.05-0.082-0.097-0.13-0.137c-0.034-0.042-0.069-0.085-0.103-0.127
			c-0.043-0.039-0.084-0.08-0.118-0.129c-0.051-0.057-0.104-0.113-0.154-0.17c-0.038-0.058-0.086-0.106-0.128-0.16
			c-0.05-0.059-0.101-0.117-0.15-0.176c-0.039-0.024-0.095-0.034-0.087-0.104c-0.295-0.401-0.576-0.816-0.821-1.253
			c-0.187-0.332-0.374-0.668-0.504-1.032c-0.034-0.074-0.06-0.152-0.098-0.226c-0.041-0.102-0.081-0.204-0.121-0.306
			C3.13,37.492,3.12,37.431,3.1,37.373l0.002,0.002c-0.035-0.058-0.05-0.127-0.097-0.178c-0.001-0.175-0.115-0.315-0.131-0.485
			c-0.016-0.056-0.047-0.106-0.046-0.167c-0.002-0.038-0.001-0.072,0.049-0.065c0.05,0.05,0.1,0.098,0.151,0.146
			c0.052,0.003,0.074,0.038,0.086,0.085c0.073,0.083,0.144,0.17,0.232,0.234c0.204,0.298,0.486,0.503,0.757,0.72
			c0.324,0.259,0.657,0.507,1.015,0.714c0.206,0.119,0.404,0.259,0.631,0.332c0.102,0.036,0.198,0.08,0.287,0.146
			c0.12,0.064,0.243,0.124,0.377,0.151c0.094,0.038,0.199,0.041,0.281,0.112c0.171,0.073,0.347,0.129,0.53,0.154
			c0.083,0.035,0.177-0.004,0.26,0.04C7.521,39.347,7.581,39.338,7.607,39.389z"/>
		<path fill="#FFFFFF" d="M8.818,25.065c-0.029-0.023-0.058-0.047-0.086-0.069c-0.062-0.027-0.106-0.071-0.13-0.137
			c-0.014-0.021-0.027-0.04-0.042-0.06c-0.076-0.07-0.147-0.144-0.212-0.227c-0.125-0.146-0.25-0.292-0.375-0.438
			c-0.03-0.045-0.062-0.087-0.095-0.129c-0.052-0.068-0.103-0.136-0.154-0.203c-0.028-0.062-0.094-0.087-0.123-0.147
			c-0.137-0.229-0.277-0.457-0.409-0.689c-0.221-0.391-0.421-0.793-0.565-1.225c-0.026-0.055-0.041-0.114-0.06-0.171l0.001,0.003
			c-0.052-0.088-0.062-0.193-0.1-0.288c-0.042-0.134-0.1-0.265-0.121-0.407c-0.065-0.229-0.125-0.461-0.158-0.7
			c-0.048-0.059-0.017-0.133-0.035-0.198c-0.033-0.042,0-0.099-0.027-0.144c-0.001-0.019-0.003-0.037-0.004-0.056
			c-0.032-0.056,0.002-0.122-0.027-0.177c0.007-0.009,0.007-0.016-0.002-0.022c-0.096-0.599-0.09-1.203-0.071-1.807
			c0.005-0.136-0.003-0.283,0.044-0.419l-0.002,0.003c0.035-0.064-0.009-0.141,0.029-0.204v0.002
			c0.099-0.079,0.169,0.003,0.246,0.048c0.135,0.046,0.257,0.131,0.4,0.153c0.056,0.022,0.117,0.026,0.164,0.073L6.9,17.428
			C6.949,17.44,7,17.446,7.03,17.497c0.289,0.153,0.578,0.307,0.867,0.46c0.06,0.028,0.124,0.049,0.167,0.106
			c0.08,0.058,0.15,0.131,0.247,0.157c0.07,0.038,0.14,0.074,0.193,0.139c0.239,0.187,0.477,0.373,0.716,0.56
			c0.051,0.025,0.093,0.063,0.128,0.108c0.014,0.027,0.032,0.051,0.062,0.057c0.062,0.037,0.111,0.09,0.157,0.146
			c0.035,0.048,0.073,0.092,0.126,0.119c0.085,0.057,0.149,0.138,0.218,0.213c0.111,0.118,0.223,0.236,0.334,0.355
			c0.071,0.073,0.147,0.142,0.201,0.231c0.036,0.067,0.088,0.118,0.142,0.167c0.05,0.031,0.078,0.083,0.108,0.133
			c0.024,0.071,0.091,0.104,0.131,0.162c0.055,0.036,0.107,0.074,0.116,0.149c0.005,0.059,0.051,0.085,0.085,0.121
			c0.043,0.035,0.081,0.075,0.101,0.131c0.063,0.137,0.16,0.247,0.248,0.366c0.04,0.042,0.083,0.082,0.099,0.143
			c0.034,0.097,0.093,0.177,0.154,0.256c0.05,0.042,0.077,0.102,0.101,0.162c0.133,0.234,0.267,0.468,0.399,0.702
			c0.051,0.042,0.059,0.115,0.102,0.163c0.089,0.189,0.178,0.379,0.267,0.569c0.057,0.028,0.056,0.09,0.073,0.141
			c0.042,0.098,0.068,0.202,0.132,0.288c0.057,0.109,0.115,0.219,0.152,0.339c0.026,0.121,0.085,0.226,0.15,0.328
			c0.064,0.066,0.084,0.16,0.131,0.238c0.162,0.327,0.374,0.615,0.605,0.888c0.164,0.191,0.336,0.374,0.523,0.538
			c0.119-0.008,0.142,0.12,0.217,0.173c0.15,0.141,0.313,0.263,0.491,0.358c0.102,0.033,0.181,0.104,0.262,0.173
			c0.086,0.066,0.172,0.136,0.281,0.156c0.086,0.043,0.184,0.064,0.251,0.143c0.098,0.064,0.197,0.127,0.31,0.158
			c0.07,0.024,0.143,0.043,0.19,0.11c0.112,0.066,0.216,0.15,0.341,0.189c0.045,0.021,0.1,0.021,0.128,0.072l-0.003-0.003
			c0.057,0.029,0.119,0.05,0.162,0.103c0.067,0.052,0.133,0.104,0.214,0.127c0.065,0.017,0.121,0.05,0.161,0.108
			c0.08,0.059,0.151,0.13,0.248,0.157c0.052,0.04,0.123,0.048,0.159,0.113c0.097,0.053,0.163,0.156,0.273,0.188
			c0.057,0.018,0.095,0.063,0.135,0.104c0.113,0.087,0.227,0.174,0.34,0.26c0.052,0.024,0.094,0.063,0.129,0.108
			c0.039,0.059,0.091,0.097,0.151,0.125c0.068,0.029,0.113,0.089,0.162,0.144c0.037,0.046,0.072,0.096,0.129,0.119
			c0.066,0.027,0.139,0.047,0.154,0.14c0.045,0.063,0.091,0.123,0.159,0.159c0.068,0.054,0.13,0.113,0.184,0.183
			c0.048,0.052,0.097,0.103,0.144,0.153c0.058,0.044,0.1,0.104,0.142,0.163c0.025,0.06,0.069,0.102,0.121,0.135
			c0.112,0.028,0.146,0.148,0.227,0.213c0.79,1.012,1.376,2.141,1.751,3.391c0.08,0.319,0.182,0.631,0.239,0.956
			c0.127,0.644,0.214,1.293,0.251,1.951c0.021,0.376,0.027,0.751,0.024,1.127c-0.008,0.928-0.185,1.82-0.537,2.672
			c-0.036,0.088-0.098,0.156-0.139,0.24c0.012,0.035-0.024,0.047-0.032,0.073c-0.036,0.075-0.077,0.146-0.129,0.207
			c-0.061,0.081-0.111,0.169-0.149,0.264c-0.039,0.071-0.07,0.148-0.132,0.202c-0.081,0.071-0.114,0.18-0.181,0.262
			c-0.025,0.054-0.059,0.1-0.104,0.136c-0.034,0.027-0.067,0.055-0.083,0.101c-0.036,0.064-0.084,0.118-0.139,0.166
			c-0.122,0.128-0.243,0.258-0.364,0.386c-0.046,0.059-0.094,0.113-0.16,0.147c-0.071,0.063-0.144,0.126-0.216,0.188
			c-0.034,0.049-0.078,0.085-0.129,0.11c-0.072,0.053-0.143,0.106-0.214,0.159c-0.04,0.043-0.078,0.089-0.136,0.104
			c-0.268,0.169-0.534,0.338-0.801,0.506c-0.081,0.051-0.166,0.096-0.253,0.13c-0.03,0.011-0.061,0.022-0.09,0.034
			c-0.037,0.017-0.076,0.043-0.092-0.024c0.204-0.165,0.408-0.327,0.609-0.494c0.091-0.077,0.177-0.163,0.265-0.244
			c0.079-0.057,0.137-0.137,0.209-0.201c0.024-0.025,0.049-0.051,0.072-0.076c0.06-0.077,0.138-0.139,0.189-0.224
			c0.032-0.041,0.064-0.084,0.096-0.125c0.042-0.045,0.093-0.082,0.123-0.141c0.295-0.367,0.538-0.771,0.752-1.197
			c0.049-0.057,0.063-0.135,0.098-0.2c0.025-0.089,0.09-0.161,0.092-0.26c0.068-0.104,0.106-0.223,0.154-0.337
			c0.033-0.168,0.138-0.313,0.134-0.493c0.002-0.016,0.007-0.031,0.013-0.046c0.076-0.143,0.085-0.307,0.136-0.457l0,0
			c0.039-0.063-0.012-0.141,0.033-0.201c0.003-0.055-0.01-0.112,0.03-0.158c0.035-0.064-0.009-0.143,0.029-0.207
			c0.009-0.008,0.01-0.016,0.003-0.025c0.037-0.088-0.013-0.187,0.03-0.274c0.009-0.007,0.009-0.015,0.001-0.023
			c0.021-0.406,0.021-0.813,0-1.221c-0.001-0.028-0.003-0.057-0.005-0.085c-0.034-0.064,0.007-0.142-0.027-0.207
			c0.006-0.01,0.004-0.019-0.003-0.025c-0.033-0.053,0.005-0.119-0.028-0.172c0.005-0.01,0.005-0.02-0.003-0.027
			c-0.017-0.055-0.031-0.111-0.071-0.154c-0.04-0.099-0.067-0.199-0.038-0.307c-0.012-0.172-0.066-0.333-0.11-0.497
			c-0.051-0.157-0.102-0.313-0.152-0.47c-0.028-0.055-0.052-0.111-0.062-0.173l0.001,0.002c-0.039-0.044-0.035-0.109-0.07-0.156
			c-0.041-0.09-0.081-0.182-0.121-0.271c-0.029-0.042-0.032-0.099-0.067-0.137c-0.215-0.425-0.451-0.833-0.754-1.194
			c-0.033-0.029-0.086-0.041-0.083-0.104c-0.055-0.105-0.131-0.191-0.221-0.265c-0.047-0.02-0.081-0.054-0.098-0.104
			c-0.237-0.296-0.531-0.522-0.817-0.757c-0.044-0.029-0.079-0.071-0.126-0.097c-0.24-0.143-0.448-0.344-0.716-0.437
			c-0.068-0.082-0.171-0.103-0.254-0.159c-0.125-0.041-0.232-0.128-0.367-0.142c-0.081-0.085-0.189-0.097-0.291-0.128
			c-0.163-0.069-0.331-0.125-0.502-0.168c-0.257-0.076-0.519-0.123-0.782-0.171l0.002,0.002c-0.081-0.041-0.173,0.014-0.254-0.032
			c-0.016-0.001-0.031-0.001-0.047-0.002c-0.149-0.04-0.305,0.015-0.454-0.03c-0.073-0.014-0.146-0.015-0.219,0
			c-0.148,0.044-0.303-0.01-0.452,0.03c-0.017,0.001-0.033,0.001-0.049,0.002c-0.082,0.045-0.173-0.008-0.255,0.031l0.003-0.002
			c-0.236,0.049-0.476,0.079-0.707,0.15c-0.037,0.012-0.072-0.003-0.108-0.011c-0.487-0.101-0.982-0.102-1.475-0.08
			c-0.293,0.014-0.585,0.064-0.877,0.11l-0.014-0.003l-0.014,0.007c-0.028,0.024-0.063,0.018-0.096,0.023
			c-0.14,0.061-0.302,0.02-0.436,0.109c-0.103,0.026-0.203,0.061-0.302,0.101c-0.037,0.016-0.075,0.044-0.1-0.018
			c0-0.046-0.001-0.092-0.002-0.137c0.016-0.143,0.018-0.288,0.095-0.415c0.064-0.146,0.138-0.286,0.247-0.402
			c0.042-0.061,0.094-0.113,0.15-0.161c0.049-0.049,0.077-0.078-0.006-0.139c-0.106-0.075-0.179-0.194-0.173-0.341
			c0.003-0.081-0.045-0.114-0.095-0.152c-0.1-0.053-0.208-0.075-0.315-0.101l-0.01-0.008l-0.01,0.005
			c-0.133-0.022-0.267-0.021-0.401,0l-0.009-0.006l-0.008,0.007c-0.2,0.029-0.389,0.101-0.579,0.165
			c-0.109,0.059-0.233,0.082-0.33,0.17c-0.066,0.035-0.109,0.033-0.093-0.065l0,0.001c0.035-0.038,0.038-0.094,0.066-0.136
			c0.051-0.09,0.102-0.18,0.153-0.27c0.034-0.041,0.064-0.085,0.097-0.127l-0.001,0.002c0.039-0.08,0.114-0.129,0.158-0.203
			c0.02-0.021,0.04-0.042,0.059-0.063c0.041-0.034,0.082-0.067,0.121-0.104c0.127-0.089,0.254-0.178,0.381-0.267
			c0.109-0.036,0.203-0.115,0.319-0.13c0.124-0.034,0.247-0.069,0.371-0.104c0.049-0.035,0.111,0.005,0.16-0.029l-0.002,0.002
			c0.188-0.046,0.381-0.026,0.57-0.017c0.327,0.016,0.635-0.065,0.945-0.15c0.124-0.037,0.25-0.066,0.362-0.136
			c0.053-0.026,0.107-0.045,0.164-0.062l-0.003,0.003c0.042-0.045,0.105-0.04,0.15-0.075c0.069-0.049,0.16-0.04,0.224-0.104
			c0.062-0.017,0.125-0.024,0.188,0.005c0.095,0.046,0.194,0.073,0.3,0.069c0.206,0.041,0.411,0.084,0.605,0.174
			c0.141,0.054,0.284,0.102,0.433,0.125c0.129,0.041,0.266,0.059,0.381,0.142c0.111,0.052,0.224,0.099,0.345,0.122
			c0.141,0.045,0.28,0.094,0.407,0.177c0.117,0.064,0.234,0.128,0.364,0.159c0.096,0.025,0.187,0.066,0.263,0.137
			c0.078,0.055,0.156,0.108,0.251,0.125c0.085,0.045,0.183,0.064,0.249,0.145c0.111,0.065,0.212,0.148,0.335,0.191
			c0.06,0.03,0.126,0.048,0.166,0.11c0.345,0.223,0.669,0.475,1,0.72c0.051,0.02,0.084,0.068,0.132,0.096
			c0.41,0.396,0.836,0.773,1.208,1.214c0.136,0.161,0.271,0.324,0.406,0.486c0.061,0.05,0.126,0.096,0.158,0.175
			c0.013,0.011,0.007,0.038,0.03,0.041c-0.017-0.014-0.021-0.036-0.031-0.053c-0.042-0.058-0.057-0.128-0.079-0.194
			c-0.011-0.024-0.021-0.049-0.032-0.073c-0.049-0.072-0.072-0.161-0.125-0.232c-0.125-0.229-0.259-0.452-0.409-0.665
			c-0.026-0.047-0.063-0.087-0.092-0.131c-0.01-0.012-0.02-0.022-0.029-0.034c-0.032-0.044-0.063-0.087-0.097-0.129
			c-0.021-0.023-0.041-0.047-0.061-0.071c-0.044-0.073-0.11-0.125-0.158-0.194c-0.128-0.134-0.257-0.269-0.385-0.404
			c-0.036-0.036-0.076-0.07-0.117-0.101c-0.022-0.022-0.044-0.044-0.067-0.064c-0.039-0.034-0.077-0.071-0.12-0.1
			c-0.054-0.026-0.076-0.101-0.145-0.104c-0.049-0.038-0.079-0.1-0.137-0.126c-0.075-0.057-0.15-0.113-0.225-0.169
			c-0.048-0.036-0.105-0.059-0.151-0.099c-0.103-0.052-0.187-0.142-0.301-0.171c-0.069-0.067-0.15-0.112-0.231-0.158
			c-0.085-0.046-0.171-0.092-0.256-0.138c-0.093-0.044-0.184-0.094-0.278-0.138c-0.12-0.055-0.24-0.11-0.36-0.165
			c-0.089-0.029-0.182-0.049-0.262-0.104l0.003,0.003c-0.056-0.016-0.108-0.038-0.163-0.059c-0.138-0.046-0.277-0.09-0.415-0.135
			c-0.155-0.041-0.309-0.089-0.463-0.138c-0.198-0.054-0.396-0.107-0.594-0.162c-0.104-0.034-0.21-0.065-0.314-0.103
			c-0.198-0.065-0.396-0.131-0.594-0.196c-0.115-0.047-0.232-0.084-0.346-0.134c-0.137-0.055-0.273-0.11-0.411-0.165
			c-0.101-0.05-0.21-0.081-0.31-0.136c-0.094-0.043-0.189-0.087-0.284-0.131c-0.116-0.053-0.227-0.117-0.342-0.171
			c-0.058-0.033-0.115-0.066-0.173-0.1c-0.082-0.031-0.155-0.083-0.232-0.123c-0.439-0.233-0.849-0.517-1.25-0.815
			c-0.016-0.013-0.036-0.017-0.054-0.024c-0.05-0.037-0.079-0.101-0.138-0.126c-0.169-0.146-0.337-0.29-0.506-0.435
			C8.937,25.182,8.888,25.11,8.818,25.065z"/>
		<path fill="#FFFFFF" d="M9.543,29.891c-0.044,0.035-0.095,0.056-0.153,0.054C9.431,29.897,9.482,29.88,9.543,29.891z"/>
		<path fill="#FFFFFF" d="M9.683,29.828c-0.035,0.048-0.088,0.057-0.142,0.064C9.571,29.835,9.625,29.828,9.683,29.828z"/>
		<path fill="#FFFFFF" d="M8.868,30.341c0.004-0.134-0.015-0.267,0.063-0.394c0.126-0.205,0.352-0.289,0.591-0.201
			c0.192,0.069,0.348,0.341,0.315,0.547c-0.04,0.245-0.244,0.438-0.463,0.451c-0.146,0.008-0.269-0.04-0.378-0.137
			c-0.052-0.041-0.091-0.094-0.114-0.16C8.87,30.413,8.897,30.373,8.868,30.341z"/>
		<path fill="#FFFFFF" d="M8.846,30.648c0.023,0.042,0.043,0.086,0.068,0.127c0.047,0.076,0.131,0.131,0.001,0.23
			c-0.084,0.064-0.038,0.188,0.034,0.267c0.063,0.069,0.044,0.097-0.023,0.146c-0.073,0.055-0.097,0.031-0.141-0.035
			c-0.211-0.314-0.427-0.626-0.645-0.935c-0.037-0.053-0.068-0.096,0.008-0.123c0.044-0.016,0.083-0.141,0.148-0.012
			c0.044,0.087,0.094,0.171,0.212,0.055c0.073-0.074,0.143,0.036,0.207,0.082c0.026,0.01,0.044,0.029,0.057,0.055
			C8.793,30.555,8.843,30.588,8.846,30.648z"/>
		<path fill="#FFFFFF" d="M22.125,34.647c0.127-0.225,0.204-0.474,0.307-0.71c0.01-0.052,0.051-0.084,0.071-0.13
			c0.029-0.059,0.062-0.112,0.114-0.151c0.283-0.406,0.518-0.844,0.756-1.28c0.031-0.087,0.077-0.166,0.118-0.248
			c0.063-0.145,0.127-0.289,0.191-0.434c0.035-0.076,0.062-0.156,0.096-0.232c0.052-0.132,0.103-0.265,0.154-0.396
			c0.086-0.006,0.023,0.082,0.06,0.107c-0.004,0.124,0.023,0.241,0.063,0.355c0.082,0.495,0.16,0.989,0.144,1.494
			c-0.001,0.049-0.009,0.1,0.013,0.146c0,0.192,0,0.384,0,0.576c-0.027,0.124-0.007,0.251-0.012,0.376
			c-0.012,0.294-0.037,0.587-0.089,0.875c-0.014,0.074,0.02,0.153-0.026,0.223l0.002-0.004c-0.031,0.053,0.01,0.12-0.03,0.172
			c-0.045,0.17-0.083,0.342-0.095,0.52c-0.038,0.183-0.055,0.371-0.137,0.54c-0.049,0.186-0.097,0.372-0.145,0.558
			c-0.046,0.123-0.063,0.259-0.131,0.373c-0.066,0.136-0.111,0.278-0.151,0.424c-0.021,0.06-0.023,0.129-0.075,0.174
			c-0.17,0.366-0.326,0.741-0.52,1.095c-0.239,0.433-0.482,0.861-0.782,1.252c-0.015,0.021-0.022,0.047-0.034,0.071
			c-0.019,0.061-0.056,0.105-0.105,0.142c-0.038,0.039-0.077,0.079-0.115,0.118c0.075-0.193,0.149-0.388,0.221-0.583
			c0.345-0.939,0.435-1.919,0.411-2.918C22.376,36.308,22.279,35.475,22.125,34.647z"/>
		<path fill="#FFFFFF" d="M21.857,33.9c-0.135-0.357-0.261-0.717-0.405-1.069c-0.288-0.7-0.657-1.349-1.103-1.949
			c-0.083-0.111-0.162-0.228-0.243-0.342c-0.043-0.097-0.112-0.181-0.129-0.29c-0.032-0.058-0.063-0.116-0.095-0.175
			c-0.032-0.056-0.06-0.113-0.087-0.171l0.002,0.001c-0.055-0.037-0.072-0.101-0.1-0.157c-0.042-0.068-0.084-0.137-0.126-0.205
			c-0.027-0.047-0.063-0.086-0.093-0.13c-0.011-0.013-0.021-0.023-0.031-0.035c-0.03-0.046-0.064-0.088-0.095-0.133h0
			c-0.063-0.039-0.127-0.08-0.169-0.144c-0.113-0.176-0.284-0.283-0.426-0.424c-0.034-0.033-0.068-0.065-0.102-0.098
			c-0.073-0.023-0.117-0.092-0.179-0.133c-0.075-0.056-0.149-0.111-0.224-0.167c-0.086-0.048-0.159-0.118-0.246-0.163
			c-0.087-0.057-0.174-0.113-0.26-0.169c-0.037-0.026-0.081-0.035-0.116-0.064c-0.094-0.056-0.188-0.112-0.281-0.168
			c-0.094-0.036-0.167-0.109-0.251-0.163c-0.085-0.057-0.17-0.113-0.255-0.17c-0.06-0.045-0.123-0.084-0.183-0.128
			c-0.064-0.046-0.128-0.092-0.191-0.138c-0.084-0.037-0.143-0.112-0.216-0.166c-0.066-0.056-0.131-0.11-0.197-0.166
			c-0.042-0.054-0.127-0.048-0.148-0.127c-0.064-0.058-0.128-0.115-0.193-0.172c-0.052-0.044-0.097-0.097-0.151-0.137
			c-0.187-0.198-0.373-0.396-0.56-0.594c-0.054-0.109-0.188-0.144-0.223-0.271c-0.042-0.055-0.084-0.108-0.126-0.162
			c-0.037-0.083-0.131-0.121-0.152-0.217c-0.054-0.071-0.108-0.145-0.162-0.217c-0.026-0.048-0.067-0.086-0.094-0.135
			c-0.166-0.276-0.333-0.552-0.499-0.828c-0.04-0.051-0.056-0.117-0.096-0.168c-0.125-0.255-0.249-0.508-0.373-0.763
			c-0.047-0.123-0.109-0.24-0.159-0.361c-0.01-0.013-0.02-0.025-0.031-0.038c-0.042-0.036-0.048-0.089-0.06-0.141
			c-0.011-0.041-0.021-0.083-0.031-0.124c-0.03-0.055-0.042-0.115-0.062-0.172l0.002,0.002c-0.034-0.058-0.048-0.128-0.097-0.176
			c-0.015-0.187-0.123-0.34-0.158-0.519c-0.053-0.126-0.082-0.261-0.127-0.39c-0.061-0.181-0.123-0.36-0.184-0.541
			c-0.033-0.058-0.04-0.131-0.097-0.175c-0.017-0.146-0.115-0.257-0.159-0.392c-0.037-0.051-0.052-0.116-0.093-0.164
			c-0.132-0.231-0.271-0.457-0.434-0.666c-0.035-0.056-0.086-0.096-0.127-0.146c-0.012-0.05-0.042-0.086-0.076-0.121
			c-0.052-0.044-0.09-0.107-0.155-0.136c-0.025-0.015-0.046-0.033-0.046-0.067c-0.197-0.251-0.438-0.451-0.67-0.661
			c-0.041-0.033-0.075-0.071-0.12-0.098c-0.086-0.05-0.15-0.135-0.246-0.17c-0.037-0.067-0.107-0.09-0.162-0.132
			c-0.082-0.056-0.165-0.11-0.247-0.165c-0.05-0.039-0.108-0.063-0.16-0.099c-0.027-0.006-0.048-0.019-0.057-0.049
			c-0.03-0.104,0.047-0.072,0.092-0.081c0.092,0.024,0.191,0.02,0.273,0.078c0.195,0.052,0.39,0.103,0.585,0.154
			c0.143,0.035,0.285,0.074,0.417,0.145c0.115,0.039,0.229,0.079,0.344,0.118c0.118,0.041,0.241,0.069,0.345,0.146
			c0.119,0.063,0.24,0.12,0.37,0.155c0.102,0.035,0.2,0.078,0.288,0.145c0.103,0.056,0.199,0.125,0.313,0.152
			c0.087,0.041,0.183,0.064,0.251,0.142c0.073,0.056,0.151,0.103,0.239,0.128c0.061,0.027,0.126,0.047,0.167,0.109
			c0.116,0.072,0.233,0.145,0.349,0.218c0.039,0.029,0.1,0.023,0.121,0.083c0.403,0.269,0.775,0.582,1.156,0.884
			c0.05,0.027,0.096,0.062,0.128,0.112c0.019,0.018,0.039,0.036,0.058,0.054c0.079,0.042,0.134,0.112,0.192,0.179
			c0.052,0.051,0.104,0.102,0.155,0.152c0.197,0.171,0.375,0.361,0.536,0.568c0.037,0.065,0.086,0.118,0.143,0.166
			c0.055,0.047,0.105,0.1,0.139,0.167c0.227,0.31,0.455,0.619,0.681,0.929c0.064,0.052,0.096,0.13,0.133,0.202
			c0.165,0.288,0.329,0.575,0.492,0.862c0.052,0.026,0.049,0.088,0.073,0.132c0.048,0.1,0.095,0.2,0.142,0.3
			c0.067,0.088,0.096,0.196,0.141,0.296c0.014,0.101,0.068,0.182,0.11,0.27c0.079,0.095,0.091,0.222,0.14,0.331
			c0.031,0.13,0.08,0.251,0.143,0.366c0.062,0.093,0.102,0.197,0.138,0.303c0.198,0.501,0.429,0.984,0.754,1.405
			c0.96,1.243,1.654,2.641,2.163,4.147c0.195,0.579,0.342,1.172,0.441,1.778c0.028,0.028,0.05,0.06,0.06,0.1
			c0.06,0.326,0.095,0.655,0.106,0.987C21.906,33.756,21.917,33.838,21.857,33.9z"/>
		<path fill="#FFFFFF" d="M4.844,36.405c-0.077-0.143-0.153-0.285-0.229-0.427c-0.036-0.057-0.065-0.116-0.091-0.179
			c-0.187-0.32-0.328-0.663-0.443-1.019c-0.036-0.104-0.069-0.208-0.124-0.302c-0.004-0.165-0.073-0.313-0.108-0.47
			c-0.01-0.042-0.007-0.084-0.018-0.126c-0.218-0.985-0.197-1.972-0.001-2.958c0.034-0.154,0.062-0.312,0.104-0.463
			c0.018-0.064,0.024-0.125,0.025-0.189c0.075-0.127,0.095-0.278,0.155-0.412c0.041-0.113,0.082-0.228,0.122-0.342
			c0.027-0.088,0.06-0.174,0.099-0.258c0.04-0.16,0.156-0.287,0.188-0.451c0.051-0.092,0.105-0.182,0.148-0.277
			c0.006-0.01,0.01-0.02,0.011-0.03c0.066-0.034,0.078,0.015,0.084,0.063c0.008,0.063,0.003,0.127,0.003,0.19
			c0,0.29,0,0.579,0.079,0.86c0.017,0.039,0.011,0.077-0.012,0.111c0.032,0.193,0.07,0.386,0.143,0.568
			c0.046,0.043,0.039,0.113,0.073,0.162c0.189,0.623,0.558,1.12,0.988,1.571c0.022,0.023,0.048,0.04,0.073,0.06
			c0.048,0.031,0.094,0.063,0.126,0.113c0.205,0.191,0.429,0.354,0.65,0.521C6.959,32.742,7,32.792,7.023,32.86
			c0.173,0.193,0.324,0.403,0.458,0.628c0.072,0.063,0.093,0.16,0.136,0.242c0.03,0.1,0.062,0.199,0.116,0.289
			c0.08,0.104,0.089,0.243,0.154,0.355c0.006,0.025,0,0.05-0.012,0.072c0.046,0.179,0.093,0.357,0.139,0.536
			c0.078,0.221,0.129,0.439-0.002,0.658c-0.068,0.219-0.114,0.44-0.138,0.669c0.017,0.026,0.021,0.056,0.01,0.086
			c-0.06,0.224-0.081,0.454-0.088,0.682c-0.016,0.502-0.014,1.003,0.06,1.501c0.004,0.028,0.016,0.052,0.029,0.076
			c0.019,0.04,0.013,0.078-0.01,0.114c0.027,0.281,0.114,0.549,0.174,0.823c-0.114,0.007-0.184-0.088-0.271-0.139
			c-0.112-0.064-0.217-0.145-0.326-0.219c-0.024-0.026-0.047-0.054-0.077-0.073c-0.05-0.05-0.122-0.07-0.158-0.137
			c-0.044-0.041-0.089-0.082-0.133-0.123c-0.039-0.036-0.083-0.066-0.119-0.105l0.002,0.002c-0.065-0.025-0.099-0.096-0.161-0.127
			c-0.26-0.236-0.521-0.469-0.756-0.733c-0.034-0.028-0.078-0.046-0.09-0.097c-0.062-0.066-0.123-0.134-0.184-0.201
			c-0.032-0.043-0.062-0.087-0.098-0.126c-0.051-0.058-0.103-0.115-0.154-0.174c-0.033-0.057-0.082-0.097-0.125-0.142
			c-0.074-0.109-0.149-0.217-0.223-0.324c-0.026-0.047-0.062-0.086-0.093-0.13c-0.05-0.071-0.101-0.144-0.151-0.214
			C4.864,36.521,4.849,36.466,4.844,36.405z"/>
		<path fill="#FFFFFF" d="M5.89,27.003c-0.001-0.066-0.002-0.133-0.003-0.198c-0.036-0.065,0.005-0.142-0.027-0.207
			c-0.001-0.053-0.003-0.105-0.004-0.158C5.82,26.387,5.86,26.32,5.827,26.267c-0.001-0.02-0.002-0.04-0.003-0.061
			c-0.034-0.052,0.005-0.117-0.028-0.168l0.001,0.001c-0.041-0.049,0.003-0.116-0.032-0.168l0.001,0.002
			c-0.046-0.17-0.064-0.348-0.13-0.511c-0.061-0.022-0.062-0.071-0.051-0.126c0.008-0.181-0.113-0.321-0.136-0.493
			c-0.028-0.075-0.05-0.155-0.111-0.213c-0.034-0.036-0.03-0.084-0.041-0.128c-0.179-0.426-0.41-0.815-0.688-1.175
			c-0.036-0.046-0.067-0.096-0.101-0.144c-0.015-0.031-0.046-0.061-0.03-0.098c0.012-0.025,0.04-0.023,0.062-0.004
			c0.01,0,0.019,0,0.029,0.001c0.113,0.027,0.215,0.08,0.313,0.146c0.284,0.129,0.554,0.29,0.807,0.471
			c0.333,0.239,0.639,0.521,0.881,0.872c0.163,0.237,0.274,0.501,0.37,0.773c0.133,0.325,0.097,0.667,0.076,1.004
			c-0.01,0.153-0.033,0.313-0.108,0.453c-0.059,0.167-0.117,0.334-0.175,0.501c-0.032,0.066-0.044,0.145-0.1,0.198
			c-0.051,0.098-0.103,0.195-0.153,0.294c-0.011,0.059-0.037,0.107-0.086,0.14c-0.139,0.19-0.273,0.383-0.417,0.568
			c-0.037,0.047-0.057,0.14-0.149,0.103c0.033-0.054-0.005-0.119,0.027-0.172c0.001-0.054,0.002-0.107,0.004-0.162
			c0.035-0.063-0.007-0.14,0.028-0.203c0.001-0.089,0.003-0.177,0.004-0.265C5.899,27.47,5.919,27.236,5.89,27.003z"/>
		<path fill-rule="evenodd" clip-rule="evenodd" fill="#FFFFFF" d="M21.906,33.934c0.015-0.354-0.045-0.702-0.083-1.052
			c-0.007-0.043,0.024-0.075,0.025-0.115c0.109-0.768,0.064-1.521-0.177-2.257c-0.169-0.518-0.431-0.98-0.701-1.438
			c-0.308-0.52-0.628-1.031-0.943-1.546c-0.182-0.296-0.315-0.619-0.441-0.946c-0.052-0.109-0.078-0.229-0.106-0.346
			c-0.051-0.166-0.104-0.332-0.13-0.507c-0.042-0.159-0.073-0.322-0.099-0.486c-0.045-0.138-0.061-0.282-0.082-0.425
			c-0.033-0.043,0.003-0.102-0.026-0.145l0,0.001c-0.052-0.246-0.089-0.496-0.129-0.745c-0.035-0.159-0.07-0.319-0.104-0.479
			c-0.032-0.123-0.072-0.245-0.105-0.368c-0.042-0.123-0.084-0.247-0.126-0.371c-0.034-0.086-0.072-0.17-0.106-0.256
			c-0.052-0.104-0.103-0.21-0.154-0.314c-0.033-0.042-0.042-0.101-0.08-0.139l0.003-0.006c-0.015-0.021-0.016-0.043,0.004-0.06
			c0.015-0.013,0.031-0.007,0.045,0.006c0.07,0.061,0.148,0.104,0.229,0.142c0.051,0.019,0.097,0.045,0.13,0.093
			c0.394,0.277,0.764,0.591,1.133,0.905c0.042,0.023,0.08,0.053,0.106,0.098c0.03,0.039,0.06,0.078,0.103,0.102
			c0.05,0.032,0.091,0.077,0.129,0.125c0.039,0.05,0.077,0.099,0.13,0.131c0.177,0.167,0.342,0.347,0.493,0.544
			c0.03,0.058,0.075,0.1,0.12,0.142c0.05,0.055,0.104,0.104,0.138,0.174c0.394,0.516,0.747,1.063,1.05,1.649
			c0.045,0.022,0.043,0.076,0.061,0.116c0.027,0.102,0.073,0.193,0.125,0.281c0.054,0.068,0.082,0.15,0.106,0.234
			c0.048,0.132,0.096,0.263,0.145,0.394c0.056,0.066,0.06,0.156,0.087,0.235c0.023,0.146,0.076,0.281,0.12,0.42
			c0.064,0.136,0.084,0.287,0.113,0.435c0.015,0.142,0.037,0.282,0.083,0.417c0.027,0.045-0.006,0.101,0.023,0.144l0-0.001
			c0.102,0.651,0.146,1.306,0.095,1.967c-0.018,0.247-0.036,0.493-0.072,0.738l0.002-0.002c-0.028,0.055,0.008,0.12-0.024,0.174
			c-0.056,0.193-0.078,0.394-0.104,0.593c-0.023,0.126-0.024,0.259-0.089,0.373c-0.048,0.198-0.114,0.391-0.144,0.594
			c-0.023,0.089-0.03,0.186-0.086,0.261c-0.041,0.131-0.097,0.257-0.121,0.395c-0.015,0.07-0.014,0.146-0.054,0.209
			c-0.021,0.041-0.038,0.084-0.044,0.13c-0.056,0.169-0.124,0.333-0.189,0.497c-0.018,0.044-0.029,0.104-0.09,0.105
			C22.032,34.479,21.969,34.206,21.906,33.934z"/>
	</g>
</g>
</svg>
