<?xml version="1.0" encoding="utf-8"?>
<!-- Generator: Adobe Illustrator 16.0.0, SVG Export Plug-In . SVG Version: 6.00 Build 0)  -->
<!DOCTYPE svg PUBLIC "-//W3C//DTD SVG 1.1//EN" "http://www.w3.org/Graphics/SVG/1.1/DTD/svg11.dtd">
<svg version="1.1" id="Layer_1" xmlns="http://www.w3.org/2000/svg" xmlns:xlink="http://www.w3.org/1999/xlink" x="0px" y="0px"
	 width="110px" height="70px" viewBox="0 0 110 70" enable-background="new 0 0 110 70" xml:space="preserve">
<g id="Background">
</g>
<g>
	<g>
		<g>
			<path fill="#F9FF00" d="M70.367,41.047h-3.17c-0.528,0-0.792-0.265-0.792-0.793v-5.15h1.188v4.754h2.773V41.047z"/>
			<path fill="#F9FF00" d="M75.916,37.48v1.188c0,0.529-0.265,0.792-0.793,0.792h-2.378v-1.188h1.981v-0.396H72.35v1.98h2.77
				l-0.388,1.189h-2.778c-0.528,0-0.793-0.265-0.793-0.793V37.48c0-0.529,0.265-0.792,0.793-0.792h3.17
				C75.649,36.688,75.916,36.951,75.916,37.48z"/>
			<path fill="#F9FF00" d="M76.707,40.254V37.48c0-0.529,0.265-0.792,0.794-0.792h3.169c0.527,0,0.792,0.263,0.792,0.792v3.566
				h-1.188l-0.005-3.17h-2.371v1.98h1.98l-0.397,1.189h-1.976C76.974,41.047,76.707,40.783,76.707,40.254z"/>
			<path fill="#F9FF00" d="M82.255,41.047V37.48c0-0.529,0.263-0.792,0.792-0.792h2.374l-0.396,1.188h-1.581v3.17H82.255
				L82.255,41.047z"/>
			<path fill="#F9FF00" d="M85.821,41.047V37.48c0-0.529,0.264-0.792,0.792-0.792h3.174c0.527,0,0.792,0.263,0.792,0.792v3.566
				h-1.188l-0.004-3.17H87.01v3.17H85.821z"/>
			<path fill="#F9FF00" d="M92.557,35.104l-0.396,1.188h-0.793v-1.188H92.557z M92.557,41.047v-4.358h-1.188v4.358H92.557z"/>
			<path fill="#F9FF00" d="M93.349,41.047V37.48c0-0.529,0.264-0.792,0.794-0.792h3.172c0.529,0,0.793,0.263,0.793,0.792v3.566
				h-1.188l-0.004-3.17h-2.377v3.17H93.349z"/>
			<path fill="#F9FF00" d="M103.651,37.48v4.359c0,0.527-0.265,0.791-0.793,0.791h-2.377l0.396-1.188h1.586v-3.566h-2.379v1.98
				h1.981l-0.396,1.189h-1.981c-0.528,0-0.793-0.265-0.793-0.793V37.48c0-0.529,0.265-0.792,0.793-0.792h3.17
				C103.387,36.688,103.651,36.951,103.651,37.48z"/>
		</g>
	</g>
	<rect x="64.127" y="31.276" fill="#FFFFFF" width="0.563" height="12.378"/>
	<path fill="#00FF1E" d="M26.224,37.518c-0.002-0.006-0.005-0.012-0.007-0.017c-0.001-0.003-0.005-0.007-0.005-0.011
		c-0.005-0.009-0.01-0.018-0.013-0.028c0.003,0.012,0.01,0.022,0.015,0.034c0.002,0.007,0.003,0.01,0.007,0.015
		c0.002,0.007,0.006,0.015,0.011,0.02c0,0.005,0.001,0.007,0.003,0.011c0.004,0.011,0.011,0.021,0.016,0.03
		C26.241,37.554,26.232,37.536,26.224,37.518z M30.699,39.567v-0.002c-0.003-0.011-0.007-0.021-0.01-0.032
		c-0.001,0.005-0.003,0.01-0.004,0.013c0,0.003-0.001,0.006-0.001,0.009c0,0,0,0,0,0.002c0,0,0,0.001,0,0.002v0.022
		c0,0.003,0.001,0.004,0.002,0.005v0.002c0.003,0.002,0.007,0.004,0.01,0.008c0.005,0.001,0.008,0.002,0.011,0.007h0.001h0.001
		C30.706,39.592,30.702,39.58,30.699,39.567z M30.689,39.492L30.689,39.492c0-0.002,0-0.005,0-0.005c0-0.005,0-0.007-0.001-0.007h0
		l-0.001,0.001c0,0,0-0.001,0-0.001h-0.001v0.006c0,0.002,0,0.006,0,0.009v0.007l0.001,0.004c0,0.008,0.002,0.017,0.003,0.024
		c0,0,0,0.003,0.001,0.004c0-0.001,0.001-0.001,0.001-0.004l0,0c0,0,0,0,0-0.002l0,0c0.001-0.004,0.002-0.007,0-0.014l0,0
		c0-0.001,0.001-0.002,0.001-0.003c0-0.003,0.002-0.004,0-0.006C30.692,39.502,30.691,39.497,30.689,39.492z M35.988,34.055
		c-0.532-0.164-1.063-0.335-1.594-0.515h-0.001c-0.005-0.002-0.005-0.002-0.009-0.004c-0.001,0-0.003,0-0.005-0.001
		c0.005,0.015,0.009,0.03,0.014,0.044c-0.785-0.207-1.57-0.453-2.441-0.631c0.333,0.783,0.691,1.504,1.038,2.207
		c0.108,0.218,0.144,0.412,0.104,0.614c-0.003,0.016-0.007,0.034-0.011,0.05c-0.003,0.017-0.007,0.033-0.013,0.05
		c-0.004,0.016-0.01,0.033-0.016,0.05c-0.004,0.011-0.008,0.021-0.013,0.031c-0.007,0.017-0.014,0.033-0.022,0.051
		c-0.003,0.006-0.006,0.013-0.01,0.021c-0.007,0.015-0.015,0.031-0.024,0.046c-0.011,0.018-0.021,0.036-0.032,0.055
		c0,0,0,0.002-0.002,0.004c-0.011,0.019-0.023,0.038-0.035,0.057c-0.075,0.111-0.15,0.223-0.223,0.334
		c-0.053,0.081-0.105,0.163-0.159,0.244c-0.052,0.081-0.104,0.163-0.157,0.244c-0.089,0.142-0.18,0.282-0.268,0.426
		c-0.056,0.088-0.112,0.178-0.167,0.268c-0.385,0.62-0.774,1.263-1.2,1.944c-0.001-0.001-0.001-0.001-0.002-0.003
		c0,0,0-0.001,0-0.002s0-0.002,0.002-0.004c0-0.002,0.002-0.004,0-0.006c-0.001-0.003,0.004-0.003,0.006-0.004
		c0.001-0.002,0.003-0.002,0.003-0.004v-0.018h-0.032h-0.001c-0.001,0-0.034,0.001-0.034,0.002l0,0l0.012-0.001h0.007l0.006-0.001
		l0,0c0,0-0.014,0.002-0.014,0.003c0,0.005-0.012,0.012-0.012,0.017l0,0c0,0.009,0.032,0.039,0.034,0.039h-0.002l-0.03-0.017
		l-3.799-1.313c-0.041-0.068-0.09-0.132-0.143-0.191c-0.013-0.015-0.027-0.033-0.042-0.046c-0.003-0.005-0.008-0.012-0.013-0.016
		c-0.009-0.01-0.019-0.021-0.028-0.029c-0.074-0.08-0.154-0.154-0.228-0.236c-0.027-0.03-0.054-0.061-0.079-0.093
		c-0.019-0.022-0.037-0.046-0.053-0.072c-0.018-0.024-0.034-0.047-0.049-0.073c0.008,0.013,0.015,0.026,0.024,0.039
		c0.007,0.012,0.016,0.024,0.025,0.039c0.009,0.012,0.019,0.024,0.027,0.037c0.001,0.002,0.003,0.004,0.004,0.006
		c0.016,0.019,0.03,0.038,0.047,0.056c0.094,0.115,0.205,0.222,0.307,0.329c0.016,0.016,0.03,0.033,0.044,0.049
		c0.002,0.003,0.005,0.005,0.007,0.01c0.002,0.001,0.004,0.004,0.006,0.006c0.007,0.008,0.015,0.017,0.022,0.026
		c0.012,0.013,0.023,0.027,0.035,0.041c0.001,0.002,0.001,0.002,0.001,0.002c0.013,0.016,0.026,0.033,0.039,0.053
		c0.015,0.021,0.03,0.042,0.044,0.063v0.004c0.002,0.005-0.003,0.009-0.003,0.013v0.002c0,0.008,0.021,0.016,0.025,0.025
		c0.006,0.01,0.015,0.018,0.019,0.028c0.028,0.055,0.053,0.116,0.063,0.179c0.003,0.013,0.006,0.025,0.008,0.038
		c-1.1-0.072-2.07-0.545-3.104-0.824c-1.924-0.521-1.434-0.721-2.937,0.518c-0.912,0.75-1.726,1.6-2.766,2.222
		c-0.124,0.136-0.248,0.271-0.372,0.405c-0.71,0.377-1.223,0.963-1.855,1.421c-0.302,0.219-0.236,0.384,0.143,0.505
		c0.667,0.214,1.326,0.444,1.986,0.676c0.219,0.075,0.44,0.152,0.66,0.229c0.098,0.002,0.192,0.01,0.288,0.021
		c0.047,0.005,0.094,0.011,0.141,0.018c0.046,0.008,0.094,0.015,0.139,0.024c0.023,0.005,0.046,0.01,0.069,0.014
		c0.033,0.009,0.067,0.015,0.099,0.022c0.022,0.005,0.044,0.01,0.066,0.016c0.108,0.026,0.216,0.057,0.324,0.089
		c0.04,0.014,0.081,0.025,0.122,0.039c0.088,0.028,0.177,0.059,0.267,0.088c0.088,0.029,0.177,0.06,0.266,0.089
		c0.087,0.031,0.176,0.059,0.267,0.086c0.044,0.016,0.089,0.028,0.134,0.041c0.957,0.277,1.941,0.475,2.864,0.842
		c1.267,0.374,2.537,0.737,3.8,1.124c0.946,0.29,1.882,0.383,2.837,0.043l2.256-2.13l0.002-0.003
		c1.621-1.794,3.229-3.603,4.837-5.403C39.09,37.043,38.353,34.778,35.988,34.055z M27.107,38.723
		c-0.033-0.034-0.067-0.067-0.101-0.103c0.059-0.015,0.115-0.029,0.171-0.044C27.155,38.625,27.131,38.674,27.107,38.723z
		 M30.73,39.662c0-0.001-0.001-0.003-0.001-0.003s0.001,0,0.002,0C30.73,39.661,30.73,39.661,30.73,39.662z M30.686,39.569
		c0,0.005,0,0.012,0.001,0.018v0.001c0.002,0.002,0.006,0.004,0.01,0.008c0.005,0.001,0.008,0.002,0.011,0.007h0.001h0
		c-0.003-0.011-0.007-0.022-0.01-0.035v-0.002c-0.003-0.011-0.007-0.021-0.009-0.032c-0.001,0.005-0.003,0.01-0.004,0.013
		c0,0.003-0.001,0.006-0.001,0.009c0,0,0,0,0,0.002s0.001,0.008,0.001,0.011C30.686,39.567,30.686,39.568,30.686,39.569z
		 M26.149,37.281v0.002c0.001,0.018,0.006,0.031,0.008,0.045C26.155,37.313,26.151,37.297,26.149,37.281z M30.679,39.48
		L30.679,39.48L30.679,39.48l0.002,0.002h0.001l0.001,0.001V39.48H30.679z"/>
	<path fill="#0043FF" d="M31.996,45.68c0.435,1.232,0.559,2.455-0.586,3.488c-0.854,0.772-1.864,1.047-3.046,0.797
		c-0.331,0.038-0.644-0.021-0.952-0.125c-0.077-0.028-0.156-0.052-0.234-0.078c-1.07,0.053-2.093-0.235-3.136-0.364
		c-1.254-0.156-2.499-0.369-3.747-0.565c-0.174-0.026-0.34-0.097-0.511-0.146c0.147-0.132,0.294-0.266,0.443-0.396
		c0.367-0.327,0.735-0.653,1.104-0.988c0.073-0.065,0.147-0.13,0.22-0.198c0.786-0.614,1.668-1.139,2.246-1.946
		c1.267,0.374,2.537,0.738,3.8,1.124c0.945,0.291,1.881,0.383,2.837,0.043l2.255-2.13c-0.153,0.17-0.307,0.34-0.459,0.51
		C31.952,45.014,31.85,45.266,31.996,45.68z"/>
	<path fill="#FFCE00" d="M26.994,38.591c-0.003-0.012-0.005-0.027-0.009-0.039c-0.005-0.018-0.012-0.04-0.018-0.059
		c-0.001-0.001-0.003-0.003-0.003-0.006c-0.014-0.035-0.03-0.07-0.049-0.104c-0.006-0.012-0.012-0.023-0.019-0.032
		c0-0.004-0.002-0.007-0.005-0.011l-0.005-0.001h0c0-0.001,0-0.001-0.001-0.002c-0.002-0.003-0.003-0.005-0.006-0.008l-3.956-1.376
		l-1.951-4.751l-1.015-2.472c-0.839,0.685-1.676,1.374-2.519,2.054c-1.247,1.003-2.417,2.087-3.747,3.008
		c-0.968,0.773-1.936,1.55-2.907,2.32c-0.486,0.387-0.867,0.844-1.183,1.345c-0.021,0.033-0.058,0.065-0.058,0.099l0,0
		c0,0-0.001,0.002,0,0.002c0,0.001,0,0.001,0,0.001c-0.047,0.139-0.079,0.278-0.101,0.414c0,0.009-0.002,0.017-0.003,0.027
		c-0.041,0.296-0.03,0.593,0.011,0.885c0.007,0.058,0.016,0.111,0.026,0.168c0.007,0.043,0.014,0.087,0.024,0.13
		c0.01,0.053,0.021,0.104,0.032,0.156c0.043,0.188,0.092,0.38,0.144,0.568c0,0-0.002,0-0.002,0l0,0
		c0.269,0.152,0.309,0.396,0.408,0.623c1.004,2.344,1.991,4.691,3.016,7.028c0.91,2.075,3.375,2.618,5.281,1.191
		c0.471-0.353,0.854-0.798,1.403-1.066c0.147-0.131,0.294-0.264,0.443-0.394c0.367-0.329,0.735-0.658,1.104-0.988
		c0.071-0.065,0.143-0.13,0.214-0.196c0.001-0.001,0.002-0.003,0.002-0.003v-0.003h0.004c-0.002,0.002-0.004,0.003-0.006,0.006
		c0.002-0.001,0.004-0.001,0.006-0.003c0.786-0.613,1.667-1.138,2.246-1.946c-0.923-0.366-1.908-0.563-2.864-0.842
		c-0.044-0.013-0.089-0.025-0.133-0.04c-0.09-0.027-0.179-0.057-0.267-0.086c-0.088-0.03-0.177-0.06-0.266-0.089
		c-0.089-0.031-0.179-0.061-0.267-0.089c-0.041-0.014-0.08-0.024-0.122-0.038c-0.107-0.032-0.214-0.063-0.324-0.089
		c-0.021-0.007-0.044-0.013-0.065-0.016c-0.033-0.009-0.066-0.016-0.099-0.023c-0.023-0.005-0.046-0.009-0.069-0.014
		c-0.047-0.01-0.093-0.017-0.14-0.025c-0.047-0.006-0.093-0.012-0.141-0.017c-0.094-0.012-0.189-0.019-0.287-0.02
		c-0.221-0.077-0.441-0.154-0.66-0.23c-0.661-0.231-1.32-0.462-1.987-0.676c-0.379-0.121-0.445-0.285-0.143-0.504
		c0.633-0.458,1.146-1.045,1.856-1.421c0.123-0.135,0.248-0.27,0.372-0.406c1.04-0.622,1.854-1.472,2.767-2.222
		c1.503-1.237,1.014-1.026,2.937-0.506c1.033,0.278,2.003,0.716,3.103,0.836c0.001,0,0.001,0,0.001,0
		C26.997,38.58,26.996,38.603,26.994,38.591z M20.87,47.144c0.013,0.002,0.026,0.004,0.04,0.005c0,0.001,0.002,0.001,0.003,0
		c0,0.001,0.002,0.001,0.004,0.001c0.008,0.001,0.016,0.002,0.023,0.002c0.06,0.007,0.122,0.011,0.186,0.009
		c0.006,0,0.015,0.002,0.022,0.002h0.002c0.014,0,0.028-0.004,0.043-0.005c0.027,0,0.054-0.005,0.082-0.008
		c0.006,0,0.012-0.001,0.018-0.002c0.004-0.002,0.008-0.002,0.013-0.003c0.007,0,0.016-0.001,0.024-0.002
		c0.001,0.001,0.001,0.001,0.002,0c0.012-0.002,0.023-0.004,0.036-0.005c0.033-0.005,0.069-0.01,0.104-0.018
		c0.004,0,0.01-0.001,0.015-0.002c0.006-0.002,0.012-0.003,0.019-0.004c-0.012,0.002-0.023,0.005-0.034,0.006
		c-0.035,0.009-0.07,0.023-0.104,0.027c-0.013,0.002-0.023,0.014-0.036,0.014c-0.001,0-0.001,0-0.002,0
		c-0.007,0-0.016-0.007-0.024-0.007c-0.13,0.016-0.252,0.012-0.366,0.002c-0.007,0-0.015-0.004-0.023-0.006
		c-0.001,0-0.003,0-0.004-0.002c-0.003,0.002-0.003,0-0.003,0C20.896,47.148,20.883,47.146,20.87,47.144
		c-0.007-0.001-0.014-0.003-0.02-0.005C20.856,47.141,20.863,47.143,20.87,47.144z"/>
	<path fill="#6300FF" d="M31.913,32.938L31.913,32.938c0.014,0,0.109,0.006,0.122,0.009c0,0,0.081-0.001,0.081-0.002v-0.001
		c0-0.015-0.104-0.029-0.113-0.043c0.881,0.229,1.627,0.457,2.419,0.635c-0.445-1.396-1.159-2.725-1.73-4.078
		c-0.082-0.143-0.199-0.277-0.252-0.426c-0.508-1.431-0.976-2.866-2.05-4.079c-0.666-0.75-2.391-1.09-3.336-0.659
		c-0.836,0.381-1.429,1.003-2.139,1.503c0.107,0.124,0.26,0.162,0.42,0.178c1.379,0.129,1.967,1.015,2.314,2.053
		c0.279,0.839,0.392,1.724,0.656,2.567c0.022,0.067,0.041,0.135,0.058,0.204c0.007,0.035,0.015,0.069,0.023,0.106l0.311,1.295
		c0.007,0.012-0.014,0.022-0.014,0.034v0.169l0,0h0.106h0.028h-0.042h-0.092V31.84h0.061l0.007,0.202l0.006,0.103l0.001,0.055
		l0.002-0.188l0.066-0.171h-0.145v0.43l0.043,0.004h0.021l0.01-0.005c0.005,0.012,0.016,0.021,0.022,0.031
		c0.033,0.045,0.069,0.089,0.106,0.133c-0.029-0.173-0.053-0.344-0.083-0.516c-0.032-0.196-0.064-0.391-0.098-0.587
		c-0.019-0.098-0.034-0.196-0.052-0.294c-0.015-0.084-0.031-0.168-0.046-0.251c-0.008-0.04-0.016-0.081-0.024-0.121
		c0.008,0.04,0.016,0.081,0.024,0.121c0.017,0.083,0.031,0.167,0.046,0.251c0.018,0.099,0.035,0.196,0.053,0.294
		c0.036,0.196,0.069,0.088,0.104,0.283c0.029,0.176,0.059,0.227,0.089,0.227h0.001l-0.217,0.606v-0.003l0.202-0.604h-0.202
		c0,0,0,0.586,0,0.588c0,0,0.127,0.022,0.127,0.023c0,0.002,0.065,0.013,0.065,0.013c0,0.002,0.033,0.01,0.034,0.011
		c0.001,0,0.019-0.308,0.019-0.31c0-0.001,0.019-0.325,0.019-0.325h-0.263v0.635c0.563,2.008,1.131,4.016,1.649,6.115l0.476,0.009
		l0.688,0.796v0.13l-0.801,0.755h-0.005c0.001,0,0.007-0.382,0.012-0.375c0.002,0.001,0.398-0.192,0.398-0.189
		c0.003,0.014,0.396-0.177,0.396-0.163v0.004c0,0.02-0.384,0.041-0.379,0.062c0.001,0.002-0.194,0.007-0.191,0.009
		c0.004,0.005-0.091,0.01-0.085,0.013c0.424-0.682,0.766-1.323,1.152-1.942c0.055-0.089,0.087-0.179,0.142-0.267
		c0.09-0.143,0.167-0.284,0.256-0.426c0.104-0.163,0.205-0.325,0.311-0.488c0.074-0.113,0.145-0.227,0.222-0.34
		c0.011-0.017,0.021-0.033,0.031-0.051c0.001-0.001,0.001-0.003,0.001-0.003c0.01-0.018,0.021-0.037,0.03-0.055
		c0.009-0.015,0.018-0.03,0.024-0.046c0.004-0.009,0.007-0.016,0.011-0.021c0.009-0.018,0.015-0.034,0.022-0.051
		c0.005-0.011,0.009-0.021,0.013-0.031c0.007-0.017,0.012-0.034,0.017-0.05c0.004-0.017,0.009-0.033,0.013-0.05
		s0.008-0.034,0.011-0.05c0.034-0.197-0.01-0.388-0.115-0.602C32.626,34.451,32.292,33.748,31.913,32.938z M28.28,29.312
		c-0.083-0.323-0.176-0.646-0.28-0.964c0.014,0.042-0.226,0.085-0.213,0.129c0.008,0.023-0.231,0.048-0.231,0.072
		c0,0.002,0,0.002,0,0.002c0,0.036,0.279,0.073,0.289,0.111c0.011,0.033,0.148,0.067,0.157,0.101
		c0.02,0.065,0.102,0.129,0.119,0.193c0.019,0.064,0.068,0.129,0.085,0.192c0.013,0.054,0.044,0.108,0.057,0.163
		c0.007,0.022,0.021,0.048,0.028,0.073c0.011,0.045,0.026,0.089,0.037,0.136C28.312,29.451,28.298,29.381,28.28,29.312z"/>
	<path fill="#6300FF" d="M13.692,34.793c-0.967,0.774-1.936,1.55-2.907,2.321c-0.486,0.386-0.867,0.86-1.183,1.362
		c-0.021,0.033-0.061,0.114-0.082,0.114c0.001,0-0.532,0-0.532,0v-0.102c0,0.002,0.274,0.036,0.273,0.037
		c-0.043,0.14,0.063,0.293,0.043,0.431c-0.001,0.01,0.068,0.026,0.065,0.036c-0.042,0.296,0.004,0.596,0.046,0.89
		c0.007,0.055,0.034,0.112,0.044,0.168c0.007,0.044,0.023,0.09,0.032,0.131c0.01,0.054,0.026,0.106,0.037,0.158
		c0.042,0.188,0.094,0.38,0.144,0.568c-1.173-0.243-2.344-0.48-3.092-1.46c-0.803-1.053-0.78-2.422,0.1-3.417
		c0.9-1.021,1.827-2.022,2.743-3.032c0.012,0.096,0.013,0.189,0.002,0.279c0.012-0.09,0.013-0.184,0.001-0.279
		c0.937-1.121,1.886-2.233,2.981-3.238c0.462,1.449,0.827,2.919,1.149,4.397C13.604,34.369,13.648,34.582,13.692,34.793z"/>
	<path fill="#EC00F9" d="M17.388,21.808c-0.315-1.129,0.045-2.05,1.084-2.742c0.94-0.626,2.083-0.627,3.175-0.026
		c0.373,0.907,0.316,1.757-0.399,2.528C20.139,22.767,18.041,22.917,17.388,21.808z"/>
	<path fill="#EC00F9" d="M21.764,54.644c-0.501-1.127-0.317-2.176,0.505-2.885c0.942-0.811,2.08-0.978,3.247-0.477
		c0.147,0.381,0.312,0.756,0.356,1.165c0.105,0.951-0.522,1.922-1.684,2.419C23.36,55.222,22.501,55.33,21.764,54.644z"/>
	<path fill="#BA00FF" d="M17.388,21.808c0.653,1.11,2.751,0.959,3.859-0.24c0.715-0.771,0.772-1.621,0.399-2.528
		c1.005,0.535,1.502,1.694,1.177,2.747c-0.346,1.127-1.556,1.915-2.839,1.886C18.845,23.644,17.523,22.825,17.388,21.808z"/>
	<path fill="#BA00FF" d="M21.764,54.644c0.738,0.687,1.596,0.577,2.426,0.223c1.161-0.497,1.79-1.467,1.684-2.419
		c-0.045-0.409-0.21-0.784-0.356-1.165c0.962,0.376,1.623,1.324,1.596,2.292c-0.029,1.043-0.785,1.991-1.872,2.349
		c-1.047,0.342-2.286,0.095-3.002-0.621C22.044,55.109,21.816,54.924,21.764,54.644z"/>
	<path fill="#FFFFFF" d="M26.885,38.328l-0.008-0.001l-3.954-1.373l3.956,1.376l0.007,0.001
		C26.886,38.332,26.885,38.33,26.885,38.328z M28.301,30.595l0.055,0.204C28.34,30.729,28.322,30.662,28.301,30.595z M28.729,32.199
		c-0.229-0.401-0.258-0.856-0.346-1.295l-0.028-0.105c0.111,0.482,0.117,0.993,0.384,1.435L28.729,32.199z M28.75,32.238
		L28.75,32.238l0,0.002L28.75,32.238C28.751,32.238,28.751,32.238,28.75,32.238z M28.783,32.347v0.004l0.001,0.003l0.001,0.008l0,0
		L28.783,32.347z M28.779,32.332l-0.003-0.014l-0.003-0.017l-0.009-0.029L28.779,32.332l0.004,0.011L28.779,32.332z M28.887,32.692
		l-0.01-0.021l-0.006-0.018l-0.002-0.009l-0.004-0.013l-0.024-0.086l-0.001-0.005l-0.013-0.036l-0.004-0.012l0-0.002l-0.002-0.009
		l0-0.003l0.054,0.215h0.006c0,0,0,0,0.001,0c0,0,0,0,0,0h0.014l0,0l0,0l0,0l0,0v0.005L28.887,32.692z M28.881,32.724
		c0,0-0.001,0.001-0.001,0.002h0L28.881,32.724C28.881,32.725,28.881,32.725,28.881,32.724L28.881,32.724L28.881,32.724z
		 M28.765,32.267l0.001,0.003v-0.002L28.765,32.267z M28.88,32.706L28.88,32.706L28.88,32.706L28.88,32.706
		C28.879,32.706,28.879,32.706,28.88,32.706L28.88,32.706L28.88,32.706c-0.001,0.001-0.001,0.003,0,0.003c0,0.002,0,0.002,0,0.002
		l0,0.003v0.002h0L28.88,32.706L28.88,32.706z M28.878,32.804c-0.002,0-0.003,0.002-0.003,0.002c0,0.002-0.003,0.002-0.004,0.003h0
		h-0.001h-0.001c-0.001,0.002-0.001,0.004-0.001,0.004s0,0,0.001,0l0,0l-0.001,0.002c0,0,0,0,0.001,0h0.001l0,0
		c0,0.002,0,0.002,0,0.002s0,0,0,0.001c0.002,0.001,0.002,0.002,0.002,0.005c0-0.003,0.001-0.003,0.002-0.004
		c0,0,0-0.001,0.001-0.002l0,0c0,0,0-0.002,0.001-0.002l0.001-0.003c0-0.003,0.002-0.003,0.003-0.004c0-0.004,0-0.004,0-0.005
		C28.88,32.803,28.878,32.804,28.878,32.804z M28.881,32.798c0,0.001-0.001,0.003,0,0.005c0,0,0,0,0,0V32.798L28.881,32.798z
		 M28.881,32.721L28.881,32.721L28.881,32.721L28.881,32.721L28.881,32.721z M28.883,32.719h-0.001c0,0.002,0,0.002,0,0.002l0,0.001
		h0.001v-0.001l0,0l0,0V32.719z M28.883,32.721L28.883,32.721l-0.001,0.001c0,0.002,0,0.002,0,0.002h0.001
		C28.883,32.724,28.883,32.724,28.883,32.721L28.883,32.721L28.883,32.721z M28.681,32.702v0.011l0.492,1.849L28.681,32.702z
		 M29.521,35.111l0.523,1.973l0.368,1.381L29.521,35.111z M28.883,32.772l-0.001-0.002c0-0.002,0-0.003-0.001-0.003
		c0-0.002-0.001-0.002-0.001-0.004c0,0.002-0.001,0.003-0.001,0.004c0-0.002-0.001-0.002-0.001-0.003
		c-0.001,0.003-0.002,0.007-0.002,0.01c0,0.001,0,0.003-0.001,0.004c0,0,0,0,0,0.002l0,0c-0.001,0.002-0.002,0.004-0.002,0.007
		c0,0,0,0,0,0.001c0,0,0.001,0,0.003,0c0.001,0.002,0.003,0.002,0.003,0.005c0,0,0.001,0.001,0.002,0.001
		c0.001,0,0.002,0.003,0.003,0.003v-0.004c0-0.003,0-0.005,0.001-0.006c-0.001-0.002-0.001-0.003-0.001-0.005V32.78
		c0,0,0,0,0.001-0.002c0,0,0-0.001,0.001-0.001c0-0.001,0-0.002,0-0.002v-0.002C28.884,32.773,28.884,32.772,28.883,32.772z
		 M28.883,32.706v-0.007h-0.001v0.007H28.883L28.883,32.706z M30.044,37.091l-0.872-3.266l-0.288-1.073l0.268,1.003l1.26,4.72
		L30.044,37.091z M31.494,39.524v-0.063l-0.421-0.035l-0.207,0.426l-0.196,0.428h0.824V39.41l-0.422-0.011l-0.212-0.006l0.321-0.021
		l0.313-0.056v-0.001l-0.223-0.842l0.223,0.874v0.002l-0.39,0.523l-0.429,0.405h0.018L31.494,39.524z M30.68,39.481L30.68,39.481
		h-0.001l0,0.002h0.001c0,0.002,0,0.003,0,0.003l0.001,0.001v0.003c0.001,0,0.001,0,0.001,0s0,0,0-0.002c0-0.001,0-0.001,0-0.001
		l0.001-0.004L30.68,39.481z M28.883,32.788v0.005c0,0.001,0,0.001,0,0.001l0,0c0,0.002,0,0.003,0,0.003v-0.004l0,0
		C28.884,32.79,28.884,32.788,28.883,32.788z M28.881,32.803C28.881,32.804,28.881,32.804,28.881,32.803
		c-0.001,0.005-0.001,0.009-0.001,0.012h0v0.003v0.001v0.002c-0.001,0.009-0.002,0.014-0.002,0.023
		c-0.001,0.006-0.001,0.012-0.001,0.02v0.003c0.001-0.001,0.001-0.001,0.001-0.003v-0.004c0-0.004,0.001-0.011,0.001-0.015v-0.003
		c0.001-0.002,0.001-0.008,0.002-0.009c0-0.001,0-0.001,0-0.001c0-0.005,0.001-0.009,0.001-0.013l0,0c0-0.002,0-0.003,0-0.003
		c0-0.002,0-0.002,0-0.002c0.001-0.006,0.001-0.011,0.001-0.012S28.883,32.803,28.881,32.803z"/>
	<path fill="#FFFFFF" d="M28.87,32.699C28.87,32.699,28.87,32.699,28.87,32.699L28.87,32.699L28.87,32.699z M28.871,32.707
		c0,0.004,0,0.009-0.001,0.014v0.003l0.005-0.003l0,0V32.72L28.871,32.707z M28.883,32.758v0.007c0,0,0,0,0,0.001
		c0,0.002,0,0.002,0,0.003l0,0v-0.006l0,0c0,0,0,0,0-0.002l0,0V32.758L28.883,32.758z M28.883,32.752h-0.001v0.002l0.001,0.002
		V32.752z M28.873,32.73c-0.002,0.018-0.004,0.032-0.005,0.05c-0.001,0.005-0.002,0.013-0.002,0.021c0,0.003,0,0.007,0,0.008h0
		v-0.003c0-0.002,0.001-0.003,0.002-0.005c0-0.002,0-0.002,0-0.002c0.001,0,0.001-0.003,0.001-0.003c0-0.003,0-0.007,0.001-0.009
		c0-0.012,0.001-0.024,0.002-0.036c0-0.002,0-0.002,0-0.002C28.872,32.744,28.873,32.736,28.873,32.73
		C28.873,32.73,28.873,32.73,28.873,32.73L28.873,32.73C28.873,32.729,28.873,32.73,28.873,32.73z M28.881,32.692l-0.001-0.005
		l0.003,0.013L28.881,32.692z M28.87,32.652l0.01,0.035l-0.003-0.018L28.87,32.652z M28.859,32.614l0.011,0.038l-0.005-0.021
		L28.859,32.614z M28.883,32.699L28.883,32.699L28.883,32.699L28.883,32.699L28.883,32.699z M28.878,32.707v0.002l0,0V32.707
		L28.878,32.707z M28.883,32.704v-0.002h-0.001v0.001h-0.002h-0.001v0.001h0.001v0.001c0,0.001,0,0.001,0,0.001l0,0v0.001
		c0,0,0,0.002,0,0.002c0,0.002,0,0.002,0,0.002h0l0,0c0-0.001,0-0.001,0-0.001s0,0,0-0.001h-0.001v0.002l0,0h0.001
		c0,0.002,0,0.002,0,0.002c0,0,0.001,0.001,0.001,0.001v0.002l0-0.001v-0.001c0,0,0,0,0,0v0.001l0.001,0.006v0.001h0l0,0h0.001l0,0
		l0,0v-0.016C28.883,32.706,28.883,32.706,28.883,32.704L28.883,32.704L28.883,32.704z M28.878,32.7L28.878,32.7L28.878,32.7
		L28.878,32.7c-0.001-0.001-0.001,0-0.001,0.002v0.001l0,0v0.001h0.001v-0.001l0,0C28.878,32.702,28.878,32.701,28.878,32.7z
		 M28.877,32.705L28.877,32.705L28.877,32.705L28.877,32.705L28.877,32.705z M28.876,32.706L28.876,32.706L28.876,32.706
		L28.876,32.706z M28.782,32.332l-0.008-0.03l-0.009-0.036l-0.001-0.002l-0.004-0.016l-0.001-0.003c0-0.001-0.003-0.001-0.003-0.001
		l-0.002-0.003c0-0.001-0.001-0.001-0.002-0.001l0-0.002c0,0,0,0,0-0.001v0.001c0,0.002,0,0.002,0,0.003l0.001,0.002l-0.001,0.001
		v0.004c0,0,0.004,0,0.007,0c0.001,0.003,0.001,0.003,0.001,0.003l0.002,0.009v0.003l0.017,0.056L28.782,32.332l0.006,0.021
		L28.782,32.332z M28.877,32.859v0.007v-0.001V32.859L28.877,32.859z M28.881,32.752v0.002l0.001,0.002v-0.004H28.881z
		 M28.883,32.788v0.005c0,0.001,0,0.001,0,0.001c0,0.002,0,0.003-0.001,0.004c0,0,0,0,0,0.001v0.004c0,0,0,0.001,0,0.002
		c0,0.003,0,0.005,0,0.009c0,0.001,0,0.001,0,0.002v0.005c0,0.008-0.002,0.015-0.002,0.022c0.002-0.008,0.002-0.015,0.003-0.022
		c0-0.001,0-0.003,0-0.003c0-0.002,0-0.003,0-0.003c0.001-0.005,0.001-0.01,0.001-0.012c0-0.001,0.001-0.002,0-0.004h0.001v-0.006
		l0,0v-0.01C28.884,32.784,28.884,32.787,28.883,32.788z M28.884,32.761v-0.003h-0.001v0.007c0,0,0,0,0,0.001
		c0,0.002,0.001,0.002,0,0.003v0.001c0.001,0.001,0.001,0.003,0.001,0.006v0.001c0-0.003,0-0.004,0-0.006c0-0.001,0-0.002,0-0.002
		c0-0.001,0-0.001,0-0.002L28.884,32.761L28.884,32.761z"/>
	<path fill="#FFFFFF" d="M28.761,32.26l-0.003-0.009c0,0,0,0,0-0.003c-0.002,0-0.007,0-0.007,0s0.002,0,0.002,0.003
		c0,0,0.003,0.002,0.004,0.002c0,0,0.001,0.001,0.001,0.002c0.002,0.003,0.002,0.005,0.003,0.008V32.26z M28.867,32.799
		c0,0,0,0,0,0.002c-0.001,0.002-0.002,0.003-0.002,0.005v0.003h0c0,0.006,0,0.009,0,0.013c0-0.004,0.001-0.006,0.001-0.009
		C28.866,32.808,28.867,32.803,28.867,32.799L28.867,32.799l0.001-0.003C28.868,32.796,28.868,32.799,28.867,32.799z M28.876,32.706
		L28.876,32.706L28.876,32.706L28.876,32.706z M28.878,32.711c0.001,0,0.001,0,0.001,0l0,0H28.878z M28.88,32.714L28.88,32.714
		C28.88,32.715,28.88,32.714,28.88,32.714L28.88,32.714z M28.879,32.713c0,0,0,0,0-0.002c0,0,0,0-0.001,0L28.879,32.713z
		 M28.877,32.709l0.001,0.002l0,0L28.877,32.709z M28.883,32.726C28.884,32.726,28.883,32.726,28.883,32.726l-0.001-0.001
		c0,0,0,0,0-0.001l0,0h0l-0.004-0.003c0,0.003,0,0.005,0,0.008v0.001c-0.001,0-0.001,0-0.001,0h-0.001
		c-0.001,0-0.001,0.001-0.001,0.001c-0.002,0.018-0.004,0.032-0.005,0.05c-0.001,0.005-0.002,0.013-0.002,0.021
		c0-0.003,0-0.007,0.001-0.009c0-0.002,0-0.004,0.001-0.005c0-0.005,0.001-0.009,0.001-0.013v-0.001
		c0.001-0.005,0.001-0.008,0.002-0.013c0-0.003,0.001-0.009,0.001-0.015c0,0,0,0.001,0,0.003c0,0,0,0.001,0,0.002s0,0.002,0,0.005
		c0,0.001,0.001,0.002,0.001,0.003v0.002l0,0V32.76l0.001-0.004c0.002-0.007,0.006-0.019,0.007-0.021v-0.003l0,0
		c0.001-0.001,0.001-0.001,0.001-0.001v-0.002C28.884,32.729,28.884,32.727,28.883,32.726z M28.881,32.719l-0.001-0.003l0-0.001
		v-0.001c0,0,0,0,0,0v0.001l0.001,0.007l0,0h0l0,0h0.001l0,0l0,0v-0.001L28.881,32.719z M28.883,32.699v0.002V32.699L28.883,32.699z
		 M28.859,32.614l-0.019-0.068l-0.015-0.042l-0.012-0.024v-0.003l-0.031-0.123l-0.003-0.021l0.091,0.367l0.014,0.006l0.01-0.001
		v-0.001l0,0v-0.01l0,0l0,0h-0.011l-0.008-0.025L28.859,32.614z"/>
	<path fill="#FFFFFF" d="M28.681,32.761v0.002l1.793,6.721L28.681,32.761z M28.884,32.775c0-0.001,0-0.002-0.001-0.003
		c-0.001-0.002-0.001-0.004-0.002-0.005s-0.001-0.002-0.001-0.004c0,0.002-0.001,0.003-0.002,0.004c0,0.003-0.001,0.006-0.001,0.01
		c-0.003,0.013-0.006,0.026-0.007,0.04c0.001,0,0.002,0.002,0.002,0.004c0.001-0.004,0.003-0.007,0.007-0.011
		c0,0.011,0,0.021,0,0.032c-0.002,0.006-0.002,0.013-0.002,0.021c0.002-0.003,0.002-0.003,0.002-0.004v0.004
		c-0.002,0.007-0.002,0.013-0.002,0.019c0-0.008,0.002-0.016,0.002-0.022c0-0.005,0-0.011,0-0.015v-0.003
		c0-0.013,0.002-0.024,0.003-0.038c0.001-0.002,0.001-0.006,0.002-0.01v-0.001v-0.005c0-0.001,0-0.005,0-0.006v-0.003l0,0.002
		c0-0.006,0-0.012,0-0.019c0,0.006,0,0.011,0,0.016L28.884,32.775L28.884,32.775z M28.884,32.799L28.884,32.799L28.884,32.799
		c0,0,0,0-0.001,0.003C28.884,32.801,28.884,32.801,28.884,32.799z M28.884,32.706c0,0-0.002,0-0.003,0H28.884L28.884,32.706z
		 M28.879,32.706L28.879,32.706L28.879,32.706L28.879,32.706z M28.877,32.709l0.001,0.002l0.001,0.002v0.002l0.001,0.007l0,0
		c0,0.002,0,0.002,0,0.002l-0.004-0.002c0,0.002,0,0.005,0,0.007v0.002c-0.001,0-0.001,0-0.001,0h-0.001
		c-0.001,0-0.001,0.001-0.001,0.001c-0.002,0.018-0.004,0.031-0.005,0.049c0.001-0.002,0.001-0.004,0.001-0.005v-0.002
		c0.001-0.004,0.001-0.007,0.002-0.012c0-0.004,0.001-0.01,0.001-0.015c0,0,0,0,0,0.003c0,0,0,0.001,0,0.002c0,0,0,0.002,0,0.004
		s0.001,0.003,0.001,0.003v0.003l0,0v-0.001l0.001-0.005c0.002-0.006,0.006-0.019,0.007-0.021c0,0,0-0.002,0-0.003l0,0
		c0.001-0.001,0.001-0.001,0.001-0.001v-0.001c0,0,0-0.001-0.001-0.003c0.001,0,0,0,0,0c0-0.001,0-0.001,0-0.002h-0.001l0,0
		c0,0,0,0,0-0.003l0,0h0.001h0.001v-0.008l-0.004-0.004L28.877,32.709c0.001,0.002,0.001,0.002,0.001,0.002h-0.001
		C28.878,32.709,28.877,32.709,28.877,32.709z M28.878,32.707L28.878,32.707v0.002l0,0V32.707z M28.876,32.707L28.876,32.707
		L28.876,32.707L28.876,32.707z M28.876,32.705l0.008,0.001h0.011v-0.001v-0.006l0,0v0.006l-0.009-0.001H28.88L28.877,32.7
		l-0.003-0.001l-0.086-0.346l-0.006-0.021l-0.005-0.014l0.004,0.014l0.091,0.367L28.876,32.705z M28.865,32.813
		c0,0.002,0.001,0.002,0.003,0.004c0-0.008,0-0.013,0-0.017C28.867,32.804,28.866,32.808,28.865,32.813z"/>
	<path fill="#EC00F9" d="M28.883,32.814c0,0,0,0-0.001,0c0,0,0,0,0,0.001C28.883,32.815,28.883,32.815,28.883,32.814
		C28.883,32.814,28.883,32.814,28.883,32.814S28.884,32.814,28.883,32.814z M31.494,39.604c0-0.002-0.404,0.345-0.406,0.345
		c-0.001-0.007-0.353,0.33-0.353,0.33h0.759v-0.71c0-0.001,0-0.002,0-0.002v-0.009l0,0v-0.002c0-0.002,0-0.002,0-0.002
		c0-0.009-0.406-0.017-0.408-0.025c-0.004-0.016-0.206-0.03-0.21-0.047l-0.099,0.396l-0.1,0.4h0.015l0.027-0.656l0.058-0.114
		l-0.407-0.91V38.59l-0.015-0.229l0.012-0.005l0.003-0.025v-0.01l-1.125-3.209v-0.016l-0.004-0.521l-0.136-0.75l0.014-0.07
		l-0.197-0.79l-0.009-0.067l-0.116-0.01l-0.113-0.003v-0.013v-0.104v-0.005V32.76v-0.001l0,0v-0.001v-0.001v-0.001v-0.002
		c0-0.001,0-0.001,0-0.001s0-0.001,0-0.002v-0.002c0-0.001,0-0.001,0-0.001s0,0.001-0.002,0.001
		c0.001-0.006,0.002-0.013,0.002-0.018c0,0,0-0.001,0-0.002l0,0c0-0.001,0-0.001,0-0.001v-0.007c0,0,0,0,0-0.002V32.7l0.101-0.001
		l0.05-0.149l0.049-0.149h-0.2v0.296V32.69v-0.021l0.086-0.393l0.074-0.438H28.84l-0.073,0.348l-0.085,0.282v0.01l0.151-0.075
		h-0.007l-0.071,0.034l-0.073,0.029v-0.001V32.46l0.033-0.128l0.03,0.052l0.023,0.019h-0.003L28.76,32.33l-0.037-0.036
		c-0.002-0.001-0.042-0.009-0.042-0.011v-0.013l0.003-0.009c-0.001-0.001-0.003-0.01-0.003-0.01V32.25
		c0-0.002,0.06-0.411,0.06-0.411c-0.001,0-0.06,0-0.06,0v0.398l0,0v-0.004c0-0.012,0.021-0.022,0.014-0.035l0.026,0.035
		c-0.266-0.442-0.263-0.952-0.374-1.436l-0.051-0.204c0.022,0.067,0.04,0.135,0.056,0.204l0.03,0.106
		c-0.007-0.037-0.014-0.071-0.021-0.106l-0.059-0.204c-0.264-0.844-0.376-1.729-0.656-2.567c-0.347-1.038-0.936-1.924-2.314-2.053
		c-0.162-0.016-0.314-0.055-0.42-0.178c-0.273,0.102-0.54,0.016-0.805-0.021c-2.735-0.384-5.467-0.781-8.205-1.15
		c-2.466-0.334-4.556,1.372-4.083,3.574c0.112,0.518-0.018,1.02-0.018,1.562c0,0.001,0,0.001,0,0.002
		c0.563,1.449,1.132,2.919,1.452,4.397c0.046,0.21,0.242,0.423,0.286,0.634c1.33-0.921,2.575-2.005,3.822-3.008
		c0.843-0.68,1.717-1.369,2.556-2.054c0.243-0.197,0.387-0.161,0.463,0.047c0.013,0.036,0.035,0.077,0.045,0.125
		c0.17,0.768,0.364,1.534,0.54,2.3l1.953,4.752l3.955,1.372c0.001,0.001,0.003,0.002,0.004,0.004
		c0.001,0.003,0.003,0.005,0.005,0.008c0,0.001,0,0.127,0.001,0.127l-0.009,0.125h0.118v-0.244l0.059,0.319l3.777,1.612h0.027
		c0,0-0.086-0.318-0.085-0.319c0-0.003-0.042-0.163-0.042-0.165c0.001-0.003-0.021-0.085-0.02-0.086
		c0.001-0.007,0.394-0.051,0.394-0.056C31.103,39.65,31.494,39.608,31.494,39.604L31.494,39.604z M28.881,32.851
		c-0.001-0.002-0.001-0.005-0.001-0.008s0-0.007,0-0.011c0-0.001,0-0.001,0-0.001c0-0.002,0-0.004,0-0.005v-0.009c0,0,0,0,0,0v0.002
		h0h0c0-0.003,0-0.004,0-0.004c0.001,0,0.001,0,0.001,0c0-0.002,0-0.003,0-0.003l0,0c0,0,0,0-0.001,0
		c0.001-0.004,0.001-0.009,0.001-0.012c0-0.001,0-0.001,0-0.002l0,0c0,0.001,0.001,0.001,0.001,0.002
		c0,0.015-0.001,0.026-0.001,0.04v0.004C28.884,32.848,28.883,32.849,28.881,32.851z M28.871,32.707l0.003,0.013v0.001l0,0
		l-0.005,0.003v-0.003C28.871,32.716,28.87,32.711,28.871,32.707z M28.87,32.699L28.87,32.699L28.87,32.699
		C28.87,32.699,28.87,32.699,28.87,32.699z M28.883,32.794L28.883,32.794c-0.001-0.001-0.001-0.001-0.001-0.001
		c-0.001,0-0.002,0-0.003,0l-0.001-0.001c0-0.002,0-0.004,0-0.004s0-0.001,0.002-0.003c0.001,0,0.001-0.002,0.001-0.002
		c-0.001,0,0-0.001,0.001-0.002h0c0.001,0,0.002-0.001,0.002-0.002c0,0.001-0.001,0.002,0,0.002v0.011V32.794L28.883,32.794
		C28.884,32.794,28.884,32.793,28.883,32.794z M29.027,33.782c-0.069-0.3-0.163-0.583-0.167-0.865
		C28.868,33.197,28.96,33.482,29.027,33.782z M28.884,32.766v0.008h-0.001c0,0,0,0,0-0.001c0.001-0.001,0-0.002,0-0.004v-0.005
		c0-0.001,0-0.002-0.001-0.003V32.76h0.001v0.004h0.001C28.884,32.764,28.884,32.764,28.884,32.766L28.884,32.766z M28.88,32.7
		h-0.002l-0.001-0.001h0.001C28.878,32.699,28.878,32.699,28.88,32.7C28.879,32.699,28.879,32.699,28.88,32.7L28.88,32.7z
		 M26.713,36.33c-0.017,0.021-0.038,0.04-0.06,0.059C26.675,36.37,26.695,36.351,26.713,36.33z M26.515,35.68
		c0.026,0.015,0.05,0.031,0.072,0.047C26.564,35.711,26.541,35.697,26.515,35.68c-0.028-0.015-0.061-0.033-0.083-0.054
		C26.455,35.646,26.486,35.665,26.515,35.68z M26.149,37.283v-0.002c0.002,0.016,0.006,0.032,0.008,0.047
		C26.155,37.313,26.151,37.301,26.149,37.283z M26.234,37.541c-0.005-0.011-0.011-0.021-0.014-0.03
		c-0.003-0.005-0.004-0.009-0.006-0.015c-0.006-0.012-0.012-0.022-0.016-0.034c0.004,0.011,0.008,0.02,0.013,0.028
		c0.001,0.002,0.002,0.004,0.002,0.006c0.001,0.003,0.002,0.004,0.002,0.005c0.002,0.005,0.005,0.012,0.007,0.017
		c0.001,0.005,0.004,0.01,0.007,0.013c0.006,0.015,0.013,0.027,0.02,0.041C26.245,37.562,26.239,37.551,26.234,37.541z
		 M26.73,38.129c-0.014-0.017-0.028-0.032-0.044-0.049c-0.102-0.107-0.213-0.215-0.307-0.328c-0.018-0.018-0.031-0.038-0.047-0.057
		c0-0.002-0.001-0.004-0.004-0.005c-0.009-0.014-0.019-0.026-0.027-0.038c-0.009-0.014-0.018-0.027-0.025-0.039
		c0-0.002,0-0.002,0-0.003c0.007,0.013,0.016,0.025,0.025,0.037c0.016,0.025,0.034,0.049,0.054,0.072
		c0.025,0.032,0.052,0.063,0.079,0.093c0.072,0.081,0.153,0.156,0.228,0.234c0.009,0.009,0.019,0.021,0.028,0.03
		c0.005,0.004,0.01,0.011,0.013,0.016c0.003,0.002,0.004,0.002,0.005,0.004c0.01,0.015,0.021,0.027,0.031,0.041
		C26.735,38.134,26.733,38.132,26.73,38.129z"/>
	<path fill="#FFFFFF" d="M26.713,36.33c-0.017,0.021-0.038,0.04-0.06,0.059C26.675,36.37,26.695,36.351,26.713,36.33z"/>
	<path fill="#FFFFFF" d="M28.876,32.73C28.876,32.73,28.876,32.73,28.876,32.73C28.877,32.73,28.877,32.73,28.876,32.73
		c0,0.008-0.001,0.014-0.001,0.021C28.874,32.744,28.876,32.736,28.876,32.73z"/>
	<polygon fill="#FFFFFF" points="28.884,32.724 28.884,32.725 28.883,32.726 28.883,32.726 28.881,32.727 28.881,32.727 
		28.88,32.729 28.877,32.73 28.877,32.729 28.878,32.721 28.881,32.724 28.881,32.724 28.883,32.724 28.883,32.724 	"/>
	<path fill="#D84CA5" d="M20.972,32.203l-1.015-2.472l0.444,0.047c0.012,0.035,0.024,0.077,0.035,0.124
		C20.606,30.671,20.795,31.437,20.972,32.203z"/>
	<path fill="#FFFFFF" d="M26.713,36.33c-0.017,0.021-0.038,0.04-0.06,0.059C26.675,36.37,26.695,36.351,26.713,36.33z"/>
	<polygon fill="#FFFFFF" points="28.871,32.699 28.871,32.7 28.87,32.699 	"/>
	<polygon fill="#FFFFFF" points="28.876,32.707 28.877,32.709 28.876,32.709 	"/>
	<path fill="#FFFFFF" d="M28.884,32.725v0.005c0,0,0,0-0.001,0.001l0,0c0,0.001,0,0.001,0,0.001v0.005c0,0.005,0,0.011-0.001,0.015
		v0.005c0,0,0,0,0,0.001c0,0.004,0,0.006,0,0.011c0,0.002,0,0.005,0,0.009c0-0.004-0.002-0.006-0.002-0.009c0,0,0,0,0-0.002v-0.003
		c0,0,0,0,0-0.002h-0.003v-0.002v-0.001v-0.007c0-0.007,0-0.015,0-0.021c0,0,0,0,0-0.001c0,0,0.001,0,0.003,0l0,0v-0.001
		c0,0,0.002,0,0.002,0c0-0.002,0-0.002,0.001-0.002h0L28.884,32.725C28.884,32.726,28.883,32.726,28.884,32.725L28.884,32.725z"/>
	<path fill="#FFFFFF" d="M28.884,32.792L28.884,32.792v0.006c0,0.001,0,0.001-0.001,0.004c0,0.014-0.002,0.026-0.005,0.04v0.003
		c0,0.004-0.001,0.011-0.001,0.015v0.004c-0.001,0.007-0.001,0.013-0.001,0.018c0-0.005,0-0.011,0-0.018
		c0-0.008,0-0.015,0.001-0.021c0-0.011,0-0.021,0-0.032c0.001-0.012,0.001-0.023,0.003-0.035c0,0.002,0,0.003,0.001,0.005
		c0,0.001,0,0.002,0,0.002l0,0c0.001,0.002,0.001,0.005,0.001,0.006C28.884,32.788,28.884,32.79,28.884,32.792z"/>
	<rect x="28.878" y="32.709" fill="#FFFFFF" width="0" height="0.002"/>
	<polygon fill="#FFFFFF" points="28.879,32.711 28.879,32.713 28.878,32.711 	"/>
	<rect x="28.879" y="32.714" fill="#FFFFFF" width="0.001" height="0"/>
	<polygon fill="#FFFFFF" points="28.88,32.715 28.88,32.716 28.88,32.715 	"/>
	<path fill="#FFFFFF" d="M30.686,39.513l0.001,0.001c-0.002-0.008-0.005-0.017-0.008-0.027l0.001,0.001L30.686,39.513z"/>
	<path fill="#FFFFFF" d="M30.724,39.648l-0.003-0.002c-0.011-0.044-0.021-0.087-0.033-0.133l0.004,0.015L30.724,39.648z"/>
	<line fill="none" x1="32.692" y1="44.193" x2="32.69" y2="44.196"/>
	<g>
		<path fill="#FFFFFF" d="M41.044,35.818v3.28H40.29v-3.28H41.044z"/>
		<path fill="#FFFFFF" d="M41.231,36.826c0-0.141,0.027-0.271,0.08-0.395c0.054-0.121,0.125-0.228,0.216-0.317
			c0.091-0.091,0.198-0.163,0.319-0.216c0.122-0.053,0.252-0.08,0.393-0.08h0.506c0.14,0,0.272,0.027,0.394,0.08
			c0.122,0.053,0.227,0.126,0.318,0.216c0.091,0.09,0.162,0.196,0.215,0.317c0.053,0.123,0.08,0.254,0.08,0.395v2.272h-0.754v-2.272
			c0-0.068-0.024-0.129-0.073-0.178c-0.048-0.05-0.108-0.076-0.18-0.076h-0.506c-0.072,0-0.132,0.026-0.18,0.076
			s-0.073,0.109-0.073,0.178v2.272h-0.754V36.826L41.231,36.826z"/>
		<path fill="#FFFFFF" d="M44.694,35.818v3.28H43.94v-3.28H44.694z"/>
		<path fill="#FFFFFF" d="M47.154,36.578h-0.759v2.521h-0.754v-2.521h-0.759v-0.76h2.273L47.154,36.578L47.154,36.578z"/>
		<path fill="#FFFFFF" d="M48.096,35.818v3.28h-0.754v-3.28H48.096z"/>
		<path fill="#FFFFFF" d="M50.051,39.099l-0.506-1.885l-0.506,1.885h-0.754l0.876-3.28h0.009h0.75h0.008l0.877,3.28H50.051z"/>
		<path fill="#FFFFFF" d="M52.796,36.578h-0.759v2.521h-0.754v-2.521h-0.758v-0.76h2.273L52.796,36.578L52.796,36.578z"/>
		<path fill="#FFFFFF" d="M53.739,35.818v3.28h-0.755v-3.28H53.739z"/>
		<path fill="#FFFFFF" d="M56.447,35.818l-0.877,3.28h-0.01h-0.75h-0.008l-0.877-3.28h0.754l0.505,1.884l0.506-1.884H56.447z"/>
		<path fill="#FFFFFF" d="M61.368,37.158c0.12,0.054,0.228,0.126,0.317,0.218c0.09,0.093,0.162,0.201,0.216,0.321
			c0.055,0.122,0.079,0.254,0.079,0.395c0,0.139-0.024,0.271-0.079,0.393c-0.054,0.122-0.126,0.229-0.216,0.318
			c-0.09,0.091-0.197,0.163-0.317,0.216c-0.123,0.053-0.253,0.08-0.395,0.08H59.46v-0.755h1.514
			c0.072-0.004,0.133-0.028,0.181-0.077c0.049-0.048,0.072-0.107,0.072-0.175c0-0.073-0.022-0.133-0.072-0.182
			c-0.048-0.048-0.108-0.072-0.181-0.072h-0.505c-0.142,0-0.273-0.027-0.395-0.08c-0.123-0.054-0.228-0.126-0.318-0.218
			c-0.092-0.092-0.162-0.2-0.217-0.32c-0.053-0.123-0.08-0.254-0.08-0.395c0-0.14,0.027-0.271,0.08-0.394
			c0.055-0.122,0.125-0.229,0.217-0.317c0.091-0.092,0.195-0.164,0.318-0.216c0.121-0.054,0.253-0.08,0.395-0.08h1.008v0.76h-1.008
			c-0.072,0-0.134,0.023-0.181,0.072c-0.048,0.048-0.073,0.106-0.073,0.176c0,0.072,0.024,0.132,0.073,0.18
			c0.047,0.049,0.108,0.073,0.181,0.073h0.505C61.115,37.079,61.245,37.105,61.368,37.158z"/>
	</g>
	<g>
		<path fill="#FFFFFF" d="M40.764,41.542c-0.038,0.039-0.058,0.085-0.058,0.139v0.199h1.391v0.597h-1.391v0.992h-0.593v-1.788
			c0-0.109,0.021-0.213,0.062-0.31c0.042-0.097,0.1-0.18,0.169-0.252c0.071-0.07,0.155-0.127,0.25-0.168
			c0.097-0.04,0.2-0.063,0.311-0.063h1.191v0.598h-1.191C40.849,41.486,40.801,41.505,40.764,41.542z"/>
		<path fill="#FFFFFF" d="M43.542,40.888c0.111,0,0.214,0.023,0.31,0.063c0.095,0.041,0.18,0.098,0.25,0.168
			c0.072,0.072,0.128,0.156,0.17,0.252c0.042,0.097,0.063,0.2,0.063,0.31v0.996c0,0.11-0.021,0.214-0.063,0.31
			c-0.042,0.097-0.098,0.178-0.17,0.249c-0.07,0.072-0.155,0.13-0.25,0.171c-0.096,0.042-0.199,0.063-0.31,0.063h-0.398
			c-0.111,0-0.213-0.021-0.31-0.063c-0.095-0.041-0.179-0.099-0.251-0.171c-0.07-0.071-0.127-0.152-0.168-0.249
			c-0.042-0.096-0.063-0.199-0.063-0.31v-0.996c0-0.109,0.021-0.213,0.063-0.31c0.042-0.096,0.099-0.18,0.168-0.252
			c0.072-0.07,0.155-0.126,0.251-0.168c0.096-0.04,0.199-0.063,0.31-0.063H43.542z M43.74,41.681c0-0.054-0.019-0.099-0.058-0.139
			c-0.037-0.037-0.085-0.057-0.141-0.057h-0.398c-0.056,0-0.103,0.019-0.142,0.057c-0.038,0.04-0.058,0.085-0.058,0.139v0.996
			c0,0.054,0.02,0.101,0.058,0.141c0.039,0.037,0.085,0.059,0.142,0.059h0.398c0.057,0,0.104-0.021,0.141-0.059
			c0.039-0.04,0.058-0.087,0.058-0.141V41.681z"/>
		<path fill="#FFFFFF" d="M46.572,42.677c0,0.11-0.021,0.214-0.064,0.31c-0.041,0.097-0.097,0.178-0.168,0.249
			c-0.071,0.072-0.155,0.13-0.251,0.171c-0.097,0.042-0.2,0.063-0.31,0.063h-0.398c-0.111,0-0.214-0.021-0.311-0.063
			c-0.095-0.041-0.179-0.099-0.25-0.171c-0.071-0.071-0.128-0.152-0.17-0.249c-0.042-0.096-0.063-0.199-0.063-0.31v-1.789h0.593
			v1.789c0,0.054,0.019,0.101,0.058,0.141c0.038,0.037,0.085,0.059,0.142,0.059h0.398c0.055,0,0.104-0.021,0.141-0.059
			c0.038-0.04,0.057-0.087,0.057-0.141v-1.789h0.593L46.572,42.677L46.572,42.677z"/>
		<path fill="#FFFFFF" d="M46.826,41.681c0-0.109,0.021-0.213,0.063-0.31c0.042-0.096,0.099-0.18,0.169-0.252
			c0.072-0.07,0.156-0.126,0.251-0.168c0.096-0.04,0.2-0.063,0.31-0.063h0.398c0.111,0,0.214,0.023,0.31,0.063
			c0.096,0.041,0.179,0.098,0.25,0.168c0.071,0.072,0.128,0.156,0.169,0.252c0.042,0.097,0.063,0.2,0.063,0.31v1.788h-0.593v-1.788
			c0-0.054-0.019-0.1-0.058-0.14c-0.038-0.039-0.085-0.06-0.142-0.06h-0.398c-0.057,0-0.104,0.021-0.141,0.06
			c-0.038,0.039-0.058,0.086-0.058,0.14v1.788h-0.594V41.681z"/>
		<path fill="#FFFFFF" d="M51.048,42.677c0,0.11-0.022,0.214-0.064,0.31c-0.041,0.097-0.098,0.178-0.168,0.249
			c-0.072,0.072-0.156,0.13-0.25,0.171c-0.097,0.042-0.2,0.063-0.311,0.063h-0.597h-0.594v-2.581h0.594h0.597
			c0.111,0,0.214,0.023,0.311,0.063c0.094,0.041,0.178,0.098,0.25,0.168c0.07,0.072,0.127,0.156,0.168,0.252
			c0.042,0.097,0.064,0.2,0.064,0.31V42.677z M50.454,41.681c0-0.054-0.019-0.099-0.058-0.139c-0.038-0.037-0.085-0.057-0.142-0.057
			h-0.597v1.391h0.597c0.057,0,0.104-0.021,0.142-0.059c0.039-0.04,0.058-0.087,0.058-0.141V41.681z"/>
		<path fill="#FFFFFF" d="M52.691,43.469l-0.399-1.481l-0.397,1.481h-0.594l0.689-2.581h0.007h0.589h0.008l0.689,2.581H52.691z"/>
		<path fill="#FFFFFF" d="M54.958,41.486h-0.598v1.982h-0.594v-1.982h-0.596v-0.599h1.788V41.486z"/>
		<path fill="#FFFFFF" d="M55.806,40.888v2.581h-0.593v-2.581H55.806z"/>
		<path fill="#FFFFFF" d="M57.251,40.888c0.111,0,0.214,0.023,0.31,0.063c0.096,0.041,0.18,0.098,0.252,0.168
			c0.07,0.072,0.126,0.156,0.168,0.252c0.041,0.097,0.063,0.2,0.063,0.31v0.996c0,0.11-0.021,0.214-0.063,0.31
			c-0.042,0.097-0.098,0.178-0.168,0.249c-0.072,0.072-0.156,0.13-0.252,0.171c-0.096,0.042-0.199,0.063-0.31,0.063h-0.398
			c-0.11,0-0.214-0.021-0.309-0.063c-0.097-0.041-0.181-0.099-0.251-0.171c-0.072-0.071-0.128-0.152-0.17-0.249
			c-0.041-0.096-0.063-0.199-0.063-0.31v-0.996c0-0.109,0.021-0.213,0.063-0.31c0.042-0.096,0.098-0.18,0.17-0.252
			c0.07-0.07,0.154-0.126,0.251-0.168c0.095-0.04,0.198-0.063,0.309-0.063H57.251z M57.449,41.681c0-0.054-0.018-0.099-0.056-0.139
			c-0.04-0.037-0.087-0.057-0.143-0.057h-0.397c-0.058,0-0.104,0.019-0.142,0.057c-0.038,0.04-0.058,0.085-0.058,0.139v0.996
			c0,0.054,0.02,0.101,0.058,0.141c0.037,0.037,0.084,0.059,0.142,0.059h0.397c0.056,0,0.104-0.021,0.143-0.059
			c0.038-0.04,0.056-0.087,0.056-0.141V41.681z"/>
		<path fill="#FFFFFF" d="M58.298,41.681c0-0.109,0.021-0.213,0.063-0.31c0.042-0.096,0.099-0.18,0.17-0.252
			c0.073-0.07,0.155-0.126,0.251-0.168c0.096-0.04,0.198-0.063,0.31-0.063h0.397c0.111,0,0.214,0.023,0.311,0.063
			c0.095,0.041,0.179,0.098,0.25,0.168c0.072,0.072,0.127,0.156,0.172,0.252c0.04,0.097,0.061,0.2,0.061,0.31v1.788h-0.593v-1.788
			c0-0.054-0.02-0.1-0.058-0.14c-0.037-0.039-0.085-0.06-0.143-0.06h-0.397c-0.057,0-0.104,0.021-0.142,0.06
			c-0.039,0.039-0.059,0.086-0.059,0.14v1.788h-0.593V41.681z"/>
	</g>
	<g>
		<path fill="#FFFFFF" d="M42.373,32.129h-0.708v2.354h-0.704v-2.354h-0.708v-0.708h2.122L42.373,32.129L42.373,32.129z"/>
		<path fill="#FFFFFF" d="M44.902,31.421v3.062h-0.705v-1.177h-0.944v1.177h-0.705v-3.062h0.705v1.177h0.944v-1.177H44.902z"/>
		<path fill="#FFFFFF" d="M45.848,32.197c-0.045,0.045-0.069,0.102-0.069,0.164v0.236h1.649v0.708h-1.649v0.237
			c0,0.063,0.024,0.12,0.069,0.167c0.045,0.046,0.101,0.069,0.168,0.069h1.412v0.704h-1.412c-0.131,0-0.253-0.025-0.368-0.074
			c-0.114-0.051-0.212-0.117-0.298-0.201c-0.083-0.085-0.151-0.184-0.201-0.297c-0.049-0.113-0.073-0.237-0.073-0.368v-1.181
			c0-0.13,0.024-0.254,0.073-0.367c0.05-0.113,0.117-0.213,0.201-0.298c0.085-0.085,0.184-0.151,0.298-0.201
			c0.114-0.049,0.237-0.074,0.368-0.074h1.412v0.709h-1.412C45.949,32.129,45.893,32.152,45.848,32.197z"/>
	</g>
	<rect x="57.529" y="35.818" fill="#FFFFFF" width="1.768" height="0.756"/>
	<rect x="56.618" y="35.818" fill="#00F9FF" width="0.702" height="0.724"/>
	<rect x="56.558" y="37.033" fill="#FFFFFF" width="2.739" height="0.847"/>
	<rect x="57.529" y="38.327" fill="#FFFFFF" width="1.768" height="0.756"/>
	<rect x="56.618" y="38.327" fill="#00F9FF" width="0.702" height="0.725"/>
</g>
</svg>
