<?xml version="1.0" encoding="utf-8"?>
<!-- Generator: Adobe Illustrator 16.0.0, SVG Export Plug-In . SVG Version: 6.00 Build 0)  -->
<!DOCTYPE svg PUBLIC "-//W3C//DTD SVG 1.1//EN" "http://www.w3.org/Graphics/SVG/1.1/DTD/svg11.dtd">
<svg version="1.1" xmlns="http://www.w3.org/2000/svg" xmlns:xlink="http://www.w3.org/1999/xlink" x="0px" y="0px" width="621px"
	 height="780.171px" viewBox="0 0 621 780.171" enable-background="new 0 0 621 780.171" xml:space="preserve">
<g id="backcolor" display="none">
	<rect y="0.171" display="inline" fill-rule="evenodd" clip-rule="evenodd" width="621" height="780"/>
</g>
<g id="Layer_3">
</g>
<g id="working_together_background">
	<g>
		<g>
			<path fill="#FFFFFF" d="M251.894,161.153v39.039h-8.981v-39.039H251.894z"/>
			<path fill="#FFFFFF" d="M254.128,173.13c0-1.673,0.313-3.23,0.948-4.67c0.63-1.462,1.48-2.723,2.565-3.792
				c1.078-1.07,2.336-1.938,3.79-2.563c1.448-0.646,3.015-0.953,4.687-0.953h6.018c1.676,0,3.233,0.307,4.687,0.953
				c1.451,0.625,2.711,1.482,3.789,2.563c1.081,1.069,1.93,2.34,2.566,3.792c0.632,1.439,0.948,2.997,0.948,4.67v27.062h-8.979
				V173.13c0-0.806-0.294-1.504-0.869-2.106c-0.574-0.594-1.295-0.89-2.147-0.89h-6.008c-0.863,0-1.573,0.296-2.147,0.89
				c-0.58,0.592-0.868,1.291-0.868,2.106v27.062h-8.979V173.13z"/>
			<path fill="#FFFFFF" d="M295.347,161.153v39.039h-8.981v-39.039H295.347z"/>
			<path fill="#FFFFFF" d="M324.629,170.176h-9.04v30.016h-8.981v-30.016h-9.034v-9.023h27.05v9.023H324.629z"/>
			<path fill="#FFFFFF" d="M335.842,161.153v39.039h-8.981v-39.039H335.842z"/>
			<path fill="#FFFFFF" d="M359.1,200.192l-6.026-22.412l-6.023,22.412h-8.979l10.427-39.039h0.114h8.926h0.113l10.427,39.039H359.1
				z"/>
			<path fill="#FFFFFF" d="M391.782,170.176h-9.04v30.016h-8.978v-30.016h-9.035v-9.023h27.052V170.176z"/>
			<path fill="#FFFFFF" d="M402.995,161.153v39.039h-8.979v-39.039H402.995z"/>
			<path fill="#FFFFFF" d="M435.24,161.153l-10.435,39.039h-0.109h-8.926h-0.108l-10.432-39.039h8.986l6.023,22.422l6.024-22.422
				H435.24z"/>
			<path fill="#FFFFFF" d="M493.804,177.102c1.454,0.636,2.717,1.494,3.787,2.595c1.077,1.092,1.93,2.383,2.568,3.813
				c0.63,1.461,0.95,3.019,0.95,4.691c0,1.674-0.32,3.23-0.95,4.683c-0.633,1.461-1.485,2.721-2.568,3.802
				c-1.07,1.069-2.338,1.927-3.787,2.563c-1.458,0.625-3.013,0.943-4.684,0.943h-18.021v-8.972h18.021
				c0.85-0.031,1.567-0.35,2.147-0.921c0.575-0.583,0.866-1.281,0.866-2.098c0-0.857-0.292-1.577-0.866-2.14
				c-0.574-0.581-1.292-0.868-2.147-0.868h-6.021c-1.678,0-3.241-0.318-4.689-0.953c-1.448-0.624-2.711-1.494-3.792-2.595
				c-1.078-1.09-1.93-2.371-2.558-3.834c-0.641-1.43-0.956-3.008-0.956-4.682c0-1.673,0.315-3.23,0.956-4.67
				c0.627-1.462,1.48-2.723,2.558-3.792c1.081-1.07,2.349-1.938,3.792-2.563c1.454-0.646,3.016-0.953,4.689-0.953h11.992v9.023
				h-11.992c-0.855,0-1.578,0.296-2.147,0.879c-0.575,0.561-0.86,1.26-0.86,2.075c0,0.858,0.286,1.568,0.86,2.161
				c0.569,0.571,1.292,0.847,2.147,0.847h6.021C490.791,176.149,492.345,176.467,493.804,177.102z"/>
		</g>
		<g>
			<path fill="#FFFFFF" d="M248.563,229.285c-0.456,0.455-0.678,1.007-0.678,1.652v2.373h16.541v7.106h-16.541v11.809h-7.064
				v-21.288c0-1.324,0.249-2.541,0.747-3.686c0.495-1.145,1.168-2.139,2.018-2.977c0.847-0.857,1.845-1.535,2.984-2.022
				c1.139-0.497,2.37-0.752,3.686-0.752h14.176v7.107h-14.176C249.577,228.608,249.013,228.84,248.563,229.285z"/>
			<path fill="#FFFFFF" d="M281.626,221.5c1.313,0,2.536,0.244,3.683,0.741c1.144,0.498,2.131,1.165,2.987,2.023
				c0.848,0.848,1.517,1.842,2.018,2.986c0.498,1.134,0.744,2.361,0.744,3.686v11.852c0,1.303-0.247,2.553-0.744,3.687
				c-0.5,1.132-1.17,2.139-2.018,2.976c-0.855,0.847-1.837,1.515-2.987,2.022c-1.146,0.498-2.37,0.752-3.683,0.752h-4.74
				c-1.318,0-2.542-0.254-3.688-0.752c-1.139-0.508-2.137-1.176-2.987-2.022c-0.845-0.837-1.517-1.844-2.018-2.976
				c-0.498-1.134-0.75-2.384-0.75-3.687v-11.852c0-1.324,0.251-2.552,0.75-3.686c0.5-1.145,1.173-2.139,2.018-2.986
				c0.85-0.858,1.843-1.525,2.987-2.023c1.141-0.497,2.37-0.741,3.688-0.741H281.626z M283.996,230.937
				c0-0.646-0.228-1.197-0.678-1.652c-0.45-0.444-1.02-0.677-1.687-0.677h-4.739c-0.673,0-1.237,0.232-1.692,0.677
				c-0.451,0.455-0.679,1.007-0.679,1.652v11.852c0,0.637,0.228,1.197,0.679,1.663c0.455,0.466,1.019,0.71,1.692,0.71h4.739
				c0.673,0,1.237-0.244,1.687-0.71c0.456-0.466,0.678-1.017,0.678-1.663V230.937z"/>
			<path fill="#FFFFFF" d="M317.692,242.789c0,1.293-0.244,2.543-0.747,3.675c-0.5,1.134-1.167,2.141-2.018,2.987
				c-0.847,0.847-1.84,1.515-2.984,2.022c-1.138,0.498-2.37,0.742-3.686,0.742h-4.739c-1.324,0-2.55-0.244-3.688-0.742
				c-1.144-0.508-2.137-1.176-2.981-2.022c-0.853-0.847-1.525-1.854-2.023-2.987c-0.495-1.132-0.744-2.372-0.744-3.675V221.5h7.067
				v21.288c0,0.625,0.228,1.186,0.678,1.653c0.456,0.465,1.02,0.709,1.698,0.709h4.739c0.673,0,1.237-0.244,1.687-0.709
				c0.456-0.468,0.678-1.017,0.678-1.653V221.5h7.064V242.789z"/>
			<path fill="#FFFFFF" d="M320.718,230.937c0-1.324,0.244-2.552,0.749-3.686c0.492-1.145,1.17-2.139,2.018-2.986
				c0.85-0.858,1.843-1.525,2.981-2.023c1.138-0.497,2.375-0.741,3.688-0.741h4.739c1.316,0,2.547,0.244,3.686,0.741
				c1.138,0.498,2.136,1.165,2.984,2.023c0.85,0.848,1.517,1.842,2.015,2.986c0.5,1.134,0.749,2.361,0.749,3.686v21.278h-7.067
				v-21.278c0-0.646-0.228-1.207-0.683-1.673c-0.456-0.467-1.012-0.699-1.69-0.699h-4.739c-0.678,0-1.242,0.232-1.692,0.699
				c-0.45,0.466-0.677,1.027-0.677,1.673v21.278h-7.067v-21.278H320.718z"/>
			<path fill="#FFFFFF" d="M370.96,242.789c0,1.293-0.244,2.543-0.744,3.675c-0.493,1.134-1.17,2.141-2.018,2.987
				c-0.85,0.847-1.843,1.515-2.987,2.022c-1.133,0.498-2.364,0.742-3.684,0.742h-7.109h-7.064V221.5h7.064h7.109
				c1.324,0,2.551,0.255,3.684,0.752c1.144,0.487,2.137,1.165,2.987,2.022c0.847,0.838,1.525,1.832,2.018,2.977
				c0.5,1.145,0.744,2.361,0.744,3.686V242.789L370.96,242.789z M363.898,230.937c0-0.646-0.228-1.197-0.683-1.652
				c-0.451-0.444-1.015-0.677-1.692-0.677h-7.109v16.543h7.109c0.678,0,1.242-0.244,1.692-0.709c0.45-0.468,0.683-1.017,0.683-1.653
				V230.937z"/>
			<path fill="#FFFFFF" d="M390.53,252.215l-4.74-17.646l-4.739,17.646h-7.064l8.203-30.715h0.086h7.022h0.087l8.21,30.715H390.53z"
				/>
			<path fill="#FFFFFF" d="M417.519,228.608h-7.11v23.607h-7.066v-23.607h-7.101V221.5h21.277V228.608L417.519,228.608z"/>
			<path fill="#FFFFFF" d="M427.604,221.5v30.715h-7.064V221.5H427.604z"/>
			<path fill="#FFFFFF" d="M444.81,221.5c1.313,0,2.544,0.244,3.688,0.741c1.139,0.498,2.137,1.165,2.979,2.023
				c0.85,0.848,1.523,1.842,2.021,2.986c0.5,1.134,0.749,2.361,0.749,3.686v11.852c0,1.303-0.249,2.553-0.749,3.687
				c-0.498,1.132-1.17,2.139-2.021,2.976c-0.847,0.847-1.84,1.515-2.979,2.022c-1.144,0.498-2.375,0.752-3.688,0.752h-4.737
				c-1.324,0-2.55-0.254-3.688-0.752c-1.144-0.508-2.136-1.176-2.99-2.022c-0.85-0.837-1.522-1.844-2.02-2.976
				c-0.495-1.134-0.744-2.384-0.744-3.687v-11.852c0-1.324,0.244-2.552,0.744-3.686c0.498-1.145,1.17-2.139,2.02-2.986
				c0.854-0.858,1.846-1.525,2.99-2.023c1.139-0.497,2.365-0.741,3.688-0.741H444.81z M447.182,230.937
				c0-0.646-0.23-1.197-0.678-1.652c-0.45-0.444-1.022-0.677-1.694-0.677h-4.737c-0.678,0-1.242,0.232-1.697,0.677
				c-0.45,0.455-0.678,1.007-0.678,1.652v11.852c0,0.637,0.228,1.197,0.678,1.663c0.456,0.466,1.02,0.71,1.697,0.71h4.737
				c0.672,0,1.236-0.244,1.694-0.71c0.456-0.466,0.678-1.017,0.678-1.663V230.937z"/>
			<path fill="#FFFFFF" d="M457.272,230.937c0-1.324,0.244-2.552,0.747-3.686c0.49-1.145,1.167-2.139,2.012-2.986
				c0.853-0.858,1.846-1.525,2.989-2.023c1.139-0.497,2.37-0.741,3.686-0.741h4.739c1.313,0,2.55,0.244,3.688,0.741
				c1.134,0.498,2.137,1.165,2.982,2.023c0.847,0.848,1.515,1.842,2.018,2.986c0.495,1.134,0.75,2.361,0.75,3.686v21.278h-7.072
				v-21.278c0-0.646-0.228-1.207-0.678-1.673c-0.46-0.467-1.014-0.699-1.691-0.699h-4.74c-0.672,0-1.236,0.232-1.686,0.699
				c-0.456,0.466-0.678,1.027-0.678,1.673v21.278h-7.065V230.937z"/>
		</g>
		<g>
			<path fill="#FFFFFF" d="M267.717,117.242h-8.433v28.014h-8.382v-28.014h-8.434v-8.431h25.245v8.431H267.717z"/>
			<path fill="#FFFFFF" d="M297.807,108.811v36.444h-8.383v-14.013h-11.24v14.013h-8.385v-36.444h8.385v14.001h11.24v-14.001
				H297.807z"/>
			<path fill="#FFFFFF" d="M309.076,118.046c-0.532,0.54-0.803,1.187-0.803,1.953v2.813h19.631v8.431h-19.631v2.823
				c0,0.768,0.271,1.413,0.803,1.979c0.542,0.556,1.21,0.832,2.013,0.832h16.815v8.389h-16.815c-1.568,0-3.021-0.307-4.372-0.89
				c-1.355-0.594-2.536-1.389-3.54-2.399c-1.009-1.001-1.806-2.188-2.396-3.532c-0.593-1.356-0.884-2.817-0.884-4.375v-14.059
				c0-1.558,0.286-3.024,0.884-4.369c0.591-1.355,1.388-2.531,2.396-3.544c1.004-0.999,2.185-1.805,3.54-2.387
				c1.351-0.588,2.809-0.89,4.372-0.89h16.815v8.43h-16.815C310.286,117.242,309.613,117.511,309.076,118.046z"/>
		</g>
		<rect x="448.114" y="161.153" fill="#FFFFFF" width="21.039" height="8.981"/>
		<rect x="437.29" y="161.153" fill="#00F9FF" width="8.346" height="8.621"/>
		<rect x="436.541" y="175.62" fill="#FFFFFF" width="32.612" height="10.062"/>
		<rect x="448.114" y="191.03" fill="#FFFFFF" width="21.039" height="8.981"/>
		<rect x="437.29" y="191.03" fill="#00F9FF" width="8.346" height="8.61"/>
		<path fill="#00AAFF" stroke="#00AAFF" stroke-width="0.3" stroke-miterlimit="10" d="M164.387,244.124v-0.011
			c-0.053,0.011-0.114,0.011-0.167,0c-0.397-0.043-0.712-0.181-0.988-0.413l-0.016,0.147c-0.021-0.011-0.042-0.011-0.071-0.011
			c-0.016-0.01-0.032-0.01-0.059-0.01l-6.741-0.879c0-0.021,0.01-0.063,0.01-0.096c-0.069,0.042-0.161,0.053-0.265,0.075
			c-0.869,0.042-1.713-0.117-2.555-0.33l-2.189-0.284c-0.098,0.042-0.202,0.052-0.305,0.042c-0.373-0.042-0.746-0.106-1.111-0.223
			c-0.043-0.011-0.09-0.042-0.125-0.074c0,0.032,0,0.042-0.005,0.042l-6.739-0.857c-0.045-0.011-0.087,0-0.127-0.011l0.016-0.139
			c-0.275,0.064-0.556,0.107-0.839,0.149c-0.151,0.021-0.281,0-0.384-0.064v0.022c-2.153,0.105-3.829,1.132-4.019,2.646
			c-0.191,1.484,1.184,2.935,3.217,3.569l-2.171,16.788l9.826,12.804l12.76-9.902l2.177-16.765c2.168-0.107,3.903-1.145,4.104-2.648
			C167.811,246.188,166.447,244.758,164.387,244.124z M148.781,275.431l-1.832-2.384l4.207,0.54L148.781,275.431z M152.356,272.645
			l-6.302-0.815c-0.01,0-0.016,0.021-0.016,0.021l-5.417-7.054l18.756,2.414L152.356,272.645z M140.025,263.622l2.054-15.929
			c0.048,0.021,0.098,0.042,0.146,0.042l4.025,0.52l-2.061,15.907L140.025,263.622z M145.376,264.32l2.06-15.929l4.176,0.551
			l-2.06,15.908L145.376,264.32z M150.728,265.009l2.057-15.93l4.181,0.541l-2.063,15.929L150.728,265.009z M160.251,266.226
			l-4.176-0.539l2.06-15.909l4.115,0.52c0.024,0,0.04,0,0.061,0L160.251,266.226z M163.715,249.249c-0.021,0-0.048,0-0.069,0
			c-0.196,0.022-0.392,0.032-0.599,0.032c-0.193-0.01-0.395-0.01-0.596-0.042c-0.016,0-0.032,0-0.058,0l-20.028-2.573
			c-0.048-0.011-0.098-0.033-0.146-0.033c-0.201-0.031-0.389-0.062-0.585-0.115s-0.373-0.106-0.559-0.18c-0.005,0-0.011,0-0.016,0
			c-1.361-0.499-2.295-1.431-2.176-2.331c0.122-0.922,1.261-1.566,2.701-1.716c0,0,0.011,0,0.023,0
			c0.188-0.01,0.379-0.031,0.586-0.031c0,0,0.005,0,0.016,0c0.19,0,0.378,0.031,0.569,0.054h0.016c0.044,0,0.082,0,0.124,0.01
			l20.028,2.563c0.027,0,0.037,0.021,0.063,0.021c0.016,0,0.037,0.011,0.066,0.011c0.177,0.031,0.347,0.054,0.514,0.105
			c0.016,0,0.045,0,0.066,0c0.177,0.044,0.341,0.096,0.508,0.159c0.021,0.012,0.045,0.012,0.072,0.021
			c1.372,0.508,2.309,1.429,2.195,2.352C166.317,248.455,165.179,249.122,163.715,249.249z"/>
		<g>
			<g>
				<path fill="#00F9FF" d="M138.447,208.314c-2.426,0.148-4.697-0.497-6.55-1.853c-1.93,0.646-6.834,1.705-11.222-1.801
					c-3.659-2.944-5.324-7.085-5.081-12.709c0.108-2.596,1.35-5.189,3.413-7.138c1.522-1.441,3.333-2.363,5.155-2.659
					c-0.098-1.706,0.044-4.321,1.454-6.281c1.101-1.535,2.722-2.394,4.827-2.552c2.488-0.169,6.738,0.519,7.244,7.127
					c0.063,0.837-0.538,1.568-1.34,1.642c-0.797,0.064-1.517-0.561-1.583-1.419c-0.238-3.177-1.48-4.469-4.109-4.268
					c-1.237,0.084-2.116,0.52-2.691,1.323c-1.188,1.642-0.921,4.575-0.728,5.561c0.099,0.466-0.021,0.975-0.317,1.313
					c-0.293,0.37-0.733,0.571-1.189,0.551c-1.594-0.105-3.328,0.604-4.75,1.96c-1.485,1.396-2.381,3.229-2.462,5.009
					c-0.196,4.661,1.02,7.773,3.932,10.093c4.094,3.295,8.905,1.197,9.111,1.102c0.503-0.212,1.099-0.116,1.517,0.244
					c1.589,1.397,3.757,1.96,6.101,1.6c2.582-0.402,4.983-1.896,6.122-3.771c2.825-4.639,2.099-10.549,2.094-10.591
					c-0.006-0.042-0.006-0.096-0.006-0.118l-2.121-36.989c-0.053-0.841,0.564-1.572,1.366-1.609
					c0.808-0.059,1.501,0.599,1.552,1.446l2.121,36.941c0.09,0.752,0.725,7.223-2.535,12.604c-1.594,2.616-4.718,4.576-8.145,5.116
					C139.238,208.262,138.841,208.304,138.447,208.314z"/>
			</g>
			<g>
				<path fill="#00F9FF" d="M117.151,193.572c-0.109,0.011-0.212,0-0.321-0.021c-2.38-0.401-6.99-2.998-7.379-9.871
					c-0.265-4.575,2.076-7.837,4.594-9.5c-1.064-1.091-2.24-2.69-2.762-4.766c-0.639-2.542-0.178-5.168,1.345-7.838
					c1.79-3.135,6.354-4.871,10.617-4.057c3.7,0.721,6.183,3.167,6.826,6.704c0.148,0.837-0.373,1.642-1.17,1.791
					c-0.792,0.147-1.563-0.383-1.708-1.239c-0.548-3.041-3.026-3.95-4.457-4.237c-3.026-0.582-6.431,0.594-7.588,2.627
					c-1.099,1.938-1.451,3.76-1.03,5.454c0.717,2.902,3.445,4.607,3.477,4.618c0.521,0.318,0.802,0.942,0.715,1.567
					c-0.09,0.635-0.53,1.122-1.123,1.26c-2.14,0.509-5.047,3.146-4.803,7.446c0.353,6.164,4.869,7,4.919,7.012
					c0.797,0.138,1.342,0.921,1.218,1.757C118.398,193.011,117.818,193.541,117.151,193.572z"/>
			</g>
			<g>
				<path fill="#00F9FF" d="M137.899,166.872c-0.331,0.021-0.662,0.021-0.993-0.011c-2.896-0.201-5.113-2.192-5.791-5.169
					c-0.683-3.028,0.406-6.195,2.598-7.541c1.527-0.933,2.992-1.181,4.348-0.752c1.893,0.605,2.751,2.331,2.841,2.521
					c0.354,0.762,0.061,1.694-0.667,2.055c-0.721,0.36-1.594,0.063-1.952-0.688c-0.021-0.043-0.394-0.742-1.083-0.965
					c-0.543-0.146-1.215,0-2.007,0.487c-1.075,0.667-1.609,2.5-1.231,4.185c0.222,0.985,0.917,2.646,3.135,2.807
					c1.713,0.127,3.474-0.699,4.962-2.341c2.341-2.595,3.503-6.661,3.047-10.634c-0.495-4.226-3.471-5.729-4.729-6.19
					c-2.354-0.842-4.999-0.462-6.302,0.927c-1.848,1.976-1.181,4.342-1.176,4.363c0.183,0.646-0.05,1.345-0.582,1.716
					c-0.529,0.371-1.242,0.339-1.74-0.084c-0.119-0.106-3.146-2.553-6.442-0.435c-1.615,1.049-3.011,4.205-2.436,7.498
					c0.148,0.837-0.379,1.643-1.176,1.79c-0.792,0.138-1.557-0.413-1.703-1.239c-0.733-4.227,0.89-8.801,3.773-10.665
					c2.831-1.816,5.494-1.462,7.342-0.752c0.169-1.334,0.701-2.918,2.057-4.353c2.108-2.256,5.865-2.923,9.336-1.674
					c3.766,1.36,6.204,4.539,6.697,8.728c0.569,4.945-0.85,9.85-3.821,13.123C142.36,165.612,140.16,166.744,137.899,166.872z"/>
			</g>
			<g>
				<path fill="#00F9FF" d="M148.424,199.344c-0.125,0-0.254,0-0.384-0.021c-0.791-0.19-1.302-1.018-1.138-1.843l0,0
					c0.281-1.408,0.736-5.539-0.5-7.477c-0.331-0.53-0.749-0.816-1.305-0.933c-1.459-0.298-2.529-0.032-3.175,0.763
					c-0.823,1.026-0.834,2.679-0.611,3.315c0.275,0.783-0.087,1.651-0.823,1.958c-0.739,0.308-1.573-0.063-1.893-0.826
					c-0.146-0.338-1.52-3.336-4.409-2.68c-1.967,0.445-2.317,2.258-2.38,2.797c-0.125,1.133,0.27,2.181,0.963,2.531
					c0.728,0.382,1.033,1.291,0.678,2.075c-0.352,0.752-1.229,1.07-1.957,0.7c-1.828-0.954-2.873-3.221-2.598-5.667
					c0.31-2.785,2.089-4.862,4.652-5.443c2.111-0.478,3.824,0.137,5.121,1.122c0.228-0.667,0.564-1.313,1.014-1.864
					c0.948-1.164,2.749-2.425,5.952-1.79c1.34,0.275,2.447,1.038,3.206,2.256c2.143,3.336,1.067,9.162,0.938,9.809
					C149.634,198.826,149.07,199.302,148.424,199.344z"/>
			</g>
			<g>
				<path fill="#00F9FF" d="M148.57,185.121c0,0-0.006,0-0.011,0c-0.802,0.052-1.496-0.604-1.541-1.462
					c-0.228-4.195-0.437-8.166-1.528-9.205c-0.161-0.137-0.424-0.316-1.035-0.274c-1.867,0.105-1.92,1.663-1.894,2.15
					c0.051,0.836-0.569,1.568-1.376,1.62l0,0c-0.808,0.042-1.502-0.615-1.552-1.462c-0.114-2.044,1.024-5.18,4.646-5.38
					c1.258-0.074,2.322,0.296,3.151,1.07c2.013,1.896,2.219,5.846,2.51,11.332C149.991,184.357,149.372,185.079,148.57,185.121z"/>
			</g>
		</g>
		<g>
			<g>
				<path fill="#FCFC00" d="M165.076,206.8c-0.39,0.031-0.787,0.031-1.187,0.01c-3.471-0.158-6.794-1.758-8.682-4.183
					c-3.85-4.946-3.958-11.471-3.958-12.232l-2.121-36.927c-0.048-0.853,0.564-1.573,1.372-1.62
					c0.808-0.049,1.504,0.608,1.552,1.446l2.126,36.983c0,0.042,0,0.075,0,0.117c0,0.062-0.027,6.015,3.291,10.294
					c1.355,1.737,3.911,2.934,6.519,3.039c2.369,0.096,4.456-0.698,5.873-2.276c0.384-0.424,0.958-0.573,1.491-0.393
					c0.207,0.064,5.216,1.59,8.915-2.139c2.629-2.658,3.477-5.899,2.749-10.485c-0.281-1.779-1.382-3.475-3.021-4.714
					c-1.573-1.175-3.37-1.684-4.938-1.408c-0.45,0.085-0.911-0.063-1.247-0.402c-0.342-0.318-0.511-0.783-0.466-1.25
					c0.08-1.017,0-3.96-1.361-5.465c-0.667-0.73-1.591-1.049-2.828-1.007c-0.032,0-0.069,0-0.1,0.012
					c-2.566,0.148-3.607,1.557-3.488,4.702c0.032,0.848-0.585,1.558-1.406,1.589c-0.808,0.032-1.491-0.636-1.523-1.483
					c-0.249-6.63,3.872-7.784,6.387-7.89c2.105-0.095,3.818,0.582,5.086,1.98c1.624,1.79,2.063,4.363,2.158,6.08
					c1.845,0.096,3.754,0.805,5.422,2.054c2.274,1.694,3.813,4.152,4.215,6.704c0.876,5.55-0.299,9.871-3.601,13.196
					c-3.954,3.993-8.937,3.496-10.938,3.062C169.691,205.761,167.506,206.672,165.076,206.8z"/>
			</g>
			<g>
				<path fill="#FCFC00" d="M184.55,189.727c-0.667,0.043-1.303-0.413-1.491-1.123c-0.217-0.815,0.228-1.651,0.996-1.896
					c0.212-0.053,4.448-1.461,4.096-7.529c-0.246-4.29-3.444-6.588-5.629-6.832c-0.604-0.074-1.102-0.529-1.252-1.144
					c-0.164-0.604,0.053-1.261,0.535-1.621c0.024-0.031,2.534-2.022,2.918-4.978c0.222-1.736-0.336-3.527-1.647-5.316
					c-1.39-1.886-4.909-2.658-7.842-1.748c-1.388,0.445-3.747,1.643-3.943,4.723c-0.053,0.848-0.746,1.484-1.554,1.431
					c-0.81-0.073-1.422-0.806-1.366-1.652c0.228-3.601,2.417-6.312,6.008-7.446c4.136-1.291,8.875-0.084,11.012,2.829
					c1.821,2.478,2.576,5.052,2.235,7.636c-0.284,2.129-1.263,3.854-2.19,5.052c2.683,1.367,5.378,4.342,5.643,8.907
					c0.397,6.885-3.882,9.987-6.206,10.666C184.762,189.716,184.659,189.727,184.55,189.727z"/>
			</g>
			<g>
				<path fill="#FCFC00" d="M160.885,165.569c-2.261,0.127-4.581-0.763-6.63-2.563c-3.321-2.913-5.304-7.625-5.299-12.603
					c0.006-4.211,2.065-7.648,5.651-9.437c3.307-1.632,7.115-1.389,9.468,0.603c1.501,1.281,2.217,2.796,2.537,4.1
					c1.744-0.912,4.348-1.568,7.369-0.091c3.079,1.515,5.221,5.878,4.972,10.162c-0.047,0.847-0.741,1.483-1.549,1.43
					c-0.81-0.053-1.422-0.794-1.374-1.631c0.19-3.347-1.555-6.323-3.281-7.181c-3.562-1.758-6.323,1.134-6.349,1.155
					c-0.45,0.486-1.144,0.598-1.719,0.291c-0.569-0.322-0.885-0.98-0.771-1.647c0.01-0.09,0.347-2.488-1.671-4.198
					c-1.448-1.235-4.125-1.315-6.365-0.207c-1.2,0.593-3.979,2.436-3.991,6.672c-0.005,4.015,1.621,7.933,4.239,10.23
					c1.666,1.463,3.514,2.087,5.2,1.77c2.179-0.413,2.685-2.15,2.788-3.145c0.191-1.707-0.559-3.486-1.697-4.016
					c-0.842-0.381-1.536-0.465-2.049-0.254c-0.667,0.296-0.967,1.07-0.967,1.08c-0.27,0.784-1.101,1.197-1.864,0.911
					c-0.765-0.286-1.163-1.176-0.895-1.97c0.069-0.213,0.72-2.012,2.537-2.839c1.303-0.571,2.783-0.487,4.409,0.274
					c2.328,1.082,3.776,4.101,3.445,7.182c-0.331,3.041-2.311,5.254-5.163,5.805C161.541,165.504,161.21,165.547,160.885,165.569z"
					/>
			</g>
			<g>
				<path fill="#FCFC00" d="M154.146,199.015c-0.646,0.043-1.266-0.381-1.475-1.048c-0.206-0.614-1.933-6.291-0.196-9.87
					c0.623-1.262,1.636-2.162,2.929-2.597c3.106-0.995,5.042,0.054,6.116,1.112c0.508,0.499,0.917,1.092,1.221,1.737
					c1.176-1.123,2.815-1.927,4.962-1.694c2.613,0.297,4.618,2.15,5.248,4.861c0.548,2.394-0.228,4.787-1.93,5.921
					c-0.678,0.466-1.583,0.243-2.028-0.467c-0.439-0.73-0.238-1.684,0.439-2.128c0.646-0.436,0.921-1.504,0.673-2.616
					c-0.125-0.54-0.678-2.3-2.69-2.521c-2.944-0.317-3.963,2.807-4.072,3.179c-0.233,0.783-1.03,1.238-1.79,1.017
					c-0.76-0.233-1.226-1.049-1.035-1.854c0.146-0.657-0.054-2.288-0.988-3.209c-0.736-0.721-1.828-0.868-3.241-0.402
					c-0.548,0.18-0.924,0.508-1.194,1.059c-1.009,2.087-0.053,6.218,0.352,7.499c0.26,0.806-0.151,1.673-0.916,1.938
					C154.4,198.984,154.27,199.015,154.146,199.015z"/>
			</g>
			<g>
				<path fill="#FCFC00" d="M152.377,184.908c-0.803,0.053-1.501-0.593-1.552-1.44c-0.336-5.485-0.585-9.447,1.194-11.554
					c0.736-0.858,1.75-1.346,3.016-1.419c3.622-0.203,5.113,2.763,5.232,4.807c0.042,0.858-0.569,1.568-1.377,1.61
					c-0.797,0.063-1.493-0.571-1.546-1.419c-0.048-0.625-0.353-2.023-2.132-1.928c-0.611,0.032-0.85,0.232-0.993,0.401
					c-0.969,1.145-0.726,5.117-0.466,9.311C153.796,184.124,153.185,184.856,152.377,184.908L152.377,184.908z"/>
			</g>
		</g>
		<g>
			<path fill="#FFFFFF" d="M162.952,221.703c-0.082,0-0.164,0-0.246-0.022c-0.803-0.084-1.388-0.836-1.3-1.684
				c0.032-0.318,0.885-7.996,9.023-14.16c0.657-0.497,1.573-0.35,2.049,0.349c0.477,0.689,0.332,1.643-0.32,2.14
				c-7.104,5.381-7.824,11.947-7.829,12.011C164.241,221.087,163.651,221.669,162.952,221.703z"/>
		</g>
		<g>
			<path fill="#FFFFFF" d="M140.891,218.556c-0.58,0.032-1.144-0.286-1.409-0.869c-0.026-0.073-2.375-5.052-7.332-6.958
				c-0.759-0.286-1.154-1.175-0.879-1.979c0.278-0.784,1.117-1.197,1.882-0.901c6.111,2.373,8.854,8.272,8.968,8.526
				c0.347,0.763,0.04,1.673-0.688,2.045C141.262,218.503,141.076,218.535,140.891,218.556z"/>
		</g>
		<g>
			<path fill="#FFFFFF" d="M154.063,219.72L154.063,219.72c-0.505,0.032-0.938-0.359-0.971-0.899
				c-0.006-0.19-0.244-4.787,1.964-8.505c0.265-0.454,0.829-0.592,1.258-0.317c0.434,0.297,0.564,0.88,0.296,1.324
				c-1.896,3.208-1.692,7.351-1.692,7.393C154.948,219.245,154.562,219.689,154.063,219.72z"/>
		</g>
		<g>
			<path fill="#FFFFFF" d="M156.362,211.746c-1.523,0.096-2.847-1.144-2.945-2.743c-0.087-1.62,1.085-3.007,2.613-3.092
				c1.536-0.064,2.854,1.154,2.945,2.774C159.068,210.295,157.903,211.662,156.362,211.746z M156.145,207.837
				c-0.524,0.033-0.921,0.51-0.895,1.039c0.029,0.561,0.484,0.985,1.009,0.953c0.521-0.032,0.921-0.497,0.895-1.049
				C157.122,208.23,156.667,207.806,156.145,207.837z"/>
		</g>
		<g>
			<path fill="#FFFFFF" d="M150.881,219.912c-0.511,0.031-0.94-0.381-0.977-0.9l0,0c0-0.053-0.27-4.193-2.526-7.159
				c-0.315-0.402-0.249-1.027,0.14-1.334c0.395-0.34,0.977-0.265,1.29,0.138c2.622,3.452,2.918,8.048,2.923,8.239
				C151.763,219.424,151.378,219.88,150.881,219.912z"/>
		</g>
		<g>
			<path fill="#FFFFFF" d="M147.669,212.244c-1.528,0.096-2.852-1.154-2.939-2.754c-0.093-1.619,1.075-2.986,2.603-3.072
				c1.536-0.084,2.854,1.155,2.95,2.754C150.37,210.783,149.2,212.16,147.669,212.244z M147.441,208.335
				c-0.519,0.042-0.921,0.498-0.895,1.059c0.035,0.541,0.484,0.975,1.009,0.933c0.527-0.031,0.922-0.497,0.895-1.048
				C148.418,208.727,147.968,208.304,147.441,208.335z"/>
		</g>
		<g>
			<path fill="#FFEC3D" d="M147.441,208.272c-0.559,0.032-0.991,0.529-0.953,1.122c0.032,0.572,0.514,1.028,1.078,1.007
				c0.564-0.032,0.993-0.539,0.961-1.122C148.484,208.696,148.005,208.23,147.441,208.272z"/>
			<path fill="#FFEC3D" d="M156.14,207.764c-0.564,0.042-0.988,0.54-0.953,1.133c0.037,0.572,0.513,1.026,1.077,1.007
				c0.559-0.032,0.988-0.541,0.956-1.123C157.185,208.188,156.698,207.733,156.14,207.764z"/>
		</g>
		<path fill="#FF8500" d="M150.42,138.286c0.021,0.699-0.517,1.292-1.216,1.313h-0.026c-0.694,0.026-1.287-0.52-1.308-1.218
			l-0.352-8.938c-0.026-0.689,0.521-1.276,1.221-1.304h0.021c0.699-0.03,1.285,0.519,1.313,1.208L150.42,138.286z"/>
		<path fill="#FF8500" d="M181.871,151.456c-0.439,0.557-1.308,0.758-1.848,0.334l-0.019-0.01c-0.54-0.425-0.617-1.229-0.178-1.78
			l5.641-7.176c0.445-0.557,1.257-0.698,1.816-0.302l0.026,0.01c0.559,0.403,0.641,1.204,0.206,1.76L181.871,151.456z"/>
		<path fill="#FF8500" d="M117.725,151.059c0.451,0.562,0.376,1.334-0.172,1.748l-0.021,0.01c-0.548,0.408-1.356,0.297-1.806-0.243
			l-5.81-7.085c-0.45-0.552-0.418-1.389,0.146-1.785l0.023-0.017c0.564-0.392,1.387-0.265,1.843,0.291L117.725,151.059z"/>
		<g>
			<path fill="#00FFDA" d="M138.261,235.777c-0.145,1.324,0.765,2.553,2.034,2.712l26.507,3.347
				c1.264,0.159,2.417-0.794,2.558-2.119l0.104-0.909c0.14-1.346-0.765-2.553-2.034-2.712l-26.504-3.356
				c-1.271-0.171-2.42,0.782-2.565,2.129L138.261,235.777z"/>
			<path fill="#00FFDA" d="M137.872,228.968c-0.148,1.334,0.763,2.551,2.034,2.7l26.499,3.346c1.269,0.16,2.42-0.783,2.561-2.106
				l0.103-0.911c0.146-1.345-0.765-2.553-2.033-2.712l-26.507-3.367c-1.268-0.148-2.417,0.805-2.56,2.128L137.872,228.968z"/>
			<path fill="#00FFDA" d="M137.475,222.157c-0.14,1.324,0.765,2.542,2.034,2.701l26.507,3.347c1.269,0.158,2.417-0.783,2.563-2.107
				l0.104-0.932c0.148-1.324-0.763-2.542-2.034-2.691l-26.499-3.356c-1.271-0.169-2.42,0.773-2.565,2.118L137.475,222.157z"/>
		</g>
		<path fill="#00F9FF" d="M99.445,183.541c1.525,0.7,2.798,1.834,4.209,2.744c0.059,0.095,0.119,0.213,0.178,0.317
			c0.45,0.456,0.32,1.145,0.564,1.684c0.153,0.859,0.397,1.695,0.813,2.447c0.37,0.307,0.336,0.816,0.521,1.229l-0.011-0.011
			c0.498,0.232,0.641,0.646,0.493,1.175c0.326,1.166,0.961,2.151,1.493,3.188c0.368,0.191,0.336,0.637,0.535,0.943
			c0.257,0.721,0.662,1.346,1.075,1.96c0.271,0.328,0.58,0.593,0.699,1.038c0.738,1.397,1.655,2.647,2.668,3.822
			c0.302,0.255,0.487,0.614,0.752,0.911c0.58,0.201,0.445,1.091,1.036,1.271c0.63,0.688,1.281,1.323,1.877,2.044
			c0.119,0.127,0.238,0.265,0.363,0.392c0.304,0.212,0.553,0.498,0.77,0.806c0.564,0.486,0.864,1.377,1.758,1.377
			c0.395,0.412,0.792,0.836,1.187,1.259c2.451,1.939,4.896,3.813,7.71,5.189c1.396,0.668,2.741,1.494,4.192,2.045
			c0.455,0.032,0.786,0.425,1.236,0.477c0.299,0.169,0.588,0.34,0.884,0.509c-0.243,0.783-0.85,0.296-1.278,0.444
			c-0.191-0.021-0.373-0.021-0.553-0.074c-0.58-0.339-1.242-0.042-1.827-0.265c-0.424-0.127-0.89,0.128-1.292-0.169h0.019
			c-0.429-0.276-0.956,0.105-1.374-0.255l0.018,0.022c-0.429-0.298-0.956,0.063-1.379-0.255c-0.823-0.063-1.647-0.159-2.423-0.487
			c-1.649-0.18-3.209-0.763-4.811-1.196c-1.35-0.19-2.592-0.891-3.963-0.996c-0.416-0.424-1.009-0.413-1.464-0.731
			c-1.197-0.423-2.391-0.825-3.583-1.239c-0.098-0.031-0.196-0.052-0.283-0.084c-0.424-0.266-0.921-0.328-1.334-0.614
			c-0.08-0.073-0.167-0.138-0.25-0.233c-0.341-0.223-0.749-0.275-1.101-0.477c-0.688-0.328-1.382-0.646-2.076-0.963
			c-0.813-0.425-1.621-0.848-2.447-1.229c-0.564-0.159-0.963-0.699-1.567-0.772c-0.09-0.021-0.178-0.074-0.254-0.117
			c-0.228-0.169-0.4-0.424-0.667-0.539c-0.829-0.498-1.646-0.997-2.478-1.484c-0.508-0.349-1.03-0.688-1.589-0.932
			c-0.672-0.232-0.993-0.963-1.62-1.249c-0.429-0.339-0.89-0.615-1.324-0.953c-0.736-0.541-1.491-1.124-2.24-1.706
			c-0.331-0.2-0.596-0.508-0.921-0.73c-1.128-0.964-2.251-1.928-3.374-2.912c-0.296-0.328-0.519-0.731-0.921-0.965
			c-0.445-0.412-0.879-0.825-1.311-1.228c-0.283-0.36-0.588-0.698-0.94-0.996c-0.249-0.328-0.493-0.625-0.741-0.932
			c-0.32-0.274-0.609-0.583-0.853-0.942c-0.373-0.413-0.741-0.837-1.112-1.238c-0.27-0.426-0.617-0.786-0.921-1.178
			c-0.363-0.412-0.725-0.847-1.088-1.27c-0.283-0.191-0.678-0.265-0.63-0.764c-2.126-2.954-4.154-5.973-5.926-9.171
			c-1.345-2.405-2.695-4.862-3.635-7.521c-0.249-0.551-0.427-1.122-0.705-1.642c-0.299-0.762-0.585-1.504-0.879-2.245
			c-0.228-0.392-0.307-0.848-0.45-1.271l0.016,0.031c-0.25-0.434-0.363-0.942-0.705-1.303c0-1.281-0.834-2.308-0.948-3.538
			c-0.093-0.411-0.32-0.783-0.315-1.228c-0.016-0.276-0.005-0.519,0.347-0.477c0.362,0.36,0.728,0.72,1.091,1.07
			c0.374,0.02,0.53,0.284,0.617,0.624c0.532,0.604,1.03,1.229,1.682,1.705c1.469,2.171,3.514,3.675,5.468,5.264
			c2.335,1.896,4.745,3.696,7.324,5.211c1.488,0.868,2.912,1.885,4.557,2.425c0.731,0.255,1.436,0.583,2.071,1.049
			c0.874,0.478,1.758,0.923,2.722,1.103c0.678,0.296,1.443,0.307,2.028,0.825c1.236,0.551,2.505,0.943,3.829,1.124
			c0.596,0.265,1.273-0.012,1.872,0.295C98.828,183.224,99.251,183.161,99.445,183.541z"/>
		<path fill="#FF0000" d="M108.188,78.933c-0.212-0.169-0.418-0.339-0.625-0.503c-0.439-0.195-0.765-0.514-0.943-1.001
			c-0.103-0.144-0.201-0.287-0.299-0.434c-0.548-0.51-1.067-1.055-1.528-1.664c-0.905-1.059-1.806-2.129-2.711-3.191
			c-0.207-0.334-0.445-0.643-0.678-0.943c-0.376-0.503-0.744-0.99-1.112-1.488c-0.206-0.445-0.677-0.637-0.895-1.07
			c-0.988-1.684-2.001-3.337-2.945-5.03c-1.604-2.86-3.042-5.794-4.083-8.949c-0.191-0.397-0.294-0.827-0.435-1.249l0.011,0.02
			c-0.379-0.635-0.445-1.414-0.72-2.097c-0.31-0.995-0.717-1.938-0.863-2.977c-0.477-1.684-0.905-3.378-1.144-5.115
			c-0.347-0.424-0.124-0.974-0.244-1.445c-0.249-0.302-0.011-0.726-0.207-1.054c-0.016-0.127-0.021-0.266-0.037-0.402
			c-0.223-0.402,0.016-0.891-0.191-1.303c0.054-0.053,0.048-0.106-0.01-0.154c-0.7-4.379-0.657-8.791-0.517-13.202
			c0.026-0.99-0.021-2.065,0.31-3.05l-0.011,0.016c0.249-0.46-0.072-1.022,0.218-1.488v0.01c0.704-0.571,1.209,0.021,1.766,0.355
			c0.977,0.334,1.856,0.959,2.886,1.123c0.402,0.164,0.857,0.191,1.181,0.524l-0.021-0.011c0.341,0.095,0.723,0.137,0.932,0.508
			c2.089,1.123,4.17,2.234,6.259,3.357c0.434,0.212,0.895,0.36,1.205,0.778c0.574,0.418,1.083,0.954,1.782,1.149
			c0.505,0.275,1.009,0.55,1.39,1.017c1.719,1.355,3.442,2.722,5.166,4.077c0.365,0.19,0.678,0.456,0.929,0.789
			c0.104,0.207,0.228,0.376,0.451,0.419c0.45,0.275,0.802,0.656,1.133,1.069c0.254,0.345,0.524,0.679,0.911,0.88
			c0.606,0.412,1.072,1,1.573,1.546c0.808,0.862,1.61,1.731,2.417,2.595c0.509,0.529,1.057,1.037,1.449,1.694
			c0.254,0.487,0.633,0.863,1.024,1.218c0.353,0.233,0.559,0.614,0.781,0.975c0.172,0.519,0.651,0.763,0.943,1.186
			c0.397,0.265,0.77,0.541,0.842,1.092c0.032,0.429,0.363,0.625,0.612,0.884c0.315,0.26,0.58,0.556,0.731,0.959
			c0.455,0.996,1.157,1.811,1.79,2.669c0.289,0.307,0.593,0.603,0.712,1.048c0.244,0.705,0.678,1.282,1.109,1.864
			c0.365,0.307,0.548,0.752,0.733,1.187c0.959,1.705,1.92,3.41,2.878,5.121c0.371,0.313,0.424,0.842,0.739,1.191
			c0.646,1.388,1.279,2.774,1.93,4.151c0.403,0.213,0.392,0.658,0.522,1.038c0.302,0.71,0.492,1.473,0.953,2.098
			c0.408,0.794,0.823,1.589,1.096,2.467c0.188,0.89,0.617,1.653,1.083,2.399c0.474,0.481,0.614,1.17,0.951,1.743
			c1.165,2.377,2.69,4.5,4.371,6.48c1.176,1.398,2.417,2.733,3.768,3.93c0.861-0.053,1.025,0.879,1.573,1.271
			c1.078,1.027,2.251,1.918,3.541,2.611c0.733,0.238,1.302,0.768,1.888,1.266c0.627,0.477,1.242,0.99,2.033,1.133
			c0.622,0.313,1.321,0.477,1.811,1.039c0.704,0.471,1.419,0.932,2.24,1.154c0.502,0.174,1.024,0.316,1.371,0.81
			c0.808,0.476,1.558,1.097,2.457,1.371c0.323,0.148,0.72,0.148,0.927,0.53l-0.021-0.016c0.405,0.212,0.855,0.365,1.166,0.746
			c0.481,0.364,0.958,0.757,1.538,0.921c0.479,0.118,0.874,0.366,1.167,0.795c0.569,0.429,1.096,0.942,1.795,1.144
			c0.368,0.297,0.89,0.351,1.144,0.826c0.694,0.392,1.176,1.149,1.968,1.377c0.413,0.127,0.688,0.449,0.977,0.764
			c0.813,0.634,1.626,1.27,2.447,1.906c0.373,0.169,0.677,0.444,0.932,0.788c0.275,0.424,0.656,0.704,1.088,0.911
			c0.496,0.211,0.821,0.646,1.173,1.043c0.27,0.339,0.519,0.704,0.932,0.868c0.476,0.212,1.009,0.345,1.112,1.023
			c0.326,0.46,0.662,0.894,1.149,1.17c0.487,0.386,0.945,0.82,1.329,1.335c0.347,0.369,0.693,0.752,1.041,1.121
			c0.418,0.317,0.715,0.753,1.02,1.187c0.19,0.435,0.5,0.742,0.878,0.985c0.803,0.211,1.051,1.08,1.637,1.556
			c5.695,7.384,9.929,15.623,12.64,24.764c0.57,2.319,1.314,4.596,1.719,6.968c0.918,4.713,1.546,9.448,1.819,14.268
			c0.156,2.731,0.199,5.465,0.172,8.219c-0.063,6.777-1.339,13.291-3.876,19.519c-0.259,0.636-0.71,1.134-1.009,1.749
			c0.098,0.264-0.175,0.349-0.228,0.539c-0.254,0.539-0.553,1.059-0.932,1.514c-0.445,0.583-0.797,1.23-1.075,1.918
			c-0.281,0.529-0.502,1.069-0.953,1.483c-0.588,0.507-0.826,1.302-1.318,1.906c-0.175,0.392-0.418,0.729-0.744,0.994
			c-0.249,0.203-0.492,0.403-0.601,0.721c-0.259,0.487-0.606,0.879-1.003,1.218c-0.884,0.942-1.756,1.896-2.635,2.829
			c-0.331,0.423-0.678,0.825-1.149,1.068c-0.521,0.467-1.041,0.923-1.562,1.388c-0.249,0.35-0.559,0.625-0.932,0.794
			c-0.516,0.393-1.024,0.785-1.546,1.177c-0.294,0.318-0.564,0.645-0.983,0.763c-1.924,1.229-3.855,2.456-5.78,3.706
			c-0.58,0.36-1.194,0.679-1.827,0.933c-0.217,0.084-0.435,0.169-0.652,0.265c-0.265,0.106-0.548,0.296-0.667-0.191
			c1.47-1.197,2.944-2.394,4.398-3.61c0.662-0.552,1.273-1.187,1.909-1.78c0.564-0.424,0.993-0.985,1.512-1.461
			c0.18-0.201,0.355-0.372,0.527-0.562c0.434-0.562,0.987-1.017,1.366-1.632c0.228-0.307,0.456-0.614,0.688-0.921
			c0.311-0.339,0.673-0.603,0.884-1.028c2.131-2.678,3.884-5.633,5.423-8.727c0.357-0.423,0.461-0.995,0.715-1.473
			c0.185-0.645,0.651-1.186,0.667-1.896c0.491-0.763,0.765-1.63,1.112-2.456c0.233-1.239,0.993-2.299,0.966-3.612
			c0.017-0.115,0.048-0.222,0.093-0.338c0.545-1.027,0.611-2.225,0.979-3.325l0,0c0.289-0.456-0.087-1.039,0.239-1.473
			c0.024-0.392-0.08-0.816,0.223-1.166c0.251-0.465-0.064-1.038,0.212-1.504c0.061-0.053,0.066-0.105,0.015-0.18
			c0.268-0.646-0.098-1.366,0.217-1.991c0.066-0.063,0.072-0.116,0.016-0.181c0.148-2.965,0.153-5.952,0-8.918
			c-0.011-0.211-0.021-0.412-0.032-0.625c-0.244-0.465,0.045-1.036-0.196-1.504c0.04-0.073,0.034-0.147-0.027-0.189
			c-0.238-0.382,0.032-0.869-0.206-1.239c0.045-0.085,0.039-0.148-0.021-0.201c-0.125-0.414-0.228-0.825-0.514-1.134
			c-0.283-0.73-0.484-1.461-0.273-2.246c-0.092-1.238-0.482-2.436-0.792-3.621c-0.363-1.154-0.731-2.288-1.093-3.442
			c-0.207-0.392-0.371-0.8-0.445-1.255l0.005,0.01c-0.278-0.322-0.246-0.798-0.5-1.132c-0.286-0.663-0.58-1.33-0.865-1.991
			c-0.212-0.303-0.228-0.716-0.49-0.99c-1.538-3.104-3.249-6.09-5.433-8.729c-0.233-0.216-0.623-0.296-0.596-0.762
			c-0.408-0.762-0.951-1.387-1.6-1.922c-0.341-0.144-0.582-0.397-0.712-0.769c-1.702-2.149-3.82-3.808-5.888-5.528
			c-0.321-0.211-0.569-0.524-0.906-0.705c-1.734-1.032-3.236-2.509-5.174-3.188c-0.492-0.599-1.236-0.756-1.833-1.164
			c-0.9-0.292-1.686-0.938-2.645-1.034c-0.58-0.625-1.366-0.698-2.1-0.921c-1.176-0.508-2.385-0.921-3.622-1.238
			c-1.854-0.551-3.747-0.895-5.64-1.239l0.016,0.011c-0.585-0.303-1.252,0.095-1.832-0.244c-0.114,0-0.228,0-0.342,0
			c-1.078-0.296-2.195,0.096-3.275-0.223c-0.527-0.105-1.056-0.116-1.583,0c-1.067,0.307-2.189-0.079-3.264,0.223
			c-0.12,0-0.233,0-0.347,0.011c-0.585,0.328-1.247-0.063-1.837,0.223l0.016-0.012c-1.697,0.35-3.427,0.572-5.098,1.097
			c-0.259,0.08-0.521-0.021-0.781-0.08c-3.524-0.729-7.093-0.74-10.644-0.581c-2.11,0.095-4.226,0.46-6.329,0.794l-0.103-0.021
			l-0.093,0.054c-0.212,0.181-0.461,0.127-0.699,0.169c-1.015,0.445-2.188,0.143-3.151,0.8c-0.744,0.195-1.469,0.45-2.179,0.735
			c-0.273,0.111-0.542,0.318-0.723-0.121c0-0.334-0.006-0.673-0.011-1.012c0.114-1.032,0.125-2.098,0.683-3.019
			c0.455-1.069,0.987-2.098,1.774-2.938c0.315-0.45,0.678-0.832,1.091-1.192c0.358-0.344,0.559-0.561-0.05-1.005
			c-0.76-0.552-1.284-1.415-1.247-2.479c0.027-0.605-0.32-0.848-0.678-1.112c-0.72-0.392-1.501-0.552-2.277-0.742l-0.071-0.052
			l-0.069,0.031c-0.967-0.169-1.93-0.149-2.896,0l-0.066-0.043l-0.053,0.048c-1.443,0.212-2.804,0.735-4.18,1.203
			c-0.792,0.434-1.692,0.603-2.386,1.238c-0.477,0.26-0.787,0.249-0.667-0.477v0.017c0.249-0.281,0.265-0.694,0.471-0.991
			c0.368-0.657,0.739-1.313,1.107-1.97c0.238-0.296,0.46-0.625,0.699-0.932l-0.01,0.011c0.283-0.578,0.818-0.933,1.133-1.483
			c0.146-0.148,0.294-0.308,0.435-0.455c0.292-0.239,0.59-0.487,0.874-0.752c0.911-0.646,1.833-1.298,2.749-1.949
			c0.792-0.259,1.458-0.837,2.298-0.941c0.895-0.255,1.785-0.499,2.674-0.764c0.353-0.254,0.798,0.031,1.16-0.211l-0.026,0.02
			c1.366-0.338,2.754-0.189,4.12-0.126c2.359,0.116,4.589-0.477,6.824-1.091c0.895-0.275,1.806-0.488,2.613-0.996
			c0.378-0.2,0.776-0.328,1.176-0.456l-0.026,0.026c0.299-0.333,0.76-0.291,1.09-0.556c0.492-0.35,1.155-0.285,1.604-0.752
			c0.451-0.127,0.911-0.169,1.356,0.042c0.683,0.334,1.403,0.541,2.168,0.498c1.48,0.308,2.96,0.625,4.361,1.281
			c1.02,0.388,2.05,0.732,3.122,0.901c0.935,0.296,1.92,0.423,2.756,1.038c0.803,0.381,1.621,0.715,2.489,0.895
			c1.02,0.323,2.023,0.684,2.939,1.286c0.845,0.468,1.692,0.933,2.629,1.154c0.694,0.191,1.351,0.487,1.899,1.001
			c0.563,0.403,1.127,0.79,1.811,0.917c0.612,0.328,1.319,0.466,1.806,1.048c0.792,0.482,1.536,1.081,2.407,1.403
			c0.434,0.218,0.911,0.345,1.199,0.812c2.484,1.62,4.833,3.457,7.213,5.241c0.374,0.149,0.612,0.515,0.954,0.71
			c2.96,2.881,6.042,5.646,8.719,8.854c0.982,1.176,1.954,2.373,2.934,3.559c0.439,0.36,0.911,0.688,1.133,1.271
			c0.099,0.084,0.056,0.274,0.218,0.297c-0.114-0.096-0.146-0.255-0.228-0.382c-0.302-0.424-0.405-0.932-0.564-1.414
			c-0.08-0.18-0.156-0.345-0.233-0.536c-0.352-0.529-0.519-1.174-0.9-1.693c-0.906-1.674-1.869-3.305-2.944-4.862
			c-0.193-0.338-0.451-0.635-0.667-0.941c-0.063-0.09-0.14-0.17-0.212-0.26c-0.228-0.313-0.45-0.63-0.693-0.938
			c-0.151-0.17-0.297-0.339-0.445-0.52c-0.32-0.529-0.792-0.921-1.144-1.419c-0.921-0.984-1.842-1.969-2.77-2.944
			c-0.262-0.27-0.548-0.52-0.847-0.742c-0.162-0.157-0.326-0.316-0.487-0.47c-0.29-0.244-0.554-0.514-0.869-0.727
			c-0.39-0.189-0.554-0.729-1.041-0.762c-0.358-0.274-0.564-0.73-0.993-0.922c-0.543-0.412-1.078-0.825-1.62-1.239
			c-0.353-0.265-0.76-0.423-1.097-0.72c-0.741-0.382-1.345-1.033-2.168-1.245c-0.492-0.486-1.085-0.82-1.67-1.154
			c-0.617-0.333-1.237-0.672-1.854-1.001c-0.672-0.322-1.323-0.688-2.001-1.005c-0.869-0.403-1.734-0.806-2.603-1.208
			c-0.646-0.212-1.313-0.36-1.888-0.764l0.024,0.022c-0.402-0.116-0.787-0.275-1.178-0.424c-0.999-0.339-2.002-0.667-2.992-0.985
			c-1.128-0.302-2.234-0.646-3.341-1c-1.427-0.402-2.852-0.79-4.29-1.192c-0.754-0.254-1.512-0.476-2.267-0.752
			c-1.427-0.476-2.856-0.959-4.289-1.43c-0.824-0.339-1.676-0.614-2.484-0.975c-0.993-0.407-1.986-0.81-2.965-1.207
			c-0.733-0.37-1.52-0.604-2.24-0.995c-0.684-0.318-1.367-0.641-2.05-0.953c-0.836-0.393-1.638-0.858-2.472-1.256
			c-0.418-0.243-0.829-0.487-1.242-0.726c-0.59-0.232-1.123-0.609-1.687-0.905c-3.162-1.699-6.122-3.771-9.013-5.946
			c-0.114-0.096-0.26-0.128-0.389-0.18c-0.358-0.276-0.564-0.732-0.993-0.922c-1.221-1.06-2.436-2.119-3.653-3.178
			C109.033,79.786,108.686,79.251,108.188,78.933z"/>
		<path fill="#FCFCFC" d="M113.415,114.175c-0.325,0.249-0.683,0.402-1.106,0.393C112.602,114.223,112.97,114.096,113.415,114.175z"
			/>
		<path fill="#FCFCFC" d="M114.418,113.709c-0.244,0.354-0.63,0.424-1.02,0.482C113.616,113.767,114.005,113.72,114.418,113.709z"/>
		<path fill="#CF1C1F" d="M108.54,117.464c0.032-0.975-0.103-1.954,0.456-2.871c0.911-1.494,2.537-2.107,4.268-1.472
			c1.382,0.508,2.51,2.488,2.272,3.993c-0.293,1.789-1.758,3.198-3.341,3.293c-1.062,0.064-1.941-0.297-2.733-0.995
			c-0.378-0.307-0.662-0.688-0.823-1.176C108.556,117.988,108.757,117.697,108.54,117.464z"/>
		<path fill="#CF1D20" d="M108.384,119.708c0.161,0.307,0.318,0.625,0.493,0.922c0.342,0.563,0.943,0.958,0.005,1.689
			c-0.611,0.472-0.27,1.371,0.244,1.943c0.451,0.497,0.32,0.704-0.167,1.069c-0.532,0.402-0.702,0.233-1.02-0.254
			c-1.525-2.298-3.082-4.569-4.66-6.826c-0.265-0.386-0.487-0.688,0.055-0.896c0.32-0.115,0.602-1.026,1.072-0.096
			c0.32,0.637,0.678,1.251,1.531,0.403c0.532-0.529,1.025,0.265,1.491,0.604c0.19,0.063,0.32,0.206,0.413,0.396
			C108.002,119.021,108.366,119.263,108.384,119.708z"/>
		<path fill="#03FF03" d="M204.229,148.915c0.911-1.638,1.469-3.458,2.219-5.179c0.069-0.388,0.368-0.621,0.509-0.959
			c0.212-0.418,0.45-0.82,0.823-1.097c2.04-2.971,3.745-6.18,5.452-9.356c0.228-0.636,0.559-1.213,0.855-1.812
			c0.456-1.049,0.917-2.108,1.377-3.167c0.251-0.562,0.451-1.133,0.702-1.695c0.362-0.974,0.736-1.938,1.104-2.907
			c0.625-0.042,0.169,0.609,0.434,0.79c-0.027,0.911,0.175,1.757,0.46,2.601c0.58,3.61,1.139,7.217,1.03,10.902
			c-0.005,0.355-0.068,0.721,0.093,1.069c0,1.399,0,2.797,0,4.194c-0.196,0.911-0.053,1.832-0.093,2.749
			c-0.079,2.145-0.259,4.284-0.643,6.392c-0.098,0.54,0.14,1.122-0.191,1.621l0.016-0.021c-0.228,0.386,0.066,0.869-0.217,1.249
			c-0.331,1.239-0.607,2.489-0.693,3.793c-0.265,1.334-0.39,2.7-0.988,3.949c-0.347,1.356-0.699,2.702-1.046,4.068
			c-0.331,0.909-0.45,1.906-0.948,2.731c-0.476,0.996-0.796,2.022-1.09,3.083c-0.146,0.434-0.156,0.942-0.532,1.281
			c-1.237,2.658-2.354,5.401-3.757,7.986c-1.718,3.155-3.477,6.291-5.64,9.139c-0.108,0.148-0.162,0.35-0.244,0.53
			c-0.141,0.435-0.408,0.772-0.765,1.026c-0.27,0.298-0.548,0.583-0.824,0.858c0.532-1.408,1.08-2.817,1.594-4.246
			c2.489-6.874,3.14-14.013,2.955-21.31C206.035,161.025,205.335,154.945,204.229,148.915z"/>
		<path fill="#F76F00" d="M202.288,143.455c-0.971-2.606-1.882-5.242-2.923-7.805c-2.076-5.105-4.739-9.851-7.961-14.225
			c-0.596-0.827-1.165-1.669-1.75-2.5c-0.31-0.709-0.813-1.313-0.937-2.129c-0.228-0.418-0.456-0.848-0.678-1.271
			c-0.228-0.402-0.434-0.826-0.629-1.248h0.005c-0.39-0.266-0.519-0.732-0.72-1.135c-0.31-0.497-0.609-1.001-0.905-1.498
			c-0.196-0.344-0.456-0.631-0.678-0.958c-0.072-0.086-0.148-0.165-0.217-0.255c-0.211-0.334-0.466-0.635-0.688-0.964v-0.011
			c-0.455-0.281-0.916-0.582-1.215-1.049c-0.818-1.27-2.049-2.054-3.079-3.087c-0.244-0.238-0.49-0.472-0.739-0.71
			c-0.533-0.169-0.845-0.672-1.294-0.969c-0.543-0.413-1.076-0.811-1.618-1.218c-0.617-0.35-1.139-0.868-1.771-1.201
			c-0.63-0.409-1.252-0.812-1.877-1.235c-0.26-0.18-0.585-0.253-0.84-0.466c-0.672-0.402-1.35-0.826-2.022-1.229
			c-0.678-0.265-1.21-0.794-1.816-1.186c-0.615-0.414-1.226-0.827-1.84-1.245c-0.426-0.323-0.882-0.608-1.321-0.938
			c-0.46-0.328-0.924-0.672-1.385-1.006c-0.606-0.265-1.025-0.826-1.56-1.212c-0.474-0.398-0.951-0.811-1.422-1.214
			c-0.299-0.391-0.916-0.349-1.073-0.932c-0.463-0.418-0.924-0.837-1.385-1.255c-0.373-0.323-0.698-0.699-1.098-0.991
			c-1.345-1.45-2.69-2.896-4.041-4.352c-0.392-0.789-1.355-1.044-1.604-1.97c-0.299-0.392-0.604-0.784-0.911-1.187
			c-0.268-0.6-0.946-0.879-1.096-1.579c-0.387-0.529-0.782-1.048-1.173-1.577c-0.188-0.355-0.482-0.636-0.673-0.99
			c-1.202-2.018-2.401-4.03-3.603-6.043c-0.289-0.37-0.402-0.857-0.691-1.233c-0.898-1.859-1.792-3.712-2.688-5.565
			c-0.341-0.912-0.792-1.759-1.152-2.648c-0.068-0.084-0.145-0.174-0.214-0.274c-0.31-0.261-0.355-0.647-0.44-1.023
			c-0.077-0.302-0.154-0.603-0.228-0.909c-0.212-0.393-0.294-0.837-0.445-1.245l0.011,0.021c-0.244-0.435-0.342-0.943-0.694-1.293
			c-0.114-1.354-0.895-2.489-1.149-3.797c-0.381-0.916-0.593-1.901-0.919-2.832c-0.431-1.325-0.876-2.639-1.321-3.957
			c-0.227-0.412-0.277-0.958-0.683-1.275c-0.132-1.07-0.836-1.87-1.152-2.86c-0.265-0.37-0.379-0.848-0.678-1.201
			c-0.954-1.69-1.957-3.331-3.127-4.857c-0.249-0.407-0.625-0.698-0.911-1.063c-0.093-0.366-0.311-0.636-0.554-0.885
			c-0.381-0.317-0.651-0.783-1.122-0.995c-0.186-0.106-0.336-0.244-0.336-0.498c-1.422-1.822-3.156-3.289-4.843-4.824
			c-0.289-0.233-0.548-0.519-0.868-0.709c-0.623-0.355-1.083-0.991-1.772-1.245c-0.267-0.498-0.776-0.646-1.167-0.964
			c-0.596-0.402-1.192-0.805-1.783-1.202c-0.349-0.281-0.77-0.445-1.141-0.715c-0.193-0.042-0.346-0.138-0.41-0.355
			c-0.217-0.768,0.336-0.529,0.667-0.598c0.667,0.18,1.377,0.143,1.979,0.577c1.411,0.376,2.814,0.747,4.22,1.123
			c1.036,0.254,2.054,0.545,3.013,1.054c0.832,0.291,1.655,0.582,2.483,0.868c0.858,0.302,1.737,0.498,2.489,1.07
			c0.858,0.456,1.731,0.879,2.664,1.133c0.736,0.254,1.449,0.572,2.081,1.054c0.744,0.408,1.438,0.916,2.261,1.112
			c0.625,0.313,1.318,0.472,1.811,1.033c0.532,0.414,1.091,0.752,1.719,0.932c0.445,0.202,0.913,0.349,1.21,0.8
			c0.842,0.535,1.681,1.064,2.523,1.588c0.281,0.223,0.72,0.175,0.872,0.609c2.907,1.96,5.603,4.247,8.351,6.45
			c0.362,0.201,0.688,0.455,0.926,0.815c0.138,0.138,0.278,0.271,0.419,0.402c0.569,0.297,0.966,0.815,1.382,1.303
			c0.376,0.376,0.749,0.747,1.123,1.111c1.421,1.25,2.706,2.639,3.868,4.152c0.271,0.472,0.623,0.868,1.031,1.207
			c0.394,0.35,0.757,0.741,1.003,1.229c1.637,2.257,3.273,4.522,4.912,6.779c0.466,0.392,0.688,0.952,0.967,1.478
			c1.186,2.102,2.367,4.199,3.545,6.296c0.373,0.196,0.352,0.641,0.532,0.975c0.341,0.72,0.678,1.451,1.019,2.187
			c0.487,0.641,0.688,1.436,1.02,2.166c0.104,0.725,0.487,1.323,0.792,1.959c0.575,0.689,0.66,1.621,1.014,2.415
			c0.223,0.949,0.57,1.832,1.03,2.68c0.45,0.679,0.73,1.435,0.993,2.203c1.424,3.665,3.095,7.19,5.443,10.263
			c6.929,9.082,11.939,19.287,15.606,30.285c1.409,4.231,2.473,8.568,3.188,13.001c0.206,0.19,0.362,0.424,0.434,0.72
			c0.423,2.383,0.683,4.787,0.765,7.214C202.64,142.395,202.717,142.988,202.288,143.455z"/>
		<path fill="#FF00F9" d="M79.496,161.746c-0.553-1.038-1.101-2.076-1.649-3.114c-0.259-0.413-0.477-0.848-0.656-1.303
			c-1.356-2.341-2.37-4.84-3.204-7.436c-0.254-0.757-0.487-1.514-0.89-2.202c-0.021-1.208-0.519-2.288-0.775-3.441
			c-0.069-0.303-0.053-0.615-0.125-0.912c-1.573-7.201-1.424-14.403-0.011-21.605c0.244-1.134,0.45-2.277,0.754-3.378
			c0.13-0.468,0.178-0.922,0.183-1.388c0.543-0.933,0.691-2.033,1.112-3.014c0.299-0.831,0.593-1.657,0.896-2.488
			c0.19-0.642,0.429-1.276,0.709-1.886c0.293-1.182,1.128-2.103,1.355-3.304c0.365-0.663,0.76-1.319,1.069-2.018
			c0.042-0.069,0.072-0.138,0.088-0.223c0.471-0.255,0.558,0.104,0.596,0.465c0.058,0.456,0.021,0.932,0.026,1.389
			c-0.005,2.123,0,4.225,0.564,6.279c0.124,0.297,0.082,0.562-0.087,0.821c0.232,1.414,0.506,2.812,1.032,4.146
			c0.336,0.317,0.281,0.831,0.529,1.187c1.362,4.555,4.025,8.176,7.131,11.48c0.159,0.164,0.341,0.286,0.527,0.436
			c0.341,0.222,0.677,0.454,0.905,0.824c1.475,1.393,3.09,2.586,4.692,3.803c0.498,0.138,0.797,0.498,0.964,1
			c1.242,1.415,2.338,2.94,3.307,4.582c0.527,0.455,0.667,1.164,0.977,1.778c0.223,0.721,0.45,1.451,0.848,2.108
			c0.569,0.768,0.644,1.779,1.109,2.59c0.045,0.2,0,0.365-0.085,0.534c0.336,1.304,0.673,2.611,1.009,3.908
			c0.556,1.615,0.932,3.21-0.024,4.819c-0.487,1.578-0.823,3.22-0.998,4.872c0.127,0.201,0.148,0.402,0.077,0.635
			c-0.44,1.632-0.585,3.306-0.638,4.989c-0.116,3.653-0.104,7.318,0.426,10.94c0.034,0.223,0.119,0.392,0.212,0.571
			c0.135,0.286,0.098,0.561-0.069,0.826c0.188,2.055,0.823,4.004,1.252,6.006c-0.821,0.054-1.329-0.637-1.96-1.007
			c-0.813-0.478-1.573-1.059-2.346-1.599c-0.18-0.19-0.349-0.393-0.558-0.54c-0.36-0.36-0.884-0.51-1.142-1.007
			c-0.323-0.297-0.638-0.593-0.958-0.889c-0.28-0.256-0.591-0.488-0.857-0.773l0.018,0.011c-0.469-0.181-0.718-0.71-1.162-0.922
			c-1.88-1.717-3.757-3.442-5.46-5.359c-0.244-0.201-0.559-0.339-0.651-0.699c-0.445-0.497-0.89-0.994-1.335-1.472
			c-0.227-0.317-0.445-0.635-0.698-0.911c-0.374-0.444-0.742-0.858-1.118-1.281c-0.228-0.414-0.591-0.698-0.906-1.027
			c-0.535-0.794-1.072-1.589-1.604-2.383c-0.19-0.329-0.445-0.625-0.672-0.943c-0.363-0.519-0.726-1.037-1.097-1.557
			C79.642,162.582,79.539,162.19,79.496,161.746z"/>
		<path fill="#E785F9" d="M87.051,93.072c-0.005-0.476-0.016-0.953-0.021-1.439c-0.263-0.478,0.042-1.027-0.202-1.514
			c-0.005-0.383-0.016-0.764-0.021-1.155c-0.257-0.382,0.032-0.869-0.212-1.256c-0.011-0.144-0.016-0.301-0.024-0.444
			c-0.244-0.366,0.04-0.854-0.209-1.224l0.005,0.01c-0.289-0.364,0.026-0.863-0.228-1.239l0.011,0.022
			c-0.336-1.239-0.471-2.537-0.945-3.739c-0.437-0.158-0.445-0.519-0.363-0.91c0.061-1.318-0.813-2.351-0.982-3.597
			c-0.204-0.566-0.363-1.138-0.803-1.566c-0.244-0.26-0.222-0.609-0.292-0.938c-1.292-3.092-2.959-5.941-4.961-8.563
			c-0.259-0.345-0.487-0.705-0.728-1.054c-0.108-0.238-0.336-0.445-0.209-0.714c0.079-0.187,0.286-0.176,0.444-0.027
			c0.069,0,0.141,0,0.209,0.005c0.808,0.196,1.552,0.588,2.25,1.054c2.044,0.953,4.003,2.125,5.831,3.453
			c2.407,1.748,4.615,3.803,6.354,6.365c1.178,1.728,1.981,3.653,2.674,5.645c0.964,2.374,0.699,4.873,0.548,7.33
			c-0.071,1.123-0.238,2.287-0.781,3.314c-0.424,1.219-0.848,2.436-1.263,3.654c-0.228,0.498-0.326,1.063-0.723,1.462
			c-0.368,0.71-0.736,1.424-1.102,2.149c-0.079,0.425-0.27,0.785-0.627,1.018c-0.998,1.387-1.975,2.795-3.01,4.145
			c-0.259,0.346-0.41,1.023-1.078,0.748c0.239-0.382-0.035-0.869,0.199-1.25c0.013-0.392,0.024-0.795,0.029-1.186
			c0.249-0.467-0.05-1.022,0.207-1.488c0.005-0.646,0.016-1.287,0.026-1.934C87.12,96.498,87.257,94.788,87.051,93.072z"/>
		<path fill="#FCFC00" d="M202.64,143.693c0.108-2.59-0.331-5.12-0.595-7.679c-0.051-0.313,0.171-0.545,0.177-0.842
			c0.792-5.613,0.466-11.106-1.273-16.475c-1.227-3.786-3.114-7.165-5.065-10.501c-2.225-3.803-4.533-7.53-6.81-11.301
			c-1.313-2.155-2.272-4.512-3.183-6.906c-0.37-0.794-0.564-1.662-0.765-2.521c-0.368-1.217-0.754-2.429-0.937-3.705
			c-0.31-1.155-0.537-2.356-0.723-3.549c-0.326-1.005-0.439-2.055-0.585-3.108c-0.233-0.313,0.027-0.735-0.191-1.054v0.012
			c-0.368-1.802-0.638-3.624-0.932-5.435c-0.249-1.165-0.498-2.335-0.75-3.506c-0.228-0.905-0.508-1.789-0.751-2.686
			c-0.299-0.909-0.604-1.811-0.906-2.716c-0.251-0.625-0.526-1.239-0.77-1.874c-0.374-0.763-0.744-1.525-1.117-2.299
			c-0.239-0.302-0.305-0.729-0.57-1.012l0.027-0.025c-0.114-0.16-0.114-0.317,0.034-0.44c0.111-0.09,0.228-0.047,0.324,0.043
			c0.506,0.439,1.075,0.757,1.66,1.031c0.368,0.128,0.694,0.33,0.938,0.679c2.849,2.023,5.521,4.315,8.185,6.613
			c0.302,0.165,0.58,0.388,0.771,0.706c0.214,0.285,0.426,0.571,0.741,0.74c0.368,0.233,0.662,0.562,0.94,0.912
			c0.27,0.365,0.55,0.729,0.932,0.963c1.279,1.213,2.473,2.531,3.551,3.971c0.222,0.414,0.542,0.721,0.869,1.028
			c0.357,0.392,0.754,0.757,0.993,1.271c2.841,3.766,5.394,7.764,7.581,12.043c0.326,0.169,0.315,0.561,0.445,0.848
			c0.188,0.746,0.519,1.408,0.9,2.055c0.389,0.492,0.596,1.101,0.776,1.716c0.341,0.952,0.693,1.916,1.041,2.869
			c0.4,0.483,0.429,1.14,0.627,1.727c0.169,1.059,0.548,2.044,0.863,3.05c0.461,0.996,0.612,2.098,0.818,3.178
			c0.103,1.038,0.262,2.065,0.585,3.051c0.196,0.322-0.037,0.729,0.169,1.048l0,0c0.731,4.745,1.056,9.532,0.688,14.357
			c-0.135,1.805-0.259,3.595-0.521,5.396l0.019-0.021c-0.207,0.402,0.058,0.89-0.175,1.281c-0.408,1.399-0.564,2.861-0.754,4.322
			c-0.167,0.921-0.178,1.885-0.638,2.721c-0.347,1.446-0.821,2.855-1.043,4.332c-0.161,0.657-0.209,1.356-0.622,1.906
			c-0.294,0.965-0.7,1.886-0.875,2.887c-0.113,0.519-0.098,1.074-0.383,1.53c-0.149,0.303-0.273,0.614-0.326,0.953
			c-0.402,1.239-0.895,2.426-1.361,3.627c-0.125,0.324-0.206,0.752-0.651,0.768C203.551,147.679,203.09,145.689,202.64,143.693z"/>
	</g>
	<rect x="108.047" y="313.739" fill="#00FF67" width="427.811" height="15.279"/>
	<g>
		<path fill="#FFFFFF" d="M139.992,366.541c14.447,0,20.627,8.922,20.627,19.196c0,9.693-5.612,20.141-20.627,20.141h-19.956
			c-1.043,0-1.605,0.475-1.605,1.611v23.19h-11.218v-25.37c0-7.224,3.043-10.169,10.07-10.169h23.091c6.366,0,8.94-4.371,8.94-8.836
			c0-4.661-2.76-8.558-8.842-8.558H107.12v-11.199h32.873V366.541z"/>
		<path fill="#FFFFFF" d="M199.643,380.507c12.54,0,17.486,7.026,17.486,16.534v23.562c0,7.224-1.902,10.076-10.36,10.076H183.3
			c-11.879,0-16.824-5.797-16.824-15.293c0-9.127,4.568-14.448,16.917-14.448h23.857v-3.803c0-3.896-2.186-6.935-7.699-6.935
			h-30.026v-9.693H199.643L199.643,380.507z M207.244,418.319v-9.403h-23.66c-5.316,0-7.224,2.191-7.224,5.89
			c0,3.711,1.995,6.087,7.032,6.087h21.104C206.484,420.892,207.244,420.127,207.244,418.319z"/>
		<path fill="#FFFFFF" d="M265.469,380.507v9.693h-17.677c-4.464,0-6.458,2.086-6.458,6.458v34.021h-10.076V395.14
			c0-10.076,3.71-14.633,13.59-14.633H265.469z"/>
		<path fill="#FFFFFF" d="M279.042,380.507v-11.873h10.168v11.873h13.879v9.693H289.21v23.758c0,5.601,1.994,7.502,6.749,7.502
			h6.934v9.219h-9.027c-10.36,0-14.824-4.174-14.824-17.288v-23.179H272.2v-9.693h6.842V380.507z"/>
		<path fill="#FFFFFF" d="M340.605,380.507c17.01,0,25.277,8.07,25.277,21.95v28.222h-10.168v-28.222
			c0-7.886-4.563-12.257-15.109-12.257h-16.448c-0.852,0-1.229,0.475-1.229,1.426v39.053h-10.071v-42.381
			c0-5.89,1.995-7.791,7.032-7.791H340.605L340.605,380.507z"/>
		<path fill="#FFFFFF" d="M412.698,380.507c11.885,0,16.923,5.704,16.923,15.397c0,9.219-4.661,14.437-17.01,14.437h-23.857v3.617
			c0,3.989,2.191,6.934,7.699,6.934h30.693v9.787h-30.693c-12.54,0-17.485-7.038-17.485-16.534v-17.104
			c0-9.508,4.945-16.534,17.485-16.534H412.698z M388.755,402.458h23.561c5.42,0,7.415-2.286,7.415-5.984
			c0-3.804-2.186-6.272-7.125-6.272h-16.164c-5.507,0-7.687,3.038-7.687,6.935V402.458z"/>
		<path fill="#FFFFFF" d="M476.054,380.507v9.693h-17.682c-4.464,0-6.459,2.086-6.459,6.458v34.021h-10.076V395.14
			c0-10.076,3.71-14.633,13.59-14.633H476.054z"/>
		<path fill="#FFFFFF" d="M527.734,380.507v9.693h-27.747c-4.661,0-6.551,1.902-6.551,5.704c0,3.515,1.519,5.415,7.119,5.415h11.781
			c13.879,0,17.393,6.365,17.393,14.158c0,8.928-4.65,15.201-16.442,15.201h-29.173v-9.774h29.173c4.655,0,6.551-1.624,6.551-5.519
			c0-4.002-2.087-5.602-7.12-5.602h-11.879c-13.874,0-17.295-6.934-17.295-14.633c0-9.033,4.65-14.633,16.344-14.633h27.846V380.507
			z"/>
	</g>
</g>
</svg>
