<?xml version="1.0" encoding="utf-8"?>
<!-- Generator: Adobe Illustrator 16.0.0, SVG Export Plug-In . SVG Version: 6.00 Build 0)  -->
<!DOCTYPE svg PUBLIC "-//W3C//DTD SVG 1.1//EN" "http://www.w3.org/Graphics/SVG/1.1/DTD/svg11.dtd">
<svg version="1.1" id="Layer_1" xmlns="http://www.w3.org/2000/svg" xmlns:xlink="http://www.w3.org/1999/xlink" x="0px" y="0px"
	 width="500px" height="500px" viewBox="0 0 500 500" enable-background="new 0 0 500 500" xml:space="preserve">
<g>
	<path fill-rule="evenodd" clip-rule="evenodd" fill="#00FF55" d="M181.061,402.363c-0.06-1.225-0.17-2.411-0.17-3.598
		c-0.009-30.9-0.06-61.8,0.006-92.7c0.075-34.991,23.375-64.167,57.504-71.877c4.594-1.038,9.398-1.441,14.119-1.554
		c9.742-0.232,19.494-0.234,29.237-0.038c23.668,0.478,42.811,10.223,57.314,28.854c10.026,12.882,14.87,27.745,14.961,43.984
		c0.178,31.785,0.051,63.573,0.045,95.358c0,0.438-0.075,0.877-0.141,1.57C296.402,402.363,238.887,402.363,181.061,402.363z"/>
	<path fill-rule="evenodd" clip-rule="evenodd" fill="#00FF55" d="M74.258,367.222c0-2.229,0-4.107,0-5.986
		c0-29.908-0.298-59.821,0.083-89.726c0.398-31.268,14.934-53.973,43.099-67.72c9.051-4.418,18.768-6.349,28.818-6.434
		c10.302-0.086,20.623-0.42,30.902,0.062c24.027,1.125,42.946,11.899,57.446,31.507c-14.055,2.808-26.15,8.802-36.265,18.376
		c-15.543,14.71-23.285,32.868-23.249,54.32c0.035,20.723,0.004,41.446,0.003,62.17c0,1.08,0,2.16,0,3.431
		C141.439,367.222,108.054,367.222,74.258,367.222z"/>
	<path fill-rule="evenodd" clip-rule="evenodd" fill="#00FF55" d="M300.876,228.941c6.584-9.502,14.745-16.888,24.653-22.393
		c11.236-6.241,23.263-9.3,36.115-9.223c9.304,0.057,18.608,0.007,27.913,0.013c32.271,0.021,62.855,24.642,69.452,56.247
		c1.298,6.22,1.954,12.682,1.998,19.036c0.203,30.126,0.091,60.254,0.091,90.382c0,1.313,0,2.625,0,4.17
		c-33.631,0-67.021,0-100.914,0c0-6.984,0.012-14.016-0.003-21.046c-0.032-17.117,0.589-34.269-0.291-51.341
		c-0.991-19.233-9.547-35.349-23.788-48.318C326.127,237.385,314.363,231.729,300.876,228.941z"/>
	<path fill-rule="evenodd" clip-rule="evenodd" fill="#00FF55" d="M378.623,190.025c-27.835,0-50.443-22.749-50.358-50.671
		c0.082-27.458,23.091-50.483,50.558-50.218c29.982,0.29,51.334,24.861,50.435,52.298
		C428.395,167.738,406.265,190.423,378.623,190.025z"/>
	<path fill-rule="evenodd" clip-rule="evenodd" fill="#00FF55" d="M106.133,139.703c-0.063-27.941,22.525-50.795,50.479-50.548
		c27.818,0.247,50.011,21.785,50.418,50.309c0.386,27.047-22.518,50.102-48.748,50.676
		C128.71,190.788,105.729,166.777,106.133,139.703z"/>
	<path fill-rule="evenodd" clip-rule="evenodd" fill="#00FF55" d="M267.301,223.398c-28.025-0.036-50.252-22.428-50.254-50.632
		c0-27.653,22.752-50.352,50.377-50.26c27.95,0.094,50.515,22.708,50.493,50.604C317.896,201.01,295.326,223.432,267.301,223.398z"
		/>
</g>
</svg>
