<?xml version="1.0" encoding="utf-8"?>
<!-- Generator: Adobe Illustrator 16.0.0, SVG Export Plug-In . SVG Version: 6.00 Build 0)  -->
<!DOCTYPE svg PUBLIC "-//W3C//DTD SVG 1.1//EN" "http://www.w3.org/Graphics/SVG/1.1/DTD/svg11.dtd">
<svg version="1.1" id="Layer_1" xmlns="http://www.w3.org/2000/svg" xmlns:xlink="http://www.w3.org/1999/xlink" x="0px" y="0px"
	 width="1280px" height="1280px" viewBox="0 0 1280 1280" enable-background="new 0 0 1280 1280" xml:space="preserve">
<path fill-rule="evenodd" clip-rule="evenodd" fill="#FFE900" stroke="#3CD52E" stroke-width="7" stroke-miterlimit="10" d="
	M339.562,604.603c134.488-11.253,263.993-22.084,395.867-33.166c0,174.771,0,342.564,0,513.655
	c-101.411-19.503-202.318-38.797-306.051-20.904c-2.198-5.964-4.364-10.152-5.032-14.551c-0.765-4.399-0.171-9.182,5.961-7.784
	c19.119-16.457,37.571-33.594,57.578-48.738c9.267-6.894,21.408-12.692,32.751-13.792c45.014-4.737,90.362-6.896,135.466-11.13
	c8.167-0.89,15.739-7.361,23.646-11.124c-8.037-3.767-16.245-11.001-24.152-10.79c-51.699,2.073-103.407,5.669-156.841,8.886
	c-1.774-9.057-4.185-21.872-8.241-42.858c62.31-5.332,123.529-10.405,186.913-15.821c7.019-14.006,0.375-20.137-15.911-18.914
	c-53.646,3.98-107.161,8.59-160.855,12.401c-9.601,0.757-22.165,2.535-28.679-2.415c-24.543-18.783-49.249-22.507-79.622-4.991
	C374.885,790.672,357.964,701.446,339.562,604.603z M676.661,759.533c1.987-2.242,4.022-4.356,6.091-6.514
	c-6.514-4.06-13.451-12.146-19.583-11.591c-77.13,6.09-154.129,13.199-231.088,20.983c-4.902,0.378-9.096,8.122-13.664,12.479
	c5.504,3.131,11.334,9.434,16.457,8.969C515.514,776.246,596.063,767.785,676.661,759.533z M427.179,844.484
	c2.32,2.414,4.649,4.698,6.938,7.108c81.437-7.698,162.923-15.186,244.319-22.759c1.312-2.496,2.581-4.865,3.982-7.19
	c-7.109-4.194-14.552-12.313-21.155-11.848c-72.432,5.92-144.733,12.947-216.952,20.731
	C438.172,831.203,432.887,839.704,427.179,844.484z M427.22,685.282c2.28,2.288,4.609,4.613,6.938,6.982
	c73.914-7.784,147.818-15.524,221.772-23.31c1.352-2.246,2.582-4.57,3.852-6.896c-7.148-4.063-14.682-12.229-21.448-11.635
	c-64.818,5.923-129.586,12.861-194.233,20.73C437.96,671.916,432.887,680.422,427.22,685.282z"/>
<path fill-rule="evenodd" clip-rule="evenodd" fill="#FFE900" stroke="#3CD52E" stroke-width="7" stroke-miterlimit="10" d="
	M1019.69,456.149c-13.534,80.594-26.357,156.914-39.641,236.115c-34.735-9.988-59.36,2.537-81.272,29.238
	c-9.651,11.718-29.656,14.844-44.471,22.799c-17.465,9.227-34.346,19.504-52.204,29.703c3.771,16.794,9.179,22.249,24.877,12.14
	c17.818-11.466,37.278-20.476,58.892-31.981c1.863,17.768,3.093,30.544,4.313,42.856c-30.29,19.25-59.521,37.905-88.797,56.564
	c0.04,3.258,0.122,6.56,0.211,9.857c7.697,0.974,15.439,2.24,23.143,2.495c2.239,0,4.527-3.09,6.85-4.737
	c35.544-25.852,70.483-59.017,105.181-13.832c-38.206,20.727-80.005,43.149-121.598,66.165
	c-13.321,7.364-17.597,16.629-1.303,27.881c40.275-26.232,77.715-59.862,134.618-61.854c-4.949,31.139-9.306,60.587-14.852,89.776
	c-0.758,4.104-6.98,7.785-11.468,10.321c-49.41,28.939-99.001,57.669-148.542,86.351c-3.086,1.693-6.303,3.091-13.574,6.687
	c0-11.127,0-19.251,0-27.161c0-149.431,0.294-298.777-0.422-448.206c-0.092-18.954,5.153-30.589,21.618-41.379
	c68.743-44.631,141.981-78.436,221.903-97.474C1007.46,457.419,1011.905,457.249,1019.69,456.149z M802.698,616.451
	c-0.042,3.005-0.083,5.964-0.171,8.925c7.874,0.423,16.628,3.216,23.565,0.887c41.374-14.088,82.545-29.189,123.454-44.716
	c6.05-2.286,10.365-9.223,15.398-13.963c-5.969-2.706-12.141-8.419-17.727-7.824C893.825,565.215,845.219,583.493,802.698,616.451z
	 M794.782,713.84c13.242,2.839,23.445,8.253,27.458,5.293c38.965-28.391,81.869-45.82,129.376-47.217
	c5.587-21.916-5.032-23.016-19.463-21.322C882.955,656.473,840.01,676.146,794.782,713.84z"/>
<path fill-rule="evenodd" clip-rule="evenodd" fill="#FFE900" stroke="#3CD52E" stroke-width="7" stroke-miterlimit="10" d="
	M383.639,471.083c15.447,10.195,30.251,21.786,46.626,30.463c23.688,12.564,33.036,6.641,33.377-19.507
	c0.383-28.178,0.082-56.312,0.082-86.518c87.919,4.189,174.478,14.257,254.947-36.428c21.113,45.608,19.127,91.722,9.566,138.047
	c-11.343,54.749-11.889,53.988-67.74,57.497c-72.594,4.527-145.196,9.352-217.587,15.912c-17.133,1.521-26.774-3.047-33.378-17.772
	c-11.343-25.301-22.849-50.556-34.314-75.941C377.972,474.935,380.805,473.07,383.639,471.083z"/>
<path fill-rule="evenodd" clip-rule="evenodd" fill="#FFE900" stroke="#3CD52E" stroke-width="7" stroke-miterlimit="10" d="
	M706.782,337.434c-33.337,28.26-74.157,35.792-115.499,37.652c-38.459,1.946-77.423,0.55-115.833-3.045
	c-25.39-2.329-37.4,1.775-34.909,30.251c2.117,24.201,0.423,48.776,0.423,75.053c-23.224-11.465-44.338-22.173-67.35-33.548
	c-14.56-77.68,32.702-158.404,112.201-187.552C567.042,226.417,664.269,261.66,706.782,337.434z"/>
<path fill-rule="evenodd" clip-rule="evenodd" fill="#FFE900" stroke="#3CD52E" stroke-width="7" stroke-miterlimit="10" d="
	M364.177,994.127c-9.43-5.073-21.359-10.578-32.279-17.426c-27.327-17.181-42.563-38.968-38.963-74.635
	c6.009-59.146,13.029-117.57,46.154-177.438c9.771,49.884,20.056,93.204,26.317,137.203c3.298,23.311-0.765,47.512-1.14,71.373
	C363.966,952.581,364.177,971.872,364.177,994.127z"/>
<path fill-rule="evenodd" clip-rule="evenodd" fill="#FFE900" stroke="#3CD52E" stroke-width="7" stroke-miterlimit="10" d="
	M1001.286,769.854c0,29.534-20.729,54.325-45.689,55.002c-26.187,0.635-48.279-24.791-48.149-55.546
	c0.213-29.662,20.773-54.453,45.82-55.34C978.992,713.163,1001.458,739.1,1001.286,769.854z"/>
<path fill-rule="evenodd" clip-rule="evenodd" fill="#FFE900" stroke="#3CD52E" stroke-width="7" stroke-miterlimit="10" d="
	M475.784,950.766c0.423,31.94-19.755,56.438-46.496,56.137c-25.675-0.166-45.348-23.476-45.731-54.108
	c-0.383-32.152,19.714-56.48,46.456-56.228C455.859,896.909,475.32,919.879,475.784,950.766z"/>
</svg>
