<?xml version="1.0" encoding="utf-8"?>
<!-- Generator: Adobe Illustrator 16.0.0, SVG Export Plug-In . SVG Version: 6.00 Build 0)  -->
<!DOCTYPE svg PUBLIC "-//W3C//DTD SVG 1.1//EN" "http://www.w3.org/Graphics/SVG/1.1/DTD/svg11.dtd">
<svg version="1.1" id="Layer_1" xmlns="http://www.w3.org/2000/svg" xmlns:xlink="http://www.w3.org/1999/xlink" x="0px" y="0px"
	 width="136.914px" height="136.914px" viewBox="0 0 136.914 136.914" enable-background="new 0 0 136.914 136.914"
	 xml:space="preserve">
<g>
	<g>
		<g>
			<g>
				<circle fill="none" stroke="#00FF73" stroke-width="5" stroke-miterlimit="10" cx="68.456" cy="68.458" r="63.333"/>
			</g>
		</g>
		<g>
			<path fill="#FFFFFF" d="M47.99,47.107l-9.882,22.997v19.703h-9.821V70.104l-9.882-22.997h10.126l4.636,13.115l4.697-13.115H47.99
				z"/>
			<path fill="#FFFFFF" d="M61.196,57.935c-0.631,0.631-0.945,1.394-0.945,2.288v3.294h22.997v9.882H60.25v3.294
				c0,0.896,0.314,1.668,0.945,2.318c0.63,0.651,1.413,0.976,2.349,0.976h19.703v9.821H63.544c-1.83,0-3.538-0.345-5.124-1.037
				c-1.586-0.69-2.969-1.626-4.148-2.806c-1.18-1.18-2.115-2.563-2.806-4.148c-0.692-1.586-1.037-3.294-1.037-5.124v-16.47
				c0-1.83,0.345-3.538,1.037-5.124c0.691-1.586,1.626-2.968,2.806-4.148c1.179-1.179,2.562-2.114,4.148-2.806
				c1.586-0.691,3.294-1.037,5.124-1.037h19.703v9.882H63.544C62.608,56.99,61.826,57.305,61.196,57.935z"/>
			<path fill="#FFFFFF" d="M110.513,64.554c1.586,0.692,2.969,1.637,4.148,2.836c1.18,1.2,2.114,2.592,2.807,4.178
				c0.69,1.586,1.037,3.295,1.037,5.124c0,1.83-0.347,3.538-1.037,5.124c-0.692,1.586-1.627,2.969-2.807,4.148
				s-2.563,2.115-4.148,2.806c-1.586,0.692-3.293,1.037-5.123,1.037H85.687v-9.821h19.703c0.935-0.039,1.717-0.375,2.348-1.006
				s0.945-1.393,0.945-2.288c0-0.935-0.314-1.718-0.945-2.349c-0.631-0.63-1.413-0.945-2.348-0.945h-6.588
				c-1.83,0-3.539-0.345-5.125-1.037c-1.586-0.691-2.969-1.637-4.147-2.836c-1.181-1.199-2.114-2.593-2.806-4.179
				c-0.692-1.586-1.037-3.294-1.037-5.124s0.345-3.538,1.037-5.124c0.691-1.586,1.625-2.968,2.806-4.148
				c1.179-1.179,2.562-2.114,4.147-2.806c1.586-0.691,3.295-1.037,5.125-1.037h13.115v9.882H98.802c-0.937,0-1.719,0.315-2.35,0.945
				c-0.631,0.631-0.945,1.394-0.945,2.288c0,0.936,0.314,1.718,0.945,2.349c0.631,0.631,1.413,0.945,2.35,0.945h6.588
				C107.22,63.517,108.927,63.863,110.513,64.554z"/>
		</g>
	</g>
</g>
</svg>
