<?xml version="1.0" encoding="utf-8"?>
<!-- Generator: Adobe Illustrator 16.0.0, SVG Export Plug-In . SVG Version: 6.00 Build 0)  -->
<!DOCTYPE svg PUBLIC "-//W3C//DTD SVG 1.1//EN" "http://www.w3.org/Graphics/SVG/1.1/DTD/svg11.dtd">
<svg version="1.1" id="Layer_1" xmlns="http://www.w3.org/2000/svg" xmlns:xlink="http://www.w3.org/1999/xlink" x="0px" y="0px"
	 width="136.914px" height="136.914px" viewBox="0 0 136.914 136.914" enable-background="new 0 0 136.914 136.914"
	 xml:space="preserve">
<g>
	<g>
		<g>
			<g>
				<circle fill="none" stroke="#FF0055" stroke-width="5" stroke-miterlimit="10" cx="68.456" cy="68.458" r="63.333"/>
			</g>
		</g>
		<g>
			<path fill="#FFFFFF" d="M34.419,60.223c0-1.83,0.345-3.538,1.037-5.124c0.691-1.586,1.626-2.968,2.806-4.148
				c1.179-1.179,2.562-2.114,4.148-2.806c1.586-0.691,3.294-1.037,5.124-1.037h6.588c1.83,0,3.538,0.346,5.124,1.037
				c1.586,0.692,2.968,1.627,4.148,2.806c1.179,1.18,2.114,2.562,2.806,4.148c0.691,1.586,1.037,3.294,1.037,5.124v29.585h-9.821
				V60.223c0-0.894-0.315-1.667-0.945-2.318c-0.631-0.65-1.414-0.976-2.349-0.976h-6.588c-0.936,0-1.718,0.326-2.349,0.976
				c-0.631,0.651-0.945,1.424-0.945,2.318v29.585h-9.821V60.223z"/>
			<path fill="#FFFFFF" d="M89.379,47.108c1.83,0,3.538,0.346,5.124,1.037c1.586,0.692,2.969,1.627,4.148,2.806
				c1.179,1.18,2.113,2.562,2.806,4.148c0.69,1.586,1.037,3.294,1.037,5.124v16.47c0,1.83-0.347,3.537-1.037,5.123
				c-0.692,1.587-1.627,2.97-2.806,4.148c-1.18,1.18-2.563,2.115-4.148,2.807s-3.294,1.037-5.124,1.037h-6.588
				c-1.83,0-3.538-0.346-5.124-1.037s-2.969-1.627-4.148-2.807c-1.18-1.179-2.114-2.562-2.806-4.148
				c-0.692-1.586-1.036-3.293-1.036-5.123v-16.47c0-1.83,0.344-3.538,1.036-5.124c0.691-1.586,1.626-2.968,2.806-4.148
				c1.18-1.179,2.563-2.114,4.148-2.806c1.586-0.691,3.294-1.037,5.124-1.037H89.379z M92.673,60.223
				c0-0.894-0.315-1.657-0.945-2.288c-0.631-0.63-1.414-0.945-2.349-0.945h-6.588c-0.937,0-1.718,0.315-2.349,0.945
				c-0.631,0.631-0.945,1.394-0.945,2.288v16.47c0,0.895,0.314,1.668,0.945,2.318s1.412,0.976,2.349,0.976h6.588
				c0.935,0,1.718-0.325,2.349-0.976c0.63-0.65,0.945-1.424,0.945-2.318V60.223z"/>
		</g>
	</g>
</g>
</svg>
