<?xml version="1.0" encoding="utf-8"?>
<!-- Generator: Adobe Illustrator 16.0.0, SVG Export Plug-In . SVG Version: 6.00 Build 0)  -->
<!DOCTYPE svg PUBLIC "-//W3C//DTD SVG 1.1//EN" "http://www.w3.org/Graphics/SVG/1.1/DTD/svg11.dtd">
<svg version="1.1" id="Layer_1" xmlns="http://www.w3.org/2000/svg" xmlns:xlink="http://www.w3.org/1999/xlink" x="0px" y="0px"
	 width="110px" height="70px" viewBox="0 0 110 70" enable-background="new 0 0 110 70" xml:space="preserve">
<g id="Background">
</g>
<g>
	<path fill="#FFFFFF" d="M44.131,40.209v8.443h-1.943v-8.443H44.131z"/>
	<path fill="#FFFFFF" d="M44.613,42.803c0-0.361,0.068-0.699,0.205-1.014c0.136-0.313,0.322-0.586,0.555-0.821
		c0.233-0.231,0.506-0.417,0.82-0.554s0.651-0.205,1.013-0.205h1.302c0.362,0,0.699,0.068,1.013,0.205
		c0.313,0.137,0.587,0.32,0.821,0.554c0.232,0.235,0.417,0.509,0.555,0.821c0.137,0.313,0.206,0.65,0.206,1.014v5.852H49.16v-5.852
		c0-0.177-0.062-0.33-0.187-0.459c-0.124-0.128-0.279-0.193-0.465-0.193h-1.302c-0.185,0-0.339,0.065-0.464,0.193
		c-0.125,0.129-0.187,0.282-0.187,0.459v5.852h-1.942V42.803L44.613,42.803z"/>
	<path fill="#FFFFFF" d="M53.528,40.209v8.443h-1.943v-8.443H53.528z"/>
	<path fill="#FFFFFF" d="M59.861,42.163h-1.954v6.489h-1.942v-6.489h-1.954v-1.955h5.851V42.163L59.861,42.163z"/>
	<path fill="#FFFFFF" d="M62.286,40.209v8.443h-1.942v-8.443H62.286z"/>
	<path fill="#FFFFFF" d="M67.314,48.652l-1.301-4.85l-1.304,4.85h-1.942l2.254-8.443h0.025h1.932h0.023l2.256,8.443H67.314z"/>
	<path fill="#FFFFFF" d="M74.385,42.163h-1.953v6.489h-1.942v-6.489h-1.954v-1.955h5.851L74.385,42.163L74.385,42.163z"/>
	<path fill="#FFFFFF" d="M76.811,40.209v8.443h-1.942v-8.443H76.811z"/>
	<path fill="#FFFFFF" d="M83.782,40.209l-2.257,8.443h-0.022h-1.93h-0.024l-2.258-8.443h1.943l1.303,4.85l1.303-4.85H83.782z"/>
	<path fill="#FFFFFF" d="M96.449,43.66c0.313,0.135,0.586,0.32,0.818,0.56c0.232,0.237,0.418,0.513,0.557,0.827
		c0.137,0.313,0.203,0.65,0.203,1.014c0,0.362-0.066,0.699-0.203,1.012c-0.137,0.313-0.321,0.587-0.557,0.822
		c-0.232,0.231-0.507,0.418-0.818,0.554c-0.314,0.137-0.652,0.204-1.014,0.204h-3.896V46.71h3.896
		c0.185-0.008,0.34-0.074,0.465-0.199c0.123-0.122,0.187-0.274,0.187-0.45c0-0.187-0.063-0.342-0.187-0.465
		c-0.125-0.126-0.28-0.188-0.465-0.188h-1.304c-0.36,0-0.698-0.068-1.014-0.206c-0.313-0.136-0.587-0.323-0.819-0.56
		c-0.232-0.238-0.419-0.515-0.556-0.828c-0.138-0.313-0.205-0.65-0.205-1.013s0.067-0.7,0.205-1.014
		c0.137-0.313,0.321-0.587,0.556-0.821c0.232-0.232,0.506-0.417,0.819-0.554c0.313-0.138,0.651-0.205,1.014-0.205h2.593v1.955
		h-2.593c-0.187,0-0.34,0.062-0.464,0.187c-0.125,0.125-0.188,0.276-0.188,0.452c0,0.187,0.063,0.341,0.188,0.464
		c0.124,0.127,0.277,0.188,0.464,0.188h1.304C95.797,43.453,96.135,43.521,96.449,43.66z"/>
</g>
<g>
	<path fill="#FFFFFF" d="M43.409,54.945c-0.098,0.098-0.146,0.217-0.146,0.354v0.513h3.578v1.537h-3.578v2.553h-1.527v-4.604
		c0-0.283,0.053-0.55,0.161-0.798c0.108-0.245,0.253-0.46,0.437-0.644s0.398-0.33,0.646-0.438c0.246-0.107,0.512-0.161,0.797-0.161
		h3.065v1.536h-3.065C43.629,54.798,43.508,54.848,43.409,54.945z"/>
	<path fill="#FFFFFF" d="M50.56,53.26c0.285,0,0.551,0.055,0.798,0.162s0.462,0.253,0.646,0.438
		c0.183,0.184,0.328,0.398,0.437,0.644c0.107,0.248,0.161,0.515,0.161,0.799v2.562c0,0.285-0.054,0.553-0.161,0.798
		c-0.108,0.248-0.253,0.462-0.437,0.646c-0.184,0.185-0.399,0.329-0.646,0.438c-0.247,0.107-0.513,0.162-0.798,0.162h-1.024
		c-0.284,0-0.55-0.055-0.797-0.162c-0.247-0.107-0.462-0.253-0.646-0.438c-0.183-0.184-0.329-0.397-0.438-0.646
		c-0.107-0.245-0.16-0.513-0.16-0.798v-2.562c0-0.284,0.053-0.551,0.16-0.799c0.108-0.245,0.254-0.46,0.438-0.644
		c0.184-0.184,0.399-0.329,0.646-0.438c0.247-0.107,0.513-0.162,0.797-0.162H50.56z M51.072,55.301c0-0.139-0.049-0.258-0.147-0.355
		c-0.099-0.098-0.22-0.147-0.364-0.147h-1.025c-0.146,0-0.267,0.05-0.366,0.147c-0.098,0.099-0.146,0.218-0.146,0.355v2.561
		c0,0.142,0.049,0.262,0.146,0.361c0.099,0.103,0.22,0.151,0.366,0.151h1.025c0.145,0,0.267-0.05,0.364-0.151
		c0.1-0.101,0.147-0.221,0.147-0.361V55.301z"/>
	<path fill="#FFFFFF" d="M58.361,57.861c0,0.285-0.055,0.553-0.162,0.799c-0.107,0.248-0.252,0.462-0.438,0.646
		c-0.184,0.183-0.397,0.328-0.645,0.437c-0.247,0.106-0.512,0.161-0.799,0.161h-1.022c-0.285,0-0.551-0.055-0.798-0.161
		c-0.248-0.107-0.462-0.252-0.646-0.437c-0.183-0.185-0.329-0.398-0.437-0.646c-0.108-0.246-0.16-0.512-0.16-0.799V53.26h1.527
		v4.604c0,0.14,0.049,0.261,0.146,0.361c0.099,0.102,0.22,0.15,0.365,0.15h1.025c0.146,0,0.267-0.05,0.365-0.15
		c0.099-0.102,0.146-0.223,0.146-0.361V53.26h1.528v4.604h0.004V57.861z"/>
	<path fill="#FFFFFF" d="M59.018,55.301c0-0.283,0.053-0.551,0.16-0.799c0.107-0.245,0.254-0.46,0.438-0.645
		c0.185-0.183,0.398-0.328,0.646-0.437c0.246-0.108,0.513-0.162,0.798-0.162h1.023c0.285,0,0.551,0.054,0.798,0.162
		c0.247,0.106,0.462,0.253,0.646,0.437c0.185,0.185,0.328,0.399,0.437,0.645c0.108,0.248,0.163,0.514,0.163,0.799v4.604h-1.527
		v-4.604c0-0.139-0.051-0.259-0.146-0.359c-0.1-0.103-0.223-0.152-0.365-0.152h-1.023c-0.146,0-0.269,0.051-0.367,0.152
		c-0.098,0.101-0.146,0.222-0.146,0.359v4.604h-1.528v-4.604H59.018z"/>
	<path fill="#FFFFFF" d="M69.883,57.861c0,0.285-0.055,0.553-0.162,0.799c-0.107,0.248-0.253,0.462-0.437,0.646
		c-0.185,0.183-0.398,0.328-0.646,0.437c-0.246,0.106-0.513,0.161-0.798,0.161h-1.536h-1.529V53.26h1.529h1.536
		c0.285,0,0.552,0.055,0.798,0.162s0.461,0.253,0.646,0.438c0.184,0.185,0.327,0.398,0.437,0.644
		c0.107,0.248,0.162,0.515,0.162,0.799V57.861z M68.354,55.301c0-0.139-0.049-0.258-0.146-0.355c-0.1-0.098-0.221-0.147-0.364-0.147
		h-1.538v3.578h1.538c0.144,0,0.267-0.05,0.364-0.151c0.1-0.101,0.146-0.221,0.146-0.36V55.301z"/>
	<path fill="#FFFFFF" d="M74.115,59.902l-1.024-3.814l-1.024,3.814h-1.527l1.773-6.644h0.02h1.52h0.019l1.774,6.644H74.115z"/>
	<path fill="#FFFFFF" d="M79.951,54.798h-1.537v5.104h-1.527v-5.104H75.35v-1.537h4.603L79.951,54.798L79.951,54.798z"/>
	<path fill="#FFFFFF" d="M82.135,53.26v6.645h-1.527V53.26H82.135z"/>
	<path fill="#FFFFFF" d="M85.854,53.26c0.285,0,0.551,0.055,0.799,0.162c0.246,0.107,0.461,0.253,0.645,0.438
		c0.184,0.184,0.329,0.398,0.438,0.644c0.107,0.248,0.162,0.515,0.162,0.799v2.562c0,0.285-0.055,0.553-0.162,0.798
		c-0.107,0.248-0.252,0.462-0.438,0.646c-0.184,0.185-0.398,0.329-0.645,0.438c-0.248,0.107-0.514,0.162-0.799,0.162H84.83
		c-0.285,0-0.551-0.055-0.798-0.162c-0.246-0.107-0.462-0.253-0.646-0.438c-0.183-0.184-0.327-0.397-0.437-0.646
		c-0.108-0.245-0.16-0.513-0.16-0.798v-2.562c0-0.284,0.052-0.551,0.16-0.799c0.107-0.245,0.253-0.46,0.437-0.644
		c0.185-0.184,0.399-0.329,0.646-0.438c0.247-0.107,0.513-0.162,0.798-0.162H85.854z M86.366,55.301c0-0.139-0.05-0.258-0.146-0.355
		c-0.101-0.098-0.223-0.147-0.367-0.147H84.83c-0.146,0-0.268,0.05-0.365,0.147c-0.099,0.099-0.146,0.218-0.146,0.355v2.561
		c0,0.142,0.05,0.262,0.146,0.361c0.1,0.103,0.221,0.151,0.365,0.151h1.023c0.146,0,0.268-0.05,0.367-0.151
		c0.096-0.101,0.146-0.221,0.146-0.361V55.301z"/>
	<path fill="#FFFFFF" d="M88.549,55.301c0-0.283,0.055-0.551,0.161-0.799c0.108-0.245,0.253-0.46,0.437-0.645
		c0.185-0.183,0.399-0.328,0.646-0.437s0.512-0.162,0.797-0.162h1.024c0.284,0,0.552,0.054,0.797,0.162
		c0.247,0.106,0.462,0.253,0.646,0.437c0.184,0.185,0.328,0.399,0.438,0.645c0.107,0.248,0.16,0.514,0.16,0.799v4.604h-1.527v-4.604
		c0-0.139-0.049-0.259-0.146-0.359c-0.099-0.103-0.22-0.152-0.364-0.152h-1.024c-0.146,0-0.268,0.051-0.365,0.152
		c-0.099,0.102-0.146,0.222-0.146,0.359v4.604h-1.527v-4.604H88.549z"/>
</g>
<g>
	<path fill="#FFFFFF" d="M47.553,30.712h-1.824v6.058h-1.813v-6.058h-1.825v-1.824h5.461v1.824H47.553z"/>
	<path fill="#FFFFFF" d="M54.06,28.889v7.88h-1.813v-3.026h-2.432v3.026h-1.813v-7.88h1.813v3.028h2.432v-3.028H54.06z"/>
	<path fill="#FFFFFF" d="M56.499,30.888c-0.117,0.117-0.176,0.257-0.176,0.421v0.608h4.245v1.826h-4.245v0.606
		c0,0.166,0.059,0.308,0.176,0.429c0.115,0.121,0.26,0.181,0.433,0.181h3.637v1.813h-3.637c-0.339,0-0.652-0.063-0.945-0.191
		c-0.293-0.126-0.547-0.3-0.765-0.518c-0.218-0.218-0.391-0.474-0.519-0.766c-0.127-0.293-0.192-0.608-0.192-0.946v-3.04
		c0-0.337,0.065-0.652,0.192-0.946c0.128-0.292,0.299-0.546,0.519-0.765c0.216-0.217,0.472-0.39,0.765-0.519
		c0.293-0.127,0.606-0.19,0.945-0.19h3.637v1.824h-3.637C56.759,30.712,56.614,30.771,56.499,30.888z"/>
</g>
<rect x="86.566" y="40.21" fill="#FFFFFF" width="4.553" height="1.942"/>
<rect x="84.227" y="40.21" fill="#FFFFFF" width="1.807" height="1.865"/>
<rect x="84.064" y="43.339" fill="#FFFFFF" width="7.056" height="2.179"/>
<rect x="86.566" y="46.67" fill="#FFFFFF" width="4.553" height="1.945"/>
<rect x="84.227" y="46.67" fill="#FFFFFF" width="1.807" height="1.865"/>
<path fill="#FFFFFF" d="M25.204,58.152L25.204,58.152c-0.01,0-0.023,0-0.034,0c-0.085-0.008-0.154-0.041-0.212-0.088l-0.004,0.031
	c-0.006-0.001-0.01-0.003-0.016-0.003c-0.004,0-0.007-0.002-0.013-0.003l-1.458-0.188c0.001-0.006,0.001-0.016,0.003-0.021
	c-0.017,0.01-0.035,0.016-0.059,0.018c-0.188,0.009-0.37-0.026-0.553-0.072l-0.473-0.061c-0.02,0.008-0.043,0.01-0.065,0.008
	c-0.083-0.01-0.163-0.021-0.241-0.049c-0.011,0-0.019-0.007-0.027-0.015c0,0.006,0,0.008-0.002,0.011l-1.456-0.187
	c-0.01-0.002-0.02,0-0.029-0.002l0.004-0.03c-0.06,0.014-0.12,0.021-0.182,0.03c-0.033,0.007-0.062,0-0.083-0.013l-0.001,0.004
	c-0.466,0.022-0.826,0.248-0.869,0.572c-0.042,0.322,0.255,0.635,0.694,0.774l-0.47,3.63l2.125,2.77l2.76-2.143l0.469-3.627
	c0.47-0.021,0.846-0.247,0.888-0.572C25.945,58.602,25.651,58.293,25.204,58.152z M21.83,64.925l-0.396-0.516l0.91,0.116
	L21.83,64.925z M22.603,64.324l-1.363-0.176c-0.001,0-0.003,0-0.004,0l-1.17-1.524l4.057,0.521L22.603,64.324z M19.935,62.373
	l0.446-3.445c0.01,0.004,0.021,0.006,0.032,0.008l0.87,0.111l-0.445,3.443L19.935,62.373z M21.094,62.521l0.444-3.441l0.904,0.115
	l-0.446,3.443L21.094,62.521z M22.25,62.671l0.445-3.442l0.904,0.116l-0.446,3.441L22.25,62.671z M24.311,62.936l-0.903-0.115
	l0.446-3.44l0.89,0.112c0.006,0.003,0.009,0,0.013,0.003L24.311,62.936z M25.061,59.268c-0.006,0-0.011,0-0.016,0
	c-0.043,0.002-0.086,0.004-0.13,0.004c-0.042-0.002-0.085-0.004-0.13-0.01c-0.003,0-0.006,0-0.013-0.002l-4.33-0.556
	c-0.011-0.001-0.021-0.005-0.031-0.006c-0.044-0.007-0.085-0.015-0.126-0.023c-0.042-0.012-0.082-0.024-0.12-0.038
	c-0.002-0.002-0.003-0.002-0.005-0.002c-0.295-0.107-0.496-0.309-0.472-0.505c0.026-0.194,0.272-0.34,0.585-0.37
	c0.001,0,0.002,0,0.004,0c0.041-0.003,0.083-0.007,0.126-0.007c0.001-0.001,0.002,0,0.004,0c0.041,0.001,0.083,0.006,0.125,0.011
	h0.003c0.009,0,0.019,0,0.028,0.002l4.331,0.557c0.005,0,0.008,0.001,0.013,0.003c0.005,0,0.011,0.002,0.015,0.002
	c0.039,0.006,0.076,0.013,0.113,0.021c0.003,0.002,0.01,0,0.015,0.004c0.039,0.01,0.074,0.021,0.109,0.034
	c0.004,0.001,0.01,0.003,0.016,0.003c0.297,0.108,0.5,0.312,0.475,0.508C25.623,59.093,25.377,59.236,25.061,59.268z"/>
<g>
	<g>
		<path fill="#FFFFFF" d="M19.596,50.411c-0.526,0.028-1.016-0.108-1.418-0.4c-0.418,0.14-1.477,0.368-2.426-0.39
			c-0.792-0.637-1.152-1.534-1.1-2.749c0.024-0.562,0.293-1.125,0.739-1.545c0.33-0.312,0.721-0.511,1.115-0.574
			c-0.021-0.369,0.01-0.937,0.314-1.36c0.238-0.332,0.589-0.518,1.043-0.549c0.54-0.039,1.457,0.111,1.568,1.537
			c0.014,0.182-0.116,0.344-0.291,0.357c-0.171,0.013-0.327-0.124-0.342-0.309c-0.052-0.688-0.32-0.968-0.889-0.924
			c-0.266,0.02-0.456,0.112-0.582,0.286c-0.256,0.354-0.2,0.99-0.158,1.204c0.02,0.102-0.005,0.209-0.07,0.285
			c-0.064,0.078-0.158,0.119-0.257,0.115c-0.344-0.021-0.719,0.133-1.027,0.422c-0.322,0.307-0.515,0.701-0.532,1.088
			c-0.042,1.006,0.22,1.68,0.851,2.184c0.887,0.71,1.926,0.26,1.969,0.239c0.11-0.05,0.238-0.029,0.329,0.051
			c0.344,0.304,0.813,0.425,1.32,0.345c0.558-0.086,1.077-0.406,1.324-0.813c0.611-1.005,0.455-2.28,0.453-2.293
			c0-0.01-0.001-0.018-0.002-0.025l-0.458-7.999c-0.012-0.184,0.122-0.341,0.297-0.35c0.175-0.009,0.325,0.131,0.336,0.313
			l0.458,7.988c0.019,0.164,0.158,1.564-0.546,2.727c-0.346,0.567-1.021,0.994-1.763,1.109
			C19.766,50.396,19.681,50.407,19.596,50.411z"/>
	</g>
	<g>
		<path fill="#FFFFFF" d="M14.988,47.223c-0.022,0-0.044,0-0.068-0.003c-0.515-0.09-1.512-0.649-1.597-2.14
			c-0.057-0.986,0.449-1.693,0.993-2.053c-0.229-0.235-0.483-0.582-0.596-1.031c-0.137-0.548-0.04-1.117,0.292-1.694
			c0.388-0.679,1.375-1.057,2.295-0.877c0.8,0.154,1.338,0.683,1.476,1.45c0.033,0.182-0.08,0.354-0.253,0.387
			c-0.171,0.032-0.337-0.087-0.37-0.267c-0.118-0.659-0.655-0.859-0.963-0.916c-0.654-0.128-1.39,0.129-1.642,0.567
			c-0.238,0.416-0.314,0.813-0.223,1.178c0.154,0.629,0.745,0.998,0.751,1.001c0.113,0.067,0.173,0.204,0.155,0.339
			c-0.02,0.134-0.116,0.242-0.242,0.271c-0.463,0.109-1.093,0.68-1.04,1.607c0.077,1.334,1.054,1.518,1.063,1.52
			c0.173,0.028,0.291,0.201,0.264,0.381C15.259,47.102,15.134,47.214,14.988,47.223z"/>
	</g>
	<g>
		<path fill="#FFFFFF" d="M19.476,41.448c-0.071,0.004-0.143,0.003-0.214-0.003c-0.626-0.045-1.106-0.477-1.252-1.117
			c-0.149-0.654,0.088-1.34,0.561-1.629c0.331-0.204,0.648-0.26,0.94-0.167c0.411,0.132,0.595,0.505,0.616,0.547
			c0.077,0.164,0.012,0.364-0.144,0.442c-0.156,0.082-0.345,0.016-0.424-0.148c-0.004-0.01-0.086-0.161-0.233-0.205
			c-0.117-0.035-0.262,0-0.434,0.104c-0.231,0.144-0.349,0.541-0.265,0.906c0.047,0.211,0.199,0.569,0.676,0.605
			c0.371,0.027,0.752-0.153,1.075-0.51c0.505-0.558,0.758-1.438,0.657-2.299c-0.106-0.912-0.75-1.24-1.022-1.339
			c-0.509-0.183-1.082-0.1-1.363,0.201c-0.4,0.427-0.256,0.938-0.254,0.943c0.041,0.14-0.01,0.29-0.125,0.37
			c-0.116,0.084-0.268,0.076-0.377-0.018c-0.025-0.021-0.68-0.55-1.394-0.092c-0.349,0.225-0.651,0.908-0.527,1.622
			c0.031,0.18-0.083,0.353-0.254,0.386c-0.172,0.03-0.338-0.09-0.37-0.271c-0.159-0.912,0.192-1.902,0.817-2.305
			c0.612-0.395,1.188-0.314,1.586-0.162c0.036-0.289,0.152-0.631,0.444-0.941c0.456-0.486,1.269-0.633,2.018-0.361
			c0.814,0.294,1.343,0.981,1.448,1.889c0.125,1.068-0.183,2.129-0.826,2.838C20.442,41.173,19.966,41.42,19.476,41.448z"/>
	</g>
	<g>
		<path fill="#FFFFFF" d="M21.752,48.473c-0.027,0-0.055-0.002-0.083-0.01c-0.17-0.039-0.28-0.216-0.246-0.395l0,0
			c0.061-0.309,0.159-1.198-0.109-1.619c-0.071-0.111-0.161-0.176-0.282-0.199c-0.314-0.063-0.546-0.009-0.687,0.166
			c-0.178,0.221-0.182,0.577-0.132,0.714c0.06,0.169-0.02,0.358-0.178,0.425c-0.161,0.065-0.341-0.016-0.41-0.18
			c-0.031-0.073-0.328-0.723-0.953-0.579c-0.426,0.097-0.503,0.488-0.516,0.604c-0.027,0.248,0.059,0.472,0.209,0.55
			c0.158,0.08,0.224,0.278,0.147,0.442c-0.077,0.166-0.265,0.233-0.423,0.151c-0.395-0.203-0.621-0.694-0.562-1.224
			c0.067-0.602,0.453-1.051,1.007-1.178c0.456-0.103,0.826,0.03,1.107,0.242c0.051-0.145,0.122-0.281,0.22-0.402
			c0.205-0.254,0.595-0.526,1.288-0.387c0.288,0.059,0.527,0.228,0.693,0.485c0.462,0.728,0.23,1.981,0.202,2.126
			C22.014,48.357,21.893,48.462,21.752,48.473z"/>
	</g>
	<g>
		<path fill="#FFFFFF" d="M21.784,45.395c-0.001,0-0.001,0-0.002,0c-0.173,0.011-0.324-0.129-0.333-0.313
			c-0.049-0.908-0.094-1.767-0.332-1.989c-0.034-0.033-0.091-0.068-0.223-0.062c-0.402,0.021-0.415,0.358-0.41,0.462
			c0.011,0.182-0.123,0.339-0.297,0.35l0,0c-0.174,0.01-0.325-0.132-0.335-0.313c-0.024-0.444,0.221-1.118,1.006-1.162
			c0.272-0.018,0.502,0.063,0.681,0.23c0.435,0.407,0.48,1.266,0.543,2.45C22.09,45.229,21.958,45.385,21.784,45.395z"/>
	</g>
</g>
<g>
	<g>
		<path fill="#FFFFFF" d="M25.354,50.082c-0.085,0.005-0.17,0.006-0.258,0.003c-0.75-0.033-1.47-0.379-1.877-0.905
			c-0.833-1.07-0.856-2.48-0.856-2.645l-0.459-7.988c-0.011-0.184,0.123-0.341,0.297-0.352c0.175-0.008,0.326,0.133,0.335,0.315
			l0.46,7.997c0,0.008,0,0.018,0,0.026c0,0.012-0.006,1.305,0.712,2.227c0.291,0.375,0.844,0.636,1.408,0.658
			c0.513,0.021,0.965-0.151,1.271-0.491c0.083-0.092,0.207-0.126,0.323-0.087c0.044,0.015,1.128,0.343,1.928-0.462
			c0.568-0.574,0.752-1.273,0.594-2.268c-0.061-0.383-0.298-0.754-0.652-1.019c-0.34-0.255-0.73-0.366-1.07-0.304
			c-0.097,0.016-0.197-0.016-0.269-0.087c-0.073-0.068-0.11-0.171-0.102-0.274c0.019-0.217,0.001-0.854-0.294-1.179
			c-0.145-0.158-0.345-0.229-0.611-0.22c-0.009,0-0.017,0-0.024,0.002c-0.554,0.031-0.78,0.338-0.753,1.02
			c0.007,0.182-0.128,0.338-0.304,0.344c-0.175,0.006-0.323-0.139-0.331-0.321c-0.053-1.433,0.838-1.685,1.381-1.705
			c0.456-0.021,0.826,0.125,1.101,0.428c0.349,0.388,0.444,0.944,0.466,1.315c0.398,0.018,0.811,0.171,1.174,0.443
			c0.491,0.366,0.823,0.896,0.911,1.451c0.189,1.198-0.065,2.133-0.779,2.854c-0.855,0.865-1.934,0.754-2.364,0.666
			C26.352,49.857,25.88,50.053,25.354,50.082z"/>
	</g>
	<g>
		<path fill="#FFFFFF" d="M29.567,46.391c-0.146,0.01-0.284-0.09-0.324-0.244c-0.048-0.176,0.05-0.357,0.216-0.406
			c0.045-0.016,0.961-0.319,0.886-1.631c-0.054-0.928-0.744-1.424-1.217-1.479c-0.131-0.016-0.237-0.111-0.273-0.245
			c-0.034-0.133,0.013-0.272,0.118-0.354c0.005-0.002,0.549-0.437,0.63-1.075c0.049-0.375-0.072-0.762-0.356-1.148
			c-0.3-0.408-1.061-0.576-1.696-0.377c-0.3,0.094-0.81,0.354-0.853,1.021c-0.011,0.183-0.163,0.321-0.337,0.308
			c-0.174-0.013-0.306-0.172-0.295-0.354c0.05-0.777,0.523-1.365,1.3-1.608c0.896-0.281,1.918-0.02,2.381,0.61
			c0.394,0.536,0.556,1.092,0.483,1.649c-0.061,0.461-0.272,0.834-0.474,1.096c0.58,0.295,1.165,0.938,1.222,1.925
			c0.084,1.489-0.841,2.159-1.343,2.307C29.611,46.387,29.589,46.391,29.567,46.391z"/>
	</g>
	<g>
		<path fill="#FFFFFF" d="M24.447,41.164c-0.49,0.029-0.99-0.164-1.434-0.553c-0.72-0.631-1.147-1.649-1.146-2.726
			c0.001-0.909,0.446-1.655,1.222-2.041c0.714-0.354,1.537-0.302,2.048,0.13c0.324,0.277,0.479,0.605,0.549,0.887
			c0.376-0.197,0.94-0.342,1.594-0.019c0.667,0.328,1.129,1.271,1.075,2.196c-0.011,0.184-0.161,0.32-0.336,0.311
			c-0.174-0.014-0.308-0.172-0.297-0.354c0.042-0.722-0.335-1.368-0.708-1.55c-0.772-0.381-1.368,0.242-1.374,0.248
			c-0.097,0.104-0.248,0.131-0.372,0.063c-0.123-0.068-0.191-0.212-0.167-0.354c0.003-0.021,0.076-0.539-0.361-0.908
			c-0.314-0.266-0.893-0.284-1.376-0.044c-0.259,0.126-0.862,0.526-0.863,1.442c-0.001,0.866,0.35,1.713,0.916,2.211
			c0.36,0.317,0.76,0.451,1.125,0.383c0.47-0.09,0.58-0.465,0.604-0.68c0.04-0.371-0.122-0.752-0.368-0.867
			c-0.182-0.086-0.331-0.104-0.443-0.056c-0.146,0.063-0.208,0.229-0.209,0.23c-0.059,0.174-0.239,0.261-0.403,0.198
			c-0.165-0.063-0.251-0.254-0.193-0.429c0.015-0.043,0.156-0.436,0.548-0.61c0.281-0.125,0.602-0.105,0.954,0.057
			c0.503,0.234,0.815,0.887,0.743,1.556c-0.07,0.656-0.499,1.138-1.117,1.253C24.59,41.15,24.52,41.161,24.447,41.164z"/>
	</g>
	<g>
		<path fill="#FFFFFF" d="M22.989,48.4c-0.14,0.007-0.273-0.082-0.319-0.229c-0.043-0.137-0.418-1.358-0.042-2.133
			c0.134-0.276,0.354-0.472,0.633-0.562c0.672-0.221,1.09,0.008,1.323,0.238c0.11,0.109,0.198,0.236,0.265,0.373
			c0.254-0.242,0.608-0.413,1.073-0.363c0.564,0.063,1,0.465,1.135,1.053c0.119,0.519-0.05,1.033-0.418,1.281
			c-0.147,0.099-0.344,0.051-0.438-0.104c-0.095-0.153-0.053-0.36,0.095-0.458c0.14-0.093,0.199-0.327,0.145-0.567
			c-0.027-0.115-0.148-0.496-0.581-0.544c-0.638-0.071-0.858,0.608-0.881,0.685c-0.05,0.173-0.223,0.27-0.388,0.223
			c-0.165-0.05-0.264-0.227-0.224-0.398c0.032-0.143-0.011-0.496-0.214-0.694c-0.159-0.157-0.395-0.187-0.702-0.086
			c-0.117,0.036-0.199,0.11-0.256,0.229c-0.219,0.448-0.013,1.341,0.077,1.619c0.057,0.177-0.033,0.364-0.199,0.421
			C23.043,48.393,23.016,48.398,22.989,48.4z"/>
	</g>
	<g>
		<path fill="#FFFFFF" d="M22.607,45.35c-0.174,0.008-0.324-0.133-0.335-0.313c-0.073-1.187-0.126-2.042,0.259-2.496
			c0.16-0.188,0.379-0.293,0.652-0.308c0.784-0.047,1.105,0.598,1.13,1.039c0.01,0.184-0.122,0.342-0.297,0.35
			c-0.173,0.012-0.323-0.128-0.335-0.311c-0.012-0.134-0.076-0.438-0.461-0.414c-0.131,0.006-0.183,0.049-0.214,0.086
			c-0.211,0.248-0.157,1.106-0.102,2.014C22.915,45.182,22.783,45.337,22.607,45.35L22.607,45.35z"/>
	</g>
</g>
<g>
	<path fill="#FFFFFF" d="M24.895,53.307c-0.018,0.002-0.035,0.002-0.054-0.002c-0.173-0.021-0.3-0.185-0.282-0.365
		c0.008-0.07,0.191-1.729,1.951-3.063c0.142-0.108,0.34-0.074,0.443,0.075c0.104,0.148,0.072,0.357-0.069,0.462
		c-1.536,1.168-1.693,2.585-1.694,2.599C25.173,53.175,25.046,53.298,24.895,53.307z"/>
</g>
<g>
	<path fill="#FFFFFF" d="M20.124,52.628c-0.125,0.006-0.247-0.065-0.305-0.192c-0.007-0.015-0.514-1.09-1.585-1.502
		c-0.165-0.063-0.25-0.254-0.19-0.429c0.06-0.171,0.242-0.261,0.406-0.196c1.322,0.512,1.916,1.791,1.94,1.846
		c0.075,0.164,0.009,0.363-0.148,0.441C20.203,52.614,20.163,52.625,20.124,52.628z"/>
</g>
<g>
	<path fill="#FFFFFF" d="M22.971,52.879L22.971,52.879c-0.11,0.006-0.203-0.081-0.209-0.195c-0.001-0.041-0.053-1.037,0.424-1.842
		c0.058-0.097,0.18-0.126,0.273-0.064c0.092,0.061,0.122,0.188,0.063,0.287c-0.411,0.689-0.366,1.588-0.365,1.599
		C23.164,52.775,23.081,52.872,22.971,52.879z"/>
</g>
<g>
	<path fill="#FFFFFF" d="M23.47,51.154c-0.331,0.02-0.617-0.248-0.637-0.596c-0.02-0.35,0.234-0.648,0.565-0.668
		c0.331-0.019,0.617,0.25,0.637,0.599C24.055,50.837,23.801,51.135,23.47,51.154z M23.421,50.309
		c-0.113,0.006-0.199,0.108-0.193,0.229c0.007,0.117,0.104,0.21,0.218,0.203c0.114-0.008,0.2-0.108,0.193-0.229
		C23.632,50.393,23.535,50.302,23.421,50.309z"/>
</g>
<g>
	<path fill="#FFFFFF" d="M22.283,52.919c-0.109,0.006-0.203-0.081-0.21-0.196l0,0c0-0.01-0.06-0.906-0.546-1.546
		c-0.068-0.089-0.054-0.221,0.031-0.292c0.085-0.07,0.21-0.056,0.279,0.034c0.567,0.745,0.629,1.738,0.632,1.782
		C22.476,52.813,22.392,52.912,22.283,52.919z"/>
</g>
<g>
	<path fill="#FFFFFF" d="M21.59,51.261c-0.331,0.02-0.617-0.247-0.637-0.597c-0.02-0.348,0.233-0.645,0.565-0.663
		c0.332-0.021,0.617,0.247,0.637,0.597C22.174,50.943,21.92,51.242,21.59,51.261z M21.54,50.415
		c-0.113,0.006-0.199,0.106-0.192,0.226c0.007,0.12,0.104,0.213,0.218,0.205c0.113-0.006,0.2-0.107,0.193-0.228
		C21.751,50.5,21.654,50.409,21.54,50.415z"/>
</g>
<g>
	<path fill="#FFFFFF" d="M21.54,50.398c-0.122,0.009-0.215,0.117-0.207,0.246c0.007,0.125,0.112,0.224,0.233,0.215
		c0.122-0.006,0.215-0.114,0.208-0.241C21.766,50.49,21.661,50.393,21.54,50.398z"/>
	<path fill="#FFFFFF" d="M23.421,50.293c-0.121,0.007-0.214,0.115-0.207,0.244c0.008,0.126,0.113,0.223,0.234,0.217
		c0.12-0.008,0.214-0.115,0.207-0.244C23.647,50.382,23.542,50.286,23.421,50.293z"/>
</g>
<path fill="#FFFFFF" d="M22.184,35.266c0.006,0.149-0.111,0.277-0.263,0.281h-0.005c-0.151,0.008-0.279-0.111-0.285-0.26
	l-0.075-1.933c-0.005-0.151,0.112-0.278,0.263-0.284h0.006c0.15-0.006,0.279,0.112,0.283,0.262L22.184,35.266z"/>
<path fill="#FFFFFF" d="M28.985,38.113c-0.093,0.119-0.282,0.164-0.399,0.07l-0.004-0.002c-0.117-0.091-0.134-0.265-0.04-0.386
	l1.22-1.551c0.094-0.12,0.272-0.15,0.393-0.065l0.006,0.004c0.121,0.086,0.138,0.258,0.043,0.379L28.985,38.113z"/>
<path fill="#FFFFFF" d="M15.113,38.027c0.099,0.119,0.08,0.287-0.038,0.377l-0.003,0.004c-0.119,0.09-0.294,0.064-0.392-0.053
	l-1.255-1.533c-0.098-0.118-0.091-0.303,0.031-0.387l0.004-0.004c0.122-0.082,0.301-0.055,0.397,0.063L15.113,38.027z"/>
<g>
	<path fill="#FFFFFF" d="M19.554,56.35c-0.031,0.289,0.166,0.551,0.441,0.586l5.731,0.727c0.275,0.035,0.523-0.17,0.555-0.459
		l0.021-0.198c0.032-0.287-0.166-0.55-0.441-0.584l-5.731-0.728c-0.275-0.033-0.523,0.171-0.555,0.461L19.554,56.35z"/>
	<path fill="#FFFFFF" d="M19.47,54.878c-0.032,0.286,0.165,0.547,0.44,0.581l5.732,0.729c0.274,0.035,0.523-0.172,0.554-0.457
		l0.023-0.199c0.032-0.288-0.166-0.549-0.441-0.584l-5.731-0.727c-0.275-0.035-0.523,0.172-0.555,0.459L19.47,54.878z"/>
	<path fill="#FFFFFF" d="M19.386,53.402c-0.032,0.289,0.165,0.553,0.441,0.586l5.731,0.726c0.274,0.035,0.523-0.171,0.555-0.458
		l0.021-0.197c0.032-0.289-0.166-0.551-0.44-0.584l-5.732-0.729c-0.274-0.033-0.523,0.171-0.555,0.46L19.386,53.402z"/>
</g>
<path fill="#FFFFFF" d="M11.16,45.051c0.329,0.153,0.604,0.399,0.91,0.594c0.013,0.022,0.025,0.047,0.039,0.069
	c0.097,0.101,0.068,0.249,0.122,0.366c0.034,0.186,0.085,0.363,0.177,0.525c0.08,0.069,0.072,0.18,0.113,0.266l-0.002-0.002
	c0.107,0.051,0.137,0.14,0.107,0.257c0.07,0.248,0.208,0.463,0.322,0.688c0.081,0.039,0.073,0.138,0.116,0.203
	c0.056,0.154,0.144,0.291,0.233,0.424c0.058,0.067,0.125,0.132,0.151,0.227c0.16,0.301,0.359,0.571,0.578,0.826
	c0.065,0.053,0.105,0.132,0.163,0.193c0.125,0.047,0.096,0.235,0.224,0.278c0.136,0.146,0.275,0.287,0.405,0.44
	c0.027,0.027,0.052,0.057,0.079,0.085c0.065,0.048,0.12,0.108,0.166,0.178c0.123,0.104,0.186,0.296,0.38,0.295
	c0.085,0.091,0.17,0.183,0.256,0.275c0.531,0.417,1.06,0.823,1.668,1.118c0.301,0.146,0.593,0.322,0.909,0.444
	c0.098,0.007,0.168,0.093,0.266,0.104c0.063,0.036,0.126,0.073,0.189,0.11c-0.051,0.166-0.183,0.063-0.275,0.094
	c-0.041-0.002-0.081-0.002-0.12-0.017c-0.125-0.071-0.266-0.009-0.395-0.058c-0.091-0.025-0.192,0.031-0.278-0.038l0.003,0.005
	c-0.092-0.063-0.207,0.018-0.297-0.054l0.003,0.001c-0.093-0.063-0.207,0.019-0.298-0.053c-0.179-0.016-0.357-0.033-0.524-0.106
	c-0.357-0.037-0.694-0.166-1.04-0.257c-0.293-0.043-0.563-0.193-0.858-0.217c-0.089-0.092-0.218-0.088-0.317-0.158
	c-0.258-0.088-0.517-0.178-0.775-0.266c-0.02-0.008-0.041-0.014-0.06-0.021c-0.091-0.058-0.199-0.069-0.287-0.131
	c-0.019-0.017-0.037-0.032-0.055-0.05c-0.073-0.051-0.162-0.063-0.237-0.104c-0.15-0.069-0.299-0.142-0.449-0.211
	c-0.176-0.089-0.349-0.183-0.528-0.263c-0.122-0.036-0.208-0.151-0.338-0.168c-0.02-0.006-0.038-0.016-0.055-0.025
	c-0.05-0.036-0.086-0.091-0.145-0.117c-0.179-0.105-0.357-0.214-0.535-0.32c-0.11-0.074-0.223-0.148-0.345-0.202
	c-0.146-0.048-0.214-0.207-0.35-0.271c-0.093-0.071-0.193-0.131-0.285-0.204c-0.163-0.123-0.325-0.246-0.487-0.371
	c-0.071-0.048-0.129-0.111-0.198-0.16c-0.243-0.209-0.487-0.42-0.73-0.629c-0.064-0.074-0.112-0.162-0.199-0.209
	c-0.095-0.09-0.19-0.18-0.285-0.267c-0.06-0.08-0.126-0.153-0.202-0.215c-0.054-0.067-0.106-0.136-0.16-0.202
	c-0.068-0.061-0.131-0.126-0.184-0.201c-0.08-0.091-0.159-0.182-0.24-0.27c-0.06-0.092-0.135-0.168-0.2-0.254
	c-0.079-0.094-0.157-0.187-0.234-0.277c-0.061-0.039-0.147-0.055-0.136-0.163c-0.46-0.637-0.898-1.291-1.281-1.979
	c-0.292-0.525-0.583-1.056-0.787-1.631c-0.055-0.117-0.093-0.242-0.152-0.355c-0.063-0.161-0.126-0.323-0.189-0.484
	c-0.049-0.082-0.066-0.183-0.098-0.271l0.003,0.005c-0.054-0.093-0.079-0.202-0.151-0.284c0-0.273-0.181-0.496-0.205-0.764
	c-0.023-0.09-0.071-0.168-0.07-0.266c-0.004-0.061-0.001-0.113,0.075-0.103c0.08,0.077,0.159,0.151,0.236,0.229
	c0.081,0.004,0.115,0.062,0.132,0.137c0.116,0.13,0.225,0.267,0.364,0.369c0.318,0.47,0.76,0.793,1.182,1.135
	c0.505,0.412,1.026,0.804,1.584,1.131c0.321,0.188,0.629,0.408,0.985,0.523c0.158,0.056,0.311,0.127,0.448,0.229
	c0.189,0.104,0.38,0.197,0.589,0.24c0.145,0.061,0.312,0.063,0.438,0.177c0.266,0.118,0.541,0.205,0.827,0.246
	c0.131,0.054,0.276-0.007,0.406,0.062C11.024,44.984,11.117,44.97,11.16,45.051z"/>
<path fill="#FFFFFF" d="M13.049,22.428c-0.044-0.036-0.089-0.073-0.135-0.11c-0.095-0.042-0.165-0.112-0.205-0.215
	c-0.021-0.032-0.042-0.063-0.064-0.093c-0.119-0.112-0.231-0.228-0.33-0.36c-0.196-0.229-0.391-0.46-0.586-0.691
	c-0.046-0.07-0.097-0.137-0.147-0.204c-0.08-0.107-0.161-0.213-0.24-0.321c-0.045-0.095-0.147-0.137-0.193-0.232
	c-0.213-0.362-0.432-0.721-0.638-1.089c-0.346-0.617-0.657-1.252-0.882-1.933c-0.041-0.086-0.064-0.182-0.093-0.271l0.003,0.004
	c-0.083-0.138-0.098-0.305-0.155-0.454c-0.067-0.212-0.157-0.419-0.188-0.644C9.093,15.452,9,15.086,8.949,14.709
	c-0.077-0.093-0.027-0.21-0.054-0.313c-0.052-0.066,0-0.158-0.043-0.225c-0.003-0.03-0.005-0.06-0.007-0.09
	c-0.05-0.087,0.003-0.194-0.042-0.28c0.011-0.012,0.01-0.024-0.003-0.034c-0.15-0.945-0.141-1.9-0.111-2.854
	c0.007-0.214-0.004-0.447,0.068-0.662l-0.003,0.004c0.055-0.101-0.015-0.221,0.046-0.322v0.004c0.153-0.125,0.264,0.005,0.384,0.077
	c0.212,0.071,0.401,0.205,0.625,0.243c0.086,0.035,0.184,0.043,0.256,0.115l-0.004-0.005c0.074,0.02,0.154,0.03,0.201,0.111
	c0.451,0.241,0.902,0.484,1.353,0.727c0.093,0.043,0.194,0.077,0.261,0.168c0.124,0.09,0.234,0.206,0.386,0.248
	c0.108,0.061,0.218,0.118,0.299,0.219c0.373,0.294,0.745,0.588,1.118,0.884c0.079,0.041,0.146,0.099,0.2,0.171
	c0.021,0.043,0.049,0.08,0.097,0.089c0.097,0.06,0.174,0.142,0.245,0.229c0.055,0.078,0.114,0.147,0.197,0.188
	c0.132,0.091,0.232,0.218,0.341,0.338c0.174,0.185,0.348,0.374,0.523,0.56c0.11,0.115,0.229,0.224,0.313,0.365
	c0.054,0.108,0.136,0.188,0.222,0.266c0.078,0.049,0.122,0.131,0.169,0.209c0.038,0.113,0.142,0.166,0.203,0.255
	c0.085,0.058,0.167,0.117,0.182,0.236c0.007,0.094,0.079,0.135,0.134,0.191c0.066,0.056,0.126,0.119,0.158,0.207
	c0.099,0.217,0.25,0.391,0.386,0.578c0.063,0.066,0.129,0.131,0.155,0.225c0.052,0.153,0.145,0.279,0.239,0.404
	c0.08,0.067,0.12,0.161,0.158,0.257c0.208,0.37,0.416,0.739,0.625,1.108c0.079,0.066,0.091,0.181,0.158,0.256
	c0.14,0.302,0.279,0.6,0.417,0.9c0.088,0.045,0.086,0.141,0.114,0.222c0.065,0.152,0.107,0.317,0.207,0.454
	c0.088,0.174,0.18,0.345,0.236,0.536c0.042,0.192,0.134,0.357,0.234,0.518c0.102,0.104,0.132,0.254,0.204,0.377
	c0.253,0.515,0.583,0.973,0.945,1.403c0.255,0.301,0.522,0.59,0.817,0.85c0.184-0.013,0.221,0.189,0.339,0.273
	c0.234,0.222,0.487,0.415,0.766,0.566c0.159,0.052,0.282,0.164,0.408,0.273c0.136,0.104,0.27,0.214,0.439,0.248
	c0.135,0.066,0.285,0.101,0.392,0.224c0.154,0.102,0.308,0.201,0.485,0.25c0.108,0.037,0.223,0.069,0.297,0.174
	c0.175,0.104,0.336,0.238,0.531,0.298c0.07,0.034,0.156,0.032,0.201,0.116l-0.004-0.005c0.087,0.047,0.184,0.08,0.252,0.163
	c0.104,0.082,0.207,0.161,0.333,0.2c0.102,0.025,0.189,0.08,0.252,0.17c0.123,0.094,0.236,0.206,0.386,0.249
	c0.081,0.063,0.191,0.076,0.248,0.178c0.151,0.084,0.254,0.249,0.426,0.297c0.088,0.028,0.149,0.099,0.211,0.167
	c0.176,0.136,0.353,0.274,0.53,0.411c0.08,0.038,0.146,0.098,0.202,0.17c0.059,0.092,0.142,0.152,0.235,0.197
	c0.107,0.046,0.177,0.142,0.253,0.225c0.06,0.073,0.113,0.153,0.201,0.188c0.104,0.046,0.218,0.077,0.24,0.221
	c0.069,0.099,0.144,0.194,0.249,0.251c0.106,0.084,0.204,0.179,0.288,0.29c0.075,0.082,0.15,0.16,0.225,0.243
	c0.09,0.069,0.155,0.163,0.22,0.257c0.041,0.093,0.108,0.159,0.188,0.211c0.174,0.047,0.228,0.235,0.353,0.339
	c1.232,1.597,2.147,3.379,2.735,5.354c0.124,0.502,0.283,0.996,0.373,1.509c0.198,1.018,0.334,2.042,0.392,3.083
	c0.034,0.594,0.043,1.186,0.038,1.779c-0.015,1.465-0.29,2.875-0.838,4.222c-0.056,0.138-0.152,0.245-0.218,0.379
	c0.02,0.056-0.038,0.073-0.05,0.114c-0.055,0.119-0.12,0.229-0.202,0.328c-0.095,0.127-0.173,0.267-0.232,0.416
	c-0.06,0.112-0.108,0.233-0.206,0.318c-0.127,0.113-0.178,0.283-0.285,0.412c-0.037,0.086-0.09,0.158-0.162,0.216
	c-0.054,0.043-0.107,0.085-0.129,0.156c-0.057,0.103-0.131,0.188-0.217,0.263c-0.189,0.204-0.379,0.408-0.57,0.61
	c-0.071,0.093-0.146,0.179-0.25,0.231c-0.113,0.1-0.225,0.197-0.337,0.299c-0.054,0.076-0.121,0.135-0.203,0.174
	c-0.111,0.084-0.222,0.168-0.334,0.253c-0.062,0.067-0.122,0.14-0.213,0.164c-0.417,0.268-0.833,0.532-1.25,0.799
	c-0.126,0.082-0.258,0.149-0.396,0.204c-0.047,0.02-0.094,0.038-0.141,0.055c-0.056,0.024-0.118,0.068-0.143-0.038
	c0.317-0.262,0.636-0.518,0.95-0.782c0.144-0.121,0.276-0.256,0.413-0.385c0.124-0.088,0.215-0.214,0.327-0.316
	c0.037-0.041,0.076-0.082,0.113-0.119c0.095-0.121,0.214-0.219,0.296-0.352c0.05-0.066,0.099-0.133,0.149-0.201
	c0.066-0.068,0.145-0.129,0.19-0.22c0.461-0.581,0.84-1.221,1.172-1.892c0.077-0.092,0.099-0.213,0.155-0.316
	c0.039-0.14,0.14-0.255,0.143-0.41c0.106-0.164,0.167-0.352,0.241-0.533c0.052-0.266,0.215-0.495,0.209-0.776
	c0.004-0.024,0.011-0.05,0.02-0.075c0.118-0.223,0.132-0.48,0.212-0.72v-0.001c0.062-0.098-0.018-0.223,0.052-0.317
	c0.005-0.086-0.017-0.178,0.048-0.249c0.054-0.104-0.015-0.225,0.045-0.326c0.013-0.013,0.015-0.025,0.005-0.041
	c0.057-0.14-0.021-0.295,0.047-0.434c0.014-0.009,0.015-0.023,0.002-0.037c0.033-0.643,0.033-1.285,0-1.928
	c-0.002-0.046-0.005-0.089-0.007-0.135c-0.052-0.104,0.011-0.226-0.042-0.327c0.009-0.017,0.008-0.028-0.006-0.041
	c-0.051-0.082,0.008-0.187-0.043-0.271c0.008-0.017,0.006-0.031-0.005-0.043c-0.027-0.09-0.049-0.178-0.111-0.246
	c-0.061-0.154-0.105-0.313-0.059-0.481c-0.02-0.271-0.103-0.528-0.171-0.786c-0.08-0.247-0.159-0.496-0.239-0.743
	c-0.043-0.085-0.079-0.175-0.095-0.271l0.001,0.003c-0.061-0.069-0.055-0.175-0.108-0.246c-0.063-0.146-0.125-0.288-0.188-0.433
	c-0.045-0.064-0.05-0.154-0.105-0.213c-0.333-0.674-0.703-1.316-1.176-1.888c-0.052-0.049-0.135-0.065-0.131-0.165
	c-0.086-0.166-0.205-0.304-0.345-0.417c-0.074-0.03-0.125-0.084-0.154-0.166c-0.368-0.466-0.827-0.823-1.273-1.196
	c-0.07-0.044-0.124-0.113-0.196-0.151c-0.376-0.224-0.702-0.543-1.119-0.688c-0.107-0.13-0.267-0.163-0.396-0.253
	c-0.194-0.063-0.365-0.201-0.573-0.222c-0.124-0.136-0.296-0.152-0.453-0.202c-0.256-0.11-0.517-0.198-0.784-0.266
	c-0.401-0.118-0.81-0.193-1.22-0.27l0.004,0.001c-0.127-0.063-0.271,0.024-0.397-0.05c-0.024,0-0.049-0.002-0.074-0.002
	c-0.233-0.063-0.475,0.021-0.708-0.047c-0.113-0.023-0.228-0.023-0.342,0c-0.232,0.067-0.474-0.016-0.707,0.047
	c-0.026,0-0.05,0.002-0.076,0.002c-0.126,0.072-0.27-0.011-0.398,0.05l0.005-0.003c-0.368,0.079-0.742,0.126-1.104,0.239
	c-0.058,0.017-0.112-0.007-0.168-0.018c-0.761-0.158-1.533-0.159-2.302-0.125c-0.458,0.021-0.914,0.1-1.369,0.173l-0.022-0.005
	l-0.02,0.013c-0.046,0.038-0.101,0.025-0.151,0.035c-0.218,0.098-0.472,0.032-0.681,0.173c-0.16,0.042-0.316,0.098-0.47,0.16
	c-0.059,0.024-0.118,0.069-0.157-0.028c0-0.072-0.001-0.144-0.002-0.216c0.025-0.223,0.027-0.454,0.148-0.654
	c0.101-0.23,0.215-0.452,0.385-0.635c0.067-0.098,0.147-0.181,0.235-0.254c0.078-0.077,0.121-0.123-0.009-0.219
	c-0.165-0.119-0.278-0.307-0.27-0.539c0.005-0.127-0.07-0.182-0.148-0.241c-0.156-0.083-0.325-0.118-0.493-0.158L14.351,29.4
	l-0.017,0.008c-0.209-0.036-0.417-0.034-0.625,0l-0.014-0.011l-0.013,0.011c-0.312,0.047-0.606,0.161-0.903,0.261
	c-0.171,0.092-0.365,0.132-0.515,0.269c-0.104,0.057-0.171,0.053-0.144-0.104l-0.001,0.002c0.054-0.06,0.059-0.146,0.102-0.213
	c0.08-0.141,0.158-0.284,0.238-0.426c0.052-0.065,0.1-0.134,0.151-0.2l-0.001,0.002c0.06-0.127,0.176-0.204,0.245-0.322
	c0.032-0.032,0.063-0.066,0.093-0.098c0.064-0.052,0.128-0.105,0.188-0.163c0.198-0.14,0.397-0.282,0.595-0.422
	c0.169-0.056,0.314-0.18,0.497-0.205c0.192-0.053,0.385-0.108,0.578-0.163c0.077-0.054,0.173,0.009,0.25-0.046l-0.004,0.003
	c0.295-0.072,0.595-0.041,0.891-0.026c0.509,0.026,0.99-0.104,1.475-0.237c0.193-0.059,0.39-0.104,0.566-0.214
	c0.082-0.043,0.166-0.072,0.253-0.098l-0.004,0.004c0.064-0.069,0.163-0.061,0.234-0.118c0.107-0.076,0.249-0.063,0.348-0.163
	c0.098-0.027,0.196-0.038,0.293,0.007c0.149,0.074,0.303,0.118,0.468,0.11c0.321,0.067,0.642,0.133,0.944,0.277
	c0.22,0.083,0.442,0.159,0.675,0.196c0.203,0.064,0.417,0.092,0.596,0.223c0.173,0.081,0.35,0.154,0.538,0.192
	c0.219,0.072,0.438,0.148,0.635,0.278c0.183,0.102,0.365,0.204,0.567,0.252c0.152,0.041,0.293,0.104,0.411,0.216
	c0.122,0.086,0.244,0.171,0.393,0.197c0.132,0.071,0.284,0.101,0.389,0.228c0.173,0.104,0.331,0.234,0.522,0.305
	c0.093,0.048,0.197,0.075,0.26,0.175c0.536,0.35,1.044,0.748,1.559,1.135c0.081,0.031,0.133,0.11,0.207,0.151
	c0.64,0.627,1.306,1.223,1.886,1.917c0.213,0.254,0.422,0.512,0.633,0.77c0.097,0.078,0.197,0.149,0.247,0.276
	c0.021,0.017,0.012,0.059,0.047,0.063c-0.026-0.021-0.033-0.056-0.05-0.082c-0.066-0.092-0.088-0.202-0.122-0.309
	c-0.017-0.038-0.033-0.076-0.05-0.114c-0.077-0.115-0.113-0.257-0.194-0.368c-0.197-0.362-0.405-0.714-0.637-1.05
	c-0.042-0.076-0.099-0.137-0.146-0.207c-0.015-0.019-0.03-0.037-0.044-0.055c-0.05-0.069-0.099-0.137-0.152-0.203
	c-0.031-0.037-0.063-0.074-0.096-0.113c-0.068-0.115-0.171-0.198-0.246-0.307c-0.201-0.213-0.4-0.426-0.6-0.638
	c-0.057-0.059-0.119-0.112-0.183-0.16c-0.035-0.035-0.07-0.068-0.104-0.103c-0.063-0.054-0.121-0.112-0.188-0.157
	c-0.083-0.04-0.12-0.158-0.227-0.163c-0.077-0.061-0.122-0.16-0.214-0.2c-0.117-0.089-0.233-0.177-0.35-0.267
	c-0.076-0.058-0.165-0.093-0.236-0.157c-0.161-0.082-0.292-0.223-0.47-0.269c-0.107-0.106-0.234-0.177-0.36-0.25
	c-0.134-0.074-0.268-0.145-0.401-0.217c-0.146-0.07-0.287-0.15-0.433-0.218c-0.188-0.085-0.375-0.174-0.562-0.26
	c-0.14-0.046-0.285-0.078-0.41-0.165l0.005,0.005c-0.086-0.023-0.169-0.059-0.253-0.092c-0.216-0.071-0.432-0.143-0.648-0.214
	c-0.243-0.065-0.482-0.142-0.723-0.216c-0.308-0.085-0.617-0.171-0.925-0.256c-0.164-0.055-0.329-0.104-0.492-0.162
	c-0.309-0.104-0.618-0.207-0.927-0.31c-0.179-0.074-0.362-0.132-0.54-0.212c-0.213-0.086-0.427-0.174-0.641-0.262
	c-0.158-0.079-0.328-0.126-0.482-0.213c-0.149-0.07-0.296-0.138-0.444-0.208c-0.182-0.083-0.355-0.185-0.535-0.271
	c-0.09-0.052-0.18-0.104-0.269-0.155c-0.128-0.05-0.242-0.132-0.365-0.195c-0.685-0.368-1.324-0.815-1.949-1.289
	c-0.024-0.019-0.057-0.025-0.085-0.039c-0.078-0.058-0.121-0.158-0.215-0.198c-0.263-0.229-0.527-0.458-0.79-0.687
	C13.233,22.611,13.159,22.499,13.049,22.428z"/>
<path fill="#FFFFFF" d="M14.182,30.049c-0.071,0.054-0.149,0.088-0.24,0.084C14.005,30.06,14.086,30.033,14.182,30.049z"/>
<path fill="#FFFFFF" d="M14.399,29.949c-0.055,0.077-0.138,0.091-0.222,0.104C14.223,29.963,14.308,29.952,14.399,29.949z"/>
<path fill="#FFFFFF" d="M13.126,30.761c0.008-0.211-0.023-0.422,0.099-0.621c0.197-0.324,0.548-0.457,0.922-0.319
	c0.3,0.11,0.543,0.539,0.492,0.864c-0.062,0.388-0.38,0.692-0.722,0.712c-0.229,0.014-0.42-0.063-0.592-0.215
	c-0.082-0.066-0.143-0.149-0.178-0.252C13.13,30.875,13.173,30.811,13.126,30.761z"/>
<path fill="#FFFFFF" d="M13.093,31.248c0.034,0.065,0.068,0.135,0.106,0.198c0.073,0.121,0.204,0.209,0.002,0.364
	c-0.133,0.103-0.059,0.3,0.052,0.422c0.099,0.109,0.069,0.152-0.035,0.231c-0.116,0.086-0.151,0.049-0.221-0.055
	c-0.329-0.497-0.666-0.988-1.007-1.475c-0.058-0.083-0.105-0.15,0.013-0.193c0.068-0.026,0.13-0.224,0.231-0.021
	c0.069,0.137,0.147,0.271,0.331,0.087c0.115-0.117,0.223,0.056,0.322,0.129c0.042,0.015,0.069,0.047,0.09,0.085
	C13.01,31.099,13.088,31.15,13.093,31.248z"/>
<path fill="#FFFFFF" d="M33.821,37.563c0.198-0.354,0.318-0.748,0.479-1.121c0.016-0.082,0.08-0.133,0.111-0.205
	c0.045-0.092,0.097-0.18,0.178-0.238c0.442-0.644,0.809-1.333,1.18-2.023c0.049-0.137,0.12-0.262,0.183-0.391
	c0.1-0.229,0.199-0.457,0.299-0.687c0.053-0.119,0.098-0.244,0.151-0.365c0.08-0.209,0.159-0.419,0.239-0.628
	c0.135-0.008,0.037,0.131,0.095,0.171c-0.006,0.194,0.036,0.381,0.098,0.562c0.127,0.781,0.248,1.563,0.224,2.359
	c-0.002,0.077-0.016,0.156,0.019,0.23c0,0.303,0,0.606,0,0.908c-0.043,0.197-0.012,0.397-0.02,0.595
	c-0.018,0.465-0.056,0.928-0.14,1.383c-0.021,0.117,0.032,0.244-0.04,0.354l0.003-0.008c-0.049,0.083,0.014,0.189-0.047,0.273
	c-0.07,0.268-0.131,0.539-0.149,0.816c-0.059,0.289-0.085,0.587-0.214,0.854c-0.076,0.293-0.151,0.586-0.226,0.882
	c-0.072,0.194-0.098,0.407-0.205,0.589c-0.103,0.213-0.174,0.438-0.235,0.668c-0.033,0.095-0.035,0.204-0.116,0.275
	c-0.266,0.578-0.508,1.172-0.813,1.729c-0.373,0.684-0.753,1.363-1.219,1.979c-0.023,0.033-0.036,0.074-0.052,0.111
	c-0.031,0.096-0.088,0.168-0.165,0.225c-0.059,0.062-0.12,0.125-0.179,0.187c0.115-0.308,0.233-0.61,0.346-0.92
	c0.539-1.481,0.678-3.032,0.64-4.61C34.212,40.186,34.061,38.868,33.821,37.563z"/>
<path fill="#FFFFFF" d="M33.402,36.382c-0.211-0.563-0.407-1.133-0.633-1.688c-0.448-1.106-1.026-2.13-1.721-3.077
	c-0.131-0.179-0.253-0.36-0.38-0.542c-0.067-0.152-0.176-0.285-0.203-0.458c-0.049-0.093-0.099-0.184-0.148-0.276
	c-0.049-0.087-0.093-0.18-0.136-0.271l0.003,0.001c-0.085-0.057-0.112-0.158-0.156-0.247c-0.066-0.108-0.131-0.216-0.197-0.323
	c-0.042-0.074-0.098-0.137-0.145-0.208c-0.017-0.018-0.032-0.037-0.049-0.055c-0.045-0.072-0.1-0.138-0.147-0.208l-0.001-0.001
	c-0.1-0.061-0.199-0.126-0.264-0.227c-0.176-0.277-0.444-0.447-0.665-0.669c-0.053-0.052-0.106-0.104-0.159-0.154
	c-0.115-0.037-0.184-0.146-0.281-0.211c-0.116-0.086-0.232-0.175-0.35-0.262c-0.133-0.076-0.246-0.188-0.383-0.258
	c-0.135-0.089-0.271-0.178-0.406-0.266c-0.057-0.042-0.126-0.056-0.182-0.102c-0.146-0.089-0.292-0.178-0.437-0.266
	c-0.148-0.057-0.262-0.173-0.394-0.258c-0.132-0.088-0.265-0.178-0.397-0.269c-0.094-0.069-0.192-0.131-0.287-0.201
	c-0.099-0.074-0.199-0.146-0.299-0.217c-0.131-0.06-0.223-0.177-0.337-0.262c-0.103-0.088-0.206-0.176-0.308-0.263
	c-0.064-0.084-0.198-0.075-0.231-0.202c-0.1-0.089-0.201-0.18-0.3-0.271c-0.082-0.07-0.151-0.151-0.237-0.215
	c-0.292-0.313-0.583-0.626-0.874-0.939c-0.084-0.172-0.293-0.226-0.347-0.426c-0.066-0.087-0.132-0.173-0.197-0.258
	c-0.058-0.131-0.204-0.191-0.237-0.342c-0.084-0.114-0.168-0.228-0.253-0.342c-0.041-0.076-0.104-0.137-0.146-0.214
	c-0.26-0.436-0.519-0.873-0.779-1.308c-0.063-0.079-0.087-0.183-0.149-0.264c-0.194-0.402-0.387-0.805-0.581-1.205
	c-0.074-0.194-0.171-0.379-0.249-0.571c-0.017-0.02-0.031-0.041-0.048-0.059c-0.066-0.057-0.076-0.141-0.094-0.222
	c-0.017-0.066-0.033-0.132-0.05-0.197c-0.045-0.086-0.063-0.181-0.095-0.271l0.002,0.004c-0.052-0.09-0.074-0.203-0.15-0.278
	c-0.024-0.294-0.193-0.539-0.248-0.82c-0.083-0.199-0.128-0.413-0.198-0.616c-0.095-0.285-0.19-0.569-0.285-0.854
	c-0.053-0.09-0.063-0.208-0.15-0.275c-0.028-0.232-0.182-0.406-0.249-0.619c-0.057-0.082-0.082-0.182-0.145-0.259
	c-0.206-0.366-0.423-0.721-0.677-1.051c-0.054-0.089-0.134-0.15-0.198-0.231c-0.019-0.077-0.065-0.137-0.118-0.19
	c-0.082-0.068-0.141-0.169-0.243-0.215c-0.04-0.022-0.072-0.053-0.072-0.107c-0.308-0.396-0.682-0.713-1.046-1.043
	c-0.063-0.051-0.118-0.114-0.188-0.154c-0.135-0.078-0.234-0.213-0.384-0.268c-0.057-0.107-0.166-0.143-0.252-0.21
	c-0.127-0.085-0.256-0.174-0.385-0.26c-0.078-0.06-0.17-0.098-0.25-0.156c-0.042-0.009-0.075-0.029-0.088-0.075
	c-0.046-0.167,0.072-0.116,0.143-0.129c0.145,0.037,0.298,0.03,0.429,0.124c0.304,0.082,0.608,0.162,0.912,0.244
	c0.224,0.055,0.446,0.117,0.652,0.229c0.179,0.062,0.358,0.125,0.538,0.188c0.184,0.063,0.375,0.108,0.538,0.23
	c0.185,0.098,0.375,0.189,0.577,0.245c0.159,0.055,0.313,0.123,0.45,0.228c0.16,0.087,0.31,0.197,0.489,0.242
	c0.134,0.065,0.285,0.104,0.392,0.223c0.115,0.088,0.235,0.163,0.373,0.203c0.095,0.043,0.197,0.075,0.262,0.172
	c0.182,0.115,0.363,0.231,0.545,0.344c0.061,0.049,0.155,0.037,0.188,0.132c0.628,0.425,1.21,0.92,1.804,1.396
	c0.079,0.042,0.15,0.097,0.2,0.178c0.031,0.028,0.061,0.056,0.091,0.085c0.124,0.065,0.209,0.177,0.3,0.281
	c0.08,0.08,0.162,0.161,0.243,0.242c0.307,0.267,0.584,0.568,0.836,0.896c0.058,0.104,0.136,0.189,0.223,0.262
	c0.086,0.076,0.164,0.159,0.217,0.265c0.353,0.488,0.708,0.977,1.063,1.466c0.1,0.083,0.148,0.206,0.207,0.32
	c0.256,0.454,0.512,0.908,0.768,1.362c0.081,0.042,0.076,0.139,0.114,0.209c0.074,0.159,0.147,0.315,0.221,0.474
	c0.105,0.14,0.15,0.312,0.221,0.47c0.021,0.157,0.106,0.285,0.171,0.423c0.125,0.149,0.144,0.351,0.22,0.522
	c0.048,0.206,0.123,0.397,0.223,0.58c0.097,0.146,0.158,0.311,0.214,0.478c0.309,0.791,0.67,1.555,1.177,2.22
	c1.499,1.964,2.583,4.17,3.375,6.551c0.305,0.914,0.536,1.852,0.69,2.809c0.044,0.044,0.078,0.094,0.093,0.158
	c0.093,0.514,0.148,1.035,0.165,1.56C33.478,36.155,33.494,36.284,33.402,36.382z"/>
<path fill="#FFFFFF" d="M6.845,40.339c-0.118-0.226-0.237-0.448-0.356-0.674c-0.057-0.09-0.102-0.185-0.142-0.282
	c-0.292-0.505-0.512-1.046-0.693-1.607c-0.055-0.164-0.106-0.327-0.192-0.478c-0.005-0.26-0.113-0.495-0.168-0.741
	c-0.015-0.066-0.011-0.135-0.027-0.199c-0.341-1.559-0.308-3.115-0.002-4.672c0.053-0.245,0.097-0.492,0.163-0.73
	c0.028-0.101,0.038-0.199,0.039-0.301c0.116-0.2,0.149-0.438,0.241-0.65c0.064-0.178,0.128-0.359,0.193-0.539
	c0.04-0.141,0.093-0.275,0.153-0.406c0.063-0.255,0.243-0.455,0.292-0.716c0.079-0.144,0.165-0.286,0.231-0.438
	c0.01-0.015,0.016-0.029,0.017-0.047c0.103-0.054,0.121,0.022,0.131,0.101c0.012,0.098,0.003,0.2,0.006,0.3
	c-0.002,0.457,0,0.914,0.122,1.359c0.026,0.062,0.017,0.12-0.018,0.175c0.05,0.307,0.108,0.61,0.222,0.898
	c0.072,0.069,0.061,0.179,0.114,0.256c0.296,0.986,0.871,1.768,1.543,2.482c0.033,0.036,0.075,0.063,0.112,0.095
	c0.075,0.048,0.147,0.1,0.197,0.178c0.319,0.303,0.669,0.559,1.015,0.823c0.108,0.029,0.172,0.105,0.209,0.216
	c0.27,0.305,0.507,0.636,0.717,0.989c0.113,0.102,0.144,0.254,0.21,0.384c0.048,0.159,0.098,0.313,0.181,0.456
	c0.125,0.164,0.14,0.386,0.241,0.561c0.01,0.041,0,0.08-0.019,0.116c0.072,0.282,0.145,0.563,0.217,0.846
	c0.121,0.347,0.202,0.693-0.004,1.041c-0.106,0.345-0.179,0.695-0.215,1.056c0.027,0.043,0.032,0.088,0.016,0.137
	c-0.094,0.354-0.126,0.717-0.137,1.078c-0.025,0.789-0.021,1.58,0.093,2.367c0.007,0.045,0.025,0.084,0.046,0.121
	c0.03,0.063,0.021,0.123-0.016,0.182c0.041,0.443,0.179,0.867,0.271,1.3c-0.178,0.01-0.288-0.138-0.423-0.217
	c-0.176-0.104-0.34-0.23-0.509-0.347c-0.038-0.043-0.074-0.084-0.121-0.117c-0.077-0.077-0.189-0.11-0.245-0.215
	c-0.07-0.063-0.14-0.129-0.209-0.193c-0.06-0.057-0.129-0.105-0.186-0.168l0.005,0.005c-0.102-0.041-0.155-0.152-0.251-0.201
	c-0.406-0.372-0.813-0.741-1.181-1.157c-0.052-0.046-0.121-0.074-0.141-0.15c-0.096-0.108-0.191-0.215-0.286-0.32
	c-0.05-0.066-0.097-0.138-0.152-0.195c-0.081-0.093-0.161-0.186-0.242-0.277c-0.05-0.09-0.127-0.151-0.196-0.226
	c-0.115-0.171-0.231-0.34-0.347-0.511c-0.042-0.074-0.097-0.139-0.146-0.205c-0.079-0.111-0.157-0.227-0.236-0.339
	C6.876,40.521,6.855,40.436,6.845,40.339z"/>
<path fill="#FFFFFF" d="M8.478,25.488c-0.002-0.105-0.003-0.208-0.004-0.314c-0.057-0.103,0.008-0.223-0.044-0.326
	c-0.001-0.083-0.003-0.167-0.005-0.25c-0.054-0.083,0.008-0.188-0.045-0.273c-0.001-0.031-0.003-0.064-0.004-0.096
	c-0.053-0.082,0.009-0.183-0.045-0.265l0.001,0.003c-0.063-0.08,0.006-0.186-0.05-0.265l0.001,0.002
	c-0.072-0.268-0.101-0.547-0.203-0.808c-0.094-0.035-0.097-0.113-0.079-0.198c0.013-0.285-0.176-0.508-0.213-0.779
	C7.744,21.8,7.71,21.673,7.615,21.582c-0.053-0.055-0.047-0.132-0.063-0.202c-0.279-0.671-0.64-1.288-1.073-1.854
	c-0.055-0.073-0.105-0.152-0.157-0.228C6.3,19.249,6.25,19.202,6.276,19.143c0.018-0.039,0.062-0.037,0.097-0.004
	c0.016,0,0.029,0,0.045,0.001c0.176,0.045,0.335,0.127,0.488,0.23c0.442,0.205,0.864,0.458,1.26,0.743
	c0.521,0.377,0.998,0.823,1.375,1.376c0.255,0.376,0.428,0.791,0.578,1.223c0.208,0.512,0.152,1.053,0.118,1.585
	c-0.016,0.241-0.052,0.493-0.168,0.715c-0.091,0.264-0.183,0.527-0.273,0.79c-0.049,0.107-0.07,0.229-0.156,0.314
	c-0.081,0.154-0.16,0.31-0.24,0.465C9.38,26.673,9.339,26.75,9.262,26.8c-0.216,0.301-0.427,0.605-0.65,0.9
	c-0.056,0.074-0.09,0.22-0.233,0.16c0.051-0.082-0.007-0.186,0.043-0.27c0.002-0.084,0.005-0.172,0.006-0.256
	c0.054-0.102-0.011-0.22,0.043-0.321c0.002-0.14,0.004-0.28,0.006-0.418C8.493,26.227,8.522,25.856,8.478,25.488z"/>
<path fill="#FFFFFF" d="M33.478,36.434c0.023-0.56-0.071-1.106-0.128-1.66c-0.012-0.066,0.038-0.117,0.039-0.181
	c0.17-1.213,0.1-2.401-0.277-3.565c-0.264-0.817-0.671-1.55-1.094-2.27c-0.48-0.823-0.98-1.63-1.473-2.442
	c-0.283-0.469-0.492-0.979-0.688-1.496c-0.081-0.172-0.121-0.359-0.166-0.545c-0.08-0.263-0.163-0.525-0.203-0.802
	c-0.067-0.251-0.116-0.51-0.156-0.769c-0.069-0.216-0.095-0.444-0.126-0.671c-0.051-0.067,0.006-0.159-0.041-0.228v0.001
	c-0.081-0.389-0.14-0.783-0.201-1.176c-0.054-0.251-0.109-0.505-0.163-0.757c-0.049-0.194-0.11-0.386-0.163-0.581
	c-0.066-0.197-0.132-0.392-0.196-0.586c-0.054-0.137-0.114-0.268-0.167-0.404c-0.08-0.167-0.161-0.331-0.24-0.498
	c-0.051-0.066-0.066-0.159-0.125-0.22l0.005-0.008c-0.024-0.033-0.025-0.067,0.006-0.093c0.024-0.021,0.049-0.013,0.071,0.008
	c0.109,0.096,0.231,0.163,0.359,0.224c0.08,0.028,0.15,0.071,0.203,0.146c0.616,0.438,1.194,0.935,1.769,1.432
	c0.066,0.038,0.125,0.084,0.167,0.153c0.047,0.063,0.093,0.125,0.161,0.159c0.079,0.051,0.143,0.122,0.201,0.198
	c0.06,0.079,0.12,0.157,0.203,0.208c0.276,0.264,0.534,0.548,0.769,0.859c0.047,0.09,0.117,0.158,0.188,0.223
	c0.077,0.085,0.163,0.164,0.215,0.274c0.614,0.815,1.166,1.681,1.64,2.605c0.069,0.037,0.067,0.12,0.096,0.184
	c0.041,0.161,0.113,0.305,0.195,0.445c0.084,0.107,0.128,0.237,0.166,0.371c0.075,0.208,0.151,0.413,0.227,0.623
	c0.086,0.104,0.092,0.246,0.136,0.371c0.037,0.229,0.12,0.443,0.186,0.662c0.101,0.217,0.133,0.454,0.178,0.687
	c0.022,0.224,0.057,0.446,0.127,0.66c0.042,0.07-0.007,0.157,0.037,0.228L35.211,28.2c0.159,1.028,0.229,2.06,0.149,3.105
	c-0.03,0.391-0.057,0.779-0.113,1.167l0.003-0.004c-0.044,0.086,0.013,0.19-0.038,0.276c-0.088,0.305-0.121,0.622-0.163,0.936
	c-0.036,0.199-0.038,0.409-0.139,0.591c-0.075,0.311-0.178,0.614-0.225,0.938c-0.036,0.141-0.046,0.292-0.135,0.412
	c-0.063,0.207-0.152,0.404-0.188,0.622c-0.023,0.112-0.021,0.231-0.084,0.331c-0.031,0.064-0.059,0.132-0.069,0.205
	c-0.087,0.268-0.194,0.525-0.295,0.783c-0.028,0.07-0.045,0.164-0.141,0.168C33.675,37.298,33.576,36.866,33.478,36.434z"/>
</svg>
