<?xml version="1.0" encoding="utf-8"?>
<!-- Generator: Adobe Illustrator 16.0.0, SVG Export Plug-In . SVG Version: 6.00 Build 0)  -->
<!DOCTYPE svg PUBLIC "-//W3C//DTD SVG 1.1//EN" "http://www.w3.org/Graphics/SVG/1.1/DTD/svg11.dtd">
<svg version="1.1" id="Layer_1" xmlns="http://www.w3.org/2000/svg" xmlns:xlink="http://www.w3.org/1999/xlink" x="0px" y="0px"
	 width="168.5px" height="75.5px" viewBox="-18.5 -26.5 168.5 75.5" enable-background="new -18.5 -26.5 168.5 75.5"
	 xml:space="preserve">
<g id="Background">
</g>
<g>
	<path fill="#FFFFFF" d="M46.823,15.882v10.822h-2.491V15.882H46.823z"/>
	<path fill="#FFFFFF" d="M47.442,19.205c0-0.464,0.086-0.895,0.263-1.299c0.173-0.401,0.41-0.751,0.71-1.05
		c0.3-0.3,0.649-0.537,1.05-0.711c0.404-0.176,0.835-0.263,1.3-0.263h1.67c0.464,0,0.896,0.087,1.297,0.263
		c0.404,0.174,0.753,0.412,1.054,0.711c0.299,0.298,0.534,0.648,0.709,1.05c0.177,0.404,0.263,0.835,0.263,1.299v7.5h-2.49v-7.5
		c0-0.227-0.078-0.422-0.24-0.589c-0.159-0.162-0.356-0.244-0.593-0.244h-1.67c-0.238,0-0.436,0.082-0.596,0.244
		c-0.159,0.167-0.237,0.363-0.237,0.589v7.5h-2.49V19.205z"/>
	<path fill="#FFFFFF" d="M58.868,15.882v10.822h-2.489V15.882H58.868z"/>
	<path fill="#FFFFFF" d="M66.984,18.387H64.48v8.317h-2.488v-8.317h-2.508v-2.505h7.5V18.387z"/>
	<path fill="#FFFFFF" d="M70.091,15.882v10.822h-2.487V15.882H70.091z"/>
	<path fill="#FFFFFF" d="M76.54,26.704l-1.669-6.216l-1.672,6.216h-2.488l2.893-10.822h0.03h2.474h0.028l2.895,10.822H76.54z"/>
	<path fill="#FFFFFF" d="M85.601,18.387h-2.506v8.317h-2.49v-8.317h-2.504v-2.505h7.5V18.387z"/>
	<path fill="#FFFFFF" d="M88.708,15.882v10.822h-2.49V15.882H88.708z"/>
	<path fill="#FFFFFF" d="M97.644,15.882l-2.889,10.822h-0.032H92.25h-0.031l-2.892-10.822h2.487l1.67,6.216l1.671-6.216H97.644z"/>
	<path fill="#FFFFFF" d="M113.879,20.304c0.401,0.176,0.75,0.415,1.051,0.717c0.299,0.306,0.537,0.658,0.71,1.06
		c0.176,0.403,0.263,0.835,0.263,1.299c0,0.465-0.087,0.896-0.263,1.299c-0.173,0.402-0.411,0.752-0.71,1.052
		c-0.301,0.3-0.649,0.536-1.051,0.709c-0.404,0.178-0.834,0.265-1.299,0.265h-4.993v-2.489h4.993
		c0.237-0.01,0.437-0.094,0.597-0.255c0.157-0.161,0.236-0.354,0.236-0.58c0-0.237-0.079-0.434-0.236-0.595
		c-0.16-0.16-0.359-0.24-0.597-0.24h-1.67c-0.463,0-0.898-0.086-1.299-0.263c-0.404-0.176-0.751-0.415-1.052-0.717
		c-0.298-0.306-0.535-0.657-0.713-1.06c-0.173-0.403-0.26-0.835-0.26-1.3c0-0.464,0.087-0.895,0.26-1.299
		c0.178-0.401,0.415-0.751,0.713-1.05c0.301-0.3,0.647-0.537,1.052-0.711c0.4-0.176,0.836-0.263,1.299-0.263h3.325v2.505h-3.325
		c-0.237,0-0.436,0.078-0.594,0.239c-0.16,0.158-0.24,0.352-0.24,0.579c0,0.239,0.08,0.434,0.24,0.596
		c0.158,0.158,0.356,0.24,0.594,0.24h1.67C113.045,20.041,113.475,20.127,113.879,20.304z"/>
</g>
<g>
	<path fill="#FFFFFF" d="M45.899,34.767c-0.126,0.127-0.189,0.279-0.189,0.458v0.656h4.585v1.969H45.71v3.272h-1.959v-5.897
		c0-0.367,0.071-0.707,0.209-1.022c0.136-0.318,0.322-0.594,0.559-0.828c0.233-0.235,0.51-0.421,0.828-0.561
		c0.314-0.138,0.657-0.206,1.021-0.206h3.929v1.97h-3.929C46.182,34.577,46.024,34.644,45.899,34.767z"/>
	<path fill="#FFFFFF" d="M55.064,32.607c0.364,0,0.705,0.068,1.023,0.206c0.314,0.14,0.588,0.325,0.827,0.561
		c0.232,0.234,0.42,0.51,0.556,0.828c0.139,0.315,0.208,0.655,0.208,1.022v3.282c0,0.365-0.069,0.707-0.208,1.023
		c-0.136,0.315-0.324,0.592-0.556,0.827c-0.239,0.234-0.513,0.419-0.827,0.56c-0.318,0.136-0.659,0.205-1.023,0.205h-1.313
		c-0.364,0-0.706-0.069-1.023-0.205c-0.314-0.141-0.592-0.325-0.828-0.56c-0.235-0.235-0.422-0.512-0.559-0.827
		c-0.136-0.316-0.206-0.658-0.206-1.023v-3.282c0-0.367,0.069-0.707,0.206-1.022c0.137-0.318,0.324-0.594,0.559-0.828
		c0.236-0.235,0.513-0.421,0.828-0.561c0.317-0.138,0.659-0.206,1.023-0.206H55.064z M55.72,35.225c0-0.179-0.063-0.331-0.188-0.458
		c-0.125-0.123-0.282-0.189-0.468-0.189h-1.313c-0.186,0-0.345,0.066-0.468,0.189c-0.127,0.127-0.188,0.279-0.188,0.458v3.282
		c0,0.179,0.061,0.334,0.188,0.462c0.123,0.13,0.282,0.195,0.468,0.195h1.313c0.186,0,0.343-0.065,0.468-0.195
		c0.125-0.128,0.188-0.283,0.188-0.462V35.225z"/>
	<path fill="#FFFFFF" d="M65.063,38.507c0,0.365-0.069,0.707-0.207,1.023c-0.14,0.315-0.326,0.592-0.562,0.827
		c-0.234,0.234-0.51,0.419-0.827,0.56c-0.314,0.136-0.655,0.205-1.02,0.205h-1.313c-0.366,0-0.706-0.069-1.023-0.205
		c-0.314-0.141-0.592-0.325-0.828-0.56c-0.235-0.235-0.419-0.512-0.559-0.827c-0.137-0.316-0.205-0.658-0.205-1.023v-5.899h1.956
		v5.899c0,0.179,0.063,0.334,0.19,0.462c0.124,0.13,0.28,0.195,0.469,0.195h1.313c0.186,0,0.342-0.065,0.469-0.195
		c0.126-0.128,0.187-0.283,0.187-0.462v-5.899h1.96V38.507z"/>
	<path fill="#FFFFFF" d="M65.899,35.225c0-0.367,0.07-0.707,0.208-1.022c0.14-0.318,0.326-0.594,0.56-0.828
		c0.236-0.235,0.511-0.421,0.827-0.561c0.317-0.138,0.658-0.206,1.021-0.206h1.314c0.364,0,0.705,0.068,1.021,0.206
		c0.316,0.14,0.592,0.325,0.827,0.561c0.234,0.234,0.424,0.51,0.56,0.828c0.139,0.315,0.205,0.655,0.205,1.022v5.897h-1.955v-5.897
		c0-0.179-0.066-0.335-0.189-0.464c-0.127-0.13-0.282-0.193-0.469-0.193h-1.314c-0.187,0-0.342,0.063-0.467,0.193
		c-0.128,0.129-0.19,0.285-0.19,0.464v5.897h-1.959V35.225z"/>
	<path fill="#FFFFFF" d="M79.827,38.507c0,0.365-0.066,0.707-0.205,1.023c-0.14,0.315-0.324,0.592-0.56,0.827
		c-0.235,0.234-0.51,0.419-0.828,0.56c-0.316,0.136-0.656,0.205-1.021,0.205h-1.971h-1.959v-8.515h1.959h1.971
		c0.364,0,0.704,0.068,1.021,0.206c0.318,0.14,0.593,0.325,0.828,0.561c0.235,0.234,0.42,0.51,0.56,0.828
		c0.139,0.315,0.205,0.655,0.205,1.022V38.507z M77.868,35.225c0-0.179-0.062-0.331-0.188-0.458
		c-0.123-0.123-0.28-0.189-0.466-0.189h-1.971v4.587h1.971c0.186,0,0.343-0.065,0.466-0.195c0.127-0.128,0.188-0.283,0.188-0.462
		V35.225z"/>
	<path fill="#FFFFFF" d="M85.254,41.122l-1.314-4.891l-1.313,4.891h-1.96l2.273-8.515h0.026h1.945h0.025l2.273,8.515H85.254z"/>
	<path fill="#FFFFFF" d="M92.734,34.577h-1.971v6.545h-1.96v-6.545h-1.968v-1.97h5.898V34.577z"/>
	<path fill="#FFFFFF" d="M95.531,32.607v8.515h-1.96v-8.515H95.531z"/>
	<path fill="#FFFFFF" d="M100.298,32.607c0.367,0,0.707,0.068,1.021,0.206c0.317,0.14,0.594,0.325,0.827,0.561
		c0.237,0.234,0.424,0.51,0.562,0.828c0.139,0.315,0.208,0.655,0.208,1.022v3.282c0,0.365-0.069,0.707-0.208,1.023
		c-0.138,0.315-0.324,0.592-0.562,0.827c-0.233,0.234-0.51,0.419-0.827,0.56c-0.313,0.136-0.653,0.205-1.021,0.205h-1.311
		c-0.368,0-0.708-0.069-1.022-0.205c-0.315-0.141-0.594-0.325-0.828-0.56c-0.237-0.235-0.424-0.512-0.561-0.827
		c-0.135-0.316-0.206-0.658-0.206-1.023v-3.282c0-0.367,0.071-0.707,0.206-1.022c0.137-0.318,0.323-0.594,0.561-0.828
		c0.234-0.235,0.513-0.421,0.828-0.561c0.314-0.138,0.654-0.206,1.022-0.206H100.298z M100.956,35.225
		c0-0.179-0.064-0.331-0.189-0.458c-0.124-0.123-0.282-0.189-0.469-0.189h-1.311c-0.189,0-0.346,0.066-0.471,0.189
		c-0.126,0.127-0.189,0.279-0.189,0.458v3.282c0,0.179,0.063,0.334,0.189,0.462c0.125,0.13,0.281,0.195,0.471,0.195h1.311
		c0.187,0,0.345-0.065,0.469-0.195c0.125-0.128,0.189-0.283,0.189-0.462V35.225z"/>
	<path fill="#FFFFFF" d="M103.752,35.225c0-0.367,0.068-0.707,0.209-1.022c0.139-0.318,0.323-0.594,0.558-0.828
		c0.237-0.235,0.51-0.421,0.827-0.561c0.318-0.138,0.658-0.206,1.021-0.206h1.318c0.362,0,0.705,0.068,1.019,0.206
		c0.317,0.14,0.59,0.325,0.827,0.561c0.234,0.234,0.421,0.51,0.558,0.828c0.139,0.315,0.209,0.655,0.209,1.022v5.897h-1.959v-5.897
		c0-0.179-0.064-0.335-0.186-0.464c-0.128-0.13-0.283-0.193-0.468-0.193h-1.318c-0.184,0-0.34,0.063-0.469,0.193
		c-0.122,0.129-0.187,0.285-0.187,0.464v5.897h-1.959V35.225z"/>
</g>
<g>
	<path fill="#FFFFFF" d="M51.209,3.708h-2.337v7.766h-2.325V3.708h-2.337V1.37h7V3.708z"/>
	<path fill="#FFFFFF" d="M59.549,1.37v10.104h-2.324V7.591H54.11v3.883h-2.323V1.37h2.323v3.884h3.115V1.37H59.549z"/>
	<path fill="#FFFFFF" d="M62.675,3.932c-0.149,0.15-0.223,0.331-0.223,0.542v0.78h5.44v2.337h-5.44v0.778
		c0,0.213,0.073,0.396,0.223,0.55s0.332,0.231,0.555,0.231h4.663v2.324h-4.663c-0.431,0-0.837-0.082-1.214-0.246
		c-0.373-0.164-0.7-0.386-0.981-0.664c-0.277-0.28-0.499-0.607-0.663-0.982s-0.246-0.779-0.246-1.213V4.474
		c0-0.434,0.082-0.837,0.246-1.212s0.386-0.703,0.663-0.981c0.281-0.278,0.608-0.5,0.981-0.664c0.377-0.163,0.783-0.246,1.214-0.246
		h4.663v2.338h-4.663C63.007,3.708,62.824,3.782,62.675,3.932z"/>
</g>
<rect x="101.217" y="15.882" fill="#FFFFFF" width="5.832" height="2.492"/>
<rect x="98.215" y="15.882" fill="#00F9FF" width="2.312" height="2.389"/>
<rect x="98.009" y="19.892" fill="#FFFFFF" width="9.04" height="2.789"/>
<rect x="101.217" y="24.161" fill="#FFFFFF" width="5.832" height="2.492"/>
<rect x="98.215" y="24.161" fill="#00F9FF" width="2.312" height="2.391"/>
<path fill="#00AAFF" d="M22.565,38.883l0.001-0.006c-0.015,0-0.029,0-0.047,0c-0.109-0.009-0.196-0.05-0.271-0.113l-0.007,0.041
	c-0.006,0-0.013-0.001-0.021-0.001c-0.004-0.003-0.008-0.003-0.014-0.005l-1.87-0.236c0.002-0.013,0.002-0.021,0.005-0.035
	c-0.021,0.014-0.045,0.021-0.075,0.022c-0.239,0.014-0.475-0.034-0.707-0.091l-0.608-0.079c-0.026,0.013-0.054,0.019-0.083,0.013
	c-0.104-0.013-0.207-0.03-0.308-0.062c-0.013-0.005-0.024-0.009-0.035-0.018c-0.001,0.004-0.001,0.009-0.001,0.012l-1.868-0.24
	c-0.014,0-0.025,0-0.038-0.003l0.007-0.039c-0.079,0.02-0.156,0.03-0.234,0.042c-0.043,0.005-0.079,0-0.107-0.018v0.009
	c-0.597,0.026-1.061,0.313-1.115,0.732c-0.052,0.409,0.329,0.81,0.892,0.986l-0.602,4.656L18.184,48l3.538-2.745l0.6-4.648
	c0.603-0.025,1.085-0.317,1.14-0.733C23.516,39.454,23.139,39.059,22.565,38.883z M18.239,47.559l-0.507-0.66l1.166,0.147
	L18.239,47.559z M19.23,46.789l-1.746-0.222c-0.001-0.003-0.004,0-0.004,0l-1.501-1.955l5.2,0.665L19.23,46.789z M15.812,44.29
	l0.573-4.417c0.013,0.003,0.025,0.004,0.04,0.007l1.117,0.146l-0.572,4.41L15.812,44.29z M17.297,44.478l0.57-4.411l1.158,0.149
	l-0.573,4.412L17.297,44.478z M18.78,44.669l0.57-4.411l1.158,0.147l-0.571,4.414L18.78,44.669z M21.42,45.01l-1.157-0.147
	l0.572-4.414l1.14,0.147c0.007,0,0.01,0,0.017,0L21.42,45.01z M22.38,40.304c-0.006,0-0.013,0-0.02,0.003
	c-0.054,0.002-0.109,0.006-0.166,0.006c-0.055-0.004-0.109-0.006-0.166-0.01C22.025,40.3,22.02,40.3,22.012,40.3l-5.55-0.715
	c-0.014-0.001-0.025-0.005-0.041-0.008c-0.055-0.006-0.109-0.016-0.161-0.031c-0.054-0.012-0.106-0.029-0.155-0.047
	c-0.001-0.002-0.003-0.002-0.005-0.002c-0.376-0.139-0.638-0.394-0.604-0.647c0.034-0.25,0.348-0.436,0.75-0.473
	c0,0,0.001,0,0.005,0c0.052-0.004,0.106-0.01,0.16-0.01c0.003,0,0.005,0,0.007,0c0.051,0,0.105,0.009,0.16,0.013h0.005
	c0.011,0,0.022,0,0.034,0.002l5.55,0.714c0.008,0,0.011,0.003,0.018,0.003c0.008,0.002,0.013,0.002,0.021,0.005
	c0.047,0.004,0.096,0.015,0.141,0.023c0.007,0.003,0.014,0.003,0.02,0.005c0.05,0.014,0.095,0.028,0.141,0.043
	c0.004,0.005,0.013,0.005,0.019,0.008c0.382,0.139,0.642,0.397,0.609,0.648C23.102,40.085,22.785,40.268,22.38,40.304z"/>
<g>
	<g>
		<path fill="#00F9FF" d="M15.375,28.956c-0.673,0.038-1.302-0.138-1.815-0.514c-0.536,0.175-1.893,0.473-3.109-0.499
			c-1.014-0.816-1.476-1.964-1.411-3.521c0.032-0.72,0.377-1.443,0.948-1.983c0.422-0.396,0.925-0.652,1.429-0.734
			c-0.027-0.476,0.013-1.2,0.402-1.745c0.305-0.426,0.755-0.664,1.337-0.705c0.691-0.049,1.87,0.142,2.01,1.973
			c0.02,0.234-0.148,0.437-0.372,0.455c-0.221,0.019-0.419-0.157-0.438-0.391c-0.068-0.886-0.412-1.239-1.139-1.185
			c-0.342,0.022-0.586,0.145-0.747,0.368c-0.326,0.455-0.255,1.269-0.201,1.545c0.027,0.128-0.007,0.264-0.089,0.364
			s-0.203,0.155-0.33,0.147c-0.442-0.028-0.921,0.17-1.317,0.543c-0.412,0.389-0.66,0.898-0.681,1.392
			c-0.055,1.29,0.279,2.154,1.089,2.8c1.134,0.913,2.466,0.333,2.523,0.305c0.14-0.063,0.305-0.037,0.422,0.067
			c0.441,0.388,1.04,0.542,1.691,0.441c0.716-0.113,1.382-0.522,1.697-1.044c0.785-1.287,0.583-2.923,0.582-2.939
			c-0.001-0.01-0.003-0.022-0.003-0.033l-0.588-10.252c-0.015-0.234,0.155-0.435,0.381-0.447c0.223-0.013,0.415,0.167,0.429,0.403
			l0.586,10.237c0.025,0.211,0.204,2.007-0.701,3.494c-0.443,0.728-1.307,1.275-2.258,1.424
			C15.594,28.938,15.485,28.951,15.375,28.956z"/>
	</g>
	<g>
		<path fill="#00F9FF" d="M9.472,24.87c-0.029,0.001-0.058,0-0.088-0.007c-0.66-0.11-1.938-0.831-2.048-2.736
			c-0.071-1.268,0.577-2.171,1.274-2.632c-0.295-0.303-0.62-0.746-0.766-1.321c-0.174-0.703-0.049-1.435,0.374-2.174
			c0.497-0.868,1.761-1.353,2.942-1.125c1.025,0.198,1.716,0.877,1.893,1.859c0.042,0.231-0.104,0.454-0.324,0.498
			c-0.22,0.039-0.432-0.113-0.474-0.344c-0.151-0.844-0.839-1.098-1.235-1.174c-0.839-0.163-1.781,0.164-2.103,0.728
			c-0.307,0.535-0.404,1.042-0.288,1.511c0.198,0.805,0.954,1.276,0.963,1.281c0.144,0.091,0.223,0.261,0.199,0.434
			c-0.026,0.173-0.148,0.312-0.312,0.349c-0.594,0.14-1.4,0.873-1.332,2.061c0.099,1.712,1.351,1.944,1.365,1.948
			c0.22,0.037,0.373,0.256,0.336,0.489C9.817,24.711,9.657,24.859,9.472,24.87z"/>
	</g>
	<g>
		<path fill="#00F9FF" d="M15.223,17.469c-0.091,0.006-0.184,0.004-0.275-0.004c-0.802-0.057-1.416-0.607-1.604-1.433
			c-0.188-0.838,0.114-1.716,0.72-2.088c0.424-0.259,0.83-0.33,1.205-0.208c0.526,0.167,0.762,0.644,0.787,0.696
			c0.102,0.212,0.017,0.467-0.184,0.571c-0.197,0.103-0.441,0.016-0.542-0.192c-0.004-0.009-0.109-0.206-0.298-0.264
			c-0.15-0.043-0.336,0-0.556,0.136c-0.297,0.182-0.447,0.69-0.341,1.157c0.062,0.271,0.254,0.732,0.868,0.778
			c0.475,0.033,0.964-0.197,1.375-0.651c0.648-0.714,0.974-1.846,0.843-2.95c-0.136-1.169-0.962-1.587-1.309-1.713
			c-0.651-0.235-1.387-0.127-1.748,0.257c-0.511,0.546-0.328,1.203-0.326,1.208c0.052,0.182-0.013,0.374-0.161,0.479
			c-0.148,0.103-0.344,0.094-0.482-0.025c-0.033-0.027-0.872-0.707-1.786-0.118c-0.45,0.288-0.834,1.165-0.677,2.077
			c0.043,0.233-0.105,0.455-0.326,0.497c-0.219,0.041-0.431-0.115-0.472-0.349c-0.204-1.168,0.246-2.438,1.046-2.953
			c0.786-0.502,1.524-0.405,2.034-0.207c0.047-0.368,0.195-0.81,0.57-1.208c0.585-0.624,1.626-0.81,2.588-0.463
			c1.044,0.377,1.723,1.259,1.856,2.42c0.161,1.369-0.235,2.729-1.058,3.639C16.461,17.115,15.849,17.433,15.223,17.469z"/>
	</g>
	<g>
		<path fill="#00F9FF" d="M18.142,26.47c-0.035,0.002-0.071,0-0.107-0.011c-0.22-0.047-0.359-0.275-0.314-0.507l0,0
			c0.077-0.392,0.202-1.536-0.14-2.074c-0.091-0.142-0.207-0.222-0.362-0.256c-0.404-0.081-0.701-0.009-0.88,0.216
			c-0.228,0.283-0.231,0.738-0.168,0.914c0.077,0.216-0.025,0.459-0.231,0.541c-0.204,0.087-0.437-0.014-0.523-0.227
			c-0.04-0.095-0.42-0.927-1.224-0.746c-0.545,0.127-0.641,0.628-0.658,0.777c-0.035,0.316,0.075,0.605,0.268,0.702
			c0.201,0.106,0.285,0.361,0.187,0.571c-0.098,0.212-0.341,0.3-0.541,0.194c-0.507-0.26-0.795-0.892-0.721-1.567
			c0.086-0.768,0.58-1.348,1.29-1.509c0.585-0.131,1.06,0.039,1.419,0.309c0.065-0.182,0.157-0.359,0.284-0.514
			c0.261-0.325,0.76-0.676,1.647-0.495c0.371,0.074,0.677,0.291,0.888,0.622c0.594,0.931,0.297,2.542,0.26,2.723
			C18.477,26.325,18.32,26.458,18.142,26.47z"/>
	</g>
	<g>
		<path fill="#00F9FF" d="M18.181,22.527c-0.001,0-0.001,0.001-0.001,0.001c-0.225,0.011-0.416-0.171-0.428-0.407
			c-0.063-1.165-0.122-2.264-0.426-2.548c-0.043-0.043-0.116-0.089-0.285-0.079c-0.517,0.03-0.533,0.461-0.525,0.591
			c0.013,0.235-0.158,0.437-0.382,0.449l0,0c-0.226,0.014-0.415-0.166-0.431-0.404c-0.032-0.565,0.286-1.432,1.289-1.486
			c0.351-0.02,0.645,0.079,0.874,0.296c0.556,0.522,0.617,1.621,0.696,3.141C18.574,22.315,18.404,22.512,18.181,22.527z"/>
	</g>
</g>
<g>
	<g>
		<path fill="#FCFC00" d="M22.758,28.535c-0.107,0.008-0.219,0.008-0.331,0.003c-0.961-0.04-1.882-0.484-2.407-1.159
			c-1.068-1.373-1.097-3.18-1.097-3.391L18.335,13.75c-0.011-0.232,0.159-0.434,0.382-0.447c0.223-0.01,0.417,0.167,0.429,0.403
			l0.588,10.252c0.001,0.009,0.001,0.02,0.001,0.031c0,0.015-0.006,1.673,0.913,2.854c0.375,0.483,1.082,0.813,1.807,0.846
			c0.658,0.026,1.235-0.195,1.629-0.631c0.106-0.118,0.265-0.161,0.414-0.113c0.058,0.018,1.446,0.442,2.473-0.593
			c0.728-0.734,0.963-1.629,0.76-2.904c-0.077-0.491-0.382-0.965-0.837-1.305c-0.436-0.327-0.933-0.468-1.369-0.392
			c-0.125,0.022-0.253-0.017-0.344-0.107c-0.095-0.091-0.141-0.221-0.132-0.354c0.024-0.277,0.003-1.096-0.376-1.51
			c-0.185-0.205-0.441-0.295-0.782-0.281c-0.01,0.002-0.02,0.002-0.029,0.003c-0.71,0.04-0.999,0.431-0.967,1.305
			c0.008,0.232-0.164,0.431-0.39,0.438c-0.224,0.009-0.414-0.176-0.423-0.412c-0.068-1.834,1.076-2.158,1.771-2.185
			c0.584-0.027,1.057,0.158,1.409,0.547c0.449,0.497,0.573,1.211,0.601,1.686c0.509,0.025,1.04,0.221,1.504,0.569
			c0.627,0.47,1.054,1.148,1.168,1.861c0.242,1.537-0.085,2.733-0.999,3.658c-1.097,1.104-2.479,0.965-3.033,0.85
			C24.037,28.249,23.431,28.498,22.758,28.535z"/>
	</g>
	<g>
		<path fill="#FCFC00" d="M28.157,23.805c-0.189,0.011-0.362-0.116-0.417-0.313c-0.06-0.227,0.064-0.458,0.277-0.522
			c0.057-0.018,1.231-0.41,1.135-2.087c-0.069-1.19-0.954-1.827-1.56-1.897c-0.167-0.02-0.305-0.146-0.348-0.314
			c-0.043-0.17,0.017-0.349,0.149-0.452c0.005-0.006,0.704-0.561,0.808-1.381c0.061-0.48-0.093-0.975-0.457-1.472
			c-0.386-0.521-1.359-0.738-2.172-0.485c-0.385,0.123-1.04,0.454-1.094,1.31c-0.016,0.234-0.208,0.412-0.431,0.395
			c-0.225-0.018-0.395-0.222-0.379-0.456c0.061-0.998,0.669-1.751,1.666-2.064c1.148-0.361,2.459-0.024,3.053,0.784
			c0.505,0.686,0.711,1.397,0.619,2.115c-0.078,0.59-0.35,1.067-0.608,1.401c0.744,0.376,1.491,1.204,1.566,2.468
			c0.11,1.909-1.077,2.766-1.722,2.956C28.213,23.797,28.184,23.804,28.157,23.805z"/>
	</g>
	<g>
		<path fill="#FCFC00" d="M21.597,17.106c-0.627,0.034-1.271-0.21-1.841-0.71c-0.92-0.81-1.469-2.113-1.467-3.494
			c0.001-1.168,0.572-2.122,1.566-2.615c0.915-0.455,1.97-0.387,2.625,0.167c0.417,0.354,0.613,0.774,0.704,1.136
			c0.485-0.253,1.206-0.437,2.042-0.025c0.856,0.422,1.449,1.63,1.38,2.817c-0.014,0.234-0.208,0.41-0.431,0.396
			c-0.223-0.015-0.395-0.218-0.38-0.454c0.053-0.926-0.43-1.753-0.909-1.989c-0.989-0.485-1.752,0.314-1.762,0.322
			c-0.125,0.131-0.318,0.166-0.477,0.076c-0.159-0.086-0.245-0.268-0.213-0.45c0.004-0.027,0.097-0.692-0.463-1.166
			c-0.402-0.342-1.143-0.367-1.766-0.059c-0.332,0.166-1.103,0.675-1.104,1.852c-0.004,1.111,0.447,2.196,1.173,2.833
			c0.462,0.407,0.973,0.58,1.441,0.491c0.604-0.116,0.744-0.595,0.774-0.869c0.051-0.477-0.156-0.966-0.472-1.114
			c-0.234-0.107-0.423-0.131-0.567-0.071c-0.186,0.081-0.268,0.295-0.268,0.297c-0.074,0.222-0.304,0.334-0.516,0.253
			c-0.212-0.078-0.322-0.324-0.249-0.547c0.02-0.057,0.201-0.558,0.702-0.781c0.361-0.164,0.773-0.14,1.225,0.071
			c0.643,0.301,1.045,1.139,0.952,1.994c-0.091,0.84-0.64,1.454-1.432,1.605C21.778,17.088,21.688,17.101,21.597,17.106z"/>
	</g>
	<g>
		<path fill="#FCFC00" d="M19.725,26.379c-0.177,0.011-0.35-0.105-0.409-0.291c-0.056-0.178-0.535-1.742-0.054-2.736
			c0.173-0.354,0.454-0.603,0.813-0.72c0.861-0.277,1.396,0.013,1.696,0.307c0.141,0.14,0.253,0.304,0.337,0.48
			c0.325-0.312,0.779-0.531,1.375-0.467c0.725,0.077,1.281,0.596,1.454,1.35c0.152,0.664-0.063,1.324-0.534,1.642
			c-0.191,0.125-0.44,0.067-0.563-0.133c-0.121-0.198-0.067-0.462,0.123-0.589c0.179-0.118,0.256-0.417,0.186-0.728
			c-0.034-0.146-0.188-0.636-0.746-0.697c-0.817-0.088-1.1,0.782-1.129,0.881c-0.065,0.219-0.285,0.343-0.497,0.282
			c-0.211-0.063-0.338-0.288-0.287-0.511c0.04-0.184-0.014-0.635-0.274-0.889c-0.204-0.203-0.504-0.24-0.899-0.112
			c-0.151,0.047-0.255,0.142-0.329,0.295c-0.28,0.576-0.018,1.719,0.1,2.076c0.07,0.226-0.043,0.466-0.255,0.537
			C19.796,26.37,19.763,26.376,19.725,26.379z"/>
	</g>
	<g>
		<path fill="#FCFC00" d="M19.234,22.467c-0.223,0.014-0.415-0.167-0.428-0.401c-0.095-1.52-0.16-2.619,0.33-3.2
			c0.205-0.242,0.486-0.373,0.837-0.393c1.001-0.058,1.416,0.765,1.447,1.332c0.015,0.235-0.155,0.437-0.381,0.447
			c-0.221,0.013-0.413-0.164-0.428-0.396c-0.013-0.17-0.099-0.562-0.591-0.534c-0.168,0.009-0.235,0.064-0.274,0.11
			c-0.268,0.319-0.202,1.418-0.13,2.583c0.014,0.235-0.156,0.435-0.378,0.45C19.236,22.466,19.236,22.466,19.234,22.467z"/>
	</g>
</g>
<g>
	<path fill="#FFFFFF" d="M22.167,32.666c-0.022,0.001-0.043,0.001-0.067,0c-0.223-0.027-0.385-0.239-0.362-0.472
		c0.01-0.088,0.244-2.214,2.503-3.925c0.181-0.14,0.434-0.094,0.566,0.096c0.133,0.19,0.092,0.458-0.086,0.595
		c-1.971,1.493-2.171,3.311-2.173,3.328C22.526,32.497,22.363,32.657,22.167,32.666z"/>
</g>
<g>
	<path fill="#FFFFFF" d="M16.054,31.795c-0.16,0.012-0.317-0.079-0.39-0.241c-0.011-0.02-0.661-1.396-2.034-1.929
		c-0.21-0.082-0.318-0.328-0.242-0.549c0.076-0.219,0.31-0.334,0.52-0.25c1.696,0.657,2.458,2.295,2.488,2.363
		c0.096,0.213,0.011,0.465-0.192,0.566C16.157,31.78,16.104,31.793,16.054,31.795z"/>
</g>
<g>
	<path fill="#FFFFFF" d="M19.703,32.121L19.703,32.121c-0.14,0.008-0.26-0.104-0.268-0.253c-0.004-0.056-0.068-1.329,0.543-2.36
		c0.074-0.124,0.229-0.161,0.349-0.084c0.12,0.079,0.156,0.241,0.083,0.368c-0.526,0.885-0.468,2.037-0.468,2.048
		C19.95,31.987,19.842,32.111,19.703,32.121z"/>
</g>
<g>
	<path fill="#FFFFFF" d="M20.343,29.908c-0.423,0.024-0.791-0.318-0.814-0.765c-0.027-0.446,0.298-0.827,0.723-0.852
		c0.423-0.023,0.789,0.317,0.816,0.764C21.093,29.503,20.769,29.885,20.343,29.908z M20.28,28.824
		c-0.142,0.006-0.255,0.138-0.247,0.291c0.01,0.152,0.135,0.27,0.279,0.261c0.146-0.009,0.256-0.139,0.249-0.292
		C20.551,28.934,20.426,28.817,20.28,28.824z"/>
</g>
<g>
	<path fill="#FFFFFF" d="M18.821,32.171c-0.139,0.006-0.259-0.104-0.268-0.254l0,0c-0.001-0.009-0.077-1.158-0.7-1.98
		c-0.089-0.114-0.069-0.283,0.041-0.374c0.108-0.091,0.267-0.071,0.355,0.045c0.726,0.953,0.808,2.228,0.811,2.283
		C19.068,32.036,18.961,32.162,18.821,32.171z"/>
</g>
<g>
	<path fill="#FFFFFF" d="M17.933,30.044c-0.425,0.025-0.79-0.319-0.818-0.765c-0.025-0.443,0.301-0.824,0.725-0.849
		c0.425-0.025,0.791,0.316,0.816,0.762C18.682,29.639,18.356,30.021,17.933,30.044z M17.87,28.96
		c-0.146,0.011-0.258,0.141-0.247,0.292c0.008,0.154,0.133,0.271,0.279,0.26c0.145-0.006,0.255-0.137,0.245-0.289
		C18.14,29.069,18.015,28.953,17.87,28.96z"/>
</g>
<g>
	<path fill="#FFEC3D" d="M17.867,28.94c-0.152,0.011-0.271,0.149-0.265,0.312c0.01,0.166,0.145,0.291,0.3,0.279
		c0.156-0.006,0.276-0.147,0.265-0.309C18.157,29.059,18.024,28.934,17.867,28.94z"/>
	<path fill="#FFEC3D" d="M20.28,28.804c-0.155,0.009-0.273,0.149-0.265,0.313c0.01,0.16,0.143,0.286,0.298,0.28
		c0.156-0.011,0.274-0.149,0.265-0.313C20.568,28.921,20.436,28.795,20.28,28.804z"/>
</g>
<path fill="#FF8500" d="M18.695,9.543c0.006,0.193-0.143,0.356-0.337,0.364H18.35c-0.194,0.007-0.357-0.144-0.362-0.336L17.89,7.094
	C17.883,6.9,18.032,6.739,18.227,6.73h0.008c0.194-0.007,0.357,0.143,0.362,0.336L18.695,9.543z"/>
<path fill="#FF8500" d="M27.412,13.195c-0.122,0.152-0.362,0.208-0.513,0.092l-0.005-0.006c-0.15-0.116-0.171-0.34-0.049-0.494
	l1.563-1.988c0.122-0.153,0.35-0.192,0.503-0.082l0.006,0.002c0.156,0.112,0.178,0.333,0.058,0.486L27.412,13.195z"/>
<path fill="#FF8500" d="M9.633,13.084c0.123,0.152,0.101,0.367-0.05,0.48l-0.004,0.006c-0.154,0.113-0.377,0.085-0.503-0.066
	L7.467,11.54c-0.125-0.15-0.118-0.387,0.039-0.495l0.007-0.004c0.157-0.109,0.386-0.071,0.51,0.079L9.633,13.084z"/>
<g>
	<path fill="#00FFDA" d="M15.325,36.57c-0.041,0.365,0.211,0.702,0.564,0.746l7.346,0.933c0.353,0.045,0.669-0.218,0.712-0.588
		l0.028-0.255c0.038-0.37-0.213-0.704-0.566-0.748l-7.347-0.931c-0.351-0.047-0.67,0.218-0.71,0.586L15.325,36.57z"/>
	<path fill="#00FFDA" d="M15.215,34.682c-0.039,0.368,0.213,0.704,0.564,0.749l7.347,0.931c0.353,0.045,0.672-0.221,0.712-0.589
		l0.027-0.254c0.042-0.371-0.211-0.705-0.566-0.75l-7.346-0.929c-0.351-0.047-0.669,0.217-0.71,0.587L15.215,34.682z"/>
	<path fill="#00FFDA" d="M15.106,32.793c-0.041,0.368,0.213,0.702,0.564,0.747l7.346,0.932c0.353,0.045,0.672-0.218,0.712-0.588
		l0.027-0.255c0.042-0.368-0.211-0.704-0.563-0.748l-7.346-0.931c-0.355-0.047-0.671,0.218-0.712,0.586L15.106,32.793z"/>
</g>
<path fill="#00F9FF" d="M4.565,22.087c0.42,0.195,0.775,0.51,1.166,0.758c0.016,0.03,0.033,0.063,0.05,0.092
	c0.125,0.128,0.086,0.319,0.156,0.467c0.043,0.239,0.11,0.467,0.229,0.677c0.101,0.086,0.091,0.227,0.143,0.338l-0.002-0.003
	c0.137,0.065,0.177,0.18,0.137,0.328c0.088,0.322,0.266,0.595,0.414,0.884c0.104,0.052,0.093,0.178,0.148,0.261
	c0.072,0.198,0.184,0.371,0.3,0.544c0.075,0.09,0.161,0.166,0.193,0.288c0.206,0.388,0.461,0.732,0.741,1.059
	c0.084,0.07,0.135,0.17,0.208,0.251c0.16,0.06,0.121,0.301,0.287,0.354c0.173,0.188,0.353,0.368,0.52,0.567
	c0.032,0.035,0.067,0.071,0.101,0.106c0.083,0.062,0.153,0.141,0.211,0.229c0.159,0.133,0.24,0.377,0.488,0.376
	c0.109,0.119,0.218,0.234,0.328,0.354c0.68,0.535,1.356,1.059,2.138,1.435c0.386,0.187,0.759,0.416,1.163,0.569
	c0.126,0.008,0.218,0.118,0.342,0.131c0.081,0.047,0.163,0.098,0.244,0.146c-0.068,0.211-0.237,0.082-0.355,0.117
	c-0.052-0.003-0.102-0.003-0.154-0.021c-0.159-0.091-0.341-0.009-0.505-0.073c-0.116-0.033-0.246,0.04-0.357-0.046l0.005,0.001
	c-0.12-0.079-0.266,0.025-0.382-0.067l0.004,0.004c-0.12-0.082-0.264,0.019-0.383-0.067c-0.228-0.022-0.456-0.043-0.672-0.139
	c-0.457-0.05-0.889-0.214-1.332-0.331c-0.377-0.056-0.72-0.249-1.102-0.276c-0.114-0.116-0.278-0.114-0.405-0.202
	c-0.332-0.113-0.664-0.226-0.996-0.34C7.61,30.85,7.585,30.841,7.56,30.833c-0.117-0.074-0.256-0.09-0.368-0.17
	c-0.025-0.021-0.046-0.042-0.07-0.064c-0.094-0.063-0.208-0.077-0.306-0.133c-0.192-0.089-0.384-0.18-0.575-0.27
	c-0.225-0.113-0.449-0.234-0.679-0.337c-0.156-0.045-0.266-0.195-0.433-0.212c-0.025-0.009-0.047-0.021-0.07-0.036
	c-0.064-0.046-0.111-0.117-0.186-0.146c-0.228-0.139-0.458-0.276-0.687-0.413c-0.141-0.097-0.284-0.189-0.44-0.261
	c-0.185-0.059-0.274-0.266-0.448-0.347c-0.119-0.092-0.248-0.168-0.366-0.261c-0.209-0.159-0.416-0.317-0.625-0.478
	c-0.088-0.06-0.166-0.143-0.255-0.204c-0.312-0.27-0.624-0.538-0.936-0.807c-0.081-0.094-0.144-0.207-0.254-0.27
	c-0.121-0.115-0.242-0.226-0.365-0.339c-0.077-0.103-0.162-0.195-0.259-0.277c-0.068-0.085-0.139-0.172-0.205-0.257
	c-0.088-0.079-0.168-0.162-0.236-0.261c-0.103-0.114-0.204-0.228-0.307-0.344c-0.076-0.118-0.172-0.215-0.256-0.322
	c-0.102-0.119-0.201-0.238-0.302-0.356c-0.078-0.05-0.189-0.071-0.174-0.211c-0.59-0.816-1.15-1.655-1.643-2.537
	c-0.374-0.674-0.748-1.353-1.007-2.089c-0.07-0.149-0.12-0.31-0.195-0.456c-0.082-0.206-0.164-0.415-0.243-0.622
	c-0.063-0.107-0.084-0.232-0.125-0.349l0.004,0.006c-0.071-0.116-0.101-0.26-0.195-0.361c0-0.354-0.23-0.637-0.264-0.981
	C-4.937,16.556-5,16.452-4.999,16.33C-5.004,16.253-5,16.183-4.902,16.198c0.102,0.1,0.202,0.197,0.302,0.295
	c0.104,0.004,0.148,0.078,0.171,0.173c0.149,0.168,0.288,0.343,0.467,0.474c0.407,0.601,0.975,1.017,1.514,1.457
	c0.649,0.523,1.316,1.027,2.032,1.445c0.411,0.242,0.807,0.523,1.26,0.673c0.206,0.071,0.399,0.164,0.577,0.295
	c0.241,0.13,0.486,0.25,0.753,0.304c0.188,0.079,0.399,0.082,0.562,0.229c0.342,0.15,0.693,0.262,1.061,0.313
	c0.167,0.072,0.354-0.007,0.521,0.079C4.392,22,4.51,21.982,4.565,22.087z"/>
<path fill="#FF0000" d="M6.987-6.91C6.931-6.958,6.872-7.003,6.814-7.051C6.692-7.104,6.604-7.192,6.553-7.326
	C6.526-7.366,6.499-7.408,6.471-7.448C6.318-7.589,6.174-7.737,6.046-7.906c-0.25-0.296-0.5-0.592-0.751-0.887
	C5.238-8.885,5.172-8.969,5.107-9.056c-0.104-0.136-0.207-0.272-0.31-0.409C4.741-9.59,4.61-9.643,4.553-9.764
	c-0.275-0.465-0.556-0.926-0.819-1.397c-0.444-0.79-0.843-1.605-1.132-2.477c-0.051-0.112-0.081-0.23-0.12-0.347l0.005,0.005
	C2.38-14.158,2.36-14.37,2.286-14.561c-0.087-0.272-0.201-0.536-0.24-0.825c-0.133-0.466-0.25-0.935-0.317-1.417
	c-0.096-0.119-0.034-0.27-0.069-0.402c-0.067-0.086,0-0.202-0.055-0.289c-0.004-0.04-0.007-0.077-0.01-0.114
	C1.532-17.72,1.6-17.856,1.542-17.967c0.014-0.017,0.014-0.032-0.004-0.044c-0.193-1.211-0.181-2.437-0.143-3.657
	c0.01-0.276-0.005-0.574,0.086-0.848l-0.003,0.005c0.07-0.129-0.019-0.284,0.059-0.412l-0.001,0.001
	c0.198-0.16,0.34,0.008,0.493,0.101c0.271,0.09,0.515,0.262,0.8,0.31c0.111,0.044,0.236,0.053,0.329,0.146L3.15-22.371
	c0.096,0.027,0.198,0.037,0.257,0.141c0.58,0.31,1.157,0.619,1.734,0.93c0.12,0.059,0.248,0.101,0.334,0.217
	c0.159,0.114,0.299,0.264,0.494,0.317c0.139,0.08,0.279,0.15,0.386,0.283c0.477,0.376,0.953,0.754,1.432,1.132
	c0.101,0.052,0.187,0.126,0.257,0.221c0.028,0.054,0.063,0.1,0.125,0.113c0.123,0.074,0.223,0.181,0.314,0.295
	c0.069,0.098,0.146,0.189,0.252,0.243c0.169,0.113,0.298,0.277,0.437,0.43c0.223,0.238,0.445,0.479,0.671,0.719
	c0.14,0.149,0.292,0.288,0.401,0.468c0.069,0.139,0.174,0.241,0.283,0.34c0.1,0.064,0.156,0.168,0.217,0.267
	c0.048,0.147,0.181,0.213,0.26,0.33c0.109,0.072,0.216,0.149,0.233,0.302c0.01,0.121,0.102,0.174,0.171,0.246
	c0.087,0.072,0.161,0.154,0.203,0.265c0.126,0.277,0.321,0.503,0.496,0.741c0.082,0.085,0.165,0.169,0.198,0.29
	c0.068,0.195,0.187,0.357,0.307,0.518c0.102,0.086,0.154,0.207,0.204,0.329c0.266,0.474,0.532,0.946,0.798,1.419
	c0.103,0.086,0.118,0.236,0.204,0.331c0.178,0.385,0.357,0.77,0.535,1.153c0.113,0.057,0.113,0.183,0.147,0.284
	c0.082,0.198,0.137,0.409,0.263,0.583c0.113,0.223,0.231,0.443,0.304,0.686c0.052,0.246,0.171,0.458,0.3,0.667
	c0.13,0.133,0.17,0.324,0.263,0.481c0.324,0.661,0.747,1.247,1.211,1.797c0.327,0.387,0.672,0.755,1.048,1.089
	c0.235-0.015,0.283,0.244,0.433,0.35c0.301,0.285,0.623,0.533,0.983,0.726c0.202,0.068,0.362,0.211,0.522,0.352
	c0.174,0.132,0.344,0.273,0.563,0.314c0.173,0.086,0.367,0.131,0.503,0.29c0.195,0.128,0.393,0.255,0.62,0.319
	c0.14,0.047,0.286,0.087,0.379,0.223c0.226,0.133,0.432,0.305,0.682,0.381c0.09,0.042,0.201,0.042,0.259,0.149l-0.007-0.007
	c0.112,0.061,0.236,0.1,0.322,0.207c0.135,0.104,0.265,0.209,0.428,0.257c0.132,0.034,0.241,0.102,0.323,0.218
	c0.159,0.119,0.303,0.263,0.495,0.32c0.104,0.079,0.247,0.096,0.319,0.228c0.194,0.107,0.326,0.318,0.545,0.382
	c0.116,0.034,0.191,0.126,0.271,0.211c0.228,0.175,0.452,0.351,0.679,0.527c0.104,0.048,0.189,0.125,0.258,0.217
	c0.077,0.12,0.185,0.196,0.303,0.253c0.138,0.06,0.228,0.181,0.324,0.29c0.077,0.094,0.146,0.195,0.258,0.242
	c0.133,0.058,0.279,0.096,0.31,0.283c0.088,0.127,0.181,0.249,0.317,0.323c0.137,0.108,0.262,0.229,0.369,0.371
	c0.096,0.103,0.191,0.208,0.287,0.31c0.117,0.089,0.201,0.21,0.285,0.331c0.05,0.12,0.138,0.204,0.241,0.271
	c0.223,0.06,0.292,0.303,0.452,0.434c1.582,2.046,2.755,4.33,3.505,6.863c0.159,0.645,0.364,1.276,0.478,1.934
	c0.254,1.303,0.427,2.62,0.503,3.952c0.042,0.76,0.054,1.518,0.046,2.278c-0.017,1.88-0.369,3.688-1.072,5.414
	c-0.071,0.176-0.196,0.314-0.279,0.483c0.024,0.073-0.05,0.098-0.064,0.149c-0.071,0.15-0.153,0.294-0.259,0.419
	c-0.123,0.164-0.223,0.343-0.296,0.532c-0.078,0.148-0.139,0.302-0.266,0.41c-0.16,0.145-0.228,0.365-0.364,0.529
	c-0.05,0.11-0.116,0.205-0.208,0.277c-0.066,0.056-0.137,0.11-0.162,0.205c-0.075,0.128-0.17,0.236-0.279,0.332
	c-0.244,0.26-0.488,0.523-0.73,0.783c-0.091,0.117-0.189,0.227-0.32,0.298c-0.143,0.127-0.289,0.255-0.433,0.382
	c-0.068,0.097-0.156,0.172-0.26,0.223c-0.141,0.107-0.286,0.216-0.427,0.323c-0.081,0.087-0.155,0.179-0.272,0.21
	c-0.534,0.344-1.07,0.685-1.602,1.026c-0.163,0.102-0.331,0.19-0.508,0.26c-0.06,0.026-0.119,0.049-0.181,0.069
	c-0.073,0.033-0.149,0.09-0.183-0.049c0.406-0.331,0.814-0.664,1.219-1.002c0.183-0.152,0.354-0.326,0.531-0.492
	c0.155-0.113,0.273-0.277,0.418-0.407c0.05-0.051,0.096-0.102,0.146-0.155c0.118-0.154,0.272-0.278,0.378-0.45
	c0.063-0.083,0.127-0.168,0.191-0.255c0.086-0.09,0.187-0.167,0.245-0.283c0.59-0.744,1.076-1.563,1.504-2.424
	c0.096-0.119,0.127-0.272,0.195-0.405c0.052-0.179,0.181-0.326,0.187-0.526c0.136-0.212,0.213-0.452,0.306-0.683
	c0.068-0.34,0.276-0.634,0.271-0.997c0.004-0.033,0.011-0.064,0.024-0.095c0.15-0.286,0.171-0.62,0.273-0.923v-0.002
	c0.08-0.126-0.024-0.282,0.067-0.407c0.007-0.109-0.022-0.229,0.06-0.321c0.072-0.133-0.018-0.288,0.059-0.417
	c0.018-0.015,0.018-0.031,0.005-0.051c0.073-0.18-0.025-0.38,0.059-0.556c0.018-0.015,0.02-0.031,0.005-0.049
	c0.042-0.822,0.042-1.648,0-2.469c-0.005-0.057-0.008-0.116-0.01-0.175c-0.068-0.131,0.013-0.283-0.054-0.417
	c0.013-0.019,0.007-0.037-0.008-0.052c-0.066-0.107,0.011-0.24-0.056-0.347c0.013-0.02,0.009-0.039-0.008-0.057
	c-0.032-0.11-0.06-0.224-0.141-0.312c-0.078-0.198-0.133-0.401-0.074-0.619c-0.026-0.349-0.135-0.675-0.222-1.008
	c-0.102-0.317-0.202-0.634-0.305-0.951c-0.056-0.109-0.101-0.222-0.12-0.346l0.001,0.001c-0.079-0.09-0.069-0.224-0.141-0.315
	c-0.078-0.187-0.159-0.368-0.241-0.552c-0.056-0.085-0.061-0.198-0.133-0.276c-0.428-0.859-0.903-1.687-1.509-2.418
	c-0.064-0.061-0.173-0.083-0.166-0.209c-0.111-0.214-0.262-0.389-0.443-0.536c-0.095-0.04-0.16-0.109-0.195-0.212
	c-0.473-0.599-1.06-1.056-1.632-1.532c-0.089-0.058-0.159-0.145-0.253-0.197c-0.479-0.287-0.899-0.694-1.433-0.882
	c-0.136-0.166-0.341-0.208-0.508-0.323c-0.25-0.083-0.467-0.259-0.736-0.287c-0.159-0.173-0.378-0.194-0.58-0.259
	c-0.328-0.139-0.662-0.253-1.004-0.339c-0.517-0.154-1.039-0.248-1.563-0.347l0.005,0.005c-0.164-0.083-0.348,0.027-0.51-0.065
	c-0.032-0.001-0.063-0.003-0.095-0.004c-0.3-0.081-0.609,0.028-0.907-0.061c-0.146-0.029-0.294-0.029-0.439,0.002
	c-0.297,0.086-0.608-0.021-0.905,0.059c-0.033,0.001-0.065,0.003-0.098,0.004c-0.163,0.092-0.347-0.017-0.51,0.063l0.004-0.005
	c-0.47,0.102-0.951,0.161-1.414,0.307c-0.072,0.022-0.143-0.007-0.215-0.022c-0.977-0.203-1.965-0.205-2.95-0.161
	c-0.586,0.025-1.172,0.129-1.756,0.22l-0.028-0.005l-0.025,0.014c-0.057,0.05-0.129,0.037-0.193,0.045
	C10.274,5.511,9.949,5.43,9.681,5.61C9.476,5.662,9.274,5.734,9.078,5.813c-0.076,0.03-0.151,0.089-0.202-0.035
	c0-0.092-0.002-0.184-0.002-0.277c0.032-0.287,0.034-0.582,0.188-0.839c0.129-0.296,0.275-0.58,0.493-0.813
	c0.087-0.125,0.189-0.231,0.302-0.33c0.098-0.097,0.153-0.156-0.013-0.279c-0.21-0.153-0.357-0.393-0.347-0.689
	C9.506,2.386,9.41,2.319,9.309,2.242c-0.199-0.106-0.416-0.15-0.63-0.203L8.659,2.022L8.64,2.034c-0.268-0.047-0.536-0.044-0.802,0
	L7.819,2.021L7.801,2.034c-0.398,0.06-0.774,0.203-1.156,0.335C6.426,2.487,6.177,2.536,5.983,2.711
	C5.85,2.783,5.765,2.779,5.801,2.579L5.798,2.582c0.069-0.078,0.074-0.189,0.131-0.274c0.102-0.182,0.204-0.362,0.304-0.545
	C6.303,1.68,6.362,1.589,6.43,1.504L6.427,1.509c0.077-0.161,0.227-0.26,0.315-0.412C6.781,1.055,6.821,1.012,6.86,0.97
	c0.082-0.068,0.164-0.134,0.241-0.208c0.255-0.18,0.508-0.359,0.763-0.541c0.217-0.073,0.405-0.232,0.637-0.262
	C8.748-0.111,8.996-0.18,9.243-0.25c0.1-0.072,0.222,0.01,0.32-0.06L9.558-0.305C9.938-0.4,10.321-0.359,10.7-0.339
	c0.652,0.032,1.271-0.134,1.89-0.304c0.248-0.075,0.5-0.135,0.726-0.276c0.105-0.054,0.216-0.091,0.327-0.125l-0.007,0.004
	c0.084-0.088,0.21-0.079,0.303-0.152c0.136-0.096,0.32-0.081,0.445-0.208c0.126-0.035,0.251-0.049,0.374,0.01
	c0.191,0.094,0.389,0.148,0.604,0.139c0.41,0.086,0.821,0.172,1.207,0.354c0.284,0.11,0.569,0.205,0.866,0.253
	c0.26,0.082,0.534,0.116,0.765,0.286c0.223,0.105,0.449,0.201,0.688,0.246c0.284,0.093,0.563,0.191,0.816,0.359
	c0.234,0.13,0.468,0.259,0.728,0.322c0.194,0.051,0.374,0.133,0.528,0.275c0.155,0.112,0.313,0.22,0.502,0.255
	c0.17,0.09,0.365,0.129,0.498,0.29c0.221,0.132,0.425,0.301,0.668,0.391c0.119,0.06,0.254,0.094,0.332,0.223
	c0.689,0.451,1.34,0.96,2,1.456c0.104,0.041,0.17,0.14,0.265,0.195c0.821,0.802,1.676,1.566,2.417,2.457
	c0.273,0.327,0.542,0.656,0.813,0.986c0.12,0.1,0.251,0.192,0.314,0.354c0.027,0.021,0.014,0.075,0.059,0.082
	c-0.031-0.028-0.039-0.072-0.062-0.106c-0.083-0.118-0.114-0.26-0.159-0.394c-0.019-0.05-0.042-0.099-0.061-0.147
	c-0.099-0.147-0.146-0.328-0.25-0.471c-0.254-0.464-0.519-0.915-0.818-1.345c-0.052-0.098-0.127-0.177-0.187-0.265
	c-0.019-0.025-0.037-0.048-0.056-0.071c-0.063-0.087-0.126-0.175-0.194-0.261c-0.042-0.048-0.082-0.094-0.122-0.142
	c-0.088-0.147-0.22-0.255-0.316-0.394c-0.256-0.272-0.513-0.546-0.768-0.818c-0.075-0.076-0.153-0.144-0.235-0.207
	c-0.045-0.043-0.09-0.086-0.135-0.131c-0.08-0.067-0.155-0.142-0.242-0.201c-0.105-0.053-0.151-0.204-0.288-0.211
	c-0.099-0.078-0.158-0.203-0.274-0.255C24.508,2,24.361,1.886,24.208,1.771c-0.096-0.073-0.21-0.118-0.302-0.2
	c-0.205-0.104-0.374-0.286-0.603-0.346c-0.136-0.134-0.3-0.227-0.461-0.32c-0.172-0.091-0.344-0.184-0.514-0.277
	c-0.186-0.089-0.369-0.191-0.555-0.279c-0.24-0.112-0.481-0.224-0.723-0.335c-0.18-0.059-0.364-0.098-0.522-0.209l0.006,0.004
	c-0.11-0.031-0.218-0.076-0.325-0.119c-0.276-0.089-0.553-0.182-0.831-0.273c-0.311-0.082-0.619-0.178-0.927-0.277
	c-0.395-0.109-0.791-0.219-1.187-0.327c-0.21-0.072-0.422-0.134-0.63-0.208c-0.395-0.133-0.792-0.265-1.188-0.399
	c-0.229-0.094-0.463-0.168-0.691-0.27c-0.274-0.112-0.547-0.223-0.822-0.335c-0.203-0.101-0.419-0.163-0.619-0.274
	c-0.191-0.088-0.379-0.176-0.568-0.264c-0.232-0.107-0.455-0.236-0.686-0.348c-0.116-0.066-0.229-0.134-0.344-0.201
	c-0.165-0.064-0.311-0.167-0.467-0.248c-0.88-0.473-1.699-1.048-2.5-1.654C8.719-5.412,8.679-5.421,8.642-5.437
	C8.542-5.51,8.485-5.639,8.367-5.691C8.03-5.984,7.69-6.278,7.354-6.572C7.222-6.676,7.126-6.819,6.987-6.91z"/>
<path fill="#FCFCFC" d="M8.436,2.859C8.347,2.929,8.247,2.97,8.13,2.968C8.211,2.871,8.314,2.839,8.436,2.859z"/>
<path fill="#FCFCFC" d="M8.715,2.731C8.646,2.83,8.541,2.849,8.431,2.864C8.492,2.748,8.601,2.734,8.715,2.731z"/>
<path fill="#CF1C1F" d="M7.086,3.771C7.095,3.5,7.056,3.23,7.212,2.975c0.253-0.416,0.703-0.586,1.182-0.408
	c0.384,0.141,0.696,0.69,0.629,1.106C8.944,4.168,8.536,4.56,8.098,4.586C7.804,4.604,7.56,4.505,7.338,4.31
	C7.233,4.226,7.156,4.119,7.11,3.986C7.088,3.917,7.146,3.836,7.086,3.771z"/>
<path fill="#CF1D20" d="M7.042,4.394c0.044,0.084,0.086,0.175,0.137,0.256C7.272,4.803,7.44,4.916,7.18,5.115
	C7.012,5.248,7.106,5.499,7.247,5.658c0.127,0.139,0.089,0.194-0.045,0.294C7.054,6.064,7.01,6.016,6.919,5.883
	C6.497,5.245,6.065,4.614,5.628,3.99C5.556,3.884,5.494,3.797,5.644,3.741c0.087-0.033,0.167-0.286,0.298-0.025
	C6.031,3.891,6.13,4.062,6.365,3.827C6.511,3.678,6.65,3.9,6.778,3.993c0.052,0.021,0.089,0.059,0.114,0.11
	C6.936,4.204,7.037,4.271,7.042,4.394z"/>
<path fill="#03FF03" d="M33.608,12.488c0.255-0.454,0.409-0.958,0.614-1.436c0.021-0.106,0.103-0.171,0.142-0.266
	c0.059-0.116,0.127-0.227,0.23-0.305c0.568-0.822,1.036-1.709,1.514-2.593c0.061-0.174,0.151-0.336,0.235-0.5
	c0.125-0.292,0.252-0.586,0.382-0.877c0.069-0.156,0.124-0.316,0.192-0.471c0.102-0.267,0.205-0.535,0.308-0.804
	c0.173-0.011,0.046,0.166,0.12,0.218c-0.01,0.25,0.045,0.487,0.126,0.72c0.161,1.001,0.318,2.003,0.286,3.025
	c-0.003,0.098-0.021,0.2,0.024,0.294c0,0.388,0,0.776,0,1.164c-0.054,0.252-0.014,0.509-0.024,0.762
	c-0.025,0.595-0.072,1.187-0.18,1.773c-0.025,0.147,0.04,0.312-0.051,0.449l0.005-0.006c-0.064,0.107,0.017,0.242-0.06,0.346
	c-0.091,0.346-0.167,0.693-0.191,1.053c-0.077,0.37-0.109,0.75-0.273,1.093c-0.099,0.376-0.194,0.752-0.291,1.129
	c-0.094,0.249-0.123,0.525-0.262,0.756c-0.133,0.273-0.223,0.561-0.301,0.856c-0.043,0.122-0.045,0.264-0.149,0.355
	c-0.342,0.741-0.655,1.497-1.042,2.213c-0.479,0.876-0.963,1.748-1.563,2.538c-0.031,0.04-0.045,0.094-0.067,0.142
	c-0.04,0.122-0.114,0.213-0.21,0.286c-0.077,0.079-0.154,0.161-0.23,0.24c0.149-0.391,0.3-0.785,0.443-1.18
	c0.688-1.904,0.87-3.884,0.816-5.908C34.112,15.849,33.917,14.164,33.608,12.488z"/>
<path fill="#F76F00" d="M33.072,10.976c-0.268-0.721-0.521-1.453-0.81-2.166c-0.575-1.417-1.316-2.729-2.205-3.944
	c-0.168-0.227-0.325-0.46-0.489-0.692c-0.083-0.196-0.223-0.364-0.256-0.587c-0.064-0.119-0.13-0.235-0.191-0.355
	c-0.063-0.112-0.119-0.229-0.173-0.346l0.001,0.002c-0.109-0.077-0.143-0.203-0.201-0.317c-0.085-0.139-0.167-0.277-0.251-0.415
	c-0.053-0.095-0.125-0.177-0.187-0.266c-0.021-0.022-0.041-0.047-0.059-0.07c-0.061-0.094-0.13-0.175-0.191-0.267l-0.003-0.003
	c-0.123-0.078-0.253-0.16-0.336-0.29c-0.226-0.354-0.567-0.572-0.853-0.859c-0.065-0.065-0.135-0.132-0.202-0.196
	c-0.149-0.048-0.235-0.187-0.359-0.271c-0.15-0.111-0.298-0.225-0.449-0.336c-0.17-0.097-0.318-0.241-0.492-0.332
	c-0.173-0.113-0.347-0.228-0.521-0.34c-0.07-0.052-0.16-0.072-0.229-0.13c-0.189-0.115-0.375-0.228-0.563-0.343
	c-0.188-0.071-0.335-0.22-0.503-0.329c-0.17-0.114-0.341-0.228-0.51-0.342c-0.122-0.091-0.247-0.17-0.365-0.261
	c-0.13-0.092-0.257-0.185-0.385-0.28c-0.168-0.074-0.286-0.228-0.433-0.334c-0.131-0.112-0.264-0.225-0.395-0.337
	c-0.082-0.109-0.254-0.096-0.297-0.257c-0.13-0.116-0.255-0.233-0.385-0.35c-0.104-0.086-0.192-0.193-0.304-0.275
	c-0.371-0.4-0.746-0.803-1.119-1.205c-0.107-0.218-0.374-0.289-0.444-0.544c-0.083-0.111-0.168-0.22-0.251-0.331
	c-0.076-0.167-0.263-0.243-0.305-0.437c-0.107-0.146-0.216-0.292-0.326-0.438c-0.05-0.099-0.132-0.174-0.184-0.273
	c-0.333-0.559-0.667-1.118-1.002-1.676c-0.078-0.104-0.109-0.238-0.189-0.34c-0.248-0.515-0.498-1.03-0.747-1.545
	c-0.092-0.249-0.216-0.485-0.319-0.73c-0.019-0.027-0.04-0.052-0.059-0.077c-0.085-0.074-0.1-0.181-0.123-0.285
	c-0.021-0.084-0.042-0.169-0.064-0.253c-0.056-0.109-0.081-0.232-0.121-0.348l0.002,0.007c-0.066-0.116-0.093-0.26-0.193-0.357
	c-0.03-0.376-0.246-0.688-0.316-1.052c-0.106-0.253-0.164-0.526-0.252-0.788c-0.125-0.365-0.246-0.729-0.368-1.095
	c-0.069-0.114-0.082-0.265-0.193-0.354c-0.035-0.296-0.232-0.519-0.319-0.792c-0.072-0.104-0.104-0.234-0.186-0.334
	c-0.266-0.468-0.543-0.923-0.868-1.348c-0.07-0.114-0.173-0.193-0.254-0.294c-0.025-0.099-0.083-0.174-0.15-0.245
	c-0.106-0.089-0.181-0.216-0.312-0.274c-0.05-0.03-0.093-0.067-0.093-0.137c-0.394-0.508-0.874-0.914-1.34-1.338
	c-0.081-0.066-0.151-0.145-0.24-0.197c-0.174-0.102-0.303-0.274-0.494-0.344c-0.073-0.137-0.214-0.181-0.325-0.269
	c-0.162-0.111-0.328-0.222-0.493-0.334c-0.101-0.077-0.218-0.124-0.319-0.201c-0.055-0.01-0.096-0.036-0.114-0.097
	c-0.059-0.212,0.094-0.148,0.183-0.164c0.187,0.047,0.384,0.038,0.55,0.159c0.389,0.104,0.779,0.205,1.169,0.31
	c0.287,0.072,0.57,0.151,0.835,0.295c0.229,0.079,0.46,0.158,0.688,0.239c0.237,0.083,0.482,0.14,0.69,0.296
	c0.238,0.126,0.48,0.244,0.739,0.314c0.205,0.069,0.4,0.159,0.576,0.292c0.206,0.113,0.398,0.253,0.626,0.309
	c0.174,0.083,0.365,0.132,0.502,0.286c0.147,0.112,0.304,0.208,0.478,0.257c0.122,0.057,0.253,0.098,0.334,0.223
	c0.233,0.148,0.465,0.295,0.7,0.441c0.077,0.061,0.201,0.047,0.242,0.167c0.805,0.546,1.55,1.179,2.312,1.79
	c0.101,0.057,0.193,0.127,0.257,0.228c0.04,0.038,0.077,0.073,0.116,0.11c0.157,0.083,0.266,0.227,0.385,0.361
	c0.103,0.103,0.207,0.207,0.312,0.31c0.392,0.344,0.747,0.729,1.072,1.148c0.074,0.133,0.171,0.241,0.284,0.336
	c0.109,0.098,0.212,0.202,0.277,0.339c0.453,0.625,0.909,1.254,1.363,1.879c0.128,0.107,0.19,0.265,0.268,0.411
	c0.327,0.582,0.654,1.162,0.983,1.744c0.104,0.055,0.096,0.178,0.146,0.268c0.094,0.203,0.189,0.405,0.282,0.607
	c0.137,0.178,0.194,0.398,0.284,0.6c0.028,0.202,0.137,0.368,0.219,0.543c0.159,0.193,0.183,0.45,0.281,0.671
	c0.061,0.263,0.158,0.509,0.285,0.743c0.124,0.187,0.202,0.397,0.276,0.612c0.395,1.013,0.86,1.992,1.509,2.844
	c1.922,2.517,3.309,5.345,4.327,8.397c0.392,1.171,0.687,2.373,0.885,3.602c0.053,0.056,0.098,0.118,0.119,0.2
	c0.119,0.659,0.187,1.327,0.213,1.999C33.171,10.683,33.19,10.849,33.072,10.976z"/>
<path fill="#FF00F9" d="M-0.966,16.048c-0.152-0.29-0.304-0.577-0.457-0.867c-0.072-0.112-0.131-0.234-0.182-0.358
	c-0.375-0.65-0.656-1.345-0.887-2.064c-0.072-0.208-0.136-0.419-0.248-0.608c-0.007-0.337-0.144-0.635-0.214-0.953
	c-0.019-0.086-0.013-0.171-0.034-0.255C-3.427,8.946-3.383,6.95-2.993,4.955c0.07-0.313,0.125-0.629,0.209-0.937
	c0.036-0.129,0.048-0.254,0.051-0.384C-2.584,3.375-2.541,3.072-2.425,2.8c0.083-0.231,0.166-0.461,0.248-0.691
	c0.052-0.18,0.119-0.354,0.196-0.522C-1.9,1.261-1.67,1.006-1.605,0.672c0.101-0.186,0.21-0.367,0.296-0.561
	c0.013-0.019,0.021-0.039,0.022-0.061c0.132-0.07,0.157,0.03,0.168,0.129c0.014,0.128,0.006,0.257,0.006,0.386
	c0,0.585,0,1.171,0.158,1.742c0.034,0.079,0.021,0.153-0.025,0.225c0.065,0.392,0.139,0.78,0.285,1.15
	C-0.6,3.768-0.615,3.91-0.547,4.01c0.379,1.263,1.116,2.268,1.976,3.182c0.045,0.046,0.097,0.081,0.146,0.121
	C1.669,7.374,1.764,7.439,1.828,7.54c0.407,0.387,0.857,0.716,1.299,1.056c0.14,0.037,0.222,0.136,0.269,0.277
	c0.344,0.389,0.649,0.815,0.917,1.269c0.146,0.127,0.186,0.324,0.271,0.491c0.061,0.203,0.125,0.405,0.234,0.586
	c0.159,0.211,0.179,0.493,0.307,0.718c0.013,0.054,0,0.101-0.022,0.147c0.092,0.361,0.185,0.723,0.277,1.084
	c0.157,0.446,0.259,0.892-0.004,1.335c-0.136,0.439-0.228,0.89-0.276,1.353c0.036,0.055,0.041,0.112,0.021,0.173
	c-0.121,0.452-0.161,0.92-0.176,1.382c-0.032,1.014-0.028,2.029,0.12,3.036c0.006,0.058,0.031,0.106,0.057,0.155
	c0.038,0.081,0.027,0.158-0.02,0.231c0.053,0.569,0.23,1.114,0.35,1.664c-0.229,0.015-0.369-0.174-0.544-0.277
	c-0.224-0.133-0.435-0.294-0.65-0.441c-0.05-0.055-0.097-0.109-0.157-0.149C4,21.528,3.855,21.486,3.785,21.352
	c-0.089-0.083-0.177-0.167-0.266-0.249c-0.079-0.073-0.166-0.136-0.238-0.215l0.005,0.004c-0.129-0.051-0.199-0.194-0.322-0.258
	c-0.52-0.475-1.042-0.947-1.512-1.482c-0.069-0.058-0.156-0.094-0.182-0.197c-0.123-0.136-0.245-0.271-0.368-0.409
	c-0.063-0.086-0.123-0.176-0.195-0.252c-0.102-0.119-0.205-0.236-0.308-0.354c-0.065-0.113-0.163-0.195-0.25-0.289
	c-0.149-0.218-0.299-0.436-0.448-0.655c-0.052-0.095-0.122-0.174-0.183-0.263c-0.102-0.145-0.203-0.291-0.304-0.434
	C-0.925,16.282-0.954,16.17-0.966,16.048z"/>
<path fill="#E785F9" d="M1.127-2.987c-0.003-0.133-0.004-0.268-0.006-0.4C1.05-3.519,1.132-3.675,1.066-3.807
	C1.062-3.915,1.061-4.023,1.058-4.128c-0.07-0.107,0.009-0.24-0.057-0.348C0.998-4.518,0.996-4.56,0.996-4.601
	C0.926-4.703,1.007-4.837,0.938-4.941l0.001,0.004C0.857-5.038,0.945-5.174,0.874-5.278l0.004,0.004
	c-0.093-0.343-0.13-0.702-0.261-1.034C0.496-6.353,0.492-6.452,0.516-6.563c0.016-0.366-0.227-0.652-0.274-1
	c-0.057-0.153-0.098-0.314-0.221-0.43C-0.048-8.064-0.04-8.164-0.06-8.252c-0.356-0.86-0.82-1.649-1.376-2.376
	c-0.07-0.093-0.134-0.194-0.202-0.291c-0.027-0.066-0.091-0.125-0.057-0.199c0.022-0.051,0.079-0.047,0.123-0.007
	c0.019,0,0.039,0,0.059,0.001c0.226,0.056,0.43,0.164,0.624,0.294c0.568,0.261,1.111,0.588,1.616,0.956
	c0.667,0.482,1.28,1.053,1.763,1.762C2.815-7.631,3.036-7.097,3.23-6.546c0.266,0.658,0.193,1.351,0.151,2.031
	C3.36-4.203,3.313-3.88,3.165-3.596C3.048-3.257,2.93-2.92,2.814-2.583C2.75-2.446,2.724-2.289,2.613-2.18
	C2.511-1.981,2.408-1.783,2.306-1.584C2.285-1.466,2.232-1.367,2.133-1.303C1.857-0.917,1.587-0.527,1.3-0.151
	C1.228-0.057,1.185,0.13,1.001,0.054c0.066-0.106-0.01-0.24,0.055-0.346C1.06-0.4,1.061-0.509,1.065-0.619
	C1.134-0.75,1.05-0.904,1.119-1.032c0.002-0.179,0.006-0.357,0.008-0.536C1.146-2.041,1.185-2.514,1.127-2.987z"/>
<path fill-rule="evenodd" clip-rule="evenodd" fill="#FCFC00" d="M33.171,11.042c0.029-0.717-0.092-1.42-0.167-2.128
	c-0.014-0.086,0.047-0.151,0.05-0.232c0.222-1.556,0.128-3.08-0.354-4.568c-0.337-1.05-0.861-1.986-1.402-2.91
	c-0.617-1.055-1.259-2.089-1.887-3.131c-0.365-0.599-0.63-1.253-0.885-1.916c-0.101-0.222-0.154-0.462-0.209-0.699
	c-0.104-0.337-0.212-0.673-0.262-1.027c-0.087-0.324-0.148-0.653-0.2-0.985c-0.088-0.28-0.121-0.57-0.161-0.86
	c-0.067-0.087,0.008-0.206-0.052-0.292v0.001c-0.103-0.5-0.178-1.004-0.257-1.507c-0.069-0.325-0.14-0.647-0.208-0.971
	c-0.064-0.25-0.145-0.497-0.21-0.746c-0.082-0.251-0.167-0.501-0.25-0.752c-0.071-0.174-0.146-0.343-0.213-0.517
	c-0.104-0.212-0.208-0.426-0.31-0.639c-0.068-0.084-0.085-0.203-0.159-0.283l0.004-0.008c-0.03-0.043-0.03-0.089,0.01-0.122
	c0.03-0.026,0.063-0.013,0.09,0.011c0.141,0.124,0.296,0.21,0.46,0.287c0.101,0.038,0.194,0.092,0.259,0.188
	c0.789,0.56,1.53,1.195,2.268,1.833c0.083,0.047,0.16,0.106,0.213,0.195c0.059,0.081,0.118,0.161,0.205,0.207
	c0.101,0.066,0.183,0.156,0.26,0.253c0.078,0.102,0.154,0.199,0.26,0.265c0.353,0.338,0.685,0.702,0.984,1.102
	c0.062,0.116,0.151,0.203,0.241,0.287c0.098,0.11,0.207,0.209,0.277,0.352c0.787,1.045,1.492,2.153,2.1,3.339
	c0.089,0.047,0.086,0.154,0.121,0.235c0.053,0.208,0.146,0.392,0.25,0.57c0.109,0.137,0.167,0.304,0.213,0.475
	c0.096,0.266,0.193,0.53,0.29,0.795c0.111,0.137,0.119,0.317,0.176,0.478c0.046,0.292,0.151,0.567,0.237,0.849
	c0.128,0.275,0.171,0.58,0.228,0.88c0.027,0.287,0.072,0.572,0.164,0.844c0.054,0.089-0.01,0.204,0.046,0.293L35.39,0.487
	c0.204,1.32,0.292,2.642,0.191,3.981c-0.037,0.5-0.072,0.999-0.145,1.494l0.004-0.005c-0.055,0.111,0.017,0.246-0.049,0.354
	c-0.113,0.391-0.155,0.795-0.21,1.199c-0.045,0.255-0.046,0.525-0.176,0.756c-0.096,0.4-0.227,0.789-0.289,1.2
	c-0.044,0.181-0.06,0.375-0.175,0.53c-0.079,0.265-0.192,0.518-0.239,0.797c-0.031,0.144-0.027,0.298-0.107,0.424
	c-0.042,0.083-0.074,0.169-0.088,0.262c-0.114,0.343-0.249,0.674-0.38,1.006c-0.034,0.088-0.056,0.21-0.181,0.215
	C33.423,12.148,33.294,11.595,33.171,11.042z"/>
</svg>
