<?xml version="1.0" encoding="utf-8"?>
<!-- Generator: Adobe Illustrator 16.0.0, SVG Export Plug-In . SVG Version: 6.00 Build 0)  -->
<!DOCTYPE svg PUBLIC "-//W3C//DTD SVG 1.1//EN" "http://www.w3.org/Graphics/SVG/1.1/DTD/svg11.dtd">
<svg version="1.1" id="Layer_1" xmlns="http://www.w3.org/2000/svg" xmlns:xlink="http://www.w3.org/1999/xlink" x="0px" y="0px"
	 width="169px" height="49px" viewBox="0 0 169 49" enable-background="new 0 0 169 49" xml:space="preserve">
<g>
	<g>
		<path fill="#FFFFFF" d="M37.476,26.357v7.199H35.82v-7.199H37.476z"/>
		<path fill="#FFFFFF" d="M37.888,28.566c0-0.309,0.058-0.596,0.175-0.861c0.116-0.269,0.273-0.502,0.473-0.7
			c0.199-0.197,0.431-0.356,0.699-0.473c0.267-0.118,0.556-0.175,0.864-0.175h1.11c0.309,0,0.596,0.057,0.864,0.175
			c0.268,0.116,0.5,0.275,0.699,0.473c0.199,0.198,0.356,0.432,0.473,0.7c0.117,0.266,0.175,0.553,0.175,0.861v4.99h-1.656v-4.99
			c0-0.149-0.054-0.278-0.16-0.389c-0.106-0.109-0.239-0.164-0.396-0.164H40.1c-0.159,0-0.29,0.055-0.396,0.164
			c-0.107,0.11-0.16,0.239-0.16,0.389v4.99h-1.656V28.566z"/>
		<path fill="#FFFFFF" d="M45.489,26.357v7.199h-1.656v-7.199H45.489z"/>
		<path fill="#FFFFFF" d="M50.889,28.021h-1.667v5.535h-1.656v-5.535h-1.666v-1.664h4.988V28.021z"/>
		<path fill="#FFFFFF" d="M52.957,26.357v7.199h-1.656v-7.199H52.957z"/>
		<path fill="#FFFFFF" d="M57.246,33.557l-1.111-4.133l-1.111,4.133h-1.656l1.923-7.199h0.021h1.646h0.021l1.923,7.199H57.246z"/>
		<path fill="#FFFFFF" d="M63.273,28.021h-1.667v5.535H59.95v-5.535h-1.666v-1.664h4.989V28.021z"/>
		<path fill="#FFFFFF" d="M65.341,26.357v7.199h-1.656v-7.199H65.341z"/>
		<path fill="#FFFFFF" d="M71.287,26.357l-1.924,7.199h-0.02h-1.646h-0.02l-1.924-7.199h1.657l1.111,4.134l1.111-4.134H71.287z"/>
		<path fill="#FFFFFF" d="M82.087,29.299c0.268,0.116,0.501,0.274,0.698,0.479c0.199,0.201,0.356,0.438,0.474,0.703
			c0.116,0.269,0.175,0.556,0.175,0.865c0,0.308-0.059,0.595-0.175,0.863c-0.117,0.269-0.274,0.502-0.474,0.701
			c-0.197,0.197-0.431,0.356-0.698,0.472c-0.269,0.115-0.556,0.175-0.864,0.175H77.9v-1.655h3.323
			c0.157-0.006,0.289-0.065,0.396-0.17c0.106-0.107,0.16-0.236,0.16-0.386c0-0.159-0.054-0.291-0.16-0.396
			c-0.106-0.107-0.238-0.16-0.396-0.16h-1.11c-0.31,0-0.598-0.058-0.865-0.175c-0.267-0.116-0.5-0.276-0.699-0.478
			s-0.356-0.438-0.472-0.707c-0.118-0.265-0.176-0.556-0.176-0.864s0.058-0.596,0.176-0.861c0.116-0.269,0.273-0.502,0.472-0.7
			c0.199-0.197,0.433-0.356,0.699-0.473c0.268-0.118,0.556-0.175,0.865-0.175h2.211v1.664h-2.211c-0.158,0-0.291,0.054-0.396,0.162
			c-0.106,0.104-0.159,0.233-0.159,0.383c0,0.158,0.053,0.29,0.159,0.398c0.105,0.106,0.238,0.157,0.396,0.157h1.11
			C81.531,29.122,81.818,29.182,82.087,29.299z"/>
	</g>
	<g>
		<path fill="#FFFFFF" d="M36.862,38.922c-0.084,0.084-0.125,0.186-0.125,0.304v0.438h3.05v1.31h-3.05v2.178h-1.303v-3.925
			c0-0.244,0.046-0.47,0.138-0.68c0.091-0.211,0.215-0.394,0.372-0.55c0.156-0.158,0.34-0.282,0.55-0.373
			c0.21-0.092,0.437-0.137,0.68-0.137h2.614v1.31h-2.614C37.049,38.796,36.945,38.839,36.862,38.922z"/>
		<path fill="#FFFFFF" d="M42.959,37.486c0.242,0,0.468,0.045,0.679,0.137c0.211,0.091,0.393,0.215,0.551,0.373
			c0.156,0.156,0.28,0.339,0.372,0.55c0.092,0.21,0.137,0.436,0.137,0.68v2.186c0,0.24-0.045,0.47-0.137,0.679
			s-0.216,0.395-0.372,0.55c-0.158,0.156-0.339,0.279-0.551,0.373c-0.211,0.092-0.437,0.138-0.679,0.138h-0.874
			c-0.243,0-0.469-0.046-0.68-0.138c-0.21-0.094-0.394-0.217-0.551-0.373c-0.156-0.155-0.28-0.341-0.372-0.55
			c-0.092-0.209-0.138-0.438-0.138-0.679v-2.186c0-0.244,0.046-0.47,0.138-0.68c0.092-0.211,0.216-0.394,0.372-0.55
			c0.157-0.158,0.34-0.282,0.551-0.373c0.21-0.092,0.437-0.137,0.68-0.137H42.959z M43.396,39.226c0-0.118-0.042-0.22-0.125-0.304
			c-0.083-0.083-0.188-0.126-0.311-0.126h-0.874c-0.124,0-0.228,0.043-0.312,0.126c-0.083,0.084-0.125,0.186-0.125,0.304v2.186
			c0,0.117,0.042,0.22,0.125,0.306c0.084,0.086,0.188,0.131,0.312,0.131h0.874c0.124,0,0.228-0.045,0.311-0.131
			c0.084-0.086,0.125-0.188,0.125-0.306V39.226z"/>
		<path fill="#FFFFFF" d="M49.61,41.411c0,0.24-0.045,0.47-0.138,0.679c-0.092,0.209-0.215,0.395-0.372,0.55
			c-0.156,0.156-0.339,0.279-0.55,0.373c-0.21,0.092-0.437,0.138-0.68,0.138h-0.874c-0.244,0-0.47-0.046-0.68-0.138
			c-0.211-0.094-0.394-0.217-0.55-0.373c-0.157-0.155-0.281-0.341-0.373-0.55c-0.091-0.209-0.137-0.438-0.137-0.679v-3.925h1.303
			v3.925c0,0.117,0.042,0.22,0.125,0.306c0.084,0.086,0.188,0.131,0.313,0.131h0.874c0.124,0,0.228-0.045,0.311-0.131
			c0.084-0.086,0.125-0.188,0.125-0.306v-3.925h1.303V41.411z"/>
		<path fill="#FFFFFF" d="M50.168,39.226c0-0.244,0.045-0.47,0.138-0.68c0.091-0.211,0.216-0.394,0.372-0.55
			c0.157-0.158,0.34-0.282,0.55-0.373c0.21-0.092,0.438-0.137,0.68-0.137h0.874c0.243,0,0.47,0.045,0.68,0.137
			c0.21,0.091,0.394,0.215,0.55,0.373c0.157,0.156,0.28,0.339,0.372,0.55c0.092,0.21,0.138,0.436,0.138,0.68v3.925h-1.303v-3.925
			c0-0.118-0.042-0.223-0.126-0.309s-0.187-0.129-0.312-0.129h-0.874c-0.125,0-0.229,0.043-0.312,0.129
			c-0.083,0.086-0.125,0.19-0.125,0.309v3.925h-1.303V39.226z"/>
		<path fill="#FFFFFF" d="M59.433,41.411c0,0.24-0.045,0.47-0.137,0.679c-0.091,0.209-0.216,0.395-0.372,0.55
			c-0.157,0.156-0.34,0.279-0.551,0.373c-0.209,0.092-0.436,0.138-0.679,0.138h-1.311H55.08v-5.664h1.303h1.311
			c0.244,0,0.47,0.045,0.679,0.137c0.211,0.091,0.394,0.215,0.551,0.373c0.156,0.156,0.281,0.339,0.372,0.55
			c0.092,0.21,0.137,0.436,0.137,0.68V41.411z M58.131,39.226c0-0.118-0.042-0.22-0.126-0.304c-0.083-0.083-0.187-0.126-0.312-0.126
			h-1.311v3.052h1.311c0.125,0,0.229-0.045,0.312-0.131c0.083-0.086,0.126-0.188,0.126-0.306V39.226z"/>
		<path fill="#FFFFFF" d="M63.042,43.15l-0.874-3.253l-0.874,3.253h-1.303l1.513-5.664h0.016h1.295h0.016l1.514,5.664H63.042z"/>
		<path fill="#FFFFFF" d="M68.019,38.796h-1.311v4.354h-1.303v-4.354h-1.31v-1.31h3.924V38.796z"/>
		<path fill="#FFFFFF" d="M69.879,37.486v5.664h-1.303v-5.664H69.879z"/>
		<path fill="#FFFFFF" d="M73.052,37.486c0.242,0,0.469,0.045,0.68,0.137c0.21,0.091,0.394,0.215,0.549,0.373
			c0.157,0.156,0.281,0.339,0.373,0.55c0.092,0.21,0.138,0.436,0.138,0.68v2.186c0,0.24-0.046,0.47-0.138,0.679
			s-0.216,0.395-0.373,0.55c-0.156,0.156-0.339,0.279-0.549,0.373c-0.211,0.092-0.438,0.138-0.68,0.138h-0.874
			c-0.244,0-0.47-0.046-0.68-0.138c-0.211-0.094-0.394-0.217-0.551-0.373c-0.157-0.155-0.281-0.341-0.373-0.55
			c-0.091-0.209-0.137-0.438-0.137-0.679v-2.186c0-0.244,0.045-0.47,0.137-0.68c0.092-0.211,0.216-0.394,0.373-0.55
			c0.157-0.158,0.34-0.282,0.551-0.373c0.21-0.092,0.436-0.137,0.68-0.137H73.052z M73.489,39.226c0-0.118-0.042-0.22-0.125-0.304
			c-0.083-0.083-0.188-0.126-0.312-0.126h-0.874c-0.125,0-0.229,0.043-0.313,0.126c-0.083,0.084-0.125,0.186-0.125,0.304v2.186
			c0,0.117,0.042,0.22,0.125,0.306c0.084,0.086,0.188,0.131,0.313,0.131h0.874c0.124,0,0.228-0.045,0.312-0.131
			c0.084-0.086,0.125-0.188,0.125-0.306V39.226z"/>
		<path fill="#FFFFFF" d="M75.35,39.226c0-0.244,0.045-0.47,0.138-0.68c0.09-0.211,0.215-0.394,0.371-0.55
			c0.157-0.158,0.34-0.282,0.551-0.373c0.21-0.092,0.437-0.137,0.68-0.137h0.874c0.242,0,0.47,0.045,0.68,0.137
			c0.209,0.091,0.394,0.215,0.55,0.373c0.156,0.156,0.279,0.339,0.372,0.55c0.091,0.21,0.138,0.436,0.138,0.68v3.925H78.4v-3.925
			c0-0.118-0.042-0.223-0.125-0.309c-0.085-0.086-0.187-0.129-0.312-0.129h-0.874c-0.124,0-0.228,0.043-0.311,0.129
			c-0.084,0.086-0.125,0.19-0.125,0.309v3.925H75.35V39.226z"/>
	</g>
	<g>
		<path fill="#FFFFFF" d="M40.394,18.259h-1.555v5.167h-1.546v-5.167h-1.555v-1.555h4.655V18.259z"/>
		<path fill="#FFFFFF" d="M45.943,16.704v6.722h-1.546v-2.584h-2.073v2.584h-1.546v-6.722h1.546v2.582h2.073v-2.582H45.943z"/>
		<path fill="#FFFFFF" d="M48.021,18.408c-0.098,0.1-0.148,0.219-0.148,0.36v0.518h3.62v1.556h-3.62v0.52
			c0,0.141,0.05,0.261,0.148,0.365c0.1,0.102,0.223,0.153,0.371,0.153h3.101v1.547h-3.101c-0.289,0-0.557-0.056-0.806-0.164
			c-0.25-0.109-0.468-0.256-0.653-0.442c-0.186-0.185-0.333-0.404-0.442-0.652c-0.109-0.25-0.163-0.519-0.163-0.806v-2.593
			c0-0.287,0.053-0.557,0.163-0.806c0.109-0.25,0.256-0.467,0.442-0.653c0.185-0.185,0.403-0.333,0.653-0.441
			c0.249-0.108,0.518-0.164,0.806-0.164h3.101v1.555h-3.101C48.244,18.259,48.12,18.309,48.021,18.408z"/>
	</g>
	<rect x="73.661" y="26.357" fill="#FFFFFF" width="3.88" height="1.656"/>
	<rect x="71.665" y="26.357" fill="#00F9FF" width="1.539" height="1.59"/>
	<rect x="71.527" y="29.026" fill="#FFFFFF" width="6.014" height="1.854"/>
	<rect x="73.661" y="31.866" fill="#FFFFFF" width="3.88" height="1.658"/>
	<rect x="71.665" y="31.866" fill="#00F9FF" width="1.539" height="1.588"/>
	<path fill="#00AAFF" stroke="#00AAFF" stroke-width="0.3" stroke-miterlimit="10" d="M21.339,41.657l0-0.002
		c-0.01,0.002-0.021,0.002-0.031,0c-0.073-0.006-0.131-0.033-0.182-0.076l-0.003,0.029c-0.004-0.002-0.008-0.002-0.013-0.002
		c-0.003-0.003-0.006-0.003-0.011-0.003l-1.243-0.161c0-0.005,0.002-0.013,0.002-0.019c-0.013,0.008-0.03,0.011-0.049,0.014
		c-0.16,0.008-0.316-0.022-0.471-0.06l-0.404-0.053c-0.018,0.008-0.037,0.01-0.056,0.008c-0.069-0.008-0.138-0.019-0.205-0.041
		c-0.008-0.002-0.017-0.008-0.023-0.013c0,0.005,0,0.007-0.001,0.007l-1.243-0.158c-0.008-0.002-0.016,0-0.023-0.002l0.003-0.026
		c-0.051,0.013-0.103,0.019-0.155,0.028c-0.028,0.004-0.052,0-0.071-0.013l0,0.005c-0.397,0.019-0.706,0.209-0.741,0.488
		c-0.035,0.274,0.218,0.541,0.593,0.658l-0.4,3.097l1.812,2.36l2.353-1.825l0.401-3.093c0.4-0.019,0.72-0.211,0.757-0.488
		C21.97,42.039,21.719,41.775,21.339,41.657z M18.461,47.431l-0.338-0.439l0.776,0.099L18.461,47.431z M19.12,46.918l-1.162-0.15
		c-0.002,0-0.003,0.003-0.003,0.003l-0.999-1.301l3.459,0.445L19.12,46.918z M16.846,45.254l0.379-2.937
		c0.009,0.003,0.018,0.006,0.027,0.006l0.742,0.097l-0.38,2.934L16.846,45.254z M17.833,45.383l0.38-2.937l0.77,0.1l-0.38,2.934
		L17.833,45.383z M18.82,45.509l0.379-2.937l0.771,0.1l-0.38,2.937L18.82,45.509z M20.576,45.734l-0.77-0.099l0.38-2.935
		l0.759,0.097c0.004,0,0.007,0,0.011,0L20.576,45.734z M21.215,42.604c-0.004,0-0.009,0-0.013,0
		c-0.036,0.003-0.072,0.006-0.11,0.006c-0.036-0.003-0.073-0.003-0.11-0.008c-0.003,0-0.006,0-0.011,0l-3.693-0.476
		c-0.009-0.002-0.018-0.006-0.027-0.006c-0.037-0.005-0.072-0.011-0.108-0.021c-0.036-0.009-0.069-0.019-0.103-0.033
		c-0.001,0-0.002,0-0.003,0c-0.251-0.091-0.423-0.263-0.401-0.429c0.022-0.17,0.232-0.289,0.498-0.317c0,0,0.002,0,0.004,0
		c0.035-0.002,0.07-0.005,0.108-0.005c0,0,0.001,0,0.003,0c0.035,0,0.07,0.005,0.105,0.009h0.003c0.008,0,0.015,0,0.023,0.002
		l3.693,0.472c0.005,0,0.007,0.004,0.012,0.004c0.003,0,0.007,0.002,0.012,0.002c0.033,0.006,0.064,0.011,0.095,0.019
		c0.003,0,0.008,0,0.012,0c0.033,0.009,0.063,0.019,0.094,0.03c0.004,0.003,0.008,0.003,0.013,0.005
		c0.253,0.092,0.426,0.263,0.405,0.433C21.695,42.457,21.485,42.58,21.215,42.604z"/>
	<g>
		<g>
			<path fill="#00F9FF" d="M16.555,35.054c-0.447,0.028-0.866-0.091-1.208-0.341c-0.356,0.119-1.26,0.314-2.069-0.332
				c-0.675-0.543-0.982-1.307-0.937-2.344c0.02-0.478,0.249-0.958,0.629-1.317c0.281-0.266,0.615-0.435,0.951-0.489
				c-0.018-0.316,0.008-0.797,0.268-1.159c0.203-0.284,0.502-0.442,0.89-0.47c0.459-0.032,1.243,0.095,1.336,1.313
				c0.012,0.156-0.099,0.29-0.247,0.304c-0.147,0.011-0.28-0.104-0.292-0.263c-0.044-0.586-0.273-0.824-0.758-0.787
				c-0.228,0.017-0.39,0.097-0.496,0.244c-0.219,0.304-0.17,0.845-0.134,1.027c0.018,0.086-0.004,0.178-0.059,0.242
				c-0.054,0.067-0.135,0.104-0.219,0.1c-0.294-0.019-0.614,0.113-0.876,0.362c-0.274,0.258-0.439,0.596-0.454,0.924
				c-0.036,0.859,0.188,1.434,0.725,1.862c0.755,0.606,1.642,0.22,1.68,0.203c0.093-0.039,0.203-0.022,0.28,0.044
				c0.293,0.258,0.693,0.362,1.125,0.295c0.476-0.074,0.919-0.349,1.129-0.695c0.521-0.855,0.387-1.946,0.386-1.953
				c-0.001-0.008-0.001-0.017-0.001-0.022l-0.391-6.821c-0.01-0.155,0.104-0.29,0.252-0.297c0.149-0.01,0.277,0.111,0.286,0.266
				l0.391,6.813c0.017,0.14,0.134,1.333-0.467,2.324c-0.294,0.483-0.87,0.845-1.502,0.944
				C16.701,35.044,16.628,35.052,16.555,35.054z"/>
		</g>
		<g>
			<path fill="#00F9FF" d="M12.628,32.336c-0.02,0.002-0.039,0-0.059-0.004c-0.439-0.074-1.289-0.552-1.361-1.821
				c-0.049-0.843,0.383-1.445,0.847-1.751c-0.196-0.201-0.413-0.496-0.509-0.88c-0.118-0.468-0.033-0.953,0.248-1.444
				c0.33-0.578,1.172-0.9,1.958-0.748c0.682,0.132,1.14,0.583,1.259,1.236c0.027,0.153-0.069,0.302-0.216,0.33
				c-0.146,0.027-0.288-0.071-0.315-0.228c-0.101-0.562-0.558-0.73-0.822-0.782c-0.558-0.107-1.186,0.109-1.399,0.485
				c-0.203,0.356-0.268,0.693-0.19,1.005c0.132,0.535,0.635,0.849,0.641,0.852c0.096,0.059,0.148,0.174,0.132,0.289
				c-0.017,0.116-0.098,0.207-0.207,0.233c-0.395,0.092-0.931,0.58-0.886,1.372c0.065,1.136,0.898,1.292,0.907,1.294
				c0.147,0.024,0.248,0.17,0.225,0.324C12.858,32.233,12.751,32.33,12.628,32.336z"/>
		</g>
		<g>
			<path fill="#00F9FF" d="M16.454,27.412c-0.061,0.004-0.122,0.004-0.183-0.002c-0.534-0.037-0.943-0.405-1.068-0.953
				c-0.126-0.558,0.075-1.143,0.479-1.39c0.282-0.173,0.552-0.219,0.802-0.139c0.349,0.111,0.507,0.429,0.524,0.464
				c0.065,0.141,0.011,0.312-0.123,0.379c-0.133,0.067-0.294,0.012-0.36-0.127c-0.004-0.008-0.073-0.137-0.2-0.177
				c-0.1-0.028-0.224,0-0.37,0.09c-0.198,0.122-0.297,0.46-0.227,0.771c0.041,0.181,0.169,0.488,0.578,0.518
				c0.316,0.023,0.641-0.13,0.915-0.433c0.432-0.477,0.646-1.228,0.562-1.961c-0.091-0.779-0.64-1.056-0.872-1.141
				c-0.434-0.156-0.922-0.085-1.162,0.171c-0.341,0.364-0.218,0.8-0.217,0.804c0.034,0.119-0.009,0.248-0.107,0.317
				c-0.098,0.069-0.229,0.063-0.321-0.016c-0.022-0.019-0.58-0.47-1.188-0.079c-0.298,0.193-0.555,0.774-0.449,1.383
				c0.027,0.154-0.07,0.302-0.217,0.329c-0.146,0.026-0.287-0.076-0.314-0.229c-0.135-0.779,0.164-1.623,0.696-1.966
				c0.522-0.335,1.013-0.269,1.354-0.139c0.031-0.246,0.129-0.538,0.379-0.802c0.389-0.417,1.082-0.54,1.722-0.309
				c0.694,0.251,1.144,0.837,1.235,1.61c0.105,0.911-0.157,1.815-0.705,2.42C17.277,27.179,16.871,27.388,16.454,27.412z"/>
		</g>
		<g>
			<path fill="#00F9FF" d="M18.395,33.4c-0.023,0-0.047,0-0.071-0.004c-0.146-0.035-0.24-0.187-0.21-0.339l0,0
				c0.052-0.261,0.136-1.022-0.092-1.38c-0.061-0.097-0.138-0.15-0.241-0.172c-0.269-0.054-0.466-0.005-0.585,0.142
				c-0.152,0.188-0.154,0.494-0.113,0.61c0.051,0.145-0.016,0.306-0.152,0.361c-0.136,0.058-0.29-0.01-0.349-0.152
				c-0.027-0.062-0.28-0.614-0.813-0.494c-0.363,0.083-0.427,0.417-0.439,0.516c-0.023,0.209,0.05,0.402,0.178,0.467
				c0.134,0.07,0.19,0.239,0.125,0.382c-0.065,0.14-0.227,0.198-0.361,0.129c-0.337-0.176-0.53-0.594-0.479-1.045
				c0.057-0.513,0.385-0.896,0.858-1.004c0.389-0.088,0.705,0.027,0.944,0.207c0.042-0.123,0.104-0.241,0.187-0.344
				c0.175-0.214,0.507-0.447,1.098-0.33c0.247,0.051,0.451,0.193,0.591,0.416c0.395,0.617,0.197,1.691,0.173,1.809
				C18.618,33.305,18.514,33.393,18.395,33.4z"/>
		</g>
		<g>
			<path fill="#00F9FF" d="M18.422,30.778c0,0-0.001,0-0.002,0c-0.148,0.008-0.276-0.113-0.284-0.271
				c-0.042-0.772-0.081-1.505-0.282-1.696c-0.03-0.026-0.078-0.059-0.191-0.051c-0.344,0.019-0.354,0.306-0.349,0.396
				c0.009,0.154-0.105,0.289-0.254,0.298l0,0c-0.149,0.008-0.277-0.113-0.286-0.269c-0.021-0.376,0.189-0.954,0.857-0.991
				c0.232-0.014,0.428,0.054,0.581,0.196c0.371,0.35,0.409,1.079,0.463,2.091C18.684,30.636,18.57,30.77,18.422,30.778z"/>
		</g>
	</g>
	<g>
		<g>
			<path fill="#FCFC00" d="M21.466,34.775c-0.072,0.005-0.145,0.005-0.219,0.003c-0.64-0.03-1.253-0.325-1.601-0.773
				c-0.71-0.912-0.73-2.115-0.73-2.255l-0.391-6.81c-0.009-0.157,0.104-0.29,0.253-0.299c0.149-0.009,0.277,0.112,0.286,0.266
				l0.392,6.821c0,0.009,0,0.014,0,0.021c0,0.012-0.005,1.111,0.607,1.9c0.25,0.32,0.721,0.54,1.202,0.559
				c0.437,0.019,0.822-0.129,1.083-0.419c0.071-0.078,0.177-0.106,0.275-0.072c0.038,0.011,0.962,0.292,1.644-0.395
				c0.485-0.491,0.641-1.087,0.507-1.933c-0.052-0.328-0.255-0.642-0.557-0.869c-0.29-0.218-0.622-0.312-0.911-0.261
				c-0.083,0.017-0.168-0.011-0.23-0.073c-0.063-0.059-0.094-0.145-0.086-0.232c0.015-0.187,0-0.73-0.251-1.007
				c-0.123-0.135-0.293-0.193-0.521-0.185c-0.006,0-0.013,0-0.019,0.002c-0.473,0.026-0.665,0.287-0.643,0.867
				c0.006,0.156-0.108,0.287-0.259,0.292c-0.149,0.006-0.275-0.117-0.281-0.273c-0.046-1.222,0.714-1.436,1.178-1.455
				c0.388-0.017,0.704,0.107,0.938,0.365c0.299,0.33,0.38,0.805,0.398,1.121c0.34,0.017,0.692,0.148,1,0.379
				c0.419,0.312,0.703,0.766,0.777,1.237c0.162,1.023-0.055,1.82-0.664,2.433c-0.729,0.737-1.648,0.644-2.017,0.565
				C22.317,34.584,21.914,34.752,21.466,34.775z"/>
		</g>
		<g>
			<path fill="#FCFC00" d="M25.057,31.627c-0.123,0.008-0.24-0.076-0.275-0.207c-0.04-0.15,0.042-0.306,0.184-0.349
				c0.039-0.011,0.82-0.271,0.755-1.389c-0.045-0.791-0.635-1.215-1.038-1.261c-0.111-0.013-0.203-0.097-0.231-0.21
				c-0.03-0.112,0.01-0.233,0.099-0.3c0.004-0.006,0.467-0.373,0.538-0.918c0.041-0.32-0.062-0.649-0.304-0.979
				c-0.256-0.348-0.905-0.491-1.446-0.322c-0.256,0.081-0.691,0.301-0.727,0.87c-0.01,0.156-0.138,0.273-0.287,0.264
				c-0.149-0.013-0.262-0.148-0.252-0.304c0.042-0.665,0.446-1.165,1.108-1.373c0.763-0.24,1.637-0.017,2.031,0.521
				c0.336,0.457,0.475,0.932,0.412,1.407c-0.052,0.393-0.233,0.711-0.404,0.932c0.495,0.252,0.992,0.802,1.041,1.643
				c0.073,1.27-0.716,1.842-1.145,1.967C25.096,31.624,25.077,31.627,25.057,31.627z"/>
		</g>
		<g>
			<path fill="#FCFC00" d="M20.693,27.171c-0.417,0.024-0.845-0.14-1.223-0.472c-0.612-0.538-0.978-1.406-0.977-2.325
				c0.001-0.776,0.381-1.41,1.042-1.739c0.61-0.301,1.312-0.257,1.746,0.11c0.277,0.237,0.409,0.516,0.468,0.756
				c0.322-0.167,0.802-0.289,1.359-0.016c0.568,0.279,0.963,1.084,0.917,1.874c-0.009,0.157-0.137,0.273-0.286,0.263
				c-0.149-0.009-0.262-0.145-0.253-0.3c0.035-0.617-0.287-1.167-0.605-1.324c-0.657-0.324-1.166,0.208-1.171,0.213
				c-0.083,0.089-0.211,0.11-0.317,0.053c-0.105-0.059-0.163-0.181-0.142-0.304c0.002-0.016,0.064-0.459-0.308-0.774
				c-0.267-0.227-0.761-0.242-1.174-0.038c-0.221,0.11-0.734,0.449-0.736,1.231c-0.001,0.739,0.299,1.462,0.782,1.886
				c0.307,0.27,0.648,0.385,0.959,0.326c0.402-0.076,0.495-0.395,0.514-0.579c0.035-0.315-0.103-0.643-0.313-0.74
				c-0.155-0.071-0.283-0.087-0.378-0.048c-0.123,0.055-0.178,0.198-0.178,0.199c-0.05,0.146-0.203,0.222-0.344,0.168
				c-0.141-0.052-0.214-0.216-0.165-0.363c0.013-0.038,0.133-0.371,0.468-0.523c0.24-0.106,0.513-0.091,0.813,0.05
				c0.429,0.199,0.696,0.756,0.635,1.325c-0.061,0.56-0.426,0.969-0.952,1.07C20.814,27.16,20.753,27.168,20.693,27.171z"/>
		</g>
		<g>
			<path fill="#FCFC00" d="M19.45,33.339c-0.119,0.009-0.233-0.069-0.272-0.192c-0.038-0.115-0.356-1.16-0.036-1.821
				c0.115-0.232,0.302-0.399,0.54-0.478c0.573-0.185,0.93,0.009,1.128,0.205c0.094,0.091,0.169,0.201,0.225,0.319
				c0.217-0.207,0.519-0.354,0.915-0.312c0.482,0.054,0.852,0.397,0.968,0.896c0.101,0.442-0.042,0.884-0.356,1.093
				c-0.125,0.086-0.292,0.045-0.374-0.086c-0.081-0.135-0.044-0.31,0.081-0.392c0.119-0.082,0.17-0.279,0.124-0.484
				c-0.023-0.099-0.125-0.424-0.496-0.464c-0.543-0.059-0.731,0.518-0.751,0.585c-0.043,0.146-0.19,0.229-0.33,0.188
				c-0.14-0.043-0.226-0.194-0.191-0.342c0.027-0.12-0.01-0.421-0.182-0.591c-0.136-0.134-0.337-0.16-0.598-0.074
				c-0.101,0.032-0.17,0.094-0.22,0.195c-0.186,0.385-0.01,1.146,0.065,1.383c0.048,0.147-0.028,0.309-0.169,0.356
				C19.497,33.333,19.473,33.339,19.45,33.339z"/>
		</g>
		<g>
			<path fill="#FCFC00" d="M19.124,30.738c-0.148,0.009-0.277-0.11-0.286-0.266c-0.062-1.012-0.108-1.742,0.22-2.131
				c0.136-0.158,0.323-0.247,0.556-0.261c0.668-0.037,0.943,0.51,0.965,0.886c0.008,0.158-0.105,0.289-0.254,0.298
				c-0.147,0.012-0.275-0.107-0.285-0.263c-0.009-0.115-0.065-0.373-0.393-0.354c-0.113,0.006-0.157,0.043-0.183,0.073
				c-0.179,0.211-0.134,0.943-0.086,1.717C19.386,30.593,19.273,30.728,19.124,30.738L19.124,30.738z"/>
		</g>
	</g>
	<g>
		<path fill="#FFFFFF" d="M21.074,37.524c-0.015,0-0.03,0-0.045-0.004c-0.148-0.016-0.256-0.155-0.24-0.312
			c0.006-0.058,0.163-1.473,1.664-2.61c0.121-0.092,0.29-0.065,0.378,0.063c0.088,0.127,0.061,0.304-0.059,0.396
			c-1.31,0.992-1.443,2.203-1.444,2.215C21.312,37.41,21.203,37.517,21.074,37.524z"/>
	</g>
	<g>
		<path fill="#FFFFFF" d="M17.006,36.944c-0.107,0.005-0.211-0.054-0.26-0.162c-0.005-0.013-0.438-0.931-1.352-1.282
			c-0.14-0.053-0.213-0.217-0.162-0.365c0.051-0.145,0.206-0.221,0.347-0.167c1.127,0.438,1.633,1.525,1.654,1.573
			c0.064,0.141,0.007,0.309-0.127,0.376C17.074,36.934,17.04,36.94,17.006,36.944z"/>
	</g>
	<g>
		<path fill="#FFFFFF" d="M19.435,37.158L19.435,37.158c-0.093,0.006-0.173-0.066-0.179-0.166c-0.001-0.035-0.045-0.883,0.362-1.569
			c0.049-0.084,0.153-0.108,0.232-0.058c0.08,0.054,0.104,0.162,0.055,0.244c-0.35,0.591-0.312,1.355-0.312,1.364
			C19.598,37.07,19.527,37.153,19.435,37.158z"/>
	</g>
	<g>
		<path fill="#FFFFFF" d="M19.859,35.688c-0.281,0.017-0.525-0.212-0.543-0.507c-0.016-0.298,0.2-0.554,0.482-0.569
			c0.283-0.013,0.526,0.212,0.543,0.51C20.358,35.419,20.143,35.671,19.859,35.688z M19.819,34.966
			c-0.097,0.006-0.17,0.094-0.165,0.192c0.005,0.103,0.089,0.181,0.186,0.175c0.096-0.005,0.17-0.091,0.165-0.193
			C19.999,35.039,19.915,34.961,19.819,34.966z"/>
	</g>
	<g>
		<path fill="#FFFFFF" d="M18.848,37.194c-0.094,0.005-0.173-0.071-0.18-0.167l0,0c0-0.009-0.05-0.773-0.466-1.321
			c-0.058-0.074-0.046-0.188,0.026-0.246c0.073-0.062,0.18-0.049,0.238,0.026c0.483,0.636,0.538,1.484,0.539,1.52
			C19.011,37.104,18.94,37.188,18.848,37.194z"/>
	</g>
	<g>
		<path fill="#FFFFFF" d="M18.256,35.779c-0.282,0.017-0.526-0.213-0.542-0.508c-0.017-0.298,0.198-0.55,0.48-0.566
			c0.283-0.016,0.526,0.213,0.544,0.508C18.754,35.509,18.538,35.763,18.256,35.779z M18.214,35.058
			c-0.096,0.008-0.17,0.093-0.165,0.195c0.006,0.1,0.089,0.18,0.186,0.172c0.097-0.006,0.17-0.092,0.165-0.193
			C18.394,35.13,18.311,35.052,18.214,35.058z"/>
	</g>
	<g>
		<path fill="#FFEC3D" d="M18.214,35.046c-0.103,0.006-0.183,0.098-0.176,0.207c0.006,0.107,0.095,0.19,0.199,0.186
			c0.104-0.006,0.183-0.1,0.177-0.207C18.406,35.124,18.318,35.039,18.214,35.046z"/>
		<path fill="#FFEC3D" d="M19.818,34.953c-0.104,0.008-0.182,0.099-0.176,0.209c0.007,0.106,0.095,0.19,0.199,0.185
			c0.103-0.006,0.182-0.099,0.176-0.207C20.011,35.03,19.921,34.947,19.818,34.953z"/>
	</g>
	<path fill="#FF8500" d="M18.763,22.14c0.004,0.129-0.095,0.238-0.224,0.242h-0.005c-0.128,0.005-0.237-0.095-0.241-0.224
		l-0.065-1.648c-0.005-0.128,0.096-0.236,0.225-0.241h0.004c0.129-0.006,0.237,0.095,0.242,0.223L18.763,22.14z"/>
	<path fill="#FF8500" d="M24.563,24.569c-0.081,0.103-0.241,0.139-0.341,0.061l-0.003-0.002c-0.1-0.078-0.114-0.226-0.033-0.328
		l1.04-1.323c0.082-0.103,0.232-0.129,0.335-0.055l0.005,0.001c0.103,0.074,0.118,0.222,0.038,0.324L24.563,24.569z"/>
	<path fill="#FF8500" d="M12.734,24.496c0.083,0.103,0.069,0.246-0.032,0.322l-0.004,0.002c-0.101,0.075-0.25,0.055-0.333-0.045
		l-1.071-1.306c-0.083-0.103-0.077-0.257,0.027-0.33l0.004-0.003c0.104-0.072,0.256-0.048,0.34,0.054L12.734,24.496z"/>
	<g>
		<path fill="#00FFDA" d="M16.521,40.119c-0.027,0.244,0.141,0.47,0.375,0.5l4.888,0.617c0.233,0.029,0.446-0.146,0.472-0.39
			l0.019-0.169c0.026-0.247-0.141-0.47-0.375-0.499l-4.888-0.62c-0.234-0.03-0.446,0.145-0.473,0.392L16.521,40.119z"/>
		<path fill="#00FFDA" d="M16.449,38.863c-0.027,0.247,0.141,0.47,0.375,0.499l4.887,0.617c0.234,0.029,0.446-0.146,0.472-0.39
			l0.019-0.168c0.027-0.248-0.141-0.47-0.375-0.5l-4.888-0.62c-0.234-0.028-0.446,0.148-0.472,0.393L16.449,38.863z"/>
		<path fill="#00FFDA" d="M16.376,37.607c-0.026,0.244,0.141,0.469,0.375,0.498l4.888,0.617c0.234,0.03,0.446-0.144,0.473-0.388
			l0.019-0.172c0.027-0.244-0.141-0.468-0.375-0.497l-4.887-0.619c-0.234-0.03-0.446,0.144-0.473,0.392L16.376,37.607z"/>
	</g>
	<path fill="#00F9FF" d="M9.363,30.486c0.281,0.129,0.516,0.338,0.776,0.505c0.011,0.019,0.022,0.039,0.033,0.059
		c0.083,0.085,0.059,0.212,0.104,0.311c0.028,0.159,0.073,0.312,0.15,0.451c0.068,0.057,0.062,0.151,0.096,0.226l-0.002-0.002
		c0.092,0.043,0.118,0.12,0.091,0.217c0.06,0.215,0.177,0.397,0.275,0.589c0.068,0.034,0.062,0.117,0.099,0.174
		c0.047,0.132,0.122,0.247,0.198,0.361c0.05,0.06,0.107,0.11,0.129,0.191c0.136,0.258,0.305,0.489,0.492,0.705
		c0.056,0.047,0.09,0.114,0.139,0.168c0.107,0.037,0.082,0.201,0.191,0.235c0.116,0.126,0.236,0.244,0.346,0.376
		c0.022,0.024,0.044,0.049,0.067,0.072c0.056,0.04,0.102,0.092,0.142,0.15c0.104,0.089,0.159,0.253,0.324,0.253
		c0.073,0.077,0.146,0.155,0.219,0.233c0.452,0.356,0.903,0.702,1.422,0.956c0.257,0.123,0.505,0.275,0.773,0.378
		c0.084,0.005,0.145,0.077,0.228,0.088c0.055,0.03,0.108,0.062,0.163,0.094c-0.045,0.143-0.157,0.054-0.236,0.081
		c-0.035-0.003-0.069-0.003-0.102-0.014c-0.107-0.062-0.229-0.008-0.337-0.049c-0.078-0.022-0.164,0.024-0.238-0.031h0.003
		c-0.079-0.051-0.176,0.019-0.253-0.046l0.003,0.003c-0.079-0.055-0.176,0.013-0.254-0.046c-0.152-0.013-0.304-0.029-0.447-0.091
		c-0.304-0.033-0.592-0.14-0.887-0.22c-0.249-0.035-0.478-0.164-0.731-0.183c-0.077-0.078-0.186-0.076-0.27-0.135
		c-0.221-0.078-0.441-0.152-0.661-0.229c-0.018-0.005-0.036-0.01-0.052-0.016c-0.078-0.049-0.17-0.06-0.246-0.113
		c-0.015-0.014-0.031-0.026-0.046-0.043c-0.063-0.04-0.138-0.051-0.203-0.088c-0.127-0.06-0.255-0.119-0.383-0.177
		c-0.15-0.078-0.299-0.156-0.451-0.226c-0.104-0.03-0.178-0.129-0.289-0.144c-0.017-0.004-0.033-0.013-0.047-0.021
		c-0.042-0.032-0.074-0.078-0.123-0.1c-0.153-0.091-0.304-0.183-0.457-0.273c-0.094-0.065-0.19-0.127-0.293-0.172
		c-0.124-0.043-0.183-0.177-0.299-0.231c-0.079-0.062-0.164-0.113-0.244-0.175C8.139,34.437,8,34.33,7.862,34.223
		c-0.061-0.038-0.11-0.094-0.17-0.135c-0.208-0.179-0.415-0.356-0.622-0.537c-0.055-0.062-0.096-0.136-0.17-0.179
		c-0.082-0.076-0.162-0.151-0.242-0.226c-0.052-0.067-0.108-0.129-0.173-0.183c-0.046-0.06-0.091-0.115-0.137-0.172
		c-0.059-0.052-0.112-0.107-0.157-0.175c-0.069-0.075-0.137-0.153-0.205-0.228c-0.05-0.078-0.114-0.144-0.17-0.216
		c-0.067-0.077-0.134-0.157-0.201-0.235c-0.052-0.035-0.125-0.049-0.116-0.14c-0.392-0.545-0.766-1.101-1.093-1.691
		c-0.248-0.445-0.497-0.898-0.67-1.387c-0.046-0.103-0.079-0.207-0.13-0.304c-0.055-0.14-0.108-0.276-0.162-0.414
		c-0.042-0.072-0.057-0.155-0.083-0.233l0.003,0.006c-0.046-0.08-0.067-0.175-0.13-0.242c0-0.236-0.154-0.424-0.175-0.652
		C3.042,26.805,3,26.736,3.001,26.654C2.998,26.604,3,26.559,3.065,26.567c0.067,0.066,0.134,0.132,0.201,0.197
		c0.069,0.003,0.098,0.052,0.114,0.114c0.098,0.112,0.19,0.228,0.31,0.316c0.271,0.399,0.648,0.677,1.008,0.969
		c0.431,0.35,0.875,0.682,1.351,0.961c0.274,0.161,0.537,0.349,0.84,0.448c0.135,0.046,0.265,0.107,0.382,0.193
		c0.161,0.089,0.324,0.17,0.502,0.203c0.125,0.055,0.266,0.058,0.374,0.153c0.228,0.101,0.462,0.173,0.706,0.207
		c0.11,0.048,0.235-0.002,0.345,0.054C9.249,30.427,9.327,30.416,9.363,30.486z"/>
	<path fill="#FF0000" d="M10.975,11.195c-0.039-0.031-0.077-0.063-0.115-0.093c-0.081-0.036-0.141-0.095-0.174-0.185
		c-0.019-0.026-0.037-0.053-0.055-0.08c-0.101-0.094-0.197-0.194-0.282-0.306c-0.167-0.196-0.333-0.393-0.5-0.589
		C9.811,9.88,9.767,9.824,9.724,9.768C9.655,9.676,9.587,9.585,9.519,9.494C9.481,9.412,9.394,9.377,9.354,9.297
		C9.172,8.986,8.985,8.681,8.811,8.368C8.515,7.842,8.25,7.3,8.058,6.719c-0.035-0.074-0.054-0.153-0.08-0.231L7.98,6.492
		C7.91,6.374,7.898,6.231,7.847,6.105C7.79,5.922,7.715,5.748,7.688,5.556c-0.088-0.31-0.167-0.623-0.211-0.943
		c-0.064-0.079-0.023-0.18-0.045-0.267C7.386,4.29,7.43,4.212,7.394,4.152C7.391,4.128,7.39,4.103,7.387,4.078
		C7.346,4.003,7.39,3.914,7.352,3.838c0.01-0.011,0.009-0.02-0.002-0.029C7.221,3.002,7.229,2.188,7.255,1.375
		C7.26,1.192,7.251,0.994,7.312,0.812L7.31,0.815c0.046-0.085-0.013-0.189,0.04-0.274l0,0.001C7.48,0.437,7.573,0.547,7.676,0.608
		c0.18,0.061,0.342,0.176,0.532,0.207c0.074,0.03,0.158,0.035,0.218,0.097L8.422,0.909c0.063,0.018,0.133,0.026,0.172,0.094
		c0.385,0.207,0.769,0.413,1.154,0.619c0.08,0.039,0.165,0.067,0.222,0.144c0.106,0.078,0.2,0.176,0.329,0.212
		c0.093,0.051,0.186,0.101,0.256,0.187c0.317,0.25,0.635,0.503,0.953,0.752c0.067,0.036,0.125,0.084,0.171,0.146
		c0.019,0.038,0.042,0.069,0.083,0.077c0.083,0.051,0.148,0.121,0.209,0.197c0.047,0.064,0.097,0.125,0.168,0.162
		c0.112,0.076,0.198,0.185,0.29,0.285c0.149,0.16,0.297,0.32,0.446,0.479c0.094,0.098,0.195,0.191,0.267,0.312
		c0.047,0.091,0.117,0.16,0.189,0.226c0.065,0.042,0.103,0.113,0.144,0.179c0.032,0.096,0.12,0.141,0.174,0.218
		c0.073,0.049,0.142,0.1,0.155,0.202c0.006,0.079,0.067,0.115,0.113,0.163c0.058,0.048,0.107,0.102,0.135,0.177
		c0.084,0.184,0.213,0.333,0.33,0.492c0.053,0.056,0.109,0.112,0.131,0.193c0.045,0.13,0.125,0.236,0.205,0.344
		c0.067,0.056,0.101,0.138,0.135,0.219c0.177,0.315,0.354,0.629,0.531,0.944c0.068,0.057,0.078,0.156,0.136,0.22
		c0.119,0.255,0.236,0.512,0.356,0.766c0.074,0.039,0.072,0.121,0.096,0.191c0.056,0.13,0.091,0.271,0.176,0.386
		C16.223,9.642,16.3,9.789,16.35,9.95c0.035,0.164,0.114,0.305,0.2,0.443c0.087,0.089,0.113,0.216,0.175,0.321
		c0.215,0.439,0.496,0.83,0.806,1.196c0.217,0.257,0.446,0.503,0.695,0.724c0.159-0.01,0.189,0.162,0.29,0.235
		c0.199,0.189,0.415,0.353,0.653,0.481c0.135,0.044,0.24,0.141,0.348,0.233c0.116,0.089,0.229,0.183,0.375,0.209
		c0.115,0.058,0.244,0.088,0.334,0.192c0.13,0.087,0.262,0.171,0.413,0.213c0.093,0.032,0.189,0.058,0.253,0.149
		c0.149,0.088,0.287,0.203,0.453,0.253c0.06,0.028,0.133,0.028,0.171,0.098l-0.004-0.003c0.075,0.039,0.158,0.067,0.215,0.137
		c0.089,0.068,0.177,0.14,0.284,0.171c0.088,0.021,0.161,0.067,0.215,0.146c0.105,0.079,0.202,0.174,0.331,0.211
		c0.068,0.054,0.164,0.064,0.211,0.152c0.128,0.072,0.217,0.212,0.363,0.254c0.076,0.024,0.127,0.083,0.18,0.141
		c0.15,0.117,0.3,0.234,0.451,0.351c0.069,0.032,0.125,0.083,0.172,0.146c0.051,0.078,0.121,0.129,0.201,0.168
		c0.091,0.039,0.151,0.119,0.216,0.192c0.05,0.063,0.096,0.13,0.172,0.161c0.088,0.038,0.186,0.063,0.205,0.188
		c0.06,0.085,0.122,0.165,0.212,0.215c0.09,0.072,0.174,0.152,0.245,0.247c0.064,0.068,0.128,0.138,0.192,0.207
		c0.077,0.059,0.132,0.138,0.188,0.219c0.035,0.08,0.092,0.136,0.162,0.181c0.148,0.039,0.194,0.2,0.302,0.287
		c1.05,1.362,1.831,2.881,2.331,4.567c0.105,0.428,0.242,0.848,0.317,1.285c0.169,0.869,0.285,1.743,0.335,2.63
		c0.029,0.504,0.037,1.009,0.032,1.517c-0.012,1.25-0.247,2.451-0.715,3.6c-0.048,0.117-0.131,0.209-0.186,0.322
		c0.018,0.048-0.032,0.063-0.042,0.099c-0.047,0.1-0.102,0.196-0.172,0.279c-0.082,0.107-0.147,0.226-0.198,0.354
		c-0.052,0.097-0.093,0.198-0.176,0.274c-0.108,0.093-0.152,0.24-0.243,0.351c-0.032,0.072-0.077,0.134-0.137,0.183
		c-0.046,0.037-0.091,0.075-0.111,0.134c-0.048,0.09-0.112,0.161-0.185,0.224c-0.163,0.174-0.324,0.349-0.486,0.521
		c-0.061,0.078-0.125,0.153-0.212,0.198c-0.096,0.086-0.192,0.169-0.288,0.255c-0.046,0.065-0.103,0.115-0.172,0.147
		c-0.095,0.072-0.189,0.144-0.285,0.216c-0.054,0.059-0.104,0.12-0.181,0.142c-0.355,0.226-0.711,0.453-1.066,0.683
		c-0.107,0.066-0.22,0.125-0.337,0.171c-0.04,0.016-0.08,0.032-0.12,0.049c-0.049,0.021-0.101,0.056-0.123-0.035
		c0.271-0.22,0.543-0.44,0.811-0.666c0.122-0.102,0.235-0.218,0.352-0.327c0.104-0.078,0.183-0.183,0.279-0.271
		c0.033-0.036,0.065-0.067,0.097-0.103c0.08-0.104,0.182-0.188,0.252-0.301c0.042-0.056,0.084-0.113,0.127-0.169
		c0.057-0.062,0.124-0.112,0.163-0.19c0.393-0.494,0.716-1.039,1-1.61c0.066-0.078,0.085-0.183,0.132-0.271
		c0.034-0.118,0.12-0.218,0.123-0.35c0.09-0.139,0.141-0.3,0.205-0.453c0.043-0.228,0.183-0.424,0.178-0.666
		c0.003-0.021,0.009-0.04,0.017-0.062c0.101-0.19,0.113-0.41,0.181-0.614l0,0c0.053-0.083-0.016-0.19,0.044-0.271
		c0.004-0.072-0.015-0.15,0.041-0.214c0.046-0.086-0.012-0.191,0.039-0.277c0.011-0.01,0.012-0.021,0.003-0.034
		c0.049-0.119-0.018-0.253,0.04-0.368c0.012-0.011,0.013-0.021,0.003-0.032c0.027-0.548,0.028-1.098,0-1.645
		c-0.002-0.039-0.004-0.076-0.006-0.116c-0.045-0.086,0.008-0.191-0.036-0.277c0.007-0.013,0.006-0.026-0.005-0.034
		c-0.044-0.072,0.006-0.161-0.038-0.23c0.008-0.014,0.007-0.027-0.004-0.037c-0.023-0.076-0.042-0.151-0.095-0.209
		c-0.052-0.134-0.089-0.268-0.05-0.413c-0.017-0.229-0.089-0.449-0.146-0.669c-0.067-0.212-0.135-0.422-0.202-0.634
		c-0.038-0.073-0.068-0.148-0.082-0.232l0.001,0.002c-0.051-0.059-0.045-0.147-0.092-0.209c-0.053-0.122-0.107-0.245-0.16-0.367
		c-0.039-0.055-0.042-0.132-0.09-0.183c-0.284-0.572-0.599-1.122-1.002-1.609c-0.043-0.04-0.115-0.055-0.11-0.14
		c-0.075-0.142-0.175-0.257-0.295-0.355c-0.063-0.026-0.107-0.074-0.131-0.141c-0.314-0.398-0.705-0.703-1.086-1.02
		c-0.059-0.039-0.105-0.097-0.167-0.13c-0.32-0.19-0.597-0.463-0.954-0.588c-0.091-0.11-0.228-0.139-0.338-0.215
		c-0.166-0.053-0.311-0.172-0.488-0.19c-0.107-0.116-0.252-0.129-0.387-0.171c-0.217-0.093-0.44-0.169-0.668-0.228
		c-0.342-0.102-0.691-0.165-1.04-0.229l0.003,0.002c-0.108-0.055-0.231,0.019-0.338-0.044c-0.021,0-0.042-0.001-0.063-0.001
		c-0.199-0.054-0.405,0.019-0.604-0.041c-0.097-0.019-0.195-0.02-0.292,0c-0.197,0.058-0.404-0.014-0.602,0.041
		c-0.022,0-0.043,0.001-0.064,0.002c-0.108,0.061-0.23-0.011-0.339,0.042l0.003-0.003c-0.313,0.065-0.632,0.106-0.94,0.203
		c-0.048,0.015-0.096-0.004-0.144-0.015c-0.65-0.134-1.308-0.137-1.963-0.107c-0.389,0.018-0.779,0.085-1.167,0.147l-0.019-0.004
		l-0.017,0.009c-0.039,0.034-0.085,0.024-0.129,0.031c-0.187,0.083-0.403,0.027-0.581,0.148c-0.137,0.036-0.271,0.083-0.402,0.135
		c-0.05,0.021-0.1,0.059-0.133-0.022c0-0.062-0.001-0.124-0.002-0.186c0.021-0.191,0.023-0.387,0.126-0.557
		c0.084-0.197,0.182-0.386,0.327-0.542c0.058-0.083,0.125-0.153,0.201-0.219c0.066-0.064,0.103-0.104-0.009-0.186
		c-0.14-0.102-0.237-0.261-0.23-0.458c0.005-0.11-0.059-0.155-0.125-0.205c-0.133-0.072-0.277-0.101-0.42-0.136l-0.013-0.01
		l-0.013,0.006c-0.178-0.031-0.356-0.028-0.534,0l-0.012-0.008l-0.01,0.009c-0.266,0.039-0.517,0.136-0.771,0.222
		c-0.146,0.079-0.312,0.111-0.44,0.228c-0.088,0.048-0.145,0.046-0.123-0.087l0,0.002c0.046-0.051,0.049-0.127,0.087-0.183
		c0.068-0.121,0.136-0.242,0.204-0.363c0.044-0.055,0.085-0.115,0.129-0.171l-0.002,0.002c0.052-0.107,0.151-0.173,0.209-0.274
		c0.027-0.028,0.054-0.056,0.08-0.084c0.054-0.044,0.109-0.09,0.161-0.138c0.168-0.12,0.338-0.24,0.507-0.36
		c0.146-0.048,0.269-0.154,0.424-0.174c0.165-0.047,0.329-0.092,0.493-0.14c0.065-0.047,0.147,0.006,0.214-0.039l-0.005,0.003
		c0.252-0.062,0.508-0.035,0.76-0.023c0.435,0.021,0.846-0.088,1.258-0.201c0.165-0.051,0.333-0.09,0.482-0.184
		c0.07-0.037,0.143-0.061,0.217-0.084l-0.005,0.005c0.055-0.061,0.14-0.054,0.201-0.103c0.091-0.064,0.213-0.053,0.296-0.138
		c0.083-0.024,0.168-0.032,0.25,0.007c0.126,0.062,0.259,0.1,0.4,0.093c0.273,0.056,0.546,0.114,0.804,0.235
		c0.188,0.072,0.378,0.135,0.576,0.167c0.172,0.055,0.354,0.078,0.508,0.191c0.148,0.07,0.299,0.132,0.459,0.165
		c0.188,0.06,0.373,0.126,0.542,0.237c0.156,0.087,0.312,0.172,0.485,0.213c0.128,0.035,0.249,0.09,0.35,0.185
		c0.104,0.074,0.208,0.146,0.334,0.169c0.113,0.061,0.243,0.086,0.333,0.193c0.146,0.089,0.283,0.2,0.444,0.259
		c0.08,0.04,0.168,0.063,0.221,0.149c0.458,0.299,0.891,0.638,1.33,0.968c0.069,0.027,0.113,0.094,0.176,0.13
		c0.546,0.532,1.114,1.041,1.608,1.633c0.181,0.217,0.36,0.437,0.541,0.656c0.081,0.067,0.168,0.127,0.209,0.235
		c0.018,0.015,0.01,0.05,0.04,0.055c-0.021-0.018-0.027-0.047-0.042-0.071c-0.056-0.078-0.075-0.172-0.104-0.261
		c-0.015-0.033-0.029-0.064-0.043-0.098c-0.065-0.098-0.096-0.218-0.166-0.313c-0.167-0.309-0.345-0.609-0.543-0.896
		c-0.036-0.063-0.083-0.117-0.123-0.175c-0.012-0.016-0.026-0.031-0.039-0.047c-0.042-0.058-0.083-0.117-0.128-0.173
		c-0.028-0.031-0.055-0.063-0.082-0.096c-0.059-0.098-0.146-0.169-0.211-0.261c-0.17-0.182-0.34-0.363-0.511-0.543
		c-0.048-0.05-0.101-0.096-0.156-0.137c-0.03-0.03-0.06-0.058-0.09-0.087c-0.053-0.045-0.102-0.095-0.16-0.134
		c-0.072-0.035-0.102-0.135-0.192-0.14c-0.066-0.051-0.104-0.135-0.183-0.17c-0.1-0.077-0.199-0.152-0.299-0.229
		c-0.065-0.048-0.14-0.078-0.202-0.133c-0.137-0.07-0.248-0.19-0.4-0.229c-0.091-0.09-0.2-0.152-0.308-0.213
		c-0.114-0.062-0.228-0.124-0.342-0.185c-0.124-0.059-0.244-0.126-0.369-0.185c-0.16-0.074-0.32-0.149-0.48-0.223
		c-0.119-0.039-0.242-0.066-0.348-0.14l0.004,0.003c-0.074-0.021-0.145-0.05-0.217-0.078c-0.184-0.062-0.369-0.122-0.552-0.182
		c-0.208-0.055-0.412-0.119-0.616-0.184c-0.263-0.074-0.526-0.146-0.791-0.219c-0.139-0.047-0.279-0.088-0.418-0.139
		c-0.263-0.088-0.527-0.177-0.791-0.264c-0.152-0.063-0.309-0.113-0.458-0.18c-0.183-0.075-0.366-0.149-0.547-0.223
		c-0.135-0.067-0.28-0.11-0.413-0.183c-0.126-0.059-0.252-0.118-0.378-0.176c-0.154-0.072-0.302-0.158-0.456-0.231
		c-0.077-0.045-0.153-0.09-0.229-0.134c-0.109-0.043-0.207-0.112-0.311-0.167c-0.583-0.314-1.129-0.695-1.662-1.097
		c-0.021-0.017-0.048-0.023-0.072-0.033c-0.066-0.051-0.104-0.135-0.183-0.17c-0.225-0.195-0.449-0.391-0.674-0.585
		C11.131,11.352,11.067,11.254,10.975,11.195z"/>
	<path fill="#FCFCFC" d="M11.939,17.694c-0.06,0.046-0.126,0.074-0.204,0.072C11.789,17.702,11.857,17.679,11.939,17.694z"/>
	<path fill="#FCFCFC" d="M12.124,17.608c-0.045,0.066-0.116,0.078-0.188,0.089C11.976,17.619,12.048,17.61,12.124,17.608z"/>
	<path fill="#CF1C1F" d="M11.04,18.301c0.006-0.181-0.019-0.361,0.084-0.53c0.168-0.276,0.468-0.389,0.787-0.272
		c0.255,0.094,0.463,0.459,0.419,0.737c-0.054,0.33-0.324,0.589-0.616,0.607c-0.196,0.012-0.358-0.055-0.504-0.184
		c-0.07-0.056-0.122-0.127-0.152-0.216C11.043,18.397,11.08,18.344,11.04,18.301z"/>
	<path fill="#CF1D20" d="M11.011,18.714c0.03,0.057,0.059,0.115,0.091,0.17c0.063,0.104,0.174,0.177,0.001,0.312
		c-0.113,0.086-0.05,0.253,0.045,0.358c0.083,0.092,0.059,0.13-0.031,0.197c-0.098,0.075-0.129,0.043-0.188-0.046
		c-0.281-0.424-0.568-0.843-0.859-1.259c-0.049-0.071-0.09-0.127,0.01-0.166c0.059-0.021,0.111-0.189,0.198-0.017
		c0.059,0.118,0.125,0.23,0.282,0.074c0.098-0.098,0.189,0.049,0.275,0.111c0.035,0.012,0.059,0.039,0.076,0.074
		C10.941,18.588,11.008,18.632,11.011,18.714z"/>
	<path fill="#03FF03" d="M28.686,24.1c0.168-0.301,0.271-0.637,0.409-0.955c0.013-0.071,0.068-0.114,0.094-0.176
		c0.039-0.078,0.083-0.152,0.152-0.203c0.376-0.548,0.69-1.139,1.005-1.726c0.042-0.117,0.103-0.223,0.158-0.333
		c0.084-0.194,0.169-0.389,0.254-0.584c0.046-0.104,0.083-0.21,0.129-0.313c0.067-0.179,0.136-0.357,0.204-0.536
		c0.115-0.008,0.031,0.112,0.08,0.145c-0.005,0.168,0.032,0.325,0.085,0.48c0.107,0.666,0.21,1.331,0.19,2.01
		c-0.001,0.066-0.013,0.134,0.017,0.198c0,0.257,0,0.516,0,0.774c-0.036,0.167-0.01,0.338-0.017,0.506
		c-0.015,0.395-0.048,0.79-0.119,1.179c-0.018,0.099,0.026,0.207-0.035,0.299l0.003-0.004c-0.042,0.071,0.012,0.161-0.04,0.23
		c-0.061,0.23-0.112,0.46-0.128,0.7c-0.049,0.245-0.072,0.498-0.182,0.728c-0.064,0.25-0.129,0.499-0.193,0.751
		c-0.061,0.167-0.083,0.35-0.175,0.503c-0.088,0.183-0.147,0.373-0.201,0.568c-0.027,0.081-0.029,0.175-0.098,0.237
		c-0.228,0.49-0.434,0.995-0.693,1.473c-0.317,0.582-0.641,1.159-1.04,1.686c-0.02,0.027-0.03,0.064-0.045,0.097
		c-0.026,0.08-0.075,0.142-0.141,0.19c-0.05,0.054-0.101,0.107-0.152,0.158c0.098-0.26,0.199-0.521,0.294-0.783
		c0.459-1.268,0.579-2.585,0.545-3.93C29.019,26.334,28.89,25.212,28.686,24.1z"/>
	<path fill="#F76F00" d="M28.328,23.093c-0.179-0.48-0.347-0.966-0.539-1.439c-0.383-0.942-0.874-1.816-1.468-2.624
		c-0.11-0.152-0.215-0.307-0.323-0.46c-0.057-0.131-0.15-0.243-0.173-0.392c-0.042-0.078-0.084-0.157-0.125-0.235
		c-0.042-0.075-0.08-0.153-0.116-0.231l0.001,0.001c-0.072-0.049-0.096-0.135-0.133-0.21c-0.057-0.092-0.112-0.184-0.167-0.276
		c-0.036-0.063-0.084-0.116-0.125-0.176c-0.013-0.016-0.027-0.031-0.04-0.047c-0.039-0.062-0.086-0.118-0.127-0.179l0-0.001
		c-0.084-0.052-0.169-0.107-0.224-0.193c-0.151-0.235-0.378-0.38-0.568-0.57c-0.045-0.044-0.09-0.087-0.136-0.131
		c-0.098-0.031-0.156-0.124-0.239-0.179c-0.1-0.075-0.198-0.149-0.298-0.224c-0.114-0.064-0.21-0.16-0.327-0.222
		c-0.116-0.075-0.231-0.15-0.346-0.227c-0.048-0.034-0.108-0.047-0.155-0.086c-0.124-0.075-0.249-0.152-0.373-0.227
		c-0.125-0.048-0.223-0.147-0.335-0.218c-0.113-0.077-0.226-0.153-0.339-0.23c-0.079-0.06-0.163-0.112-0.244-0.173
		c-0.085-0.061-0.17-0.124-0.255-0.186c-0.112-0.049-0.189-0.152-0.288-0.223c-0.087-0.074-0.175-0.149-0.262-0.224
		c-0.055-0.072-0.169-0.064-0.198-0.171c-0.085-0.078-0.17-0.155-0.255-0.232c-0.069-0.06-0.129-0.129-0.203-0.183
		c-0.248-0.268-0.496-0.534-0.745-0.802c-0.072-0.146-0.25-0.193-0.296-0.363c-0.055-0.073-0.111-0.146-0.168-0.22
		c-0.049-0.11-0.174-0.162-0.202-0.29c-0.071-0.098-0.144-0.194-0.216-0.291c-0.035-0.066-0.089-0.117-0.124-0.183
		c-0.222-0.372-0.443-0.744-0.665-1.115c-0.053-0.068-0.074-0.158-0.127-0.227c-0.166-0.342-0.331-0.685-0.496-1.027
		c-0.063-0.167-0.146-0.323-0.212-0.487c-0.013-0.016-0.027-0.033-0.04-0.051c-0.057-0.048-0.065-0.12-0.081-0.189
		c-0.014-0.055-0.028-0.111-0.042-0.168c-0.039-0.072-0.054-0.154-0.082-0.23l0.002,0.004c-0.045-0.079-0.063-0.173-0.128-0.237
		c-0.021-0.251-0.165-0.459-0.212-0.701c-0.07-0.169-0.109-0.35-0.169-0.523c-0.08-0.243-0.162-0.486-0.244-0.729
		C15.659,5.02,15.65,4.92,15.575,4.861c-0.024-0.197-0.154-0.345-0.212-0.527c-0.049-0.069-0.07-0.156-0.125-0.222
		c-0.176-0.312-0.361-0.614-0.577-0.896c-0.046-0.075-0.115-0.129-0.168-0.196c-0.017-0.067-0.057-0.117-0.102-0.163
		c-0.07-0.059-0.12-0.145-0.207-0.184c-0.034-0.019-0.062-0.044-0.062-0.091c-0.262-0.337-0.582-0.607-0.893-0.89
		c-0.053-0.043-0.101-0.096-0.16-0.131c-0.115-0.066-0.2-0.182-0.327-0.229c-0.049-0.092-0.143-0.12-0.215-0.178
		c-0.11-0.074-0.22-0.148-0.329-0.222C12.134,0.88,12.056,0.85,11.988,0.8c-0.036-0.008-0.064-0.025-0.076-0.065
		c-0.04-0.141,0.062-0.098,0.123-0.11c0.123,0.033,0.254,0.026,0.365,0.106c0.26,0.069,0.519,0.138,0.778,0.207
		c0.191,0.047,0.379,0.1,0.556,0.195c0.153,0.053,0.305,0.107,0.458,0.16c0.158,0.055,0.32,0.092,0.459,0.197
		c0.158,0.084,0.319,0.162,0.491,0.208c0.136,0.047,0.267,0.106,0.384,0.195c0.137,0.075,0.265,0.169,0.417,0.205
		c0.115,0.057,0.243,0.087,0.334,0.191c0.098,0.075,0.201,0.138,0.317,0.172c0.082,0.037,0.168,0.064,0.223,0.147
		c0.155,0.098,0.31,0.196,0.465,0.293c0.052,0.041,0.133,0.032,0.161,0.112c0.536,0.362,1.033,0.784,1.54,1.19
		c0.067,0.036,0.127,0.083,0.171,0.15c0.025,0.026,0.051,0.05,0.077,0.074c0.105,0.055,0.178,0.151,0.255,0.241
		c0.069,0.069,0.138,0.137,0.207,0.205c0.262,0.23,0.499,0.486,0.713,0.765c0.05,0.087,0.115,0.16,0.19,0.223
		c0.073,0.064,0.14,0.136,0.185,0.226c0.302,0.417,0.604,0.834,0.906,1.251c0.086,0.071,0.127,0.175,0.178,0.272
		c0.219,0.387,0.437,0.774,0.654,1.161c0.069,0.036,0.065,0.118,0.098,0.179c0.063,0.134,0.125,0.269,0.188,0.404
		c0.09,0.118,0.127,0.265,0.188,0.399c0.019,0.134,0.09,0.244,0.146,0.362c0.106,0.127,0.122,0.299,0.187,0.445
		c0.041,0.175,0.105,0.338,0.19,0.494c0.083,0.125,0.135,0.265,0.183,0.407c0.263,0.675,0.571,1.326,1.004,1.892
		c1.278,1.675,2.202,3.556,2.878,5.585c0.26,0.78,0.456,1.58,0.588,2.397c0.038,0.036,0.067,0.079,0.08,0.133
		c0.078,0.439,0.126,0.883,0.141,1.33C28.393,22.898,28.407,23.008,28.328,23.093z"/>
	<path fill="#FF00F9" d="M5.684,26.467c-0.102-0.191-0.203-0.384-0.304-0.575c-0.048-0.076-0.088-0.156-0.121-0.239
		c-0.25-0.432-0.437-0.894-0.591-1.372c-0.047-0.14-0.09-0.28-0.164-0.406C4.5,23.652,4.408,23.453,4.361,23.24
		c-0.013-0.056-0.01-0.113-0.023-0.168c-0.29-1.328-0.263-2.657-0.002-3.985c0.045-0.208,0.083-0.419,0.139-0.623
		c0.024-0.085,0.033-0.169,0.034-0.255c0.1-0.172,0.127-0.375,0.205-0.556c0.055-0.153,0.109-0.306,0.165-0.459
		c0.035-0.119,0.079-0.236,0.131-0.348c0.054-0.217,0.208-0.387,0.25-0.609c0.067-0.123,0.14-0.243,0.197-0.373
		c0.008-0.012,0.013-0.025,0.016-0.04c0.087-0.047,0.103,0.02,0.11,0.086c0.011,0.084,0.004,0.171,0.005,0.256
		c-0.001,0.391,0,0.779,0.104,1.158c0.023,0.054,0.015,0.104-0.016,0.151c0.043,0.261,0.093,0.519,0.19,0.765
		c0.062,0.058,0.052,0.153,0.098,0.219c0.251,0.84,0.742,1.507,1.315,2.116c0.029,0.031,0.063,0.054,0.097,0.081
		c0.063,0.041,0.125,0.084,0.167,0.152c0.272,0.257,0.57,0.476,0.865,0.702c0.092,0.024,0.147,0.091,0.178,0.184
		c0.229,0.26,0.431,0.542,0.61,0.845c0.097,0.084,0.123,0.215,0.18,0.327c0.041,0.134,0.083,0.269,0.156,0.39
		c0.105,0.141,0.119,0.327,0.205,0.477c0.008,0.037,0,0.068-0.016,0.099c0.062,0.24,0.124,0.481,0.186,0.721
		c0.103,0.297,0.172,0.592-0.004,0.888c-0.09,0.292-0.152,0.593-0.184,0.899c0.023,0.036,0.027,0.074,0.014,0.116
		c-0.081,0.301-0.108,0.611-0.118,0.92c-0.021,0.674-0.019,1.35,0.079,2.019c0.006,0.04,0.022,0.072,0.039,0.104
		c0.025,0.054,0.018,0.104-0.013,0.153c0.035,0.378,0.152,0.738,0.231,1.108c-0.151,0.01-0.245-0.118-0.361-0.186
		C9.44,30.486,9.3,30.378,9.157,30.279c-0.033-0.035-0.064-0.072-0.103-0.099c-0.066-0.067-0.163-0.095-0.21-0.187
		c-0.06-0.053-0.118-0.109-0.177-0.163c-0.052-0.048-0.109-0.091-0.158-0.143l0.003,0.003c-0.086-0.035-0.132-0.132-0.214-0.171
		c-0.347-0.317-0.693-0.634-1.007-0.988c-0.045-0.037-0.103-0.062-0.12-0.129c-0.082-0.091-0.164-0.183-0.246-0.271
		c-0.042-0.059-0.082-0.118-0.129-0.168c-0.069-0.082-0.137-0.159-0.206-0.237c-0.042-0.075-0.109-0.128-0.167-0.19
		c-0.099-0.145-0.198-0.292-0.296-0.438c-0.035-0.062-0.082-0.115-0.124-0.175c-0.067-0.096-0.134-0.191-0.202-0.287
		C5.711,26.621,5.692,26.549,5.684,26.467z"/>
	<path fill="#E785F9" d="M7.077,13.803c-0.001-0.089-0.003-0.177-0.004-0.266c-0.048-0.089,0.008-0.19-0.037-0.279
		c-0.001-0.071-0.003-0.142-0.004-0.213c-0.047-0.071,0.006-0.161-0.039-0.232c-0.002-0.027-0.003-0.055-0.004-0.082
		c-0.045-0.068,0.007-0.157-0.039-0.226l0.001,0.002c-0.053-0.067,0.005-0.159-0.042-0.228l0.002,0.003
		c-0.062-0.228-0.087-0.467-0.174-0.688c-0.081-0.03-0.082-0.096-0.067-0.169c0.011-0.243-0.15-0.434-0.181-0.663
		c-0.038-0.104-0.067-0.21-0.148-0.289c-0.045-0.047-0.041-0.112-0.054-0.172C6.049,9.73,5.741,9.205,5.372,8.721
		c-0.048-0.063-0.09-0.13-0.134-0.194C5.218,8.483,5.176,8.445,5.199,8.395C5.214,8.361,5.252,8.363,5.281,8.39
		c0.013,0,0.026,0,0.039,0.001C5.469,8.428,5.606,8.5,5.735,8.586C6.112,8.761,6.473,8.977,6.81,9.222
		c0.444,0.322,0.851,0.702,1.172,1.174c0.217,0.319,0.365,0.674,0.493,1.041c0.178,0.438,0.129,0.898,0.101,1.352
		c-0.013,0.207-0.044,0.421-0.144,0.611c-0.078,0.225-0.156,0.449-0.233,0.674c-0.042,0.091-0.06,0.196-0.133,0.269
		c-0.068,0.131-0.136,0.263-0.203,0.396c-0.015,0.079-0.05,0.145-0.116,0.188c-0.184,0.256-0.364,0.516-0.555,0.765
		c-0.048,0.063-0.076,0.188-0.199,0.138c0.044-0.071-0.006-0.16,0.037-0.231c0.002-0.072,0.004-0.146,0.005-0.219
		c0.046-0.085-0.009-0.188,0.038-0.274c0.001-0.119,0.003-0.237,0.005-0.357C7.09,14.434,7.115,14.119,7.077,13.803z"/>
	<path fill-rule="evenodd" clip-rule="evenodd" fill="#FCFC00" d="M28.393,23.137c0.02-0.478-0.061-0.944-0.11-1.416
		c-0.009-0.058,0.032-0.101,0.033-0.155c0.146-1.035,0.086-2.048-0.235-3.038c-0.226-0.698-0.574-1.322-0.934-1.937
		c-0.41-0.701-0.836-1.389-1.256-2.083c-0.242-0.398-0.419-0.833-0.587-1.274c-0.068-0.147-0.104-0.307-0.141-0.465
		c-0.068-0.225-0.139-0.448-0.173-0.683c-0.057-0.214-0.099-0.435-0.133-0.655c-0.06-0.185-0.081-0.379-0.108-0.573
		c-0.043-0.058,0.005-0.136-0.035-0.194l0,0.001c-0.068-0.331-0.118-0.667-0.172-1.002c-0.046-0.214-0.092-0.43-0.138-0.646
		c-0.042-0.167-0.094-0.33-0.139-0.495c-0.055-0.168-0.111-0.334-0.167-0.501c-0.046-0.115-0.097-0.228-0.142-0.345
		c-0.069-0.141-0.137-0.282-0.206-0.424c-0.044-0.056-0.056-0.136-0.105-0.187L23.65,7.06c-0.021-0.03-0.021-0.058,0.006-0.081
		c0.021-0.017,0.042-0.009,0.06,0.008c0.093,0.081,0.198,0.14,0.306,0.19c0.068,0.024,0.128,0.061,0.173,0.125
		c0.525,0.374,1.018,0.796,1.509,1.22c0.056,0.031,0.107,0.071,0.142,0.13c0.04,0.052,0.079,0.106,0.137,0.137
		c0.068,0.043,0.122,0.103,0.173,0.168c0.05,0.067,0.102,0.134,0.172,0.177c0.236,0.224,0.456,0.467,0.655,0.732
		c0.041,0.077,0.1,0.134,0.16,0.19c0.066,0.073,0.139,0.14,0.183,0.234c0.524,0.695,0.995,1.432,1.398,2.221
		c0.06,0.032,0.058,0.104,0.082,0.157c0.035,0.137,0.096,0.26,0.166,0.378c0.072,0.091,0.11,0.203,0.143,0.317
		c0.063,0.175,0.128,0.353,0.192,0.529c0.074,0.089,0.079,0.21,0.116,0.318c0.031,0.196,0.101,0.377,0.159,0.563
		c0.085,0.184,0.113,0.387,0.151,0.586c0.019,0.192,0.048,0.381,0.108,0.563c0.036,0.059-0.007,0.134,0.031,0.193l0-0.001
		c0.135,0.876,0.195,1.758,0.127,2.648c-0.025,0.333-0.048,0.664-0.096,0.995l0.003-0.003c-0.038,0.074,0.011,0.163-0.032,0.235
		c-0.075,0.259-0.104,0.528-0.139,0.797c-0.031,0.17-0.033,0.349-0.118,0.503c-0.064,0.266-0.151,0.526-0.192,0.798
		c-0.03,0.122-0.039,0.25-0.115,0.352c-0.054,0.177-0.129,0.347-0.161,0.532c-0.021,0.096-0.018,0.198-0.071,0.283
		c-0.027,0.055-0.05,0.112-0.06,0.175c-0.074,0.228-0.165,0.448-0.251,0.669c-0.023,0.059-0.038,0.139-0.12,0.142
		C28.561,23.873,28.476,23.505,28.393,23.137z"/>
</g>
<rect x="86" y="16" fill="#00AAFF" width="1" height="28"/>
<g>
	<path fill="#FFFFFF" d="M100.041,23.598c2.434,0,3.474,1.504,3.474,3.233c0,1.633-0.944,3.394-3.474,3.394H96.68
		c-0.176,0-0.271,0.08-0.271,0.271v3.906H94.52v-4.273c0-1.217,0.512-1.713,1.696-1.713h3.89c1.072,0,1.505-0.736,1.505-1.488
		c0-0.785-0.465-1.441-1.489-1.441h-5.618v-1.888H100.041z"/>
	<path fill="#FFFFFF" d="M110.089,25.951c2.112,0,2.945,1.184,2.945,2.785v3.969c0,1.217-0.32,1.697-1.745,1.697h-3.953
		c-2.001,0-2.834-0.977-2.834-2.577c0-1.536,0.769-2.433,2.85-2.433h4.018v-0.641c0-0.656-0.368-1.168-1.297-1.168h-5.058v-1.633
		H110.089z M111.369,32.321v-1.585h-3.985c-0.896,0-1.217,0.369-1.217,0.993s0.336,1.024,1.185,1.024h3.554
		C111.241,32.754,111.369,32.625,111.369,32.321z"/>
	<path fill="#FFFFFF" d="M121.177,25.951v1.633h-2.978c-0.752,0-1.088,0.352-1.088,1.088v5.73h-1.697v-5.986
		c0-1.697,0.625-2.465,2.289-2.465H121.177z"/>
	<path fill="#FFFFFF" d="M123.463,25.951V23.95h1.713v2.001h2.337v1.633h-2.337v4.002c0,0.943,0.336,1.264,1.137,1.264h1.168v1.553
		h-1.521c-1.745,0-2.497-0.704-2.497-2.913v-3.905h-1.152v-1.633H123.463z"/>
	<path fill="#FFFFFF" d="M133.833,25.951c2.865,0,4.258,1.36,4.258,3.697v4.754h-1.713v-4.754c0-1.328-0.769-2.064-2.545-2.064
		h-2.77c-0.144,0-0.208,0.08-0.208,0.24v6.578h-1.696v-7.139c0-0.992,0.336-1.313,1.185-1.313H133.833z"/>
	<path fill="#FFFFFF" d="M145.977,25.951c2.001,0,2.85,0.96,2.85,2.593c0,1.553-0.785,2.433-2.865,2.433h-4.018v0.609
		c0,0.672,0.368,1.168,1.296,1.168h5.17v1.648h-5.17c-2.112,0-2.945-1.185-2.945-2.785v-2.881c0-1.602,0.833-2.785,2.945-2.785
		H145.977z M141.943,29.648h3.969c0.913,0,1.249-0.385,1.249-1.008c0-0.641-0.368-1.057-1.2-1.057h-2.722
		c-0.928,0-1.296,0.512-1.296,1.168V29.648z"/>
	<path fill="#FFFFFF" d="M156.648,25.951v1.633h-2.978c-0.752,0-1.088,0.352-1.088,1.088v5.73h-1.697v-5.986
		c0-1.697,0.625-2.465,2.289-2.465H156.648z"/>
	<path fill="#FFFFFF" d="M165.354,25.951v1.633h-4.674c-0.785,0-1.104,0.32-1.104,0.96c0,0.593,0.256,0.913,1.2,0.913h1.984
		c2.337,0,2.93,1.072,2.93,2.385c0,1.504-0.784,2.561-2.77,2.561h-4.914v-1.648h4.914c0.784,0,1.104-0.272,1.104-0.929
		c0-0.673-0.352-0.944-1.2-0.944h-2.001c-2.337,0-2.913-1.168-2.913-2.465c0-1.521,0.784-2.465,2.753-2.465H165.354z"/>
</g>
</svg>
